M48
; DRILL file KiCad 10.0.7 date 2026-10-10T07:04:19
; FORMAT={-:-/ absolute / metric / decimal}
; #@! TF.CreationDate,2026-10-10T07:04:19-04:00
; #@! TF.GenerationSoftware,Kicad,Pcbnew,10.0.7
; #@! TF.FileFunction,Plated,1,2,PTH
FMAT,2
METRIC
; #@! TA.AperFunction,Plated,PTH,ViaDrill
T1C0.400
; #@! TA.AperFunction,Plated,PTH,ViaDrill
T2C0.500
; #@! TA.AperFunction,Plated,PTH,ComponentDrill
T3C1.000
; #@! TA.AperFunction,Plated,PTH,ComponentDrill
T4C1.700
%
G90
G05
T1
X32.117Y-33.124
X32.117Y-47.79
X46.87Y-54.4
X46.87Y-59.587
X47.426Y-92.057
X47.597Y-51.6
X48.347Y-52.87
X48.347Y-66.162
X48.516Y-50.373
X51.161Y-58.9
X51.161Y-69.567
X51.943Y-60.8
X51.944Y-51.6
X51.944Y-71.3
X52.601Y-49.1
X53.02Y-71.45
X53.02Y-89.175
X53.334Y-49.794
X53.894Y-42.808
X53.962Y-68.533
X53.962Y-74.486
X54.071Y-51.7
X54.249Y-45.225
X54.249Y-48.373
X54.63Y-87.562
X55.928Y-84.605
X56.655Y-79.368
X57.722Y-80.346
X58.245Y-54.062
X58.301Y-49.539
X58.49Y-87.372
X58.593Y-75.443
X58.777Y-70.1
X58.87Y-84.758
X59.431Y-52.466
X59.447Y-51.44
X60.514Y-80.109
X61.169Y-91.087
X61.234Y-92.203
X61.297Y-59.769
X61.905Y-74.805
X62.352Y-89.063
X62.42Y-85.737
X62.705Y-50.849
X63.39Y-68.108
X63.816Y-49.695
X65.252Y-74.9
X65.4Y-78.398
X65.698Y-93.032
X66.136Y-40.95
X66.464Y-74.826
X66.464Y-85.376
X66.495Y-62.15
X66.771Y-58.971
X67.089Y-87.481
X67.147Y-65.35
X67.147Y-73.822
X67.572Y-61.833
X69.273Y-74.8
X69.975Y-35.206
X71.224Y-86.346
X71.232Y-79.6
X71.232Y-83.068
X72.408Y-80.895
X73.973Y-35.658
X74.186Y-52.53
X74.741Y-57.05
X75.149Y-116.915
X75.892Y-66.676
X75.892Y-71.253
X76.009Y-49.065
X77.689Y-63.327
X78.423Y-64.08
X78.741Y-85.986
X79.138Y-58.219
X79.289Y-81.04
X79.333Y-76.152
X79.515Y-61.067
X79.684Y-87.828
X79.86Y-74.651
X81.252Y-48.86
X81.7Y-83.598
X81.938Y-80.577
X82.36Y-62.75
X82.82Y-57.269
X83.077Y-72.072
X83.077Y-81.116
X83.077Y-107.309
X83.238Y-63.567
X84.963Y-50.652
X85.866Y-56.907
X86.506Y-74.701
X86.81Y-59.646
X87.105Y-91.812
X87.528Y-61.54
X87.835Y-75.6
X87.835Y-85.319
X89.49Y-51.993
X89.49Y-65.086
X90.658Y-42.808
X90.658Y-51.086
X92.592Y-47.75
X92.592Y-53.347
X92.832Y-62.69
X92.832Y-66.62
X93.33Y-50.21
X94.097Y-45.225
X96.378Y-109.819
X96.527Y-89.987
X96.858Y-74.55
X97.585Y-79.237
X97.755Y-66.62
X97.772Y-63.024
X97.781Y-64.08
X98.042Y-68.357
X98.326Y-72.629
X98.326Y-86.462
X99.704Y-65.35
X99.747Y-51.437
X100.226Y-101.909
X100.53Y-52.2
X101.026Y-75.382
X101.633Y-50.207
X101.633Y-66.8
X102.364Y-61.116
X104.772Y-48.248
X105.177Y-49.652
X105.438Y-73.135
X105.797Y-52.198
X106.58Y-47.999
X107.599Y-62.167
X109.626Y-57.321
X110.596Y-35.658
X110.596Y-95.819
X110.697Y-44.853
X110.698Y-50.295
X111.876Y-49.274
X112.308Y-45.597
X115.183Y-63.314
X115.946Y-50.214
X116.191Y-48.444
X116.318Y-54.056
X116.318Y-57.796
X116.418Y-77.372
X116.918Y-52.498
X117.302Y-50.229
X117.56Y-54.14
X118.512Y-57.81
X120.778Y-51.579
X121.434Y-50.585
X122.678Y-55.622
X122.678Y-57.908
X123.472Y-61.454
X123.472Y-109.092
X125.316Y-52.891
X125.316Y-67.442
X126.214Y-33.124
X129.066Y-50.612
X129.7Y-108.313
X129.705Y-52.891
X130.303Y-51.437
X131.455Y-59.877
X132.109Y-46.165
X132.273Y-62.179
X133.772Y-50.374
X133.772Y-56.64
X134.078Y-79.237
X134.156Y-35.663
X134.587Y-53.616
X134.79Y-78.484
X134.95Y-43.71
X134.95Y-49.025
X135.133Y-66.29
X135.401Y-52.835
X135.446Y-51.565
X135.679Y-45.734
X136.148Y-57.035
X136.28Y-49.075
X136.647Y-51.6
X137.489Y-61.21
X138.646Y-76.487
X139.524Y-84.783
X139.701Y-44.567
X139.811Y-51.692
X140.012Y-71.99
X140.31Y-69.479
X140.744Y-112.268
X140.904Y-49.695
X140.904Y-53.505
X141.076Y-57.761
X141.802Y-65.496
X141.802Y-78.311
X141.984Y-111.911
X142.043Y-33.719
X142.273Y-67.747
X142.537Y-76.754
X142.548Y-66.29
X142.894Y-111.345
X143.119Y-71.073
X143.628Y-72.0
X143.628Y-83.662
X144.901Y-57.035
X145.23Y-51.6
X145.26Y-76.558
X145.673Y-54.779
X145.7Y-49.911
X146.121Y-47.771
X146.146Y-77.298
X146.319Y-78.357
X146.429Y-35.058
X146.661Y-66.861
X146.747Y-55.323
X146.852Y-54.25
X147.239Y-71.05
X147.344Y-46.031
X147.344Y-52.235
X148.722Y-66.116
X149.497Y-73.25
X149.497Y-84.912
X149.96Y-62.179
X149.96Y-70.385
X150.513Y-66.075
X151.227Y-78.593
X151.464Y-76.885
X151.515Y-66.204
X151.531Y-63.794
X151.659Y-72.423
X152.207Y-81.667
X154.261Y-79.562
X154.656Y-61.818
X154.884Y-67.525
X155.217Y-63.715
X155.582Y-45.304
X155.943Y-50.965
X155.943Y-61.028
X156.588Y-64.985
X156.631Y-63.009
X156.637Y-43.71
X157.531Y-48.425
X158.51Y-81.352
X158.78Y-54.779
X158.944Y-34.319
X158.944Y-52.24
X163.166Y-49.695
X169.674Y-60.8
X174.765Y-55.111
X174.765Y-59.734
X176.065Y-61.818
X180.329Y-57.05
X181.392Y-49.084
X181.906Y-51.765
X185.388Y-54.119
T2
X46.14Y-81.462
X46.453Y-58.323
X46.599Y-72.316
X71.003Y-56.223
X76.186Y-96.889
X76.794Y-69.495
X76.794Y-81.897
X77.054Y-47.795
X84.223Y-100.745
X89.418Y-73.24
X92.61Y-46.56
X93.267Y-84.814
X94.851Y-82.533
X105.181Y-111.624
X110.123Y-60.762
X111.313Y-68.55
X114.55Y-73.95
X118.469Y-77.606
X121.004Y-90.365
X122.17Y-89.792
X129.866Y-64.528
X129.866Y-81.05
X133.16Y-92.727
X133.175Y-57.708
X150.96Y-55.41
X153.242Y-88.521
X168.57Y-46.786
X170.576Y-48.036
T3
X43.6Y-113.2
X46.14Y-113.2
X48.68Y-113.2
X51.22Y-113.2
X53.76Y-113.2
X56.3Y-113.2
X58.84Y-113.2
X61.38Y-113.2
X63.92Y-113.2
X66.46Y-113.2
X69.0Y-113.2
X71.54Y-113.2
X74.08Y-113.2
X76.62Y-113.2
X79.16Y-113.2
X81.7Y-113.2
X84.24Y-113.2
X86.78Y-113.2
X89.32Y-113.2
X96.85Y-113.2
X99.39Y-113.2
X101.93Y-113.2
X104.47Y-113.2
X107.01Y-113.2
X114.55Y-113.2
X117.09Y-113.2
X119.63Y-113.2
X122.17Y-113.2
X129.7Y-113.2
X132.24Y-113.2
X134.78Y-113.2
X137.32Y-113.2
X144.85Y-113.2
X147.39Y-113.2
X149.93Y-113.2
X152.47Y-113.2
T4
X44.2Y-38.6
X48.16Y-38.6
X52.12Y-38.6
X56.08Y-38.6
X60.04Y-38.6
X64.0Y-38.6
X67.96Y-38.6
X71.92Y-38.6
X75.88Y-38.6
X79.84Y-38.6
X88.65Y-38.6
X92.61Y-38.6
X96.57Y-38.6
X100.53Y-38.6
X104.49Y-38.6
X108.45Y-38.6
X112.41Y-38.6
X116.37Y-38.6
X120.33Y-38.6
X124.29Y-38.6
X128.25Y-38.6
X132.21Y-38.6
X136.17Y-38.6
X140.13Y-38.6
X144.09Y-38.6
X152.95Y-38.6
X156.91Y-38.6
X160.65Y-109.55
X160.87Y-38.6
X164.61Y-109.55
X164.83Y-38.6
X168.57Y-109.55
X168.79Y-38.6
X172.53Y-109.55
X172.75Y-38.6
X176.49Y-109.55
X176.71Y-38.6
X180.45Y-109.55
X180.67Y-38.6
X184.63Y-38.6
X188.59Y-38.6
M30
