%TF.GenerationSoftware,KiCad,Pcbnew,10.0.7*%
%TF.CreationDate,2026-10-10T04:56:39-04:00*%
%TF.ProjectId,AC30_SMT,41433330-5f53-44d5-942e-6b696361645f,A*%
%TF.SameCoordinates,Original*%
%TF.FileFunction,Soldermask,Bot*%
%TF.FilePolarity,Negative*%
%FSLAX46Y46*%
G04 Gerber Fmt 4.6, Leading zero omitted, Abs format (unit mm)*
G04 Created by KiCad (PCBNEW 10.0.7) date 2026-10-10 04:56:39*
%MOMM*%
%LPD*%
G01*
G04 APERTURE LIST*
G04 Aperture macros list*
%AMRoundRect*
0 Rectangle with rounded corners*
0 $1 Rounding radius*
0 $2 $3 $4 $5 $6 $7 $8 $9 X,Y pos of 4 corners*
0 Add a 4 corners polygon primitive as box body*
4,1,4,$2,$3,$4,$5,$6,$7,$8,$9,$2,$3,0*
0 Add four circle primitives for the rounded corners*
1,1,$1+$1,$2,$3*
1,1,$1+$1,$4,$5*
1,1,$1+$1,$6,$7*
1,1,$1+$1,$8,$9*
0 Add four rect primitives between the rounded corners*
20,1,$1+$1,$2,$3,$4,$5,0*
20,1,$1+$1,$4,$5,$6,$7,0*
20,1,$1+$1,$6,$7,$8,$9,0*
20,1,$1+$1,$8,$9,$2,$3,0*%
G04 Aperture macros list end*
%ADD10R,1.700000X1.700000*%
%ADD11C,1.700000*%
%ADD12RoundRect,0.250000X-1.330000X-1.800000X1.330000X-1.800000X1.330000X1.800000X-1.330000X1.800000X0*%
%ADD13O,3.160000X4.100000*%
%ADD14C,3.200000*%
G04 APERTURE END LIST*
D10*
%TO.C,J2*%
X96850000Y-113200000D03*
D11*
X99390000Y-113200000D03*
X101930000Y-113200000D03*
X104470000Y-113200000D03*
X107010000Y-113200000D03*
%TD*%
D12*
%TO.C,J12*%
X160650000Y-109550000D03*
D13*
X164610000Y-109550000D03*
X168570000Y-109550000D03*
X172530000Y-109550000D03*
X176490000Y-109550000D03*
X180450000Y-109550000D03*
%TD*%
D10*
%TO.C,J15*%
X144850000Y-113200000D03*
D11*
X147390000Y-113200000D03*
X149930000Y-113200000D03*
X152470000Y-113200000D03*
%TD*%
D10*
%TO.C,J14*%
X129700000Y-113200000D03*
D11*
X132240000Y-113200000D03*
X134780000Y-113200000D03*
X137320000Y-113200000D03*
%TD*%
D12*
%TO.C,J3*%
X44200000Y-38600000D03*
D13*
X48160000Y-38600000D03*
X52120000Y-38600000D03*
X56080000Y-38600000D03*
X60040000Y-38600000D03*
X64000000Y-38600000D03*
X67960000Y-38600000D03*
X71920000Y-38600000D03*
X75880000Y-38600000D03*
X79840000Y-38600000D03*
%TD*%
D12*
%TO.C,J4*%
X88650000Y-38600000D03*
D13*
X92610000Y-38600000D03*
X96570000Y-38600000D03*
X100530000Y-38600000D03*
X104490000Y-38600000D03*
X108450000Y-38600000D03*
X112410000Y-38600000D03*
X116370000Y-38600000D03*
X120330000Y-38600000D03*
X124290000Y-38600000D03*
X128250000Y-38600000D03*
X132210000Y-38600000D03*
X136170000Y-38600000D03*
X140130000Y-38600000D03*
X144090000Y-38600000D03*
%TD*%
D14*
%TO.C,H3*%
X196650000Y-111650000D03*
%TD*%
D10*
%TO.C,J1*%
X43600000Y-113200000D03*
D11*
X46140000Y-113200000D03*
X48680000Y-113200000D03*
X51220000Y-113200000D03*
X53760000Y-113200000D03*
X56300000Y-113200000D03*
X58840000Y-113200000D03*
X61380000Y-113200000D03*
X63920000Y-113200000D03*
X66460000Y-113200000D03*
X69000000Y-113200000D03*
X71540000Y-113200000D03*
X74080000Y-113200000D03*
X76620000Y-113200000D03*
X79160000Y-113200000D03*
X81700000Y-113200000D03*
X84240000Y-113200000D03*
X86780000Y-113200000D03*
X89320000Y-113200000D03*
%TD*%
D14*
%TO.C,H4*%
X36350000Y-111650000D03*
%TD*%
D10*
%TO.C,J13*%
X114550000Y-113200000D03*
D11*
X117090000Y-113200000D03*
X119630000Y-113200000D03*
X122170000Y-113200000D03*
%TD*%
D12*
%TO.C,J5*%
X152950000Y-38600000D03*
D13*
X156910000Y-38600000D03*
X160870000Y-38600000D03*
X164830000Y-38600000D03*
X168790000Y-38600000D03*
X172750000Y-38600000D03*
X176710000Y-38600000D03*
X180670000Y-38600000D03*
X184630000Y-38600000D03*
X188590000Y-38600000D03*
%TD*%
D14*
%TO.C,H1*%
X36350000Y-35850000D03*
%TD*%
%TO.C,H2*%
X196650000Y-35850000D03*
%TD*%
M02*
