M48
; DRILL file KiCad 10.0.7 date 2026-10-10T05:04:53
; FORMAT={-:-/ absolute / metric / decimal}
; #@! TF.CreationDate,2026-10-10T05:04:53-04:00
; #@! TF.GenerationSoftware,Kicad,Pcbnew,10.0.7
; #@! TF.FileFunction,Plated,1,2,PTH
FMAT,2
METRIC
; #@! TA.AperFunction,Plated,PTH,ViaDrill
T1C0.400
; #@! TA.AperFunction,Plated,PTH,ViaDrill
T2C0.500
; #@! TA.AperFunction,Plated,PTH,ComponentDrill
T3C1.000
; #@! TA.AperFunction,Plated,PTH,ComponentDrill
T4C1.700
%
G90
G05
T1
X39.772Y-33.657
X39.772Y-46.569
X46.814Y-54.191
X46.814Y-60.8
X47.314Y-51.6
X47.7Y-47.783
X47.832Y-92.057
X48.041Y-50.052
X48.56Y-54.466
X48.56Y-92.912
X48.589Y-51.6
X49.979Y-61.705
X50.154Y-71.017
X50.18Y-34.413
X51.024Y-42.791
X51.55Y-58.9
X51.55Y-69.87
X51.55Y-71.45
X51.55Y-89.175
X52.453Y-52.687
X52.453Y-66.162
X52.965Y-43.599
X52.965Y-48.425
X53.423Y-85.236
X53.699Y-49.127
X54.015Y-44.326
X54.356Y-87.562
X54.668Y-74.954
X54.673Y-80.441
X54.691Y-49.583
X55.488Y-67.079
X56.577Y-73.144
X57.698Y-80.346
X57.893Y-55.129
X58.123Y-52.911
X58.524Y-86.236
X58.585Y-75.435
X58.777Y-47.714
X58.936Y-84.704
X59.015Y-41.161
X59.5Y-51.6
X59.589Y-50.486
X60.322Y-59.05
X60.494Y-80.296
X61.188Y-91.087
X61.439Y-74.703
X61.469Y-84.454
X61.926Y-59.299
X61.926Y-62.15
X62.464Y-68.362
X62.982Y-49.06
X63.492Y-70.1
X64.888Y-65.35
X64.888Y-86.65
X65.78Y-88.967
X65.833Y-74.464
X68.816Y-74.603
X68.816Y-92.912
X69.288Y-46.871
X69.288Y-53.373
X70.255Y-115.84
X70.456Y-90.919
X70.805Y-63.254
X71.03Y-50.227
X71.232Y-85.379
X71.234Y-77.606
X71.54Y-116.517
X72.222Y-90.192
X72.323Y-80.591
X73.145Y-79.6
X74.686Y-41.105
X74.783Y-57.933
X74.826Y-85.559
X75.563Y-83.228
X75.879Y-48.438
X76.228Y-76.507
X76.46Y-64.351
X77.168Y-49.708
X77.201Y-79.41
X77.636Y-62.75
X77.842Y-83.485
X78.031Y-64.29
X78.137Y-84.495
X78.295Y-80.153
X78.299Y-75.702
X78.392Y-71.453
X78.592Y-73.115
X79.38Y-70.614
X79.644Y-74.895
X80.088Y-83.133
X80.822Y-87.981
X81.813Y-51.885
X82.688Y-82.097
X82.688Y-108.352
X83.842Y-76.191
X85.814Y-53.377
X85.877Y-57.298
X86.805Y-54.336
X86.991Y-62.18
X86.991Y-91.812
X88.368Y-50.652
X88.439Y-65.289
X88.443Y-73.895
X88.73Y-81.944
X88.73Y-86.462
X88.937Y-71.156
X89.447Y-74.798
X89.465Y-78.372
X89.465Y-89.175
X89.53Y-50.608
X90.524Y-41.105
X90.914Y-76.86
X90.914Y-83.52
X91.816Y-43.195
X91.954Y-71.254
X92.428Y-49.532
X92.723Y-89.9
X93.258Y-62.81
X93.264Y-64.077
X93.424Y-57.86
X93.487Y-66.461
X93.491Y-79.182
X93.491Y-106.828
X93.701Y-47.75
X94.204Y-68.362
X94.569Y-66.62
X94.59Y-36.776
X94.937Y-43.634
X95.386Y-58.662
X95.737Y-60.414
X96.18Y-86.398
X96.595Y-73.073
X96.93Y-79.322
X97.731Y-46.007
X98.746Y-80.815
X100.58Y-63.768
X100.58Y-67.328
X101.276Y-51.901
X101.276Y-59.561
X101.611Y-66.889
X101.719Y-64.715
X101.93Y-106.761
X103.001Y-57.741
X103.001Y-65.708
X103.225Y-46.842
X103.668Y-72.647
X103.775Y-61.885
X104.013Y-68.229
X104.961Y-51.782
X104.961Y-57.741
X105.122Y-64.398
X105.749Y-73.587
X106.141Y-69.932
X106.25Y-58.662
X106.328Y-61.516
X106.414Y-54.928
X106.43Y-62.518
X107.842Y-57.581
X108.901Y-67.02
X109.747Y-45.175
X109.777Y-55.375
X110.517Y-45.962
X110.517Y-49.693
X111.125Y-62.518
X111.428Y-47.74
X112.129Y-51.6
X112.52Y-64.398
X112.639Y-56.416
X112.761Y-49.725
X114.55Y-73.95
X115.638Y-68.55
X115.638Y-109.433
X115.901Y-54.443
X116.253Y-49.06
X116.715Y-51.959
X117.342Y-52.858
X117.483Y-62.456
X117.51Y-50.247
X117.51Y-54.676
X118.211Y-70.856
X118.469Y-77.606
X119.419Y-88.207
X120.146Y-107.555
X120.761Y-55.408
X122.17Y-89.667
X123.171Y-57.902
X123.462Y-61.166
X123.805Y-50.222
X123.938Y-80.815
X124.017Y-52.87
X125.645Y-51.69
X127.128Y-57.902
X128.831Y-51.565
X130.243Y-64.564
X130.243Y-80.034
X130.243Y-108.391
X133.361Y-42.17
X133.473Y-83.018
X134.13Y-33.657
X134.201Y-44.12
X134.201Y-50.166
X134.214Y-51.308
X134.214Y-66.29
X134.94Y-53.269
X134.94Y-58.29
X134.986Y-45.175
X134.986Y-52.024
X135.149Y-82.388
X135.668Y-54.541
X135.668Y-69.591
X135.79Y-49.156
X136.486Y-50.33
X136.486Y-56.496
X136.592Y-62.77
X137.266Y-83.002
X137.266Y-106.761
X137.329Y-45.328
X138.007Y-71.05
X138.007Y-76.487
X138.203Y-61.21
X138.347Y-63.59
X139.21Y-44.731
X139.408Y-72.0
X139.408Y-80.181
X139.976Y-57.696
X140.734Y-112.288
X140.787Y-51.827
X141.446Y-47.77
X141.659Y-54.869
X141.695Y-111.832
X142.032Y-65.02
X142.032Y-78.312
X142.724Y-111.262
X142.759Y-77.372
X142.853Y-62.685
X143.595Y-66.29
X143.789Y-83.662
X145.033Y-51.6
X145.581Y-77.582
X145.593Y-83.087
X145.8Y-76.286
X146.303Y-35.922
X146.303Y-47.95
X147.61Y-50.33
X147.61Y-58.462
X148.797Y-34.413
X148.799Y-71.05
X149.527Y-72.0
X149.96Y-62.179
X150.089Y-78.604
X150.413Y-66.89
X150.475Y-42.17
X150.854Y-54.118
X151.493Y-55.36
X151.497Y-58.378
X151.626Y-66.036
X152.166Y-71.388
X152.166Y-81.727
X152.349Y-53.813
X153.076Y-46.033
X154.261Y-79.562
X154.784Y-70.818
X154.784Y-76.998
X155.176Y-68.707
X155.633Y-65.104
X155.943Y-50.965
X155.943Y-60.642
X156.652Y-62.979
X156.774Y-43.597
X156.774Y-53.505
X157.164Y-73.009
X158.17Y-84.665
X159.438Y-80.081
X159.612Y-64.35
X163.166Y-49.695
X169.353Y-60.723
X171.683Y-54.779
X174.803Y-35.193
X174.803Y-51.633
X174.803Y-60.8
X176.941Y-52.238
X176.941Y-57.05
X181.392Y-49.084
X184.854Y-54.653
T2
X46.367Y-81.462
X46.453Y-58.323
X66.739Y-51.605
X66.739Y-100.745
X76.636Y-47.536
X86.086Y-104.602
X93.321Y-45.263
X96.85Y-94.75
X101.315Y-79.101
X101.697Y-71.553
X110.587Y-60.65
X133.16Y-92.727
X148.588Y-67.341
X153.242Y-88.521
X160.145Y-75.552
X160.897Y-55.41
X166.495Y-47.598
X170.28Y-48.037
T3
X43.6Y-113.2
X46.14Y-113.2
X48.68Y-113.2
X51.22Y-113.2
X53.76Y-113.2
X56.3Y-113.2
X58.84Y-113.2
X61.38Y-113.2
X63.92Y-113.2
X66.46Y-113.2
X69.0Y-113.2
X71.54Y-113.2
X74.08Y-113.2
X76.62Y-113.2
X79.16Y-113.2
X81.7Y-113.2
X84.24Y-113.2
X86.78Y-113.2
X89.32Y-113.2
X96.85Y-113.2
X99.39Y-113.2
X101.93Y-113.2
X104.47Y-113.2
X107.01Y-113.2
X114.55Y-113.2
X117.09Y-113.2
X119.63Y-113.2
X122.17Y-113.2
X129.7Y-113.2
X132.24Y-113.2
X134.78Y-113.2
X137.32Y-113.2
X144.85Y-113.2
X147.39Y-113.2
X149.93Y-113.2
X152.47Y-113.2
T4
X44.2Y-38.6
X48.16Y-38.6
X52.12Y-38.6
X56.08Y-38.6
X60.04Y-38.6
X64.0Y-38.6
X67.96Y-38.6
X71.92Y-38.6
X75.88Y-38.6
X79.84Y-38.6
X88.65Y-38.6
X92.61Y-38.6
X96.57Y-38.6
X100.53Y-38.6
X104.49Y-38.6
X108.45Y-38.6
X112.41Y-38.6
X116.37Y-38.6
X120.33Y-38.6
X124.29Y-38.6
X128.25Y-38.6
X132.21Y-38.6
X136.17Y-38.6
X140.13Y-38.6
X144.09Y-38.6
X152.95Y-38.6
X156.91Y-38.6
X160.65Y-109.55
X160.87Y-38.6
X164.61Y-109.55
X164.83Y-38.6
X168.57Y-109.55
X168.79Y-38.6
X172.53Y-109.55
X172.75Y-38.6
X176.49Y-109.55
X176.71Y-38.6
X180.45Y-109.55
X180.67Y-38.6
X184.63Y-38.6
X188.59Y-38.6
M30
