%TF.GenerationSoftware,KiCad,Pcbnew,10.0.7*%
%TF.CreationDate,2026-10-10T07:04:19-04:00*%
%TF.ProjectId,AC30_SMT,41433330-5f53-44d5-942e-6b696361645f,A*%
%TF.SameCoordinates,PX1c9c380PY7088980*%
%TF.FileFunction,Paste,Top*%
%TF.FilePolarity,Positive*%
%FSLAX46Y46*%
G04 Gerber Fmt 4.6, Leading zero omitted, Abs format (unit mm)*
G04 Created by KiCad (PCBNEW 10.0.7) date 2026-10-10 07:04:19*
%MOMM*%
%LPD*%
G01*
G04 APERTURE LIST*
G04 Aperture macros list*
%AMRoundRect*
0 Rectangle with rounded corners*
0 $1 Rounding radius*
0 $2 $3 $4 $5 $6 $7 $8 $9 X,Y pos of 4 corners*
0 Add a 4 corners polygon primitive as box body*
4,1,4,$2,$3,$4,$5,$6,$7,$8,$9,$2,$3,0*
0 Add four circle primitives for the rounded corners*
1,1,$1+$1,$2,$3*
1,1,$1+$1,$4,$5*
1,1,$1+$1,$6,$7*
1,1,$1+$1,$8,$9*
0 Add four rect primitives between the rounded corners*
20,1,$1+$1,$2,$3,$4,$5,0*
20,1,$1+$1,$4,$5,$6,$7,0*
20,1,$1+$1,$6,$7,$8,$9,0*
20,1,$1+$1,$8,$9,$2,$3,0*%
G04 Aperture macros list end*
%ADD10RoundRect,0.150000X-0.587500X-0.150000X0.587500X-0.150000X0.587500X0.150000X-0.587500X0.150000X0*%
%ADD11RoundRect,0.150000X-0.825000X-0.150000X0.825000X-0.150000X0.825000X0.150000X-0.825000X0.150000X0*%
%ADD12RoundRect,0.250000X0.450000X-0.262500X0.450000X0.262500X-0.450000X0.262500X-0.450000X-0.262500X0*%
%ADD13RoundRect,0.250000X0.445000X-0.457500X0.445000X0.457500X-0.445000X0.457500X-0.445000X-0.457500X0*%
%ADD14RoundRect,0.250000X0.625000X-0.375000X0.625000X0.375000X-0.625000X0.375000X-0.625000X-0.375000X0*%
%ADD15RoundRect,0.250000X0.475000X-0.250000X0.475000X0.250000X-0.475000X0.250000X-0.475000X-0.250000X0*%
%ADD16RoundRect,0.250000X-0.400000X-0.400000X0.400000X-0.400000X0.400000X0.400000X-0.400000X0.400000X0*%
%ADD17RoundRect,0.250000X-0.750000X-0.400000X0.750000X-0.400000X0.750000X0.400000X-0.750000X0.400000X0*%
%ADD18RoundRect,0.225000X0.375000X-0.225000X0.375000X0.225000X-0.375000X0.225000X-0.375000X-0.225000X0*%
%ADD19R,1.800000X0.800000*%
%ADD20RoundRect,0.250000X0.550000X-1.500000X0.550000X1.500000X-0.550000X1.500000X-0.550000X-1.500000X0*%
G04 APERTURE END LIST*
D10*
%TO.C,Q6*%
X145862500Y-71050000D03*
X145862500Y-72950000D03*
X147737500Y-72000000D03*
%TD*%
D11*
%TO.C,IC6*%
X103225000Y-47755000D03*
X103225000Y-49025000D03*
X103225000Y-50295000D03*
X103225000Y-51565000D03*
X103225000Y-52835000D03*
X103225000Y-54105000D03*
X103225000Y-55375000D03*
X103225000Y-56645000D03*
X108175000Y-56645000D03*
X108175000Y-55375000D03*
X108175000Y-54105000D03*
X108175000Y-52835000D03*
X108175000Y-51565000D03*
X108175000Y-50295000D03*
X108175000Y-49025000D03*
X108175000Y-47755000D03*
%TD*%
%TO.C,IC12*%
X149225000Y-47790000D03*
X149225000Y-49060000D03*
X149225000Y-50330000D03*
X149225000Y-51600000D03*
X149225000Y-52870000D03*
X149225000Y-54140000D03*
X149225000Y-55410000D03*
X154175000Y-55410000D03*
X154175000Y-54140000D03*
X154175000Y-52870000D03*
X154175000Y-51600000D03*
X154175000Y-50330000D03*
X154175000Y-49060000D03*
X154175000Y-47790000D03*
%TD*%
D12*
%TO.C,R31*%
X139950000Y-83662500D03*
X139950000Y-81837500D03*
%TD*%
%TO.C,R8*%
X84550000Y-57012500D03*
X84550000Y-55187500D03*
%TD*%
D13*
%TO.C,C4*%
X87050000Y-50652500D03*
X87050000Y-47947500D03*
%TD*%
D12*
%TO.C,R23*%
X80650000Y-81462500D03*
X80650000Y-79637500D03*
%TD*%
%TO.C,R42*%
X113950000Y-60762500D03*
X113950000Y-58937500D03*
%TD*%
D11*
%TO.C,IC4*%
X69225000Y-47795000D03*
X69225000Y-49065000D03*
X69225000Y-50335000D03*
X69225000Y-51605000D03*
X74175000Y-51605000D03*
X74175000Y-50335000D03*
X74175000Y-49065000D03*
X74175000Y-47795000D03*
%TD*%
D12*
%TO.C,R10*%
X92350000Y-57012500D03*
X92350000Y-55187500D03*
%TD*%
%TO.C,R22*%
X108800000Y-75412500D03*
X108800000Y-73587500D03*
%TD*%
D11*
%TO.C,IC1*%
X34225000Y-47790000D03*
X34225000Y-49060000D03*
X34225000Y-50330000D03*
X34225000Y-51600000D03*
X34225000Y-52870000D03*
X34225000Y-54140000D03*
X34225000Y-55410000D03*
X39175000Y-55410000D03*
X39175000Y-54140000D03*
X39175000Y-52870000D03*
X39175000Y-51600000D03*
X39175000Y-50330000D03*
X39175000Y-49060000D03*
X39175000Y-47790000D03*
%TD*%
D12*
%TO.C,R3*%
X94850000Y-91812500D03*
X94850000Y-89987500D03*
%TD*%
D14*
%TO.C,D18*%
X91150000Y-75600000D03*
X91150000Y-72800000D03*
%TD*%
D15*
%TO.C,C18*%
X179000000Y-57050000D03*
X179000000Y-55150000D03*
%TD*%
D12*
%TO.C,R2*%
X90950000Y-91812500D03*
X90950000Y-89987500D03*
%TD*%
D15*
%TO.C,C2*%
X91100000Y-49650000D03*
X91100000Y-47750000D03*
%TD*%
D13*
%TO.C,C17*%
X188450000Y-50652500D03*
X188450000Y-47947500D03*
%TD*%
D12*
%TO.C,R45*%
X121750000Y-60762500D03*
X121750000Y-58937500D03*
%TD*%
D15*
%TO.C,C24*%
X130950000Y-94750000D03*
X130950000Y-92850000D03*
%TD*%
D12*
%TO.C,R43*%
X90950000Y-86462500D03*
X90950000Y-84637500D03*
%TD*%
D16*
%TO.C,R16*%
X58650000Y-59050000D03*
D17*
X57500000Y-64550000D03*
D16*
X56350000Y-59050000D03*
%TD*%
D10*
%TO.C,Q4*%
X103012500Y-73550000D03*
X103012500Y-75450000D03*
X104887500Y-74500000D03*
%TD*%
%TO.C,Q2*%
X45012500Y-64300000D03*
X45012500Y-66200000D03*
X46887500Y-65250000D03*
%TD*%
D18*
%TO.C,D10*%
X103150000Y-70100000D03*
X103150000Y-66800000D03*
%TD*%
D15*
%TO.C,C23*%
X127000000Y-94750000D03*
X127000000Y-92850000D03*
%TD*%
D12*
%TO.C,R36*%
X160750000Y-79562500D03*
X160750000Y-77737500D03*
%TD*%
%TO.C,R33*%
X84550000Y-86862500D03*
X84550000Y-85037500D03*
%TD*%
D18*
%TO.C,D2*%
X82850000Y-51000000D03*
X82850000Y-47700000D03*
%TD*%
D12*
%TO.C,R41*%
X156850000Y-84912500D03*
X156850000Y-83087500D03*
%TD*%
D15*
%TO.C,C10*%
X63900000Y-76800000D03*
X63900000Y-74900000D03*
%TD*%
D11*
%TO.C,IC15*%
X168225000Y-47790000D03*
X168225000Y-49060000D03*
X168225000Y-50330000D03*
X168225000Y-51600000D03*
X168225000Y-52870000D03*
X168225000Y-54140000D03*
X168225000Y-55410000D03*
X173175000Y-55410000D03*
X173175000Y-54140000D03*
X173175000Y-52870000D03*
X173175000Y-51600000D03*
X173175000Y-50330000D03*
X173175000Y-49060000D03*
X173175000Y-47790000D03*
%TD*%
D12*
%TO.C,R13*%
X59850000Y-87562500D03*
X59850000Y-85737500D03*
%TD*%
D15*
%TO.C,C11*%
X48950000Y-60800000D03*
X48950000Y-58900000D03*
%TD*%
D18*
%TO.C,D6*%
X127150000Y-64400000D03*
X127150000Y-61100000D03*
%TD*%
D12*
%TO.C,R21*%
X48850000Y-71562500D03*
X48850000Y-69737500D03*
%TD*%
%TO.C,R17*%
X55950000Y-92912500D03*
X55950000Y-91087500D03*
%TD*%
%TO.C,R35*%
X156850000Y-79562500D03*
X156850000Y-77737500D03*
%TD*%
D18*
%TO.C,D7*%
X131450000Y-64400000D03*
X131450000Y-61100000D03*
%TD*%
D15*
%TO.C,C1*%
X95250000Y-74550000D03*
X95250000Y-72650000D03*
%TD*%
D12*
%TO.C,R44*%
X117850000Y-60762500D03*
X117850000Y-58937500D03*
%TD*%
D15*
%TO.C,C9*%
X45000000Y-60800000D03*
X45000000Y-58900000D03*
%TD*%
D19*
%TO.C,RLY2*%
X127150000Y-81050000D03*
X127150000Y-84250000D03*
X127150000Y-86450000D03*
X127150000Y-88650000D03*
X134150000Y-88650000D03*
X134150000Y-86450000D03*
X134150000Y-84250000D03*
X134150000Y-81050000D03*
%TD*%
D12*
%TO.C,R27*%
X76750000Y-86862500D03*
X76750000Y-85037500D03*
%TD*%
%TO.C,R47*%
X117850000Y-66112500D03*
X117850000Y-64287500D03*
%TD*%
D11*
%TO.C,IC10*%
X179225000Y-47795000D03*
X179225000Y-49065000D03*
X179225000Y-50335000D03*
X179225000Y-51605000D03*
X184175000Y-51605000D03*
X184175000Y-50335000D03*
X184175000Y-49065000D03*
X184175000Y-47795000D03*
%TD*%
%TO.C,IC8*%
X69225000Y-61540000D03*
X69225000Y-62810000D03*
X69225000Y-64080000D03*
X69225000Y-65350000D03*
X69225000Y-66620000D03*
X69225000Y-67890000D03*
X69225000Y-69160000D03*
X74175000Y-69160000D03*
X74175000Y-67890000D03*
X74175000Y-66620000D03*
X74175000Y-65350000D03*
X74175000Y-64080000D03*
X74175000Y-62810000D03*
X74175000Y-61540000D03*
%TD*%
D12*
%TO.C,R9*%
X88450000Y-57012500D03*
X88450000Y-55187500D03*
%TD*%
D11*
%TO.C,IC13*%
X114225000Y-47790000D03*
X114225000Y-49060000D03*
X114225000Y-50330000D03*
X114225000Y-51600000D03*
X114225000Y-52870000D03*
X114225000Y-54140000D03*
X114225000Y-55410000D03*
X119175000Y-55410000D03*
X119175000Y-54140000D03*
X119175000Y-52870000D03*
X119175000Y-51600000D03*
X119175000Y-50330000D03*
X119175000Y-49060000D03*
X119175000Y-47790000D03*
%TD*%
D12*
%TO.C,R11*%
X96250000Y-57012500D03*
X96250000Y-55187500D03*
%TD*%
D20*
%TO.C,C16*%
X80950000Y-68150000D03*
X80950000Y-62750000D03*
%TD*%
D12*
%TO.C,R19*%
X59850000Y-92912500D03*
X59850000Y-91087500D03*
%TD*%
D10*
%TO.C,Q9*%
X69012500Y-79600000D03*
X69012500Y-81500000D03*
X70887500Y-80550000D03*
%TD*%
%TO.C,Q3*%
X61862500Y-80300000D03*
X61862500Y-82200000D03*
X63737500Y-81250000D03*
%TD*%
D12*
%TO.C,R46*%
X113950000Y-66112500D03*
X113950000Y-64287500D03*
%TD*%
%TO.C,R1*%
X94850000Y-86462500D03*
X94850000Y-84637500D03*
%TD*%
D15*
%TO.C,C14*%
X81200000Y-74800000D03*
X81200000Y-72900000D03*
%TD*%
%TO.C,C19*%
X168000000Y-60800000D03*
X168000000Y-58900000D03*
%TD*%
D10*
%TO.C,Q1*%
X56012500Y-80300000D03*
X56012500Y-82200000D03*
X57887500Y-81250000D03*
%TD*%
D18*
%TO.C,D8*%
X103150000Y-63400000D03*
X103150000Y-60100000D03*
%TD*%
D15*
%TO.C,C25*%
X134900000Y-94750000D03*
X134900000Y-92850000D03*
%TD*%
D18*
%TO.C,D4*%
X56150000Y-71450000D03*
X56150000Y-68150000D03*
%TD*%
D12*
%TO.C,R40*%
X94900000Y-81062500D03*
X94900000Y-79237500D03*
%TD*%
D18*
%TO.C,D1*%
X78550000Y-51000000D03*
X78550000Y-47700000D03*
%TD*%
D12*
%TO.C,R7*%
X80650000Y-57012500D03*
X80650000Y-55187500D03*
%TD*%
D18*
%TO.C,D5*%
X69150000Y-76150000D03*
X69150000Y-72850000D03*
%TD*%
D12*
%TO.C,R4*%
X68950000Y-57012500D03*
X68950000Y-55187500D03*
%TD*%
D15*
%TO.C,C13*%
X77250000Y-74800000D03*
X77250000Y-72900000D03*
%TD*%
D12*
%TO.C,R34*%
X152950000Y-79562500D03*
X152950000Y-77737500D03*
%TD*%
D18*
%TO.C,D9*%
X107450000Y-63400000D03*
X107450000Y-60100000D03*
%TD*%
D12*
%TO.C,R32*%
X80650000Y-86862500D03*
X80650000Y-85037500D03*
%TD*%
%TO.C,R29*%
X143850000Y-78312500D03*
X143850000Y-76487500D03*
%TD*%
D19*
%TO.C,RLY1*%
X127150000Y-68550000D03*
X127150000Y-71750000D03*
X127150000Y-73950000D03*
X127150000Y-76150000D03*
X134150000Y-76150000D03*
X134150000Y-73950000D03*
X134150000Y-71750000D03*
X134150000Y-68550000D03*
%TD*%
D11*
%TO.C,IC5*%
X91225000Y-61540000D03*
X91225000Y-62810000D03*
X91225000Y-64080000D03*
X91225000Y-65350000D03*
X91225000Y-66620000D03*
X91225000Y-67890000D03*
X91225000Y-69160000D03*
X96175000Y-69160000D03*
X96175000Y-67890000D03*
X96175000Y-66620000D03*
X96175000Y-65350000D03*
X96175000Y-64080000D03*
X96175000Y-62810000D03*
X96175000Y-61540000D03*
%TD*%
D12*
%TO.C,R6*%
X76750000Y-57012500D03*
X76750000Y-55187500D03*
%TD*%
%TO.C,R14*%
X50800000Y-66162500D03*
X50800000Y-64337500D03*
%TD*%
D18*
%TO.C,D11*%
X107450000Y-70100000D03*
X107450000Y-66800000D03*
%TD*%
D15*
%TO.C,C20*%
X171950000Y-60800000D03*
X171950000Y-58900000D03*
%TD*%
D10*
%TO.C,Q10*%
X74862500Y-79600000D03*
X74862500Y-81500000D03*
X76737500Y-80550000D03*
%TD*%
D12*
%TO.C,R30*%
X147750000Y-78312500D03*
X147750000Y-76487500D03*
%TD*%
%TO.C,R5*%
X72850000Y-57012500D03*
X72850000Y-55187500D03*
%TD*%
%TO.C,R28*%
X139950000Y-78312500D03*
X139950000Y-76487500D03*
%TD*%
D15*
%TO.C,C15*%
X85150000Y-74800000D03*
X85150000Y-72900000D03*
%TD*%
%TO.C,C8*%
X59950000Y-76800000D03*
X59950000Y-74900000D03*
%TD*%
D12*
%TO.C,R25*%
X68950000Y-86862500D03*
X68950000Y-85037500D03*
%TD*%
D15*
%TO.C,C3*%
X91000000Y-81100000D03*
X91000000Y-79200000D03*
%TD*%
D10*
%TO.C,Q5*%
X140012500Y-71050000D03*
X140012500Y-72950000D03*
X141887500Y-72000000D03*
%TD*%
%TO.C,Q7*%
X153012500Y-72300000D03*
X153012500Y-74200000D03*
X154887500Y-73250000D03*
%TD*%
D12*
%TO.C,R38*%
X188750000Y-57012500D03*
X188750000Y-55187500D03*
%TD*%
D15*
%TO.C,C12*%
X73300000Y-74800000D03*
X73300000Y-72900000D03*
%TD*%
D11*
%TO.C,IC2*%
X45225000Y-47790000D03*
X45225000Y-49060000D03*
X45225000Y-50330000D03*
X45225000Y-51600000D03*
X45225000Y-52870000D03*
X45225000Y-54140000D03*
X45225000Y-55410000D03*
X50175000Y-55410000D03*
X50175000Y-54140000D03*
X50175000Y-52870000D03*
X50175000Y-51600000D03*
X50175000Y-50330000D03*
X50175000Y-49060000D03*
X50175000Y-47790000D03*
%TD*%
D18*
%TO.C,D3*%
X63150000Y-62150000D03*
X63150000Y-58850000D03*
%TD*%
D15*
%TO.C,C6*%
X60300000Y-70100000D03*
X60300000Y-68200000D03*
%TD*%
D11*
%TO.C,IC7*%
X153225000Y-59905000D03*
X153225000Y-61175000D03*
X153225000Y-62445000D03*
X153225000Y-63715000D03*
X153225000Y-64985000D03*
X153225000Y-66255000D03*
X153225000Y-67525000D03*
X153225000Y-68795000D03*
X158175000Y-68795000D03*
X158175000Y-67525000D03*
X158175000Y-66255000D03*
X158175000Y-64985000D03*
X158175000Y-63715000D03*
X158175000Y-62445000D03*
X158175000Y-61175000D03*
X158175000Y-59905000D03*
%TD*%
D12*
%TO.C,R15*%
X63750000Y-87562500D03*
X63750000Y-85737500D03*
%TD*%
%TO.C,R26*%
X72850000Y-86862500D03*
X72850000Y-85037500D03*
%TD*%
D11*
%TO.C,IC14*%
X127225000Y-47755000D03*
X127225000Y-49025000D03*
X127225000Y-50295000D03*
X127225000Y-51565000D03*
X127225000Y-52835000D03*
X127225000Y-54105000D03*
X127225000Y-55375000D03*
X127225000Y-56645000D03*
X132175000Y-56645000D03*
X132175000Y-55375000D03*
X132175000Y-54105000D03*
X132175000Y-52835000D03*
X132175000Y-51565000D03*
X132175000Y-50295000D03*
X132175000Y-49025000D03*
X132175000Y-47755000D03*
%TD*%
D12*
%TO.C,R18*%
X44950000Y-71562500D03*
X44950000Y-69737500D03*
%TD*%
D10*
%TO.C,Q11*%
X182962500Y-55150000D03*
X182962500Y-57050000D03*
X184837500Y-56100000D03*
%TD*%
D11*
%TO.C,IC9*%
X140225000Y-59940000D03*
X140225000Y-61210000D03*
X140225000Y-62480000D03*
X140225000Y-63750000D03*
X140225000Y-65020000D03*
X140225000Y-66290000D03*
X140225000Y-67560000D03*
X145175000Y-67560000D03*
X145175000Y-66290000D03*
X145175000Y-65020000D03*
X145175000Y-63750000D03*
X145175000Y-62480000D03*
X145175000Y-61210000D03*
X145175000Y-59940000D03*
%TD*%
D15*
%TO.C,C5*%
X95050000Y-49650000D03*
X95050000Y-47750000D03*
%TD*%
D12*
%TO.C,R37*%
X152950000Y-84912500D03*
X152950000Y-83087500D03*
%TD*%
%TO.C,R12*%
X55950000Y-87562500D03*
X55950000Y-85737500D03*
%TD*%
%TO.C,R24*%
X84550000Y-81462500D03*
X84550000Y-79637500D03*
%TD*%
D10*
%TO.C,Q8*%
X158862500Y-72300000D03*
X158862500Y-74200000D03*
X160737500Y-73250000D03*
%TD*%
D12*
%TO.C,R20*%
X63750000Y-92912500D03*
X63750000Y-91087500D03*
%TD*%
D11*
%TO.C,IC11*%
X138225000Y-47790000D03*
X138225000Y-49060000D03*
X138225000Y-50330000D03*
X138225000Y-51600000D03*
X138225000Y-52870000D03*
X138225000Y-54140000D03*
X138225000Y-55410000D03*
X143175000Y-55410000D03*
X143175000Y-54140000D03*
X143175000Y-52870000D03*
X143175000Y-51600000D03*
X143175000Y-50330000D03*
X143175000Y-49060000D03*
X143175000Y-47790000D03*
%TD*%
D15*
%TO.C,C7*%
X56000000Y-76800000D03*
X56000000Y-74900000D03*
%TD*%
D11*
%TO.C,IC3*%
X56225000Y-47790000D03*
X56225000Y-49060000D03*
X56225000Y-50330000D03*
X56225000Y-51600000D03*
X56225000Y-52870000D03*
X56225000Y-54140000D03*
X56225000Y-55410000D03*
X61175000Y-55410000D03*
X61175000Y-54140000D03*
X61175000Y-52870000D03*
X61175000Y-51600000D03*
X61175000Y-50330000D03*
X61175000Y-49060000D03*
X61175000Y-47790000D03*
%TD*%
M02*
