%TF.GenerationSoftware,KiCad,Pcbnew,10.0.7*%
%TF.CreationDate,2026-10-10T05:55:50-04:00*%
%TF.ProjectId,AC30,41433330-2e6b-4696-9361-645f70636258,A*%
%TF.SameCoordinates,PX1c9c380PY94c5f00*%
%TF.FileFunction,Copper,L2,Bot*%
%TF.FilePolarity,Positive*%
%FSLAX46Y46*%
G04 Gerber Fmt 4.6, Leading zero omitted, Abs format (unit mm)*
G04 Created by KiCad (PCBNEW 10.0.7) date 2026-10-10 05:55:50*
%MOMM*%
%LPD*%
G01*
G04 APERTURE LIST*
G04 Aperture macros list*
%AMRoundRect*
0 Rectangle with rounded corners*
0 $1 Rounding radius*
0 $2 $3 $4 $5 $6 $7 $8 $9 X,Y pos of 4 corners*
0 Add a 4 corners polygon primitive as box body*
4,1,4,$2,$3,$4,$5,$6,$7,$8,$9,$2,$3,0*
0 Add four circle primitives for the rounded corners*
1,1,$1+$1,$2,$3*
1,1,$1+$1,$4,$5*
1,1,$1+$1,$6,$7*
1,1,$1+$1,$8,$9*
0 Add four rect primitives between the rounded corners*
20,1,$1+$1,$2,$3,$4,$5,0*
20,1,$1+$1,$4,$5,$6,$7,0*
20,1,$1+$1,$6,$7,$8,$9,0*
20,1,$1+$1,$8,$9,$2,$3,0*%
G04 Aperture macros list end*
%TA.AperFunction,ComponentPad*%
%ADD10R,1.050000X1.500000*%
%TD*%
%TA.AperFunction,ComponentPad*%
%ADD11O,1.050000X1.500000*%
%TD*%
%TA.AperFunction,ComponentPad*%
%ADD12RoundRect,0.250000X-0.550000X-0.550000X0.550000X-0.550000X0.550000X0.550000X-0.550000X0.550000X0*%
%TD*%
%TA.AperFunction,ComponentPad*%
%ADD13C,1.600000*%
%TD*%
%TA.AperFunction,ComponentPad*%
%ADD14R,1.700000X1.700000*%
%TD*%
%TA.AperFunction,ComponentPad*%
%ADD15C,1.700000*%
%TD*%
%TA.AperFunction,ComponentPad*%
%ADD16RoundRect,0.250000X-1.330000X-1.800000X1.330000X-1.800000X1.330000X1.800000X-1.330000X1.800000X0*%
%TD*%
%TA.AperFunction,ComponentPad*%
%ADD17O,3.160000X4.100000*%
%TD*%
%TA.AperFunction,ComponentPad*%
%ADD18R,1.800000X1.800000*%
%TD*%
%TA.AperFunction,ComponentPad*%
%ADD19C,1.800000*%
%TD*%
%TA.AperFunction,ComponentPad*%
%ADD20C,1.440000*%
%TD*%
%TA.AperFunction,ComponentPad*%
%ADD21RoundRect,0.250000X0.550000X-0.550000X0.550000X0.550000X-0.550000X0.550000X-0.550000X-0.550000X0*%
%TD*%
%TA.AperFunction,ComponentPad*%
%ADD22R,1.400000X1.400000*%
%TD*%
%TA.AperFunction,ComponentPad*%
%ADD23C,1.400000*%
%TD*%
%TA.AperFunction,ComponentPad*%
%ADD24RoundRect,0.250000X-0.750000X-0.750000X0.750000X-0.750000X0.750000X0.750000X-0.750000X0.750000X0*%
%TD*%
%TA.AperFunction,ComponentPad*%
%ADD25C,2.000000*%
%TD*%
%TA.AperFunction,ViaPad*%
%ADD26C,0.800000*%
%TD*%
%TA.AperFunction,ViaPad*%
%ADD27C,1.000000*%
%TD*%
%TA.AperFunction,Conductor*%
%ADD28C,0.600000*%
%TD*%
%TA.AperFunction,Conductor*%
%ADD29C,0.250000*%
%TD*%
G04 APERTURE END LIST*
D10*
%TO.P,Q6,1*%
%TO.N,GND*%
X135900000Y-84300000D03*
D11*
%TO.P,Q6,2*%
%TO.N,/Q6_B*%
X137170000Y-84300000D03*
%TO.P,Q6,3*%
%TO.N,/Q6_C*%
X138440000Y-84300000D03*
%TD*%
D12*
%TO.P,IC6,1*%
%TO.N,CLOCK_OUT*%
X84050000Y-69800000D03*
D13*
%TO.P,IC6,2*%
%TO.N,/CPU_CLK_OUT*%
X84050000Y-72340000D03*
%TO.P,IC6,3*%
%TO.N,/TERM_CLK_OUT*%
X84050000Y-74880000D03*
%TO.P,IC6,4*%
%TO.N,CLOCK_IN*%
X84050000Y-77420000D03*
%TO.P,IC6,5*%
%TO.N,/CPU_CLK_OUT*%
X84050000Y-79960000D03*
%TO.P,IC6,6*%
%TO.N,GND*%
X84050000Y-82500000D03*
%TO.P,IC6,7*%
X84050000Y-85040000D03*
%TO.P,IC6,8*%
X84050000Y-87580000D03*
%TO.P,IC6,9*%
%TO.N,/LOCAL_REMOTE*%
X91670000Y-87580000D03*
%TO.P,IC6,10*%
%TO.N,/SEL_CPU_CLK*%
X91670000Y-85040000D03*
%TO.P,IC6,11*%
%TO.N,/LOCAL_REMOTE*%
X91670000Y-82500000D03*
%TO.P,IC6,12*%
%TO.N,/CPU_DATA*%
X91670000Y-79960000D03*
%TO.P,IC6,13*%
%TO.N,/TERM_DATA*%
X91670000Y-77420000D03*
%TO.P,IC6,14*%
%TO.N,/DATA_SEL*%
X91670000Y-74880000D03*
%TO.P,IC6,15*%
%TO.N,/CPU_CLK_IN*%
X91670000Y-72340000D03*
%TO.P,IC6,16*%
%TO.N,+5V*%
X91670000Y-69800000D03*
%TD*%
D12*
%TO.P,IC12,1*%
%TO.N,/CPU_RS232_OUT*%
X94050000Y-48550000D03*
D13*
%TO.P,IC12,2*%
%TO.N,unconnected-(IC12A-RC-Pad2)*%
X94050000Y-51090000D03*
%TO.P,IC12,3*%
%TO.N,/CPU_DATA*%
X94050000Y-53630000D03*
%TO.P,IC12,4*%
%TO.N,/TERM_RS232_OUT*%
X94050000Y-56170000D03*
%TO.P,IC12,5*%
%TO.N,unconnected-(IC12B-RC-Pad5)*%
X94050000Y-58710000D03*
%TO.P,IC12,6*%
%TO.N,/TERM_DATA*%
X94050000Y-61250000D03*
%TO.P,IC12,7*%
%TO.N,GND*%
X94050000Y-63790000D03*
%TO.P,IC12,8*%
%TO.N,unconnected-(IC12-Pad8)*%
X101670000Y-63790000D03*
%TO.P,IC12,9*%
%TO.N,unconnected-(IC12C-RC-Pad9)*%
X101670000Y-61250000D03*
%TO.P,IC12,10*%
%TO.N,unconnected-(IC12-Pad10)*%
X101670000Y-58710000D03*
%TO.P,IC12,11*%
%TO.N,unconnected-(IC12-Pad11)*%
X101670000Y-56170000D03*
%TO.P,IC12,12*%
%TO.N,unconnected-(IC12D-RC-Pad12)*%
X101670000Y-53630000D03*
%TO.P,IC12,13*%
%TO.N,unconnected-(IC12-Pad13)*%
X101670000Y-51090000D03*
%TO.P,IC12,14*%
%TO.N,+5V*%
X101670000Y-48550000D03*
%TD*%
%TO.P,R31,1*%
%TO.N,/Q6_C*%
X138500000Y-78500000D03*
%TO.P,R31,2*%
%TO.N,/LED_READ_RDY*%
X138500000Y-68340000D03*
%TD*%
%TO.P,R8,1*%
%TO.N,AUDIO_IN*%
X133500000Y-114750000D03*
%TO.P,R8,2*%
%TO.N,GND*%
X133500000Y-104590000D03*
%TD*%
D12*
%TO.P,C4,1*%
%TO.N,/Mod{slash}Demod & power input/MOD_ATTEN*%
X148150000Y-121200000D03*
D13*
%TO.P,C4,2*%
%TO.N,AUDIO_OUT*%
X150650000Y-121200000D03*
%TD*%
D14*
%TO.P,J2,1*%
%TO.N,+5V*%
X96850000Y-151200000D03*
D15*
%TO.P,J2,2*%
%TO.N,/LED_REC_RDY*%
X99390000Y-151200000D03*
%TO.P,J2,3*%
%TO.N,/LED_READ_RDY*%
X101930000Y-151200000D03*
%TO.P,J2,4*%
%TO.N,/LED_REC_DATA*%
X104470000Y-151200000D03*
%TO.P,J2,5*%
%TO.N,/LED_READ_DATA*%
X107010000Y-151200000D03*
%TD*%
D16*
%TO.P,J12,1*%
%TO.N,GND*%
X160650000Y-147550000D03*
D17*
%TO.P,J12,2*%
%TO.N,+5V*%
X164610000Y-147550000D03*
%TO.P,J12,3*%
%TO.N,+13V*%
X168570000Y-147550000D03*
%TO.P,J12,4*%
%TO.N,-13V*%
X172530000Y-147550000D03*
%TO.P,J12,5*%
%TO.N,+7.5V*%
X176490000Y-147550000D03*
%TO.P,J12,6*%
%TO.N,-7.5V*%
X180450000Y-147550000D03*
%TD*%
D13*
%TO.P,R23,1*%
%TO.N,/READ_SET*%
X70250000Y-58200000D03*
%TO.P,R23,2*%
%TO.N,GND*%
X70250000Y-48040000D03*
%TD*%
%TO.P,R42,1*%
%TO.N,+5V*%
X49250000Y-103550000D03*
%TO.P,R42,2*%
%TO.N,/CTRL_INVERT*%
X49250000Y-93390000D03*
%TD*%
D12*
%TO.P,IC4,1*%
%TO.N,/Mod{slash}Demod & power input/MOD_FILT*%
X128050000Y-90800000D03*
D13*
%TO.P,IC4,2*%
X128050000Y-93340000D03*
%TO.P,IC4,3*%
%TO.N,/Mod{slash}Demod & power input/MOD_F2*%
X128050000Y-95880000D03*
%TO.P,IC4,4*%
%TO.N,-7.5V*%
X128050000Y-98420000D03*
%TO.P,IC4,5*%
%TO.N,/Mod{slash}Demod & power input/DEM_IN*%
X135670000Y-98420000D03*
%TO.P,IC4,6*%
%TO.N,GND*%
X135670000Y-95880000D03*
%TO.P,IC4,7*%
%TO.N,/Mod{slash}Demod & power input/DEM_CMP*%
X135670000Y-93340000D03*
%TO.P,IC4,8*%
%TO.N,+7.5V*%
X135670000Y-90800000D03*
%TD*%
%TO.P,R10,1*%
%TO.N,/Mod{slash}Demod & power input/DEM_IN*%
X143500000Y-114750000D03*
%TO.P,R10,2*%
%TO.N,/Mod{slash}Demod & power input/DEM_CMP*%
X143500000Y-104590000D03*
%TD*%
%TO.P,R22,1*%
%TO.N,+5V*%
X96250000Y-79500000D03*
%TO.P,R22,2*%
%TO.N,CLOCK_OUT*%
X96250000Y-69340000D03*
%TD*%
D12*
%TO.P,IC1,1*%
%TO.N,DATA_OUT*%
X45050000Y-72600000D03*
D13*
%TO.P,IC1,2*%
%TO.N,unconnected-(IC1A-~{Q}-Pad2)*%
X45050000Y-75140000D03*
%TO.P,IC1,3*%
%TO.N,/Mod{slash}Demod & power input/DEM_PULSE*%
X45050000Y-77680000D03*
%TO.P,IC1,4*%
%TO.N,GND*%
X45050000Y-80220000D03*
%TO.P,IC1,5*%
%TO.N,/Mod{slash}Demod & power input/DEM_BIT*%
X45050000Y-82760000D03*
%TO.P,IC1,6*%
%TO.N,GND*%
X45050000Y-85300000D03*
%TO.P,IC1,7*%
X45050000Y-87840000D03*
%TO.P,IC1,8*%
X52670000Y-87840000D03*
%TO.P,IC1,9*%
X52670000Y-85300000D03*
%TO.P,IC1,10*%
X52670000Y-82760000D03*
%TO.P,IC1,11*%
X52670000Y-80220000D03*
%TO.P,IC1,12*%
%TO.N,unconnected-(IC1B-~{Q}-Pad12)*%
X52670000Y-77680000D03*
%TO.P,IC1,13*%
%TO.N,unconnected-(IC1B-Q-Pad13)*%
X52670000Y-75140000D03*
%TO.P,IC1,14*%
%TO.N,+5V*%
X52670000Y-72600000D03*
%TD*%
%TO.P,R3,1*%
%TO.N,/Mod{slash}Demod & power input/MOD_F1*%
X122500000Y-78500000D03*
%TO.P,R3,2*%
%TO.N,/Mod{slash}Demod & power input/MOD_F2*%
X122500000Y-68340000D03*
%TD*%
D18*
%TO.P,D18,1*%
%TO.N,/D18_K*%
X117950000Y-84750000D03*
D19*
%TO.P,D18,2*%
%TO.N,+5V*%
X120490000Y-84750000D03*
%TD*%
D13*
%TO.P,C18,1*%
%TO.N,/IC10_CV*%
X52250000Y-53050000D03*
%TO.P,C18,2*%
%TO.N,GND*%
X52250000Y-48050000D03*
%TD*%
%TO.P,R2,1*%
%TO.N,/Mod{slash}Demod & power input/MOD_SQ*%
X117500000Y-78500000D03*
%TO.P,R2,2*%
%TO.N,/Mod{slash}Demod & power input/MOD_F1*%
X117500000Y-68340000D03*
%TD*%
%TO.P,C2,1*%
%TO.N,/Mod{slash}Demod & power input/MOD_F2*%
X137500000Y-123850000D03*
%TO.P,C2,2*%
%TO.N,GND*%
X137500000Y-118850000D03*
%TD*%
D12*
%TO.P,C17,1*%
%TO.N,/DELAY_RC*%
X36150000Y-64650000D03*
D13*
%TO.P,C17,2*%
%TO.N,GND*%
X38650000Y-64650000D03*
%TD*%
%TO.P,R45,1*%
%TO.N,+5V*%
X42500000Y-123850000D03*
%TO.P,R45,2*%
%TO.N,/START_READ*%
X42500000Y-113690000D03*
%TD*%
%TO.P,C24,1*%
%TO.N,+5V*%
X95800000Y-130400000D03*
%TO.P,C24,2*%
%TO.N,GND*%
X95800000Y-125400000D03*
%TD*%
%TO.P,R43,1*%
%TO.N,/DELAY_OUT*%
X107500000Y-78500000D03*
%TO.P,R43,2*%
%TO.N,/D18_K*%
X107500000Y-68340000D03*
%TD*%
D20*
%TO.P,R16,1*%
%TO.N,/Mod{slash}Demod & power input/DEM_R16*%
X163050000Y-103400000D03*
%TO.P,R16,2*%
%TO.N,+5V*%
X165590000Y-100860000D03*
%TO.P,R16,3*%
X163050000Y-98320000D03*
%TD*%
D10*
%TO.P,Q4,1*%
%TO.N,GND*%
X97950000Y-93850000D03*
D11*
%TO.P,Q4,2*%
%TO.N,/Mod{slash}Demod & power input/DEM_Q4B*%
X99220000Y-93850000D03*
%TO.P,Q4,3*%
%TO.N,CLOCK_OUT*%
X100490000Y-93850000D03*
%TD*%
D10*
%TO.P,Q2,1*%
%TO.N,GND*%
X180450000Y-84300000D03*
D11*
%TO.P,Q2,2*%
%TO.N,/Mod{slash}Demod & power input/DEM_Q2B*%
X181720000Y-84300000D03*
%TO.P,Q2,3*%
%TO.N,/Mod{slash}Demod & power input/DEM_Q2C*%
X182990000Y-84300000D03*
%TD*%
D21*
%TO.P,D10,1*%
%TO.N,+5V*%
X88750000Y-99800000D03*
D13*
%TO.P,D10,2*%
%TO.N,/TERM_CLK_OUT*%
X88750000Y-92180000D03*
%TD*%
%TO.P,C23,1*%
%TO.N,+5V*%
X90800000Y-130400000D03*
%TO.P,C23,2*%
%TO.N,GND*%
X90800000Y-125400000D03*
%TD*%
%TO.P,R36,1*%
%TO.N,/TAPE_DATA*%
X112500000Y-125700000D03*
%TO.P,R36,2*%
%TO.N,/Q7_B*%
X112500000Y-115540000D03*
%TD*%
D14*
%TO.P,J15,1*%
%TO.N,/EAR_A*%
X144850000Y-151200000D03*
D15*
%TO.P,J15,2*%
%TO.N,GND*%
X147390000Y-151200000D03*
%TO.P,J15,3*%
%TO.N,/EAR_B*%
X149930000Y-151200000D03*
%TO.P,J15,4*%
%TO.N,GND*%
X152470000Y-151200000D03*
%TD*%
D13*
%TO.P,R33,1*%
%TO.N,/READ_EN_N*%
X58500000Y-92750000D03*
%TO.P,R33,2*%
%TO.N,/Q10_B*%
X58500000Y-82590000D03*
%TD*%
D21*
%TO.P,D2,1*%
%TO.N,GND*%
X132750000Y-126500000D03*
D13*
%TO.P,D2,2*%
%TO.N,/Mod{slash}Demod & power input/DEM_IN*%
X132750000Y-118880000D03*
%TD*%
%TO.P,R41,1*%
%TO.N,+5V*%
X122500000Y-125700000D03*
%TO.P,R41,2*%
%TO.N,/LOCAL_REMOTE*%
X122500000Y-115540000D03*
%TD*%
%TO.P,C10,1*%
%TO.N,/Mod{slash}Demod & power input/DEM_BIT*%
X169500000Y-125650000D03*
%TO.P,C10,2*%
%TO.N,/Mod{slash}Demod & power input/DEM_BIT_EDGE*%
X169500000Y-120650000D03*
%TD*%
D12*
%TO.P,IC15,1*%
%TO.N,-13V*%
X175050000Y-93200000D03*
D13*
%TO.P,IC15,2*%
%TO.N,unconnected-(IC15-Pad2)*%
X175050000Y-95740000D03*
%TO.P,IC15,3*%
%TO.N,unconnected-(IC15-Pad3)*%
X175050000Y-98280000D03*
%TO.P,IC15,4*%
%TO.N,unconnected-(IC15-Pad4)*%
X175050000Y-100820000D03*
%TO.P,IC15,5*%
%TO.N,unconnected-(IC15-Pad5)*%
X175050000Y-103360000D03*
%TO.P,IC15,6*%
%TO.N,unconnected-(IC15-Pad6)*%
X175050000Y-105900000D03*
%TO.P,IC15,7*%
%TO.N,GND*%
X175050000Y-108440000D03*
%TO.P,IC15,8*%
%TO.N,/TERM_RS232_IN*%
X182670000Y-108440000D03*
%TO.P,IC15,9*%
%TO.N,/TERM_ECHO*%
X182670000Y-105900000D03*
%TO.P,IC15,10*%
%TO.N,/TERM_TX_SEL*%
X182670000Y-103360000D03*
%TO.P,IC15,11*%
%TO.N,/CPU_RS232_IN*%
X182670000Y-100820000D03*
%TO.P,IC15,12*%
%TO.N,/CPU_RX*%
X182670000Y-98280000D03*
%TO.P,IC15,13*%
%TO.N,+5V*%
X182670000Y-95740000D03*
%TO.P,IC15,14*%
%TO.N,+13V*%
X182670000Y-93200000D03*
%TD*%
D14*
%TO.P,J14,1*%
%TO.N,/MIC_A*%
X129700000Y-151200000D03*
D15*
%TO.P,J14,2*%
%TO.N,GND*%
X132240000Y-151200000D03*
%TO.P,J14,3*%
%TO.N,/MIC_B*%
X134780000Y-151200000D03*
%TO.P,J14,4*%
%TO.N,GND*%
X137320000Y-151200000D03*
%TD*%
D13*
%TO.P,R13,1*%
%TO.N,/Mod{slash}Demod & power input/DEM_PULSE*%
X164500000Y-78500000D03*
%TO.P,R13,2*%
%TO.N,/Mod{slash}Demod & power input/DEM_Q1B*%
X164500000Y-68340000D03*
%TD*%
%TO.P,C11,1*%
%TO.N,/Mod{slash}Demod & power input/DEM_CLK_N*%
X175500000Y-87600000D03*
%TO.P,C11,2*%
%TO.N,/Mod{slash}Demod & power input/DEM_Q4B*%
X175500000Y-82600000D03*
%TD*%
D21*
%TO.P,D6,1*%
%TO.N,/RELAY_1*%
X68250000Y-121300000D03*
D13*
%TO.P,D6,2*%
%TO.N,/MAN_MOTOR*%
X68250000Y-113680000D03*
%TD*%
%TO.P,R21,1*%
%TO.N,/Mod{slash}Demod & power input/DEM_CLK_N*%
X180500000Y-78500000D03*
%TO.P,R21,2*%
%TO.N,/Mod{slash}Demod & power input/DEM_Q4B*%
X180500000Y-68340000D03*
%TD*%
%TO.P,R17,1*%
%TO.N,/Mod{slash}Demod & power input/DEM_EDGE*%
X159500000Y-92750000D03*
%TO.P,R17,2*%
%TO.N,/Mod{slash}Demod & power input/DEM_D4*%
X159500000Y-82590000D03*
%TD*%
%TO.P,R35,1*%
%TO.N,/Q8_C*%
X107500000Y-125700000D03*
%TO.P,R35,2*%
%TO.N,/LED_REC_DATA*%
X107500000Y-115540000D03*
%TD*%
D21*
%TO.P,D7,1*%
%TO.N,/RELAY_2*%
X72750000Y-121300000D03*
D13*
%TO.P,D7,2*%
%TO.N,/MAN_MOTOR*%
X72750000Y-113680000D03*
%TD*%
%TO.P,C1,1*%
%TO.N,/Mod{slash}Demod & power input/MOD_CLK2*%
X107500000Y-87600000D03*
%TO.P,C1,2*%
%TO.N,/Mod{slash}Demod & power input/MOD_EDGE*%
X107500000Y-82600000D03*
%TD*%
%TO.P,R44,1*%
%TO.N,+5V*%
X37500000Y-123850000D03*
%TO.P,R44,2*%
%TO.N,/START_RECORD*%
X37500000Y-113690000D03*
%TD*%
%TO.P,C9,1*%
%TO.N,/Mod{slash}Demod & power input/DEM_Q2C*%
X185500000Y-73350000D03*
%TO.P,C9,2*%
%TO.N,GND*%
X185500000Y-68350000D03*
%TD*%
D22*
%TO.P,RLY2,1*%
%TO.N,/MOTOR_2B*%
X69550000Y-127150000D03*
D23*
%TO.P,RLY2,3*%
%TO.N,GND*%
X74630000Y-127150000D03*
%TO.P,RLY2,5*%
%TO.N,/RELAY_2*%
X79710000Y-127150000D03*
%TO.P,RLY2,7*%
%TO.N,/MOTOR_2A*%
X84790000Y-127150000D03*
%TD*%
D13*
%TO.P,R27,1*%
%TO.N,/POR*%
X68500000Y-78500000D03*
%TO.P,R27,2*%
%TO.N,GND*%
X68500000Y-68340000D03*
%TD*%
%TO.P,R47,1*%
%TO.N,+5V*%
X52500000Y-123850000D03*
%TO.P,R47,2*%
%TO.N,/STOP_READ*%
X52500000Y-113690000D03*
%TD*%
D12*
%TO.P,IC10,1*%
%TO.N,GND*%
X35050000Y-48500000D03*
D13*
%TO.P,IC10,2*%
%TO.N,/REC_EN*%
X35050000Y-51040000D03*
%TO.P,IC10,3*%
%TO.N,/DELAY_OUT*%
X35050000Y-53580000D03*
%TO.P,IC10,4*%
%TO.N,+5V*%
X35050000Y-56120000D03*
%TO.P,IC10,5*%
%TO.N,/IC10_CV*%
X42670000Y-56120000D03*
%TO.P,IC10,6*%
%TO.N,/DELAY_RC*%
X42670000Y-53580000D03*
%TO.P,IC10,7*%
X42670000Y-51040000D03*
%TO.P,IC10,8*%
%TO.N,+5V*%
X42670000Y-48500000D03*
%TD*%
D12*
%TO.P,IC8,1*%
%TO.N,/READ_EN*%
X58050000Y-48550000D03*
D13*
%TO.P,IC8,2*%
%TO.N,/READ_EN_N*%
X58050000Y-51090000D03*
%TO.P,IC8,3*%
%TO.N,GND*%
X58050000Y-53630000D03*
%TO.P,IC8,4*%
%TO.N,/READ_RST*%
X58050000Y-56170000D03*
%TO.P,IC8,5*%
%TO.N,GND*%
X58050000Y-58710000D03*
%TO.P,IC8,6*%
%TO.N,/READ_SET*%
X58050000Y-61250000D03*
%TO.P,IC8,7*%
%TO.N,GND*%
X58050000Y-63790000D03*
%TO.P,IC8,8*%
%TO.N,/REC_SET*%
X65670000Y-63790000D03*
%TO.P,IC8,9*%
%TO.N,GND*%
X65670000Y-61250000D03*
%TO.P,IC8,10*%
%TO.N,/REC_RST*%
X65670000Y-58710000D03*
%TO.P,IC8,11*%
%TO.N,GND*%
X65670000Y-56170000D03*
%TO.P,IC8,12*%
%TO.N,/REC_EN_N*%
X65670000Y-53630000D03*
%TO.P,IC8,13*%
%TO.N,/REC_EN*%
X65670000Y-51090000D03*
%TO.P,IC8,14*%
%TO.N,+5V*%
X65670000Y-48550000D03*
%TD*%
D16*
%TO.P,J3,1*%
%TO.N,GND*%
X44200000Y-38600000D03*
D17*
%TO.P,J3,2*%
%TO.N,/CPU_CLK_OUT*%
X48160000Y-38600000D03*
%TO.P,J3,3*%
%TO.N,/CPU_CLK_IN*%
X52120000Y-38600000D03*
%TO.P,J3,4*%
%TO.N,unconnected-(J3-Pin_4-Pad4)*%
X56080000Y-38600000D03*
%TO.P,J3,5*%
%TO.N,/CPU_RS232_IN*%
X60040000Y-38600000D03*
%TO.P,J3,6*%
%TO.N,/CPU_RS232_OUT*%
X64000000Y-38600000D03*
%TO.P,J3,7*%
%TO.N,unconnected-(J3-Pin_7-Pad7)*%
X67960000Y-38600000D03*
%TO.P,J3,8*%
%TO.N,unconnected-(J3-Pin_8-Pad8)*%
X71920000Y-38600000D03*
%TO.P,J3,9*%
%TO.N,unconnected-(J3-Pin_9-Pad9)*%
X75880000Y-38600000D03*
%TO.P,J3,10*%
%TO.N,unconnected-(J3-Pin_10-Pad10)*%
X79840000Y-38600000D03*
%TD*%
D13*
%TO.P,R9,1*%
%TO.N,/Mod{slash}Demod & power input/DEM_HP*%
X138500000Y-114750000D03*
%TO.P,R9,2*%
%TO.N,/Mod{slash}Demod & power input/DEM_IN*%
X138500000Y-104590000D03*
%TD*%
D12*
%TO.P,IC13,1*%
%TO.N,/STOP_RECORD*%
X37050000Y-93900000D03*
D13*
%TO.P,IC13,2*%
%TO.N,/CTRL_INVERT*%
X37050000Y-96440000D03*
%TO.P,IC13,3*%
%TO.N,/STOP_REC_P*%
X37050000Y-98980000D03*
%TO.P,IC13,4*%
%TO.N,/START_REC_P*%
X37050000Y-101520000D03*
%TO.P,IC13,5*%
%TO.N,/CTRL_INVERT*%
X37050000Y-104060000D03*
%TO.P,IC13,6*%
%TO.N,/START_RECORD*%
X37050000Y-106600000D03*
%TO.P,IC13,7*%
%TO.N,GND*%
X37050000Y-109140000D03*
%TO.P,IC13,8*%
%TO.N,/START_READ*%
X44670000Y-109140000D03*
%TO.P,IC13,9*%
%TO.N,/CTRL_INVERT*%
X44670000Y-106600000D03*
%TO.P,IC13,10*%
%TO.N,/START_READ_P*%
X44670000Y-104060000D03*
%TO.P,IC13,11*%
%TO.N,/STOP_READ_P*%
X44670000Y-101520000D03*
%TO.P,IC13,12*%
%TO.N,/CTRL_INVERT*%
X44670000Y-98980000D03*
%TO.P,IC13,13*%
%TO.N,/STOP_READ*%
X44670000Y-96440000D03*
%TO.P,IC13,14*%
%TO.N,+5V*%
X44670000Y-93900000D03*
%TD*%
%TO.P,R11,1*%
%TO.N,/Mod{slash}Demod & power input/DEM_CMP*%
X148500000Y-114750000D03*
%TO.P,R11,2*%
%TO.N,/Mod{slash}Demod & power input/DEM_LIM*%
X148500000Y-104590000D03*
%TD*%
D24*
%TO.P,C16,1*%
%TO.N,+5V*%
X64750000Y-86800000D03*
D25*
%TO.P,C16,2*%
%TO.N,/POR*%
X69750000Y-86800000D03*
%TD*%
D13*
%TO.P,R19,1*%
%TO.N,/Mod{slash}Demod & power input/DEM_Q3B*%
X164500000Y-92750000D03*
%TO.P,R19,2*%
%TO.N,/Mod{slash}Demod & power input/DEM_Q3B_R*%
X164500000Y-82590000D03*
%TD*%
D10*
%TO.P,Q9,1*%
%TO.N,+5V*%
X58450000Y-107650000D03*
D11*
%TO.P,Q9,2*%
%TO.N,/Q9_B*%
X59720000Y-107650000D03*
%TO.P,Q9,3*%
%TO.N,/REC_RLY_DRV*%
X60990000Y-107650000D03*
%TD*%
D10*
%TO.P,Q3,1*%
%TO.N,+5V*%
X166900000Y-131400000D03*
D11*
%TO.P,Q3,2*%
%TO.N,/Mod{slash}Demod & power input/DEM_Q3B_R*%
X168170000Y-131400000D03*
%TO.P,Q3,3*%
%TO.N,/Mod{slash}Demod & power input/DEM_CD*%
X169440000Y-131400000D03*
%TD*%
D13*
%TO.P,R46,1*%
%TO.N,+5V*%
X47500000Y-123850000D03*
%TO.P,R46,2*%
%TO.N,/STOP_RECORD*%
X47500000Y-113690000D03*
%TD*%
%TO.P,R1,1*%
%TO.N,/Mod{slash}Demod & power input/MOD_EDGE*%
X112500000Y-78500000D03*
%TO.P,R1,2*%
%TO.N,+5V*%
X112500000Y-68340000D03*
%TD*%
%TO.P,C14,1*%
%TO.N,/STOP_READ_P*%
X68500000Y-101850000D03*
%TO.P,C14,2*%
%TO.N,/READ_RST*%
X68500000Y-96850000D03*
%TD*%
%TO.P,C19,1*%
%TO.N,/TERM_RS232_IN*%
X175500000Y-118000000D03*
%TO.P,C19,2*%
%TO.N,GND*%
X175500000Y-113000000D03*
%TD*%
D16*
%TO.P,J4,1*%
%TO.N,unconnected-(J4-Pin_1-Pad1)*%
X88650000Y-38600000D03*
D17*
%TO.P,J4,2*%
%TO.N,GND*%
X92610000Y-38600000D03*
%TO.P,J4,3*%
%TO.N,unconnected-(J4-Pin_3-Pad3)*%
X96570000Y-38600000D03*
%TO.P,J4,4*%
%TO.N,/LOCAL_REMOTE*%
X100530000Y-38600000D03*
%TO.P,J4,5*%
%TO.N,/STOP_RECORD*%
X104490000Y-38600000D03*
%TO.P,J4,6*%
%TO.N,+5V*%
X108450000Y-38600000D03*
%TO.P,J4,7*%
%TO.N,/STOP_READ*%
X112410000Y-38600000D03*
%TO.P,J4,8*%
%TO.N,/CTRL_INVERT*%
X116370000Y-38600000D03*
%TO.P,J4,9*%
%TO.N,/START_READ*%
X120330000Y-38600000D03*
%TO.P,J4,10*%
%TO.N,/START_RECORD*%
X124290000Y-38600000D03*
%TO.P,J4,11*%
%TO.N,/TERM_CLK_OUT*%
X128250000Y-38600000D03*
%TO.P,J4,12*%
%TO.N,/TERM_CLK_IN*%
X132210000Y-38600000D03*
%TO.P,J4,13*%
%TO.N,CARRIER_DETECT*%
X136170000Y-38600000D03*
%TO.P,J4,14*%
%TO.N,CARRIER_EN_N*%
X140130000Y-38600000D03*
%TO.P,J4,15*%
%TO.N,unconnected-(J4-Pin_15-Pad15)*%
X144090000Y-38600000D03*
%TD*%
D10*
%TO.P,Q1,1*%
%TO.N,GND*%
X159450000Y-131400000D03*
D11*
%TO.P,Q1,2*%
%TO.N,/Mod{slash}Demod & power input/DEM_Q1B*%
X160720000Y-131400000D03*
%TO.P,Q1,3*%
%TO.N,/Mod{slash}Demod & power input/DEM_TIMER*%
X161990000Y-131400000D03*
%TD*%
D21*
%TO.P,D8,1*%
%TO.N,+5V*%
X101000000Y-76950000D03*
D13*
%TO.P,D8,2*%
%TO.N,/CPU_CLK_OUT*%
X101000000Y-69330000D03*
%TD*%
%TO.P,C25,1*%
%TO.N,+5V*%
X100800000Y-130400000D03*
%TO.P,C25,2*%
%TO.N,GND*%
X100800000Y-125400000D03*
%TD*%
D21*
%TO.P,D4,1*%
%TO.N,/Mod{slash}Demod & power input/DEM_D4*%
X163750000Y-116550000D03*
D13*
%TO.P,D4,2*%
%TO.N,/Mod{slash}Demod & power input/DEM_CD*%
X163750000Y-108930000D03*
%TD*%
%TO.P,R40,1*%
%TO.N,/DELAY_OUT*%
X119250000Y-58200000D03*
%TO.P,R40,2*%
%TO.N,CARRIER_EN_N*%
X119250000Y-48040000D03*
%TD*%
D21*
%TO.P,D1,1*%
%TO.N,/Mod{slash}Demod & power input/DEM_IN*%
X128250000Y-126500000D03*
D13*
%TO.P,D1,2*%
%TO.N,GND*%
X128250000Y-118880000D03*
%TD*%
%TO.P,R7,1*%
%TO.N,/Mod{slash}Demod & power input/MOD_ATTEN*%
X128500000Y-114750000D03*
%TO.P,R7,2*%
%TO.N,GND*%
X128500000Y-104590000D03*
%TD*%
D21*
%TO.P,D5,1*%
%TO.N,/POR*%
X75750000Y-90250000D03*
D13*
%TO.P,D5,2*%
%TO.N,GND*%
X75750000Y-82630000D03*
%TD*%
%TO.P,R4,1*%
%TO.N,/Mod{slash}Demod & power input/MOD_FILT*%
X140250000Y-100500000D03*
%TO.P,R4,2*%
%TO.N,/Mod{slash}Demod & power input/MOD_FB*%
X140250000Y-90340000D03*
%TD*%
%TO.P,C13,1*%
%TO.N,/START_REC_P*%
X63500000Y-101850000D03*
%TO.P,C13,2*%
%TO.N,/REC_SET*%
X63500000Y-96850000D03*
%TD*%
D14*
%TO.P,J1,1*%
%TO.N,+5V*%
X43600000Y-151200000D03*
D15*
%TO.P,J1,2*%
%TO.N,GND*%
X46140000Y-151200000D03*
%TO.P,J1,3*%
%TO.N,CARRIER_EN_N*%
X48680000Y-151200000D03*
%TO.P,J1,4*%
%TO.N,/MAN_MOTOR*%
X51220000Y-151200000D03*
%TO.P,J1,5*%
%TO.N,/REC_SET*%
X53760000Y-151200000D03*
%TO.P,J1,6*%
%TO.N,/REC_RST*%
X56300000Y-151200000D03*
%TO.P,J1,7*%
%TO.N,/READ_SET*%
X58840000Y-151200000D03*
%TO.P,J1,8*%
%TO.N,/READ_RST*%
X61380000Y-151200000D03*
%TO.P,J1,9*%
%TO.N,/LOCAL_REMOTE*%
X63920000Y-151200000D03*
%TO.P,J1,10*%
%TO.N,AUDIO_OUT*%
X66460000Y-151200000D03*
%TO.P,J1,11*%
%TO.N,/MIC_A*%
X69000000Y-151200000D03*
%TO.P,J1,12*%
%TO.N,/MIC_B*%
X71540000Y-151200000D03*
%TO.P,J1,13*%
%TO.N,/REC_RLY_DRV*%
X74080000Y-151200000D03*
%TO.P,J1,14*%
%TO.N,/RELAY_1*%
X76620000Y-151200000D03*
%TO.P,J1,15*%
%TO.N,/RELAY_2*%
X79160000Y-151200000D03*
%TO.P,J1,16*%
%TO.N,/READ_RLY_DRV*%
X81700000Y-151200000D03*
%TO.P,J1,17*%
%TO.N,AUDIO_IN*%
X84240000Y-151200000D03*
%TO.P,J1,18*%
%TO.N,/EAR_A*%
X86780000Y-151200000D03*
%TO.P,J1,19*%
%TO.N,/EAR_B*%
X89320000Y-151200000D03*
%TD*%
D13*
%TO.P,R34,1*%
%TO.N,DATA_IN*%
X119250000Y-102850000D03*
%TO.P,R34,2*%
%TO.N,/Q8_B*%
X119250000Y-92690000D03*
%TD*%
D21*
%TO.P,D9,1*%
%TO.N,/CPU_CLK_OUT*%
X84250000Y-99800000D03*
D13*
%TO.P,D9,2*%
%TO.N,GND*%
X84250000Y-92180000D03*
%TD*%
%TO.P,R32,1*%
%TO.N,/REC_EN_N*%
X73500000Y-78500000D03*
%TO.P,R32,2*%
%TO.N,/Q9_B*%
X73500000Y-68340000D03*
%TD*%
%TO.P,R29,1*%
%TO.N,/READ_EN*%
X128500000Y-78500000D03*
%TO.P,R29,2*%
%TO.N,/Q6_B*%
X128500000Y-68340000D03*
%TD*%
D22*
%TO.P,RLY1,1*%
%TO.N,/MOTOR_1B*%
X78550000Y-115450000D03*
D23*
%TO.P,RLY1,3*%
%TO.N,GND*%
X83630000Y-115450000D03*
%TO.P,RLY1,5*%
%TO.N,/RELAY_1*%
X88710000Y-115450000D03*
%TO.P,RLY1,7*%
%TO.N,/MOTOR_1A*%
X93790000Y-115450000D03*
%TD*%
D12*
%TO.P,IC5,1*%
%TO.N,/Mod{slash}Demod & power input/MOD_SQ*%
X107050000Y-48550000D03*
D13*
%TO.P,IC5,2*%
%TO.N,/Mod{slash}Demod & power input/MOD_DIV4_N*%
X107050000Y-51090000D03*
%TO.P,IC5,3*%
%TO.N,/Mod{slash}Demod & power input/MOD_CLK2*%
X107050000Y-53630000D03*
%TO.P,IC5,4*%
%TO.N,/Mod{slash}Demod & power input/MOD_RST*%
X107050000Y-56170000D03*
%TO.P,IC5,5*%
%TO.N,/Mod{slash}Demod & power input/MOD_DIV4_N*%
X107050000Y-58710000D03*
%TO.P,IC5,6*%
%TO.N,GND*%
X107050000Y-61250000D03*
%TO.P,IC5,7*%
X107050000Y-63790000D03*
%TO.P,IC5,8*%
X114670000Y-63790000D03*
%TO.P,IC5,9*%
%TO.N,/Mod{slash}Demod & power input/MOD_DIV2_N*%
X114670000Y-61250000D03*
%TO.P,IC5,10*%
%TO.N,CARRIER_EN_N*%
X114670000Y-58710000D03*
%TO.P,IC5,11*%
%TO.N,CLOCK_IN*%
X114670000Y-56170000D03*
%TO.P,IC5,12*%
%TO.N,/Mod{slash}Demod & power input/MOD_DIV2_N*%
X114670000Y-53630000D03*
%TO.P,IC5,13*%
%TO.N,/Mod{slash}Demod & power input/MOD_CLK2*%
X114670000Y-51090000D03*
%TO.P,IC5,14*%
%TO.N,+5V*%
X114670000Y-48550000D03*
%TD*%
%TO.P,R6,1*%
%TO.N,/Mod{slash}Demod & power input/MOD_FILT*%
X150250000Y-100500000D03*
%TO.P,R6,2*%
%TO.N,/Mod{slash}Demod & power input/MOD_ATTEN*%
X150250000Y-90340000D03*
%TD*%
%TO.P,R14,1*%
%TO.N,/Mod{slash}Demod & power input/DEM_PULSE*%
X187250000Y-58200000D03*
%TO.P,R14,2*%
%TO.N,/Mod{slash}Demod & power input/DEM_Q2B*%
X187250000Y-48040000D03*
%TD*%
D21*
%TO.P,D11,1*%
%TO.N,/TERM_CLK_OUT*%
X93250000Y-99800000D03*
D13*
%TO.P,D11,2*%
%TO.N,GND*%
X93250000Y-92180000D03*
%TD*%
%TO.P,C20,1*%
%TO.N,/CPU_RS232_IN*%
X180500000Y-118000000D03*
%TO.P,C20,2*%
%TO.N,GND*%
X180500000Y-113000000D03*
%TD*%
D10*
%TO.P,Q10,1*%
%TO.N,+5V*%
X65900000Y-107650000D03*
D11*
%TO.P,Q10,2*%
%TO.N,/Q10_B*%
X67170000Y-107650000D03*
%TO.P,Q10,3*%
%TO.N,/READ_RLY_DRV*%
X68440000Y-107650000D03*
%TD*%
D13*
%TO.P,R30,1*%
%TO.N,/Q5_C*%
X133500000Y-78500000D03*
%TO.P,R30,2*%
%TO.N,/LED_REC_RDY*%
X133500000Y-68340000D03*
%TD*%
%TO.P,R5,1*%
%TO.N,/Mod{slash}Demod & power input/MOD_FB*%
X145250000Y-100500000D03*
%TO.P,R5,2*%
%TO.N,GND*%
X145250000Y-90340000D03*
%TD*%
%TO.P,R28,1*%
%TO.N,/REC_EN*%
X140250000Y-58200000D03*
%TO.P,R28,2*%
%TO.N,/Q5_B*%
X140250000Y-48040000D03*
%TD*%
%TO.P,C15,1*%
%TO.N,/STOP_REC_P*%
X73500000Y-101850000D03*
%TO.P,C15,2*%
%TO.N,/REC_RST*%
X73500000Y-96850000D03*
%TD*%
%TO.P,C8,1*%
%TO.N,/Mod{slash}Demod & power input/DEM_TIMER*%
X164500000Y-125650000D03*
%TO.P,C8,2*%
%TO.N,GND*%
X164500000Y-120650000D03*
%TD*%
%TO.P,R25,1*%
%TO.N,/READ_RST*%
X58500000Y-78500000D03*
%TO.P,R25,2*%
%TO.N,/POR*%
X58500000Y-68340000D03*
%TD*%
%TO.P,C3,1*%
%TO.N,/Mod{slash}Demod & power input/MOD_F1*%
X112500000Y-87600000D03*
%TO.P,C3,2*%
%TO.N,/Mod{slash}Demod & power input/MOD_FB*%
X112500000Y-82600000D03*
%TD*%
D10*
%TO.P,Q5,1*%
%TO.N,GND*%
X128450000Y-84300000D03*
D11*
%TO.P,Q5,2*%
%TO.N,/Q5_B*%
X129720000Y-84300000D03*
%TO.P,Q5,3*%
%TO.N,/Q5_C*%
X130990000Y-84300000D03*
%TD*%
D10*
%TO.P,Q7,1*%
%TO.N,GND*%
X107450000Y-131450000D03*
D11*
%TO.P,Q7,2*%
%TO.N,/Q7_B*%
X108720000Y-131450000D03*
%TO.P,Q7,3*%
%TO.N,/Q7_C*%
X109990000Y-131450000D03*
%TD*%
D13*
%TO.P,R38,1*%
%TO.N,+5V*%
X47250000Y-58200000D03*
%TO.P,R38,2*%
%TO.N,/DELAY_RC*%
X47250000Y-48040000D03*
%TD*%
%TO.P,C12,1*%
%TO.N,/START_READ_P*%
X58500000Y-101850000D03*
%TO.P,C12,2*%
%TO.N,/READ_SET*%
X58500000Y-96850000D03*
%TD*%
D12*
%TO.P,IC2,1*%
%TO.N,DATA_IN*%
X175050000Y-48550000D03*
D13*
%TO.P,IC2,2*%
%TO.N,/Mod{slash}Demod & power input/MOD_EDGE*%
X175050000Y-51090000D03*
%TO.P,IC2,3*%
%TO.N,/Mod{slash}Demod & power input/MOD_RST*%
X175050000Y-53630000D03*
%TO.P,IC2,4*%
%TO.N,/Mod{slash}Demod & power input/DEM_Q3B*%
X175050000Y-56170000D03*
%TO.P,IC2,5*%
%TO.N,/Mod{slash}Demod & power input/DEM_Q2C*%
X175050000Y-58710000D03*
%TO.P,IC2,6*%
X175050000Y-61250000D03*
%TO.P,IC2,7*%
%TO.N,GND*%
X175050000Y-63790000D03*
%TO.P,IC2,8*%
%TO.N,/Mod{slash}Demod & power input/DEM_EDGE*%
X182670000Y-63790000D03*
%TO.P,IC2,9*%
X182670000Y-61250000D03*
%TO.P,IC2,10*%
%TO.N,/Mod{slash}Demod & power input/DEM_PULSE*%
X182670000Y-58710000D03*
%TO.P,IC2,11*%
%TO.N,/Mod{slash}Demod & power input/DEM_CLK_N*%
X182670000Y-56170000D03*
%TO.P,IC2,12*%
%TO.N,/Mod{slash}Demod & power input/DEM_PULSE*%
X182670000Y-53630000D03*
%TO.P,IC2,13*%
%TO.N,/Mod{slash}Demod & power input/DEM_BIT_EDGE*%
X182670000Y-51090000D03*
%TO.P,IC2,14*%
%TO.N,+5V*%
X182670000Y-48550000D03*
%TD*%
D21*
%TO.P,D3,1*%
%TO.N,/Mod{slash}Demod & power input/DEM_LIM*%
X159250000Y-116550000D03*
D13*
%TO.P,D3,2*%
%TO.N,GND*%
X159250000Y-108930000D03*
%TD*%
%TO.P,C6,1*%
%TO.N,/Mod{slash}Demod & power input/DEM_DLY*%
X168500000Y-113900000D03*
%TO.P,C6,2*%
%TO.N,GND*%
X168500000Y-108900000D03*
%TD*%
D12*
%TO.P,IC7,1*%
%TO.N,+5V*%
X107050000Y-93150000D03*
D13*
%TO.P,IC7,2*%
%TO.N,/CPU_RX*%
X107050000Y-95690000D03*
%TO.P,IC7,3*%
%TO.N,/CPU_RX_N*%
X107050000Y-98230000D03*
%TO.P,IC7,4*%
%TO.N,/TAPE_DATA*%
X107050000Y-100770000D03*
%TO.P,IC7,5*%
%TO.N,/TAPE_DATA_N*%
X107050000Y-103310000D03*
%TO.P,IC7,6*%
%TO.N,DATA_IN*%
X107050000Y-105850000D03*
%TO.P,IC7,7*%
%TO.N,/REC_DATA_N*%
X107050000Y-108390000D03*
%TO.P,IC7,8*%
%TO.N,GND*%
X107050000Y-110930000D03*
%TO.P,IC7,9*%
%TO.N,/TERM_DATA*%
X114670000Y-110930000D03*
%TO.P,IC7,10*%
%TO.N,/TERM_DATA_N*%
X114670000Y-108390000D03*
%TO.P,IC7,11*%
%TO.N,/LOCAL_REMOTE*%
X114670000Y-105850000D03*
%TO.P,IC7,12*%
%TO.N,/REMOTE_N*%
X114670000Y-103310000D03*
%TO.P,IC7,13*%
%TO.N,N/C*%
X114670000Y-100770000D03*
%TO.P,IC7,14*%
%TO.N,/DATA_SEL*%
X114670000Y-98230000D03*
%TO.P,IC7,15*%
%TO.N,/DATA_SEL_N*%
X114670000Y-95690000D03*
%TO.P,IC7,16*%
%TO.N,N/C*%
X114670000Y-93150000D03*
%TD*%
D14*
%TO.P,J13,1*%
%TO.N,/MOTOR_1A*%
X114550000Y-151200000D03*
D15*
%TO.P,J13,2*%
%TO.N,/MOTOR_1B*%
X117090000Y-151200000D03*
%TO.P,J13,3*%
%TO.N,/MOTOR_2A*%
X119630000Y-151200000D03*
%TO.P,J13,4*%
%TO.N,/MOTOR_2B*%
X122170000Y-151200000D03*
%TD*%
D13*
%TO.P,R15,1*%
%TO.N,/Mod{slash}Demod & power input/DEM_TIMER*%
X169500000Y-78500000D03*
%TO.P,R15,2*%
%TO.N,/Mod{slash}Demod & power input/DEM_R16*%
X169500000Y-68340000D03*
%TD*%
D16*
%TO.P,J5,1*%
%TO.N,GND*%
X152950000Y-38600000D03*
D17*
%TO.P,J5,2*%
%TO.N,unconnected-(J5-Pin_2-Pad2)*%
X156910000Y-38600000D03*
%TO.P,J5,3*%
%TO.N,unconnected-(J5-Pin_3-Pad3)*%
X160870000Y-38600000D03*
%TO.P,J5,4*%
%TO.N,unconnected-(J5-Pin_4-Pad4)*%
X164830000Y-38600000D03*
%TO.P,J5,5*%
%TO.N,/TERM_RS232_OUT*%
X168790000Y-38600000D03*
%TO.P,J5,6*%
%TO.N,/TERM_RS232_IN*%
X172750000Y-38600000D03*
%TO.P,J5,7*%
%TO.N,unconnected-(J5-Pin_7-Pad7)*%
X176710000Y-38600000D03*
%TO.P,J5,8*%
%TO.N,unconnected-(J5-Pin_8-Pad8)*%
X180670000Y-38600000D03*
%TO.P,J5,9*%
%TO.N,unconnected-(J5-Pin_9-Pad9)*%
X184630000Y-38600000D03*
%TO.P,J5,10*%
%TO.N,unconnected-(J5-Pin_10-Pad10)*%
X188590000Y-38600000D03*
%TD*%
D13*
%TO.P,R26,1*%
%TO.N,/REC_RST*%
X63500000Y-78500000D03*
%TO.P,R26,2*%
%TO.N,/POR*%
X63500000Y-68340000D03*
%TD*%
D12*
%TO.P,IC14,1*%
%TO.N,/TERM_DATA*%
X146050000Y-48500000D03*
D13*
%TO.P,IC14,2*%
%TO.N,+5V*%
X146050000Y-51040000D03*
%TO.P,IC14,3*%
%TO.N,CLOCK_OUT*%
X146050000Y-53580000D03*
%TO.P,IC14,4*%
%TO.N,/TERM_CLK_IN*%
X146050000Y-56120000D03*
%TO.P,IC14,5*%
%TO.N,/TERM_CLK_OUT*%
X146050000Y-58660000D03*
%TO.P,IC14,6*%
%TO.N,GND*%
X146050000Y-61200000D03*
%TO.P,IC14,7*%
X146050000Y-63740000D03*
%TO.P,IC14,8*%
X146050000Y-66280000D03*
%TO.P,IC14,9*%
%TO.N,/SEL_TERM_CLK*%
X153670000Y-66280000D03*
%TO.P,IC14,10*%
%TO.N,/LOCAL_REMOTE*%
X153670000Y-63740000D03*
%TO.P,IC14,11*%
X153670000Y-61200000D03*
%TO.P,IC14,12*%
%TO.N,/CPU_DATA*%
X153670000Y-58660000D03*
%TO.P,IC14,13*%
%TO.N,/TAPE_DATA_N*%
X153670000Y-56120000D03*
%TO.P,IC14,14*%
%TO.N,/TERM_TX_SEL*%
X153670000Y-53580000D03*
%TO.P,IC14,15*%
%TO.N,/TERM_ECHO*%
X153670000Y-51040000D03*
%TO.P,IC14,16*%
%TO.N,+5V*%
X153670000Y-48500000D03*
%TD*%
%TO.P,R18,1*%
%TO.N,+5V*%
X175500000Y-78500000D03*
%TO.P,R18,2*%
%TO.N,/Mod{slash}Demod & power input/DEM_Q2C*%
X175500000Y-68340000D03*
%TD*%
D10*
%TO.P,Q11,1*%
%TO.N,/DELAY_RC*%
X44250000Y-64000000D03*
D11*
%TO.P,Q11,2*%
%TO.N,/REC_EN*%
X45520000Y-64000000D03*
%TO.P,Q11,3*%
%TO.N,GND*%
X46790000Y-64000000D03*
%TD*%
D12*
%TO.P,IC9,1*%
%TO.N,/READ_EN*%
X128050000Y-48550000D03*
D13*
%TO.P,IC9,2*%
%TO.N,CARRIER_DETECT*%
X128050000Y-51090000D03*
%TO.P,IC9,3*%
%TO.N,DATA_OUT*%
X128050000Y-53630000D03*
%TO.P,IC9,4*%
%TO.N,CARRIER_DETECT*%
X128050000Y-56170000D03*
%TO.P,IC9,5*%
%TO.N,/READ_EN*%
X128050000Y-58710000D03*
%TO.P,IC9,6*%
%TO.N,/TAPE_DATA_N*%
X128050000Y-61250000D03*
%TO.P,IC9,7*%
%TO.N,GND*%
X128050000Y-63790000D03*
%TO.P,IC9,8*%
%TO.N,+5V*%
X135670000Y-63790000D03*
%TO.P,IC9,9*%
%TO.N,/READ_ACTIVE_N*%
X135670000Y-61250000D03*
%TO.P,IC9,10*%
%TO.N,/REC_DATA_N*%
X135670000Y-58710000D03*
%TO.P,IC9,11*%
%TO.N,/DATA_SEL_N*%
X135670000Y-56170000D03*
%TO.P,IC9,12*%
%TO.N,/REC_EN*%
X135670000Y-53630000D03*
%TO.P,IC9,13*%
%TO.N,+5V*%
X135670000Y-51090000D03*
%TO.P,IC9,14*%
X135670000Y-48550000D03*
%TD*%
%TO.P,C5,1*%
%TO.N,AUDIO_IN*%
X142500000Y-123850000D03*
%TO.P,C5,2*%
%TO.N,/Mod{slash}Demod & power input/DEM_HP*%
X142500000Y-118850000D03*
%TD*%
%TO.P,R37,1*%
%TO.N,/Q7_C*%
X117500000Y-125700000D03*
%TO.P,R37,2*%
%TO.N,/LED_READ_DATA*%
X117500000Y-115540000D03*
%TD*%
%TO.P,R12,1*%
%TO.N,/Mod{slash}Demod & power input/DEM_INV*%
X159500000Y-78500000D03*
%TO.P,R12,2*%
%TO.N,/Mod{slash}Demod & power input/DEM_DLY*%
X159500000Y-68340000D03*
%TD*%
%TO.P,R24,1*%
%TO.N,/REC_SET*%
X75250000Y-58200000D03*
%TO.P,R24,2*%
%TO.N,GND*%
X75250000Y-48040000D03*
%TD*%
D10*
%TO.P,Q8,1*%
%TO.N,GND*%
X114900000Y-131450000D03*
D11*
%TO.P,Q8,2*%
%TO.N,/Q8_B*%
X116170000Y-131450000D03*
%TO.P,Q8,3*%
%TO.N,/Q8_C*%
X117440000Y-131450000D03*
%TD*%
D13*
%TO.P,R20,1*%
%TO.N,/Mod{slash}Demod & power input/DEM_BIT_EDGE*%
X169500000Y-92750000D03*
%TO.P,R20,2*%
%TO.N,GND*%
X169500000Y-82590000D03*
%TD*%
D12*
%TO.P,IC11,1*%
%TO.N,/REMOTE_N*%
X81050000Y-48550000D03*
D13*
%TO.P,IC11,2*%
%TO.N,/READ_ACTIVE_N*%
X81050000Y-51090000D03*
%TO.P,IC11,3*%
%TO.N,/SEL_TERM_CLK*%
X81050000Y-53630000D03*
%TO.P,IC11,4*%
%TO.N,/SEL_CPU_CLK*%
X81050000Y-56170000D03*
%TO.P,IC11,5*%
%TO.N,/READ_ACTIVE_N*%
X81050000Y-58710000D03*
%TO.P,IC11,6*%
%TO.N,/LOCAL_REMOTE*%
X81050000Y-61250000D03*
%TO.P,IC11,7*%
%TO.N,GND*%
X81050000Y-63790000D03*
%TO.P,IC11,8*%
%TO.N,/TERM_DATA_N*%
X88670000Y-63790000D03*
%TO.P,IC11,9*%
%TO.N,/TAPE_DATA*%
X88670000Y-61250000D03*
%TO.P,IC11,10*%
%TO.N,/ECHO_N*%
X88670000Y-58710000D03*
%TO.P,IC11,11*%
%TO.N,/CPU_RX_N*%
X88670000Y-56170000D03*
%TO.P,IC11,12*%
%TO.N,/ECHO_N*%
X88670000Y-53630000D03*
%TO.P,IC11,13*%
%TO.N,/LOCAL_REMOTE*%
X88670000Y-51090000D03*
%TO.P,IC11,14*%
%TO.N,+5V*%
X88670000Y-48550000D03*
%TD*%
%TO.P,C7,1*%
%TO.N,+5V*%
X159500000Y-125650000D03*
%TO.P,C7,2*%
%TO.N,/Mod{slash}Demod & power input/DEM_CD*%
X159500000Y-120650000D03*
%TD*%
D12*
%TO.P,IC3,1*%
%TO.N,/Mod{slash}Demod & power input/DEM_CD*%
X159050000Y-48550000D03*
D13*
%TO.P,IC3,2*%
X159050000Y-51090000D03*
%TO.P,IC3,3*%
%TO.N,CARRIER_DETECT*%
X159050000Y-53630000D03*
%TO.P,IC3,4*%
%TO.N,/Mod{slash}Demod & power input/DEM_BIT*%
X159050000Y-56170000D03*
%TO.P,IC3,5*%
%TO.N,/Mod{slash}Demod & power input/DEM_TIMER*%
X159050000Y-58710000D03*
%TO.P,IC3,6*%
%TO.N,GND*%
X159050000Y-61250000D03*
%TO.P,IC3,7*%
X159050000Y-63790000D03*
%TO.P,IC3,8*%
%TO.N,+5V*%
X166670000Y-63790000D03*
%TO.P,IC3,9*%
%TO.N,/Mod{slash}Demod & power input/DEM_LIM*%
X166670000Y-61250000D03*
%TO.P,IC3,10*%
%TO.N,/Mod{slash}Demod & power input/DEM_INV*%
X166670000Y-58710000D03*
%TO.P,IC3,11*%
%TO.N,/Mod{slash}Demod & power input/DEM_EDGE*%
X166670000Y-56170000D03*
%TO.P,IC3,12*%
%TO.N,/Mod{slash}Demod & power input/DEM_LIM*%
X166670000Y-53630000D03*
%TO.P,IC3,13*%
%TO.N,/Mod{slash}Demod & power input/DEM_DLY*%
X166670000Y-51090000D03*
%TO.P,IC3,14*%
%TO.N,+5V*%
X166670000Y-48550000D03*
%TD*%
D26*
%TO.N,/Q6_B*%
X125841100Y-82292400D03*
%TO.N,CLOCK_OUT*%
X147176700Y-70394300D03*
%TO.N,/CPU_CLK_OUT*%
X51194500Y-73754800D03*
%TO.N,/TERM_CLK_OUT*%
X85187900Y-46723800D03*
X134444800Y-42454900D03*
%TO.N,CLOCK_IN*%
X116256800Y-71703600D03*
%TO.N,/LOCAL_REMOTE*%
X150639100Y-80480000D03*
X95300200Y-107002500D03*
X86224400Y-61208800D03*
X120879800Y-148763900D03*
X93245700Y-41381800D03*
%TO.N,/SEL_CPU_CLK*%
X86981300Y-56121600D03*
%TO.N,/CPU_DATA*%
X90854700Y-53570900D03*
X149856700Y-71964100D03*
%TO.N,/TERM_DATA*%
X121936200Y-51113200D03*
X90543000Y-61250000D03*
X121936200Y-62376700D03*
X103640300Y-112093000D03*
%TO.N,/DATA_SEL*%
X99414000Y-99416300D03*
%TO.N,/CPU_CLK_IN*%
X55431400Y-72546900D03*
%TO.N,/CPU_RS232_OUT*%
X94050000Y-43879100D03*
%TO.N,/TERM_RS232_OUT*%
X168790000Y-35789600D03*
X95581300Y-42440300D03*
%TO.N,AUDIO_IN*%
X86395600Y-124784300D03*
%TO.N,/Mod{slash}Demod & power input/MOD_ATTEN*%
X149673800Y-111383800D03*
%TO.N,AUDIO_OUT*%
X146529400Y-153347600D03*
%TO.N,/LED_REC_RDY*%
X95094900Y-67809300D03*
D27*
%TO.N,+7.5V*%
X172774200Y-89740100D03*
%TO.N,-7.5V*%
X177892000Y-115240900D03*
D26*
%TO.N,/CTRL_INVERT*%
X45635800Y-45057900D03*
%TO.N,/Mod{slash}Demod & power input/MOD_FILT*%
X129577100Y-98495200D03*
%TO.N,/Mod{slash}Demod & power input/MOD_F2*%
X137124900Y-66562800D03*
X134100800Y-121196200D03*
%TO.N,DATA_OUT*%
X126585000Y-64210800D03*
%TO.N,/Mod{slash}Demod & power input/DEM_PULSE*%
X178024900Y-78474300D03*
%TO.N,/Mod{slash}Demod & power input/DEM_BIT*%
X158707100Y-88059000D03*
X164893600Y-118709900D03*
%TO.N,/DELAY_RC*%
X46987800Y-51034100D03*
%TO.N,/START_READ*%
X105176000Y-107907300D03*
%TO.N,/DELAY_OUT*%
X105553300Y-57754000D03*
%TO.N,/Mod{slash}Demod & power input/DEM_Q4B*%
X97684100Y-83161200D03*
%TO.N,/TAPE_DATA*%
X100147100Y-62520000D03*
%TO.N,/EAR_B*%
X89320000Y-148014300D03*
%TO.N,/Q10_B*%
X60585100Y-102352600D03*
%TO.N,/TERM_ECHO*%
X155637000Y-101032100D03*
%TO.N,/TERM_TX_SEL*%
X155535000Y-102230300D03*
%TO.N,/CPU_RS232_IN*%
X190542700Y-34904300D03*
%TO.N,/MAN_MOTOR*%
X55030000Y-114526300D03*
%TO.N,/Q8_C*%
X107500000Y-129644300D03*
%TO.N,/Mod{slash}Demod & power input/MOD_EDGE*%
X173229100Y-67127500D03*
%TO.N,/START_RECORD*%
X33448800Y-45997000D03*
%TO.N,/MOTOR_2B*%
X122739200Y-146201500D03*
%TO.N,/MOTOR_2A*%
X119460700Y-127319300D03*
%TO.N,/STOP_READ*%
X60584900Y-44296000D03*
X60584900Y-94728000D03*
%TO.N,/REC_EN*%
X139572300Y-53601400D03*
%TO.N,/READ_RST*%
X67791700Y-82851100D03*
%TO.N,/REC_SET*%
X55077500Y-95555000D03*
%TO.N,/REC_RST*%
X65784400Y-92183900D03*
X55711900Y-93901100D03*
%TO.N,/STOP_RECORD*%
X99596200Y-89333700D03*
X40327000Y-93900000D03*
%TO.N,/Mod{slash}Demod & power input/DEM_LIM*%
X160486900Y-61715800D03*
X156134300Y-116550000D03*
%TO.N,/Mod{slash}Demod & power input/DEM_Q3B*%
X167959300Y-92750000D03*
%TO.N,/Mod{slash}Demod & power input/DEM_CD*%
X156861000Y-110566900D03*
%TO.N,CARRIER_EN_N*%
X113398300Y-66391000D03*
X54251200Y-71820200D03*
%TO.N,/Mod{slash}Demod & power input/DEM_TIMER*%
X167713700Y-124380600D03*
X162575300Y-74211300D03*
%TO.N,DATA_IN*%
X145859300Y-106144300D03*
X149124800Y-49913300D03*
%TO.N,/MOTOR_1B*%
X92499900Y-152118100D03*
%TO.N,/Q7_C*%
X109990000Y-126645100D03*
%TO.N,/Mod{slash}Demod & power input/DEM_DLY*%
X165700000Y-71419400D03*
X164893600Y-112232100D03*
%TO.N,/CPU_RX_N*%
X108936600Y-98230000D03*
X99771700Y-54829200D03*
%TO.N,/TERM_DATA_N*%
X96224400Y-109580600D03*
%TO.N,/REMOTE_N*%
X91923700Y-102040000D03*
%TO.N,/SEL_TERM_CLK*%
X85664300Y-54526100D03*
X85630100Y-67460200D03*
%TO.N,/Mod{slash}Demod & power input/DEM_INV*%
X161671900Y-60602800D03*
%TD*%
%TO.N,GND*%
D28*
X128250000Y-118880000D02*
X127190500Y-117820500D01*
X46140000Y-151200000D02*
X40000100Y-145060100D01*
X127190500Y-105899500D02*
X128500000Y-104590000D01*
X156338000Y-41988000D02*
X152950000Y-38600000D01*
X159250000Y-108930000D02*
X161701200Y-111381200D01*
X38650000Y-109140000D02*
X37050000Y-109140000D01*
X161701200Y-117851200D02*
X164500000Y-120650000D01*
X79740000Y-52530000D02*
X79740000Y-62480000D01*
X145250000Y-67080000D02*
X145250000Y-90340000D01*
X38650000Y-109140000D02*
X38650000Y-85374600D01*
X40000100Y-110490100D02*
X38650000Y-109140000D01*
X175050000Y-112550000D02*
X175050000Y-108440000D01*
X79740000Y-62480000D02*
X81050000Y-63790000D01*
X83630000Y-115450000D02*
X82893600Y-114713600D01*
X84050000Y-82500000D02*
X81050000Y-79500000D01*
X81050000Y-79500000D02*
X81050000Y-63790000D01*
X68500000Y-68340000D02*
X68500000Y-64080000D01*
X135930600Y-152589400D02*
X133629400Y-152589400D01*
X107050000Y-63790000D02*
X107050000Y-61250000D01*
X159050000Y-61250000D02*
X156338000Y-58538000D01*
X133500000Y-98050000D02*
X133500000Y-104590000D01*
X45050000Y-85374600D02*
X45050000Y-85300000D01*
X40000100Y-145060100D02*
X40000100Y-110490100D01*
X134319200Y-84854100D02*
X134873300Y-84300000D01*
X75250000Y-48040000D02*
X79740000Y-52530000D01*
X146050000Y-66280000D02*
X146050000Y-63740000D01*
X160650000Y-147550000D02*
X159450000Y-146350000D01*
X133629400Y-152589400D02*
X132240000Y-151200000D01*
X83630000Y-118230000D02*
X83630000Y-115450000D01*
X94203400Y-41699300D02*
X94203400Y-40193400D01*
X94203400Y-40193400D02*
X92610000Y-38600000D01*
X46790000Y-61463200D02*
X46790000Y-64000000D01*
X45050000Y-85374600D02*
X38650000Y-85374600D01*
X84050000Y-87580000D02*
X84050000Y-85040000D01*
X159050000Y-63790000D02*
X159050000Y-61250000D01*
X68500000Y-64080000D02*
X65670000Y-61250000D01*
X132750000Y-123380000D02*
X128250000Y-118880000D01*
X127190500Y-117820500D02*
X127190500Y-105899500D01*
X106423300Y-131023300D02*
X106423300Y-131450000D01*
X44200000Y-58873200D02*
X46790000Y-61463200D01*
X107450000Y-131450000D02*
X106423300Y-131450000D01*
X84250000Y-92180000D02*
X84050000Y-91980000D01*
X92741300Y-43161400D02*
X94203400Y-41699300D01*
X161701200Y-111381200D02*
X161701200Y-117851200D01*
X44200000Y-38600000D02*
X44200000Y-47144100D01*
X175500000Y-113000000D02*
X175050000Y-112550000D01*
X156338000Y-58538000D02*
X156338000Y-41988000D01*
X84050000Y-91980000D02*
X84050000Y-87580000D01*
X100800000Y-125400000D02*
X106423300Y-131023300D01*
X137320000Y-151200000D02*
X135930600Y-152589400D01*
X132240000Y-151200000D02*
X132240000Y-127010000D01*
X135670000Y-95880000D02*
X134319200Y-94529200D01*
X135900000Y-84300000D02*
X134873300Y-84300000D01*
X84050000Y-85040000D02*
X84050000Y-82500000D01*
X137500000Y-119072200D02*
X137500000Y-118850000D01*
X35050000Y-48500000D02*
X36405900Y-47144100D01*
X134319200Y-94529200D02*
X134319200Y-84854100D01*
X146050000Y-66280000D02*
X145250000Y-67080000D01*
X146050000Y-63740000D02*
X146050000Y-61200000D01*
X38650000Y-85374600D02*
X38650000Y-64650000D01*
X52250000Y-48050000D02*
X57830000Y-53630000D01*
X133192200Y-123380000D02*
X137500000Y-119072200D01*
X94050000Y-63790000D02*
X92741300Y-62481300D01*
X82893600Y-114713600D02*
X82893600Y-93536400D01*
X45050000Y-87840000D02*
X45050000Y-85374600D01*
X44200000Y-47144100D02*
X44200000Y-58873200D01*
X57830000Y-53630000D02*
X58050000Y-53630000D01*
X36405900Y-47144100D02*
X44200000Y-47144100D01*
X100800000Y-117180000D02*
X100800000Y-125400000D01*
X135670000Y-95880000D02*
X133500000Y-98050000D01*
X159450000Y-146350000D02*
X159450000Y-131400000D01*
X90800000Y-125400000D02*
X83630000Y-118230000D01*
X132750000Y-123380000D02*
X133192200Y-123380000D01*
X82893600Y-93536400D02*
X84250000Y-92180000D01*
X107050000Y-110930000D02*
X100800000Y-117180000D01*
X132240000Y-127010000D02*
X132750000Y-126500000D01*
X52670000Y-82760000D02*
X52670000Y-85300000D01*
X132750000Y-126500000D02*
X132750000Y-123380000D01*
X52670000Y-80220000D02*
X52670000Y-82760000D01*
X92741300Y-62481300D02*
X92741300Y-43161400D01*
%TO.N,/Q6_B*%
D29*
X125841100Y-70998900D02*
X128500000Y-68340000D01*
X125841100Y-82292400D02*
X125841100Y-70998900D01*
%TO.N,/Q6_C*%
X138500000Y-78500000D02*
X138440000Y-78560000D01*
X138440000Y-78560000D02*
X138440000Y-84300000D01*
%TO.N,CLOCK_OUT*%
X100490000Y-93850000D02*
X100490000Y-92773300D01*
X146050000Y-53580000D02*
X147176700Y-54706700D01*
X147176700Y-54706700D02*
X147176700Y-70394300D01*
X100490000Y-92773300D02*
X98410800Y-90694100D01*
X98410800Y-71500800D02*
X96250000Y-69340000D01*
X98410800Y-90694100D02*
X98410800Y-71500800D01*
%TO.N,/CPU_CLK_OUT*%
X85387500Y-98662500D02*
X84250000Y-99800000D01*
X85387500Y-81297500D02*
X85387500Y-98662500D01*
X46087500Y-46929800D02*
X46087500Y-58644900D01*
X84050000Y-72340000D02*
X82430400Y-73959600D01*
X82430400Y-78340400D02*
X84050000Y-79960000D01*
X51194500Y-63672400D02*
X51194500Y-73754800D01*
X49382000Y-61939400D02*
X49461500Y-61939400D01*
X82430400Y-73959600D02*
X82430400Y-78340400D01*
X49461500Y-61939400D02*
X51194500Y-63672400D01*
X48160000Y-44857300D02*
X46087500Y-46929800D01*
X46087500Y-58644900D02*
X49382000Y-61939400D01*
X48160000Y-38600000D02*
X48160000Y-44857300D01*
X84050000Y-79960000D02*
X85387500Y-81297500D01*
%TO.N,/TERM_CLK_OUT*%
X85187900Y-46723800D02*
X84903400Y-47008300D01*
X141894600Y-48067000D02*
X141894600Y-54504600D01*
X84903400Y-47008300D02*
X84903400Y-67761100D01*
X85329300Y-68186900D02*
X85639600Y-68497200D01*
X85329200Y-68186900D02*
X85329300Y-68186900D01*
X85639600Y-73290400D02*
X84050000Y-74880000D01*
X88750000Y-92180000D02*
X93250000Y-96680000D01*
X85733000Y-76563000D02*
X84050000Y-74880000D01*
X85733000Y-77201800D02*
X85733000Y-76563000D01*
X136282500Y-42454900D02*
X141894600Y-48067000D01*
X88750000Y-92180000D02*
X88750000Y-80218800D01*
X93250000Y-96680000D02*
X93250000Y-99800000D01*
X134444800Y-42454900D02*
X136282500Y-42454900D01*
X85639600Y-68497200D02*
X85639600Y-73290400D01*
X84903400Y-67761100D02*
X85329200Y-68186900D01*
X141894600Y-54504600D02*
X146050000Y-58660000D01*
X88750000Y-80218800D02*
X85733000Y-77201800D01*
%TO.N,CLOCK_IN*%
X114670000Y-56170000D02*
X116256800Y-57756800D01*
X116256800Y-57756800D02*
X116256800Y-71703600D01*
%TO.N,/LOCAL_REMOTE*%
X90472900Y-82500000D02*
X89485800Y-81512900D01*
X88670000Y-51090000D02*
X87903200Y-51856800D01*
X120879800Y-148763900D02*
X120879800Y-117162300D01*
X150639100Y-80480000D02*
X150639100Y-66770900D01*
X95300200Y-91210200D02*
X95300200Y-107002500D01*
X91670000Y-87580000D02*
X90472900Y-86382900D01*
X87544800Y-49224800D02*
X87492900Y-49172900D01*
X120879800Y-117162300D02*
X122500000Y-115542100D01*
X87492900Y-47134600D02*
X93245700Y-41381800D01*
X87903200Y-51856800D02*
X87903200Y-51867700D01*
X86356800Y-76548000D02*
X86356800Y-61341200D01*
X87759100Y-51127700D02*
X87544800Y-50913400D01*
X91670000Y-82500000D02*
X90472900Y-82500000D01*
X86224400Y-55035600D02*
X86432800Y-54827200D01*
X89485800Y-79677000D02*
X86356800Y-76548000D01*
X87903200Y-51867700D02*
X87770000Y-52000900D01*
X87759100Y-52000900D02*
X87759100Y-51127700D01*
X86432800Y-54827200D02*
X86432800Y-53327200D01*
X91670000Y-87580000D02*
X95300200Y-91210200D01*
X86432800Y-53327200D02*
X87759100Y-52000900D01*
X153670000Y-61200000D02*
X153670000Y-63740000D01*
X150639100Y-66770900D02*
X153670000Y-63740000D01*
X87492900Y-49172900D02*
X87492900Y-47134600D01*
X122500000Y-115542100D02*
X122500000Y-115540000D01*
X90472900Y-86382900D02*
X90472900Y-82500000D01*
X86356800Y-61341200D02*
X86224400Y-61208800D01*
X89485800Y-81512900D02*
X89485800Y-79677000D01*
X87544800Y-50913400D02*
X87544800Y-49224800D01*
X86224400Y-61208800D02*
X86224400Y-55035600D01*
X87770000Y-52000900D02*
X87759100Y-52000900D01*
%TO.N,/SEL_CPU_CLK*%
X92809000Y-82044100D02*
X91994900Y-81230000D01*
X91670000Y-85040000D02*
X92809000Y-83901000D01*
X89937500Y-79489900D02*
X87260800Y-76813200D01*
X86981300Y-71455400D02*
X86981300Y-56121600D01*
X89937500Y-79865600D02*
X89937500Y-79489900D01*
X87260800Y-76813200D02*
X87260800Y-71734900D01*
X87260800Y-71734900D02*
X86981300Y-71455400D01*
X91301900Y-81230000D02*
X89937500Y-79865600D01*
X91994900Y-81230000D02*
X91301900Y-81230000D01*
X92809000Y-83901000D02*
X92809000Y-82044100D01*
%TO.N,/CPU_DATA*%
X89806500Y-61780600D02*
X89067100Y-62520000D01*
X87542200Y-71377400D02*
X88445000Y-72280200D01*
X89806500Y-59360300D02*
X89806500Y-61780600D01*
X90854700Y-53570900D02*
X90854700Y-58312100D01*
X89067100Y-62520000D02*
X88276800Y-62520000D01*
X149856700Y-62473300D02*
X149856700Y-71964100D01*
X88276800Y-62520000D02*
X87542200Y-63254600D01*
X88445000Y-76735000D02*
X91670000Y-79960000D01*
X87542200Y-63254600D02*
X87542200Y-71377400D01*
X88445000Y-72280200D02*
X88445000Y-76735000D01*
X90854700Y-58312100D02*
X89806500Y-59360300D01*
X153670000Y-58660000D02*
X149856700Y-62473300D01*
%TO.N,/TERM_DATA*%
X103640300Y-94830600D02*
X98862500Y-90052800D01*
X98862500Y-66062500D02*
X94050000Y-61250000D01*
X121936200Y-51113200D02*
X121936200Y-62376700D01*
X91670000Y-77420000D02*
X90543000Y-76293000D01*
X90543000Y-76293000D02*
X90543000Y-61250000D01*
X98862500Y-90052800D02*
X98862500Y-66062500D01*
X103640300Y-112093000D02*
X103640300Y-94830600D01*
%TO.N,/DATA_SEL*%
X96449500Y-82121300D02*
X96449500Y-95975200D01*
X96449500Y-95975200D02*
X99414000Y-98939700D01*
X93084800Y-76294800D02*
X93084800Y-78756600D01*
X93084800Y-78756600D02*
X96449500Y-82121300D01*
X91670000Y-74880000D02*
X93084800Y-76294800D01*
X99414000Y-98939700D02*
X99414000Y-99416300D01*
%TO.N,/CPU_CLK_IN*%
X52120000Y-40976700D02*
X51114300Y-41982400D01*
X51114300Y-41982400D02*
X51114300Y-58398100D01*
X52120000Y-38600000D02*
X52120000Y-40976700D01*
X51114300Y-58398100D02*
X55431400Y-62715200D01*
X55431400Y-62715200D02*
X55431400Y-72546900D01*
%TO.N,+5V*%
D28*
X92588300Y-103979700D02*
X92588300Y-127188300D01*
X96850000Y-151200000D02*
X96850000Y-149848300D01*
X107050000Y-93150000D02*
X101000000Y-87100000D01*
X120490000Y-77251600D02*
X120490000Y-84750000D01*
X167228500Y-64348500D02*
X166670000Y-63790000D01*
X168508600Y-67002900D02*
X168508600Y-50388600D01*
X137020200Y-62439800D02*
X135670000Y-63790000D01*
X137020200Y-52440200D02*
X137020200Y-62439800D01*
X96250000Y-74380000D02*
X96250000Y-79500000D01*
X135670000Y-51090000D02*
X137020200Y-52440200D01*
X91670000Y-69800000D02*
X91756400Y-69713600D01*
X61634200Y-102605000D02*
X58450000Y-105789200D01*
X166596000Y-85278100D02*
X166596000Y-77153100D01*
X112464900Y-68304900D02*
X112500000Y-68340000D01*
X35050000Y-56120000D02*
X42670000Y-48500000D01*
X114670000Y-48550000D02*
X108450000Y-42330000D01*
X108450000Y-42330000D02*
X108450000Y-38600000D01*
X166596000Y-77153100D02*
X166761200Y-76987900D01*
X43600000Y-149848300D02*
X37500000Y-143748300D01*
X95800000Y-130400000D02*
X95800000Y-148798300D01*
X44670000Y-93900000D02*
X49250000Y-98480000D01*
X52670000Y-63620000D02*
X52670000Y-72600000D01*
X101670000Y-45380000D02*
X108450000Y-38600000D01*
X49250000Y-122100000D02*
X49250000Y-103550000D01*
X95800000Y-148798300D02*
X96850000Y-149848300D01*
X164610000Y-147550000D02*
X164610000Y-132663300D01*
X163050000Y-98320000D02*
X165590000Y-100860000D01*
X61237800Y-86403600D02*
X61237800Y-52982200D01*
X101000000Y-87100000D02*
X101000000Y-76950000D01*
X165590000Y-100860000D02*
X166144300Y-100305700D01*
X61237800Y-52982200D02*
X65670000Y-48550000D01*
X166761200Y-72370400D02*
X167228500Y-71903100D01*
X47500000Y-123850000D02*
X49250000Y-122100000D01*
X168508600Y-50388600D02*
X166670000Y-48550000D01*
X114670000Y-48550000D02*
X112464900Y-50755100D01*
X101670000Y-48550000D02*
X101670000Y-45380000D01*
X168508600Y-67002900D02*
X167228500Y-67002900D01*
X58450000Y-105789200D02*
X58450000Y-107650000D01*
X159500000Y-125650000D02*
X165250000Y-131400000D01*
X166144300Y-100305700D02*
X166144300Y-85729800D01*
X175500000Y-72457700D02*
X170045200Y-67002900D01*
X88750000Y-100141400D02*
X92588300Y-103979700D01*
X112464900Y-50755100D02*
X112464900Y-68304900D01*
X166144300Y-85729800D02*
X166596000Y-85278100D01*
X91756400Y-69713600D02*
X91756400Y-51636400D01*
X135670000Y-48550000D02*
X135670000Y-51090000D01*
X43600000Y-151200000D02*
X43600000Y-149848300D01*
X165250000Y-131400000D02*
X165873300Y-131400000D01*
X49250000Y-98480000D02*
X49250000Y-103550000D01*
X61634200Y-86800000D02*
X61634200Y-102605000D01*
X61634200Y-86800000D02*
X61237800Y-86403600D01*
X112500000Y-68340000D02*
X112500000Y-69261600D01*
X175500000Y-78500000D02*
X175500000Y-72457700D01*
X167228500Y-67002900D02*
X167228500Y-64348500D01*
X91670000Y-69800000D02*
X96250000Y-74380000D01*
X167228500Y-71903100D02*
X167228500Y-67002900D01*
X37500000Y-143748300D02*
X37500000Y-123850000D01*
X47250000Y-58200000D02*
X52670000Y-63620000D01*
X88750000Y-99800000D02*
X88750000Y-100141400D01*
X166900000Y-131400000D02*
X165873300Y-131400000D01*
X92588300Y-127188300D02*
X95800000Y-130400000D01*
X112500000Y-69261600D02*
X120490000Y-77251600D01*
X164610000Y-132663300D02*
X165873300Y-131400000D01*
X170045200Y-67002900D02*
X168508600Y-67002900D01*
X91756400Y-51636400D02*
X88670000Y-48550000D01*
X166761200Y-76987900D02*
X166761200Y-72370400D01*
X61634200Y-86800000D02*
X64750000Y-86800000D01*
%TO.N,/CPU_RS232_OUT*%
D29*
X94050000Y-48550000D02*
X94050000Y-43879100D01*
%TO.N,/TERM_RS232_OUT*%
X95581300Y-42440300D02*
X95581300Y-54638700D01*
X168790000Y-38600000D02*
X168790000Y-35789600D01*
X95581300Y-54638700D02*
X94050000Y-56170000D01*
%TO.N,/LED_READ_RDY*%
X130143800Y-87246400D02*
X136502700Y-80887500D01*
X115012900Y-152899200D02*
X115726700Y-152185400D01*
X115726700Y-144163000D02*
X118354700Y-141535000D01*
X136502700Y-80569000D02*
X136343600Y-80409900D01*
X118354700Y-127380900D02*
X120428100Y-125307500D01*
X120653100Y-116710000D02*
X120693300Y-116710000D01*
X103629200Y-152899200D02*
X115012900Y-152899200D01*
X115726700Y-152185400D02*
X115726700Y-144163000D01*
X136502700Y-80887500D02*
X136502700Y-80569000D01*
X120428100Y-116935000D02*
X120653100Y-116710000D01*
X121126600Y-95785900D02*
X129666100Y-87246400D01*
X121126600Y-116276700D02*
X121126600Y-95785900D01*
X120693300Y-116710000D02*
X121126600Y-116276700D01*
X101930000Y-151200000D02*
X103629200Y-152899200D01*
X138500000Y-66853500D02*
X138500000Y-68340000D01*
X120428100Y-125307500D02*
X120428100Y-116935000D01*
X118354700Y-141535000D02*
X118354700Y-127380900D01*
X136343600Y-80409900D02*
X136343600Y-66282700D01*
X136846900Y-65779400D02*
X137425900Y-65779400D01*
X136343600Y-66282700D02*
X136846900Y-65779400D01*
X129666100Y-87246400D02*
X130143800Y-87246400D01*
X137425900Y-65779400D02*
X138500000Y-66853500D01*
%TO.N,AUDIO_IN*%
X86395600Y-149044400D02*
X84240000Y-151200000D01*
X135006600Y-114750000D02*
X142500000Y-122243400D01*
X142500000Y-122243400D02*
X142500000Y-123850000D01*
X133500000Y-114750000D02*
X135006600Y-114750000D01*
X86395600Y-124784300D02*
X86395600Y-149044400D01*
%TO.N,/Mod{slash}Demod & power input/MOD_ATTEN*%
X149673800Y-119676200D02*
X149673800Y-111383800D01*
X148150000Y-121200000D02*
X149673800Y-119676200D01*
X147328800Y-107360900D02*
X147328800Y-93261200D01*
X149673800Y-109705900D02*
X147328800Y-107360900D01*
X149673800Y-111383800D02*
X149673800Y-109705900D01*
X147328800Y-93261200D02*
X150250000Y-90340000D01*
%TO.N,AUDIO_OUT*%
X150650000Y-121200000D02*
X146213300Y-125636700D01*
X146213300Y-125636700D02*
X146213300Y-153031500D01*
X146213300Y-153031500D02*
X146529400Y-153347600D01*
%TO.N,/LED_REC_RDY*%
X99390000Y-100647400D02*
X100174000Y-99863400D01*
X97425400Y-81258600D02*
X97425400Y-72315400D01*
X96953400Y-81730600D02*
X97425400Y-81258600D01*
X100174000Y-98778600D02*
X96953400Y-95558000D01*
X96953400Y-95558000D02*
X96953400Y-81730600D01*
X97425400Y-72315400D02*
X95094900Y-69984900D01*
X100174000Y-99863400D02*
X100174000Y-98778600D01*
X99390000Y-151200000D02*
X99390000Y-100647400D01*
X95094900Y-69984900D02*
X95094900Y-67809300D01*
%TO.N,/LED_REC_DATA*%
X113653000Y-118331100D02*
X113653000Y-115075500D01*
X113653000Y-115075500D02*
X112934000Y-114356500D01*
X110877500Y-121106600D02*
X113653000Y-118331100D01*
X104470000Y-151200000D02*
X104470000Y-138445000D01*
X108683500Y-114356500D02*
X107500000Y-115540000D01*
X110877500Y-132037500D02*
X110877500Y-121106600D01*
X104470000Y-138445000D02*
X110877500Y-132037500D01*
X112934000Y-114356500D02*
X108683500Y-114356500D01*
%TO.N,/LED_READ_DATA*%
X107010000Y-151200000D02*
X107010000Y-136990000D01*
X115000000Y-118040000D02*
X117500000Y-115540000D01*
X107010000Y-136990000D02*
X115000000Y-129000000D01*
X115000000Y-129000000D02*
X115000000Y-118040000D01*
%TO.N,+13V*%
D28*
X168570000Y-147550000D02*
X170941300Y-145178700D01*
X170941300Y-88951700D02*
X172026700Y-87866300D01*
X173689300Y-87866300D02*
X179023000Y-93200000D01*
X172026700Y-87866300D02*
X173689300Y-87866300D01*
X170941300Y-145178700D02*
X170941300Y-88951700D01*
X179023000Y-93200000D02*
X182670000Y-93200000D01*
%TO.N,-13V*%
X172530000Y-147550000D02*
X172530000Y-144998300D01*
X171743100Y-89300400D02*
X172310300Y-88733200D01*
X175050000Y-90599000D02*
X175050000Y-93200000D01*
X173184200Y-88733200D02*
X175050000Y-90599000D01*
X172310300Y-88733200D02*
X173184200Y-88733200D01*
X172530000Y-144998300D02*
X171743100Y-144211400D01*
X171743100Y-144211400D02*
X171743100Y-89300400D01*
%TO.N,+7.5V*%
X176490000Y-147550000D02*
X172774200Y-143834200D01*
X172774200Y-143834200D02*
X172774200Y-89740100D01*
%TO.N,-7.5V*%
X177892000Y-144992000D02*
X180450000Y-147550000D01*
X177892000Y-115240900D02*
X177892000Y-144992000D01*
%TO.N,/READ_SET*%
D29*
X57096000Y-149456000D02*
X58840000Y-151200000D01*
X57096000Y-98254000D02*
X57096000Y-149456000D01*
X58500000Y-96850000D02*
X57096000Y-98254000D01*
X56450500Y-62849500D02*
X56450500Y-94800500D01*
X56450500Y-94800500D02*
X58500000Y-96850000D01*
X58050000Y-61250000D02*
X56450500Y-62849500D01*
%TO.N,/CTRL_INVERT*%
X43520500Y-105450500D02*
X43520500Y-100129500D01*
X45635800Y-58832000D02*
X45635800Y-45057900D01*
X43520500Y-100129500D02*
X44670000Y-98980000D01*
X49250000Y-62446100D02*
X49249900Y-62446100D01*
X49249900Y-62446100D02*
X45635800Y-58832000D01*
X49250000Y-93390000D02*
X49250000Y-62446100D01*
X44670000Y-106600000D02*
X43520500Y-105450500D01*
%TO.N,/Mod{slash}Demod & power input/MOD_FILT*%
X129577100Y-98327000D02*
X129577100Y-98495200D01*
X128050000Y-90800000D02*
X126912900Y-91937100D01*
X126912900Y-91937100D02*
X126912900Y-96403800D01*
X126912900Y-96403800D02*
X127659100Y-97150000D01*
X128400100Y-97150000D02*
X129577100Y-98327000D01*
X128050000Y-93340000D02*
X128050000Y-90800000D01*
X127659100Y-97150000D02*
X128400100Y-97150000D01*
%TO.N,/Mod{slash}Demod & power input/MOD_F2*%
X130178400Y-95880000D02*
X130178400Y-87969800D01*
X130303800Y-96005400D02*
X130178400Y-95880000D01*
X137124900Y-81023300D02*
X137124900Y-66562800D01*
X134100800Y-121196200D02*
X134100800Y-118277300D01*
X134100800Y-118277300D02*
X130303800Y-114480300D01*
X130178400Y-87969800D02*
X137124900Y-81023300D01*
X130178400Y-95880000D02*
X128050000Y-95880000D01*
X130303800Y-114480300D02*
X130303800Y-96005400D01*
%TO.N,/Mod{slash}Demod & power input/DEM_IN*%
X138500000Y-104590000D02*
X143500000Y-109590000D01*
X143500000Y-109590000D02*
X143500000Y-114750000D01*
X135670000Y-98420000D02*
X135670000Y-101760000D01*
X135670000Y-101760000D02*
X138500000Y-104590000D01*
%TO.N,/Mod{slash}Demod & power input/DEM_CMP*%
X135670000Y-93340000D02*
X143500000Y-101170000D01*
X143500000Y-104812600D02*
X148500000Y-109812600D01*
X143500000Y-101170000D02*
X143500000Y-104590000D01*
X143500000Y-104590000D02*
X143500000Y-104812600D01*
X148500000Y-109812600D02*
X148500000Y-114750000D01*
%TO.N,DATA_OUT*%
X127809900Y-62376700D02*
X126585000Y-63601600D01*
X128516900Y-62376700D02*
X127809900Y-62376700D01*
X129194900Y-60774900D02*
X129194900Y-61698700D01*
X126585000Y-63601600D02*
X126585000Y-64210800D01*
X126923300Y-54756700D02*
X126923300Y-59180700D01*
X128400000Y-59980000D02*
X129194900Y-60774900D01*
X126923300Y-59180700D02*
X127722600Y-59980000D01*
X128050000Y-53630000D02*
X126923300Y-54756700D01*
X129194900Y-61698700D02*
X128516900Y-62376700D01*
X127722600Y-59980000D02*
X128400000Y-59980000D01*
%TO.N,/Mod{slash}Demod & power input/DEM_PULSE*%
X182670000Y-53630000D02*
X181520500Y-54779500D01*
X181520500Y-57560500D02*
X182670000Y-58710000D01*
X181520500Y-54779500D02*
X181520500Y-57560500D01*
X182670000Y-58710000D02*
X178024900Y-63355100D01*
X178024900Y-63355100D02*
X178024900Y-78474300D01*
%TO.N,/Mod{slash}Demod & power input/DEM_BIT*%
X158707100Y-88059000D02*
X162921600Y-83844500D01*
X164521500Y-70353100D02*
X165628200Y-69246400D01*
X157443800Y-94529300D02*
X157443800Y-89425900D01*
X158707100Y-88162600D02*
X158707100Y-88059000D01*
X162921600Y-77256900D02*
X164521500Y-75657000D01*
X161894400Y-109872000D02*
X161894400Y-107016900D01*
X158818000Y-103940500D02*
X158818000Y-96638500D01*
X164893600Y-114095400D02*
X163889800Y-113091600D01*
X163889800Y-113091600D02*
X163889800Y-111867400D01*
X164893600Y-118709900D02*
X164893600Y-114095400D01*
X165628200Y-69246400D02*
X165628200Y-67363400D01*
X164575800Y-66311000D02*
X164575800Y-61695800D01*
X164521500Y-75657000D02*
X164521500Y-70353100D01*
X157443800Y-89425900D02*
X158707100Y-88162600D01*
X158818000Y-96638500D02*
X158366300Y-96186800D01*
X158366300Y-95451800D02*
X157443800Y-94529300D01*
X158366300Y-96186800D02*
X158366300Y-95451800D01*
X163889800Y-111867400D02*
X161894400Y-109872000D01*
X161894400Y-107016900D02*
X158818000Y-103940500D01*
X164575800Y-61695800D02*
X159050000Y-56170000D01*
X162921600Y-83844500D02*
X162921600Y-77256900D01*
X165628200Y-67363400D02*
X164575800Y-66311000D01*
%TO.N,/Mod{slash}Demod & power input/MOD_F1*%
X120878700Y-86124300D02*
X113975700Y-86124300D01*
X122500000Y-78500000D02*
X122500000Y-84503000D01*
X117500000Y-68340000D02*
X122500000Y-73340000D01*
X122500000Y-73340000D02*
X122500000Y-78500000D01*
X122500000Y-84503000D02*
X120878700Y-86124300D01*
X113975700Y-86124300D02*
X112500000Y-87600000D01*
%TO.N,/D18_K*%
X107500000Y-70453100D02*
X107500000Y-68340000D01*
X117950000Y-80903100D02*
X107500000Y-70453100D01*
X117950000Y-84750000D02*
X117950000Y-80903100D01*
%TO.N,/Mod{slash}Demod & power input/MOD_SQ*%
X110339600Y-71339600D02*
X110339600Y-51839600D01*
X110339600Y-51839600D02*
X107050000Y-48550000D01*
X117500000Y-78500000D02*
X110339600Y-71339600D01*
%TO.N,/DELAY_RC*%
X44250000Y-64000000D02*
X43398300Y-64000000D01*
X41507500Y-62109200D02*
X43398300Y-64000000D01*
X46987800Y-48302200D02*
X46987800Y-51034100D01*
X41507500Y-54742500D02*
X41507500Y-62109200D01*
X42670000Y-53580000D02*
X41507500Y-54742500D01*
X42670000Y-51040000D02*
X42670000Y-53580000D01*
X47250000Y-48040000D02*
X46987800Y-48302200D01*
%TO.N,/START_READ*%
X118924300Y-86601800D02*
X121050000Y-86601800D01*
X123426600Y-83894600D02*
X123660100Y-83661100D01*
X123660100Y-83661100D02*
X123660100Y-41930100D01*
X123426600Y-84225200D02*
X123426600Y-83894600D01*
X120330000Y-38600000D02*
X122236700Y-38600000D01*
X123660100Y-41930100D02*
X122236700Y-40506700D01*
X105176000Y-103520600D02*
X106629900Y-102066700D01*
X122236700Y-40506700D02*
X122236700Y-38600000D01*
X109663300Y-95862800D02*
X118924300Y-86601800D01*
X106629900Y-102066700D02*
X107346800Y-102066700D01*
X109663300Y-99750200D02*
X109663300Y-95862800D01*
X121050000Y-86601800D02*
X123426600Y-84225200D01*
X107346800Y-102066700D02*
X109663300Y-99750200D01*
X105176000Y-107907300D02*
X105176000Y-103520600D01*
%TO.N,/DELAY_OUT*%
X107500000Y-78500000D02*
X105553300Y-76553300D01*
X105553300Y-76553300D02*
X105553300Y-57754000D01*
%TO.N,/Mod{slash}Demod & power input/DEM_R16*%
X166771000Y-85989400D02*
X167222700Y-85537700D01*
X167222700Y-85537700D02*
X167222700Y-77412700D01*
X164551100Y-103400000D02*
X166771000Y-101180100D01*
X166771000Y-101180100D02*
X166771000Y-85989400D01*
X163050000Y-103400000D02*
X164551100Y-103400000D01*
X169500000Y-75135400D02*
X169500000Y-68340000D01*
X167222700Y-77412700D02*
X169500000Y-75135400D01*
%TO.N,/Mod{slash}Demod & power input/DEM_Q4B*%
X179763500Y-69341100D02*
X179631200Y-69208800D01*
X179763500Y-69715300D02*
X179763500Y-69341100D01*
X179366900Y-70111900D02*
X179763500Y-69715300D01*
X175500000Y-82600000D02*
X179311800Y-78788200D01*
X179311800Y-70111900D02*
X179366900Y-70111900D01*
X99220000Y-92508000D02*
X97684100Y-90972100D01*
X97684100Y-90972100D02*
X97684100Y-83161200D01*
X179311800Y-78788200D02*
X179311800Y-70111900D01*
X179631200Y-69208800D02*
X180500000Y-68340000D01*
X99220000Y-93850000D02*
X99220000Y-92508000D01*
%TO.N,/Mod{slash}Demod & power input/DEM_Q2B*%
X181720000Y-73917600D02*
X184342100Y-71295500D01*
X184342100Y-50947900D02*
X187250000Y-48040000D01*
X184342100Y-71295500D02*
X184342100Y-50947900D01*
X181720000Y-84300000D02*
X181720000Y-73917600D01*
%TO.N,/Mod{slash}Demod & power input/DEM_Q2C*%
X183841700Y-75008300D02*
X185500000Y-73350000D01*
X176222100Y-67617900D02*
X175500000Y-68340000D01*
X182990000Y-84300000D02*
X183841700Y-84300000D01*
X175050000Y-61250000D02*
X175050000Y-58710000D01*
X175050000Y-61250000D02*
X176222100Y-62422100D01*
X176222100Y-62422100D02*
X176222100Y-67617900D01*
X183841700Y-84300000D02*
X183841700Y-75008300D01*
%TO.N,/TAPE_DATA*%
X102344800Y-85295500D02*
X108209900Y-91160600D01*
X100147100Y-62520000D02*
X100147100Y-66162300D01*
X108799500Y-109583100D02*
X114104700Y-114888300D01*
X108209900Y-91160600D02*
X108209900Y-99610100D01*
X105824200Y-109583100D02*
X108799500Y-109583100D01*
X114104700Y-114888300D02*
X114104700Y-124095300D01*
X107050000Y-100770000D02*
X104449300Y-103370700D01*
X102344800Y-68360000D02*
X102344800Y-85295500D01*
X108209900Y-99610100D02*
X107050000Y-100770000D01*
X104449300Y-108208200D02*
X105824200Y-109583100D01*
X114104700Y-124095300D02*
X112500000Y-125700000D01*
X104449300Y-103370700D02*
X104449300Y-108208200D01*
X100147100Y-66162300D02*
X102344800Y-68360000D01*
%TO.N,/Q7_B*%
X112500000Y-115540000D02*
X108720000Y-119320000D01*
X108720000Y-119320000D02*
X108720000Y-131450000D01*
%TO.N,/EAR_B*%
X89320000Y-151200000D02*
X89320000Y-148014300D01*
%TO.N,/READ_EN_N*%
X60126800Y-91123200D02*
X58500000Y-92750000D01*
X58050000Y-51090000D02*
X60126800Y-53166800D01*
X60126800Y-53166800D02*
X60126800Y-91123200D01*
%TO.N,/Q10_B*%
X57364500Y-93219400D02*
X57364500Y-83725500D01*
X60585100Y-96440000D02*
X57364500Y-93219400D01*
X60585100Y-102352600D02*
X60585100Y-96440000D01*
X57364500Y-83725500D02*
X58500000Y-82590000D01*
%TO.N,/Mod{slash}Demod & power input/DEM_BIT_EDGE*%
X177297500Y-56462500D02*
X177297500Y-79000700D01*
X169686200Y-86612000D02*
X169686200Y-92750000D01*
X169686200Y-120463800D02*
X169686200Y-92750000D01*
X177297500Y-79000700D02*
X169686200Y-86612000D01*
X169686200Y-92750000D02*
X169500000Y-92750000D01*
X182670000Y-51090000D02*
X177297500Y-56462500D01*
X169500000Y-120650000D02*
X169686200Y-120463800D01*
%TO.N,/TERM_RS232_IN*%
X175500000Y-115610000D02*
X182670000Y-108440000D01*
X182288500Y-99550000D02*
X181513500Y-100325000D01*
X183032100Y-99550000D02*
X182288500Y-99550000D01*
X174656700Y-38600000D02*
X174656700Y-39717200D01*
X188413000Y-94169100D02*
X183032100Y-99550000D01*
X175500000Y-118000000D02*
X175500000Y-115610000D01*
X181078200Y-46138700D02*
X186985300Y-46138700D01*
X186985300Y-46138700D02*
X188413000Y-47566400D01*
X181513500Y-107283500D02*
X182670000Y-108440000D01*
X174656700Y-39717200D02*
X181078200Y-46138700D01*
X172750000Y-38600000D02*
X174656700Y-38600000D01*
X188413000Y-47566400D02*
X188413000Y-94169100D01*
X181513500Y-100325000D02*
X181513500Y-107283500D01*
%TO.N,/TERM_ECHO*%
X155185300Y-88490300D02*
X155185300Y-100580400D01*
X153670000Y-51040000D02*
X155637000Y-53007000D01*
X155637000Y-53007000D02*
X155637000Y-88038600D01*
X155185300Y-100580400D02*
X155637000Y-101032100D01*
X155637000Y-88038600D02*
X155185300Y-88490300D01*
%TO.N,/TERM_TX_SEL*%
X153670000Y-53580000D02*
X155085700Y-54995700D01*
X155535000Y-101957600D02*
X155535000Y-102230300D01*
X155085700Y-54995700D02*
X155085700Y-87951100D01*
X154733600Y-88303200D02*
X154733600Y-101156300D01*
X155085700Y-87951100D02*
X154733600Y-88303200D01*
X155534900Y-101957600D02*
X155535000Y-101957600D01*
X154733600Y-101156300D02*
X155534900Y-101957600D01*
%TO.N,/CPU_RS232_IN*%
X183819500Y-101969500D02*
X182670000Y-100820000D01*
X180500000Y-118000000D02*
X183819500Y-114680500D01*
X183819500Y-114680500D02*
X183819500Y-101969500D01*
X182670000Y-100820000D02*
X190542700Y-92947300D01*
X190542700Y-92947300D02*
X190542700Y-34904300D01*
%TO.N,/Mod{slash}Demod & power input/DEM_Q1B*%
X162469900Y-77593200D02*
X156992100Y-83071000D01*
X156540400Y-94903500D02*
X157409800Y-95772900D01*
X162469900Y-77069800D02*
X162469900Y-77593200D01*
X156540400Y-89051600D02*
X156540400Y-94903500D01*
X164069800Y-75469900D02*
X162469900Y-77069800D01*
X156992100Y-83071000D02*
X156992100Y-88599900D01*
X157587700Y-99968700D02*
X157587700Y-125957800D01*
X157409800Y-95772900D02*
X157409800Y-99790800D01*
X156992100Y-88599900D02*
X156540400Y-89051600D01*
X160720000Y-129090100D02*
X160720000Y-131400000D01*
X164069800Y-68770200D02*
X164069800Y-75469900D01*
X157587700Y-125957800D02*
X160720000Y-129090100D01*
X157409800Y-99790800D02*
X157587700Y-99968700D01*
X164500000Y-68340000D02*
X164069800Y-68770200D01*
%TO.N,/Mod{slash}Demod & power input/DEM_CLK_N*%
X183859200Y-57359200D02*
X183859200Y-70821400D01*
X183859200Y-70821400D02*
X180500000Y-74180600D01*
X175500000Y-87600000D02*
X175500000Y-85463200D01*
X180500000Y-74180600D02*
X180500000Y-78500000D01*
X175500000Y-85463200D02*
X180500000Y-80463200D01*
X182670000Y-56170000D02*
X183859200Y-57359200D01*
X180500000Y-80463200D02*
X180500000Y-78500000D01*
%TO.N,/RELAY_1*%
X76620000Y-151200000D02*
X68250000Y-142830000D01*
X68250000Y-142830000D02*
X68250000Y-121300000D01*
%TO.N,/MAN_MOTOR*%
X55030000Y-151599900D02*
X55030000Y-114526300D01*
X51220000Y-151200000D02*
X52436700Y-152416700D01*
X54213200Y-152416700D02*
X55030000Y-151599900D01*
X52436700Y-152416700D02*
X54213200Y-152416700D01*
%TO.N,/Mod{slash}Demod & power input/DEM_EDGE*%
X165493300Y-57346700D02*
X166670000Y-56170000D01*
X159500000Y-89806700D02*
X165969300Y-83337400D01*
X159500000Y-92750000D02*
X159500000Y-89806700D01*
X166586200Y-71659100D02*
X166586200Y-66725600D01*
X165969300Y-72276000D02*
X166586200Y-71659100D01*
X166586200Y-66725600D02*
X165493300Y-65632700D01*
X165969300Y-83337400D02*
X165969300Y-72276000D01*
X182670000Y-61250000D02*
X182670000Y-63790000D01*
X165493300Y-65632700D02*
X165493300Y-57346700D01*
%TO.N,/Mod{slash}Demod & power input/DEM_D4*%
X161442700Y-110059200D02*
X163298300Y-111914800D01*
X156992100Y-89238700D02*
X156992100Y-94716400D01*
X163298300Y-111914800D02*
X163298300Y-116098300D01*
X156992100Y-94716400D02*
X157914600Y-95638900D01*
X157980400Y-84109600D02*
X157980400Y-88250400D01*
X157914600Y-95638900D02*
X157914600Y-96373900D01*
X159500000Y-82590000D02*
X157980400Y-84109600D01*
X157914600Y-96373900D02*
X158313200Y-96772500D01*
X161442700Y-108661500D02*
X161442700Y-110059200D01*
X163298300Y-116098300D02*
X163750000Y-116550000D01*
X158313200Y-96772500D02*
X158313200Y-105532000D01*
X158313200Y-105532000D02*
X161442700Y-108661500D01*
X157980400Y-88250400D02*
X156992100Y-89238700D01*
%TO.N,/Q8_C*%
X107500000Y-125700000D02*
X107500000Y-129644300D01*
%TO.N,/RELAY_2*%
X73860000Y-121300000D02*
X72750000Y-121300000D01*
X79160000Y-151200000D02*
X79710000Y-150650000D01*
X79710000Y-150650000D02*
X79710000Y-127150000D01*
X79710000Y-127150000D02*
X73860000Y-121300000D01*
%TO.N,/Mod{slash}Demod & power input/MOD_CLK2*%
X108635800Y-73216200D02*
X106331800Y-70912200D01*
X106331800Y-67888000D02*
X108199500Y-66020300D01*
X106322900Y-86422900D02*
X106322900Y-82106200D01*
X107500000Y-87600000D02*
X106322900Y-86422900D01*
X108199500Y-54779500D02*
X107050000Y-53630000D01*
X108635800Y-79793300D02*
X108635800Y-73216200D01*
X108199500Y-66020300D02*
X108199500Y-54779500D01*
X106322900Y-82106200D02*
X108635800Y-79793300D01*
X106331800Y-70912200D02*
X106331800Y-67888000D01*
%TO.N,/Mod{slash}Demod & power input/MOD_EDGE*%
X111600000Y-78500000D02*
X112500000Y-78500000D01*
X173229100Y-52910900D02*
X175050000Y-51090000D01*
X173229100Y-67127500D02*
X173229100Y-52910900D01*
X107500000Y-82600000D02*
X111600000Y-78500000D01*
%TO.N,/START_RECORD*%
X37500000Y-113690000D02*
X35900500Y-112090500D01*
X37050000Y-106600000D02*
X33448800Y-102998800D01*
X35900500Y-112090500D02*
X35900500Y-107749500D01*
X33448800Y-102998800D02*
X33448800Y-45997000D01*
X35900500Y-107749500D02*
X37050000Y-106600000D01*
%TO.N,/MOTOR_2B*%
X122739200Y-150630800D02*
X122170000Y-151200000D01*
X122739200Y-146201500D02*
X122739200Y-150630800D01*
%TO.N,/MOTOR_2A*%
X119630000Y-151200000D02*
X119630000Y-127488600D01*
X119630000Y-127488600D02*
X119460700Y-127319300D01*
%TO.N,/POR*%
X69750000Y-86800000D02*
X69750000Y-79750000D01*
X63500000Y-68340000D02*
X68500000Y-73340000D01*
X69750000Y-79750000D02*
X68500000Y-78500000D01*
X68500000Y-73340000D02*
X68500000Y-78500000D01*
%TO.N,/STOP_READ*%
X60584900Y-94728000D02*
X60584900Y-44296000D01*
X52500000Y-100125000D02*
X52500000Y-113690000D01*
X43514800Y-93430600D02*
X44189000Y-92756400D01*
X44670000Y-96440000D02*
X43514800Y-95284800D01*
X44189000Y-92756400D02*
X45131400Y-92756400D01*
X43514800Y-95284800D02*
X43514800Y-93430600D01*
X45131400Y-92756400D02*
X52500000Y-100125000D01*
%TO.N,/REC_EN*%
X33900500Y-52189500D02*
X35050000Y-51040000D01*
X45520000Y-64000000D02*
X45520000Y-65076700D01*
X45520000Y-65076700D02*
X42386000Y-65076700D01*
X140250000Y-58200000D02*
X139572300Y-57522300D01*
X33900500Y-56591200D02*
X33900500Y-52189500D01*
X139572300Y-57522300D02*
X139572300Y-53601400D01*
X42386000Y-65076700D02*
X33900500Y-56591200D01*
%TO.N,/READ_EN*%
X129666200Y-77333800D02*
X129666200Y-59165600D01*
X129666200Y-59165600D02*
X129210600Y-58710000D01*
X129662300Y-58258300D02*
X129662300Y-50162300D01*
X129210600Y-58710000D02*
X128050000Y-58710000D01*
X129210600Y-58710000D02*
X129662300Y-58258300D01*
X129662300Y-50162300D02*
X128050000Y-48550000D01*
X128500000Y-78500000D02*
X129666200Y-77333800D01*
%TO.N,/READ_RST*%
X67791700Y-96141700D02*
X68500000Y-96850000D01*
X58500000Y-78500000D02*
X56902200Y-80097800D01*
X57574400Y-147394400D02*
X61380000Y-151200000D01*
X67791700Y-82851100D02*
X67791700Y-96141700D01*
X59626700Y-102367800D02*
X57574400Y-104420100D01*
X56902200Y-93648000D02*
X59626700Y-96372500D01*
X56902200Y-80097800D02*
X56902200Y-93648000D01*
X59643100Y-77356900D02*
X58500000Y-78500000D01*
X57574400Y-104420100D02*
X57574400Y-147394400D01*
X59626700Y-96372500D02*
X59626700Y-102367800D01*
X58050000Y-56170000D02*
X59643100Y-57763100D01*
X59643100Y-57763100D02*
X59643100Y-77356900D01*
%TO.N,/REC_SET*%
X54251200Y-96381300D02*
X55077500Y-95555000D01*
X62372500Y-69071300D02*
X62372500Y-67087500D01*
X63500000Y-96850000D02*
X66546000Y-93804000D01*
X62372500Y-67087500D02*
X65670000Y-63790000D01*
X53760000Y-151200000D02*
X54251200Y-150708800D01*
X66546000Y-93804000D02*
X66546000Y-73244800D01*
X66546000Y-73244800D02*
X62372500Y-69071300D01*
X54251200Y-150708800D02*
X54251200Y-96381300D01*
%TO.N,/REC_RST*%
X66094300Y-81094300D02*
X66094300Y-91874000D01*
X56300000Y-151200000D02*
X55903800Y-150803800D01*
X63500000Y-78500000D02*
X66094300Y-81094300D01*
X55903800Y-150803800D02*
X55903800Y-94093000D01*
X63500000Y-78500000D02*
X61915600Y-76915600D01*
X61915600Y-62464400D02*
X65670000Y-58710000D01*
X61915600Y-76915600D02*
X61915600Y-62464400D01*
X66094300Y-91874000D02*
X65784400Y-92183900D01*
X55903800Y-94093000D02*
X55711900Y-93901100D01*
%TO.N,/REC_EN_N*%
X67084800Y-60263600D02*
X74640000Y-67818800D01*
X67084800Y-55044800D02*
X67084800Y-60263600D01*
X65670000Y-53630000D02*
X67084800Y-55044800D01*
X74640000Y-67818800D02*
X74640000Y-77360000D01*
X74640000Y-77360000D02*
X73500000Y-78500000D01*
%TO.N,/Mod{slash}Demod & power input/DEM_HP*%
X142500000Y-118850000D02*
X138500000Y-114850000D01*
X138500000Y-114850000D02*
X138500000Y-114750000D01*
%TO.N,/STOP_RECORD*%
X47500000Y-113690000D02*
X40327000Y-106517000D01*
X99045000Y-55130100D02*
X99384500Y-55469600D01*
X102583300Y-38600000D02*
X102583300Y-40508800D01*
X99045000Y-44047100D02*
X99045000Y-55130100D01*
X99384500Y-89122000D02*
X99596200Y-89333700D01*
X99384500Y-55469600D02*
X99384500Y-89122000D01*
X102583300Y-40508800D02*
X99045000Y-44047100D01*
X40327000Y-106517000D02*
X40327000Y-93900000D01*
X104490000Y-38600000D02*
X102583300Y-38600000D01*
%TO.N,/Mod{slash}Demod & power input/DEM_LIM*%
X166670000Y-53630000D02*
X167840100Y-54800100D01*
X167840100Y-60079900D02*
X166670000Y-61250000D01*
X155637000Y-88677400D02*
X155637000Y-99295600D01*
X156088700Y-69926500D02*
X156088700Y-88225700D01*
X156134300Y-104590000D02*
X148500000Y-104590000D01*
X156387300Y-100045900D02*
X156387300Y-104337000D01*
X156088700Y-88225700D02*
X155637000Y-88677400D01*
X156134300Y-104590000D02*
X156134300Y-116550000D01*
X156387300Y-104337000D02*
X156134300Y-104590000D01*
X160486900Y-61715800D02*
X160486900Y-65528300D01*
X167840100Y-54800100D02*
X167840100Y-60079900D01*
X155637000Y-99295600D02*
X156387300Y-100045900D01*
X160486900Y-65528300D02*
X156088700Y-69926500D01*
%TO.N,/Mod{slash}Demod & power input/DEM_Q3B*%
X169740500Y-85918900D02*
X169661000Y-85918900D01*
X169661000Y-85918900D02*
X167959300Y-87620600D01*
X176794100Y-57914100D02*
X176794100Y-78865300D01*
X175050000Y-56170000D02*
X176794100Y-57914100D01*
X167959300Y-87620600D02*
X167959300Y-92750000D01*
X176794100Y-78865300D02*
X169740500Y-85918900D01*
%TO.N,/Mod{slash}Demod & power input/DEM_Q3B_R*%
X168170000Y-132476700D02*
X169870000Y-132476700D01*
X158347900Y-90084700D02*
X164500000Y-83932600D01*
X158347900Y-93439000D02*
X158347900Y-90084700D01*
X159721400Y-94812500D02*
X158347900Y-93439000D01*
X159721400Y-101967100D02*
X159721400Y-94812500D01*
X170302500Y-132044200D02*
X170302500Y-128045900D01*
X168170000Y-131400000D02*
X168170000Y-132476700D01*
X166524200Y-124267600D02*
X166524200Y-108769900D01*
X170302500Y-128045900D02*
X166524200Y-124267600D01*
X169870000Y-132476700D02*
X170302500Y-132044200D01*
X166524200Y-108769900D02*
X159721400Y-101967100D01*
X164500000Y-83932600D02*
X164500000Y-82590000D01*
%TO.N,/Q9_B*%
X59720000Y-107650000D02*
X59720000Y-106573300D01*
X59720000Y-106573300D02*
X60376700Y-106573300D01*
X60376700Y-106573300D02*
X71085900Y-95864100D01*
X71085900Y-95864100D02*
X71085900Y-70754100D01*
X71085900Y-70754100D02*
X73500000Y-68340000D01*
%TO.N,/REC_RLY_DRV*%
X60990000Y-138110000D02*
X60990000Y-108726700D01*
X60990000Y-107650000D02*
X60990000Y-108726700D01*
X74080000Y-151200000D02*
X60990000Y-138110000D01*
%TO.N,/Mod{slash}Demod & power input/DEM_CD*%
X165627600Y-125298900D02*
X169440000Y-129111300D01*
X169440000Y-129111300D02*
X169440000Y-131400000D01*
X159805500Y-59980000D02*
X161220200Y-61394700D01*
X157902000Y-52238000D02*
X157902000Y-59185500D01*
X159050000Y-51090000D02*
X157902000Y-52238000D01*
X158696500Y-59980000D02*
X159805500Y-59980000D01*
X156540400Y-79866200D02*
X156540400Y-88412800D01*
X160639400Y-121789400D02*
X159500000Y-120650000D01*
X156958100Y-110469800D02*
X156861000Y-110566900D01*
X161220200Y-75186400D02*
X156540400Y-79866200D01*
X161220200Y-61394700D02*
X161220200Y-75186400D01*
X165627600Y-121789400D02*
X165627600Y-125298900D01*
X159050000Y-51090000D02*
X159050000Y-48550000D01*
X165627600Y-121789400D02*
X160639400Y-121789400D01*
X165627600Y-121789400D02*
X165627600Y-110807600D01*
X165627600Y-110807600D02*
X163750000Y-108930000D01*
X156088700Y-88864500D02*
X156088700Y-95090600D01*
X156958100Y-95960000D02*
X156958100Y-110469800D01*
X156540400Y-88412800D02*
X156088700Y-88864500D01*
X157902000Y-59185500D02*
X158696500Y-59980000D01*
X156088700Y-95090600D02*
X156958100Y-95960000D01*
%TO.N,/TERM_CLK_IN*%
X138150000Y-40561000D02*
X138150000Y-37367100D01*
X134600300Y-36209700D02*
X132210000Y-38600000D01*
X142784000Y-52854000D02*
X142784000Y-45195000D01*
X142784000Y-45195000D02*
X138150000Y-40561000D01*
X136992600Y-36209700D02*
X134600300Y-36209700D01*
X138150000Y-37367100D02*
X136992600Y-36209700D01*
X146050000Y-56120000D02*
X142784000Y-52854000D01*
%TO.N,CARRIER_DETECT*%
X134263300Y-38600000D02*
X134263300Y-40408400D01*
X136170000Y-38600000D02*
X134263300Y-38600000D01*
X126901300Y-47770400D02*
X126901300Y-49941300D01*
X126901300Y-49941300D02*
X128050000Y-51090000D01*
X134263300Y-40408400D02*
X126901300Y-47770400D01*
X129210600Y-55009400D02*
X129210600Y-52250600D01*
X129210600Y-52250600D02*
X128050000Y-51090000D01*
X128050000Y-56170000D02*
X129210600Y-55009400D01*
%TO.N,CARRIER_EN_N*%
X113704000Y-66391000D02*
X113398300Y-66391000D01*
X113543300Y-57583300D02*
X114670000Y-58710000D01*
X54251200Y-71820200D02*
X53799500Y-72271900D01*
X114670000Y-58710000D02*
X115805100Y-59845100D01*
X114203300Y-55043300D02*
X113543300Y-55703300D01*
X53799500Y-72271900D02*
X53799500Y-146080500D01*
X53799500Y-146080500D02*
X48680000Y-151200000D01*
X115805100Y-64289900D02*
X113704000Y-66391000D01*
X113543300Y-55703300D02*
X113543300Y-57583300D01*
X119250000Y-50690800D02*
X114897500Y-55043300D01*
X115805100Y-59845100D02*
X115805100Y-64289900D01*
X119250000Y-48040000D02*
X119250000Y-50690800D01*
X114897500Y-55043300D02*
X114203300Y-55043300D01*
%TO.N,/Mod{slash}Demod & power input/DEM_TIMER*%
X159050000Y-58710000D02*
X160808500Y-58710000D01*
X168124600Y-85592800D02*
X167222700Y-86494700D01*
X168124600Y-79875400D02*
X168124600Y-85592800D01*
X162575300Y-60476800D02*
X162575300Y-74211300D01*
X167222700Y-123889600D02*
X167713700Y-124380600D01*
X160808500Y-58710000D02*
X162575300Y-60476800D01*
X169500000Y-78500000D02*
X168124600Y-79875400D01*
X167222700Y-86494700D02*
X167222700Y-123889600D01*
%TO.N,/Mod{slash}Demod & power input/MOD_FB*%
X145250000Y-100500000D02*
X140250000Y-95500000D01*
X140250000Y-95500000D02*
X140250000Y-90340000D01*
%TO.N,/READ_RLY_DRV*%
X81700000Y-124387400D02*
X81700000Y-151200000D01*
X69291700Y-111979100D02*
X81700000Y-124387400D01*
X68440000Y-107650000D02*
X69291700Y-107650000D01*
X69291700Y-107650000D02*
X69291700Y-111979100D01*
%TO.N,DATA_IN*%
X146426600Y-105577000D02*
X146426600Y-83269800D01*
X146426600Y-83269800D02*
X149124800Y-80571600D01*
X145859300Y-106144300D02*
X146426600Y-105577000D01*
X149124800Y-80571600D02*
X149124800Y-49913300D01*
%TO.N,/Q8_B*%
X116170000Y-120554300D02*
X116170000Y-131450000D01*
X119250000Y-92690000D02*
X120428100Y-93868100D01*
X120428100Y-93868100D02*
X120428100Y-116296200D01*
X120428100Y-116296200D02*
X116170000Y-120554300D01*
%TO.N,/MOTOR_1B*%
X92499900Y-129860900D02*
X79115700Y-116476700D01*
X92499900Y-152118100D02*
X92499900Y-129860900D01*
X78550000Y-115450000D02*
X78550000Y-116476700D01*
X79115700Y-116476700D02*
X78550000Y-116476700D01*
%TO.N,/MOTOR_1A*%
X98191900Y-151686200D02*
X98912200Y-152406500D01*
X102417500Y-150023300D02*
X103106700Y-150712500D01*
X101442600Y-150023300D02*
X102417500Y-150023300D01*
X114550000Y-151200000D02*
X113373300Y-151200000D01*
X100753300Y-150712600D02*
X101442600Y-150023300D01*
X100753300Y-151565500D02*
X100753300Y-150712600D01*
X103106700Y-151544600D02*
X103938800Y-152376700D01*
X103106700Y-150712500D02*
X103106700Y-151544600D01*
X98191900Y-119851900D02*
X98191900Y-151686200D01*
X99912300Y-152406500D02*
X100753300Y-151565500D01*
X112196600Y-152376700D02*
X113373300Y-151200000D01*
X103938800Y-152376700D02*
X112196600Y-152376700D01*
X93790000Y-115450000D02*
X98191900Y-119851900D01*
X98912200Y-152406500D02*
X99912300Y-152406500D01*
%TO.N,/Mod{slash}Demod & power input/MOD_DIV4_N*%
X107050000Y-58223000D02*
X105900500Y-57073500D01*
X105900500Y-52239500D02*
X107050000Y-51090000D01*
X105900500Y-57073500D02*
X105900500Y-52239500D01*
X107050000Y-58710000D02*
X107050000Y-58223000D01*
%TO.N,/Mod{slash}Demod & power input/MOD_DIV2_N*%
X113091600Y-59671600D02*
X114670000Y-61250000D01*
X114670000Y-53630000D02*
X113091600Y-55208400D01*
X113091600Y-55208400D02*
X113091600Y-59671600D01*
%TO.N,/Q5_C*%
X133500000Y-78500000D02*
X130990000Y-81010000D01*
X130990000Y-81010000D02*
X130990000Y-84300000D01*
%TO.N,/Q5_B*%
X140250000Y-48040000D02*
X138845600Y-49444400D01*
X136023100Y-80728300D02*
X131374700Y-85376700D01*
X135891900Y-80597000D02*
X136023100Y-80728200D01*
X131374700Y-85376700D02*
X129720000Y-85376700D01*
X129720000Y-84300000D02*
X129720000Y-85376700D01*
X136023100Y-80728200D02*
X136023100Y-80728300D01*
X138845600Y-49444400D02*
X138845600Y-62903200D01*
X135891900Y-65856900D02*
X135891900Y-80597000D01*
X138845600Y-62903200D02*
X135891900Y-65856900D01*
%TO.N,/Q7_C*%
X109990000Y-131450000D02*
X109990000Y-126645100D01*
%TO.N,/Mod{slash}Demod & power input/DEM_DLY*%
X165027500Y-65805800D02*
X165027500Y-52732500D01*
X166093800Y-66872100D02*
X165027500Y-65805800D01*
X163373300Y-77444000D02*
X164973200Y-75844100D01*
X162346100Y-109684600D02*
X162346100Y-106726400D01*
X165027500Y-52732500D02*
X166670000Y-51090000D01*
X164973200Y-72146200D02*
X165700000Y-71419400D01*
X159269700Y-95716400D02*
X157895500Y-94342200D01*
X159008100Y-88785700D02*
X159433800Y-88360000D01*
X159433800Y-88360000D02*
X159433800Y-88301900D01*
X163373300Y-84362400D02*
X163373300Y-77444000D01*
X165700000Y-71419400D02*
X166093800Y-71025600D01*
X164893600Y-112232100D02*
X162346100Y-109684600D01*
X158950000Y-88785700D02*
X159008100Y-88785700D01*
X157895500Y-94342200D02*
X157895500Y-89840200D01*
X164973200Y-75844100D02*
X164973200Y-72146200D01*
X166093800Y-71025600D02*
X166093800Y-66872100D01*
X159269700Y-103650000D02*
X159269700Y-95716400D01*
X162346100Y-106726400D02*
X159269700Y-103650000D01*
X159433800Y-88301900D02*
X163373300Y-84362400D01*
X157895500Y-89840200D02*
X158950000Y-88785700D01*
%TO.N,/CPU_RX_N*%
X108936600Y-90723700D02*
X108936600Y-98230000D01*
X100543300Y-61793300D02*
X101270000Y-62520000D01*
X102018700Y-62520000D02*
X103540800Y-64042100D01*
X103540800Y-64042100D02*
X103540800Y-85327900D01*
X103540800Y-85327900D02*
X108936600Y-90723700D01*
X99771700Y-54829200D02*
X100543300Y-55600800D01*
X100543300Y-55600800D02*
X100543300Y-61793300D01*
X101270000Y-62520000D02*
X102018700Y-62520000D01*
%TO.N,/TAPE_DATA_N*%
X116338400Y-89826500D02*
X118464100Y-89826500D01*
X124983500Y-64316500D02*
X128050000Y-61250000D01*
X124983500Y-83307100D02*
X124983500Y-64316500D01*
X110416100Y-95748800D02*
X116338400Y-89826500D01*
X118464100Y-89826500D02*
X124983500Y-83307100D01*
X110416100Y-99943900D02*
X110416100Y-95748800D01*
X107050000Y-103310000D02*
X110416100Y-99943900D01*
%TO.N,/REC_DATA_N*%
X131608700Y-78191300D02*
X131608700Y-62771300D01*
X117145100Y-94852800D02*
X117145100Y-92654900D01*
X115037900Y-96960000D02*
X117145100Y-94852800D01*
X131608700Y-62771300D02*
X135670000Y-58710000D01*
X108239800Y-107200200D02*
X108239800Y-103011600D01*
X107050000Y-108390000D02*
X108239800Y-107200200D01*
X117145100Y-92654900D02*
X131608700Y-78191300D01*
X114291400Y-96960000D02*
X115037900Y-96960000D01*
X108239800Y-103011600D02*
X114291400Y-96960000D01*
%TO.N,/TERM_DATA_N*%
X89083900Y-76506700D02*
X91267200Y-78690000D01*
X95997800Y-96162400D02*
X96224400Y-96389000D01*
X89083900Y-64203900D02*
X89083900Y-76506700D01*
X96224400Y-96389000D02*
X96224400Y-109580600D01*
X88670000Y-63790000D02*
X89083900Y-64203900D01*
X95997800Y-82686500D02*
X95997800Y-96162400D01*
X92001300Y-78690000D02*
X95997800Y-82686500D01*
X91267200Y-78690000D02*
X92001300Y-78690000D01*
%TO.N,/REMOTE_N*%
X85187900Y-68684400D02*
X85187900Y-72809400D01*
X81050000Y-48550000D02*
X83332300Y-50832300D01*
X85281300Y-76997200D02*
X85281300Y-78745500D01*
X86994900Y-94246600D02*
X91923700Y-99175400D01*
X83635100Y-73610000D02*
X82882100Y-74363000D01*
X83616000Y-76073000D02*
X84357100Y-76073000D01*
X83332300Y-66828800D02*
X85187900Y-68684400D01*
X82882100Y-75339100D02*
X83616000Y-76073000D01*
X82882100Y-74363000D02*
X82882100Y-75339100D01*
X85187900Y-72809400D02*
X84387300Y-73610000D01*
X86994900Y-80459100D02*
X86994900Y-94246600D01*
X84357100Y-76073000D02*
X85281300Y-76997200D01*
X83332300Y-50832300D02*
X83332300Y-66828800D01*
X85281300Y-78745500D02*
X86994900Y-80459100D01*
X84387300Y-73610000D02*
X83635100Y-73610000D01*
X91923700Y-99175400D02*
X91923700Y-102040000D01*
%TO.N,/DATA_SEL_N*%
X126142100Y-83019100D02*
X126567800Y-82593400D01*
X126567800Y-82593400D02*
X126567800Y-82305700D01*
X116084800Y-94275200D02*
X116084800Y-92968500D01*
X130222800Y-78650700D02*
X130222800Y-61617200D01*
X126034200Y-83019100D02*
X126142100Y-83019100D01*
X116084800Y-92968500D02*
X126034200Y-83019100D01*
X126567800Y-82305700D02*
X130222800Y-78650700D01*
X114670000Y-95690000D02*
X116084800Y-94275200D01*
X130222800Y-61617200D02*
X135670000Y-56170000D01*
%TO.N,/SEL_TERM_CLK*%
X85469300Y-67299400D02*
X85469300Y-54721100D01*
X85469300Y-54721100D02*
X85664300Y-54526100D01*
X85630100Y-67460200D02*
X85469300Y-67299400D01*
%TO.N,/READ_ACTIVE_N*%
X82193700Y-57566300D02*
X81050000Y-58710000D01*
X81050000Y-51090000D02*
X82193700Y-52233700D01*
X82193700Y-52233700D02*
X82193700Y-57566300D01*
%TO.N,/Mod{slash}Demod & power input/DEM_INV*%
X161671900Y-76328100D02*
X161671900Y-60602800D01*
X159500000Y-78500000D02*
X161671900Y-76328100D01*
%TO.N,/ECHO_N*%
X88670000Y-53630000D02*
X89819500Y-54779500D01*
X89819500Y-57560500D02*
X88670000Y-58710000D01*
X89819500Y-54779500D02*
X89819500Y-57560500D01*
%TD*%
M02*
