%TF.GenerationSoftware,KiCad,Pcbnew,10.0.7*%
%TF.CreationDate,2026-10-10T05:12:30-04:00*%
%TF.ProjectId,AC30,41433330-2e6b-4696-9361-645f70636258,A*%
%TF.SameCoordinates,PX1c9c380PY94c5f00*%
%TF.FileFunction,Copper,L2,Bot*%
%TF.FilePolarity,Positive*%
%FSLAX46Y46*%
G04 Gerber Fmt 4.6, Leading zero omitted, Abs format (unit mm)*
G04 Created by KiCad (PCBNEW 10.0.7) date 2026-10-10 05:12:30*
%MOMM*%
%LPD*%
G01*
G04 APERTURE LIST*
G04 Aperture macros list*
%AMRoundRect*
0 Rectangle with rounded corners*
0 $1 Rounding radius*
0 $2 $3 $4 $5 $6 $7 $8 $9 X,Y pos of 4 corners*
0 Add a 4 corners polygon primitive as box body*
4,1,4,$2,$3,$4,$5,$6,$7,$8,$9,$2,$3,0*
0 Add four circle primitives for the rounded corners*
1,1,$1+$1,$2,$3*
1,1,$1+$1,$4,$5*
1,1,$1+$1,$6,$7*
1,1,$1+$1,$8,$9*
0 Add four rect primitives between the rounded corners*
20,1,$1+$1,$2,$3,$4,$5,0*
20,1,$1+$1,$4,$5,$6,$7,0*
20,1,$1+$1,$6,$7,$8,$9,0*
20,1,$1+$1,$8,$9,$2,$3,0*%
G04 Aperture macros list end*
%TA.AperFunction,ComponentPad*%
%ADD10R,1.050000X1.500000*%
%TD*%
%TA.AperFunction,ComponentPad*%
%ADD11O,1.050000X1.500000*%
%TD*%
%TA.AperFunction,ComponentPad*%
%ADD12RoundRect,0.250000X-0.550000X-0.550000X0.550000X-0.550000X0.550000X0.550000X-0.550000X0.550000X0*%
%TD*%
%TA.AperFunction,ComponentPad*%
%ADD13C,1.600000*%
%TD*%
%TA.AperFunction,ComponentPad*%
%ADD14R,1.700000X1.700000*%
%TD*%
%TA.AperFunction,ComponentPad*%
%ADD15C,1.700000*%
%TD*%
%TA.AperFunction,ComponentPad*%
%ADD16RoundRect,0.250000X-1.330000X-1.800000X1.330000X-1.800000X1.330000X1.800000X-1.330000X1.800000X0*%
%TD*%
%TA.AperFunction,ComponentPad*%
%ADD17O,3.160000X4.100000*%
%TD*%
%TA.AperFunction,ComponentPad*%
%ADD18R,1.800000X1.800000*%
%TD*%
%TA.AperFunction,ComponentPad*%
%ADD19C,1.800000*%
%TD*%
%TA.AperFunction,ComponentPad*%
%ADD20C,1.440000*%
%TD*%
%TA.AperFunction,ComponentPad*%
%ADD21RoundRect,0.250000X0.550000X-0.550000X0.550000X0.550000X-0.550000X0.550000X-0.550000X-0.550000X0*%
%TD*%
%TA.AperFunction,ComponentPad*%
%ADD22R,1.400000X1.400000*%
%TD*%
%TA.AperFunction,ComponentPad*%
%ADD23C,1.400000*%
%TD*%
%TA.AperFunction,ComponentPad*%
%ADD24RoundRect,0.250000X-0.750000X-0.750000X0.750000X-0.750000X0.750000X0.750000X-0.750000X0.750000X0*%
%TD*%
%TA.AperFunction,ComponentPad*%
%ADD25C,2.000000*%
%TD*%
%TA.AperFunction,ViaPad*%
%ADD26C,0.800000*%
%TD*%
%TA.AperFunction,ViaPad*%
%ADD27C,1.000000*%
%TD*%
%TA.AperFunction,Conductor*%
%ADD28C,0.600000*%
%TD*%
%TA.AperFunction,Conductor*%
%ADD29C,0.250000*%
%TD*%
G04 APERTURE END LIST*
D10*
%TO.P,Q6,1*%
%TO.N,GND*%
X163900000Y-84300000D03*
D11*
%TO.P,Q6,2*%
%TO.N,/Q6_B*%
X165170000Y-84300000D03*
%TO.P,Q6,3*%
%TO.N,/Q6_C*%
X166440000Y-84300000D03*
%TD*%
D12*
%TO.P,IC6,1*%
%TO.N,CLOCK_OUT*%
X133050000Y-48500000D03*
D13*
%TO.P,IC6,2*%
%TO.N,/CPU_CLK_OUT*%
X133050000Y-51040000D03*
%TO.P,IC6,3*%
%TO.N,/TERM_CLK_OUT*%
X133050000Y-53580000D03*
%TO.P,IC6,4*%
%TO.N,CLOCK_IN*%
X133050000Y-56120000D03*
%TO.P,IC6,5*%
%TO.N,/CPU_CLK_OUT*%
X133050000Y-58660000D03*
%TO.P,IC6,6*%
%TO.N,GND*%
X133050000Y-61200000D03*
%TO.P,IC6,7*%
X133050000Y-63740000D03*
%TO.P,IC6,8*%
X133050000Y-66280000D03*
%TO.P,IC6,9*%
%TO.N,/LOCAL_REMOTE*%
X140670000Y-66280000D03*
%TO.P,IC6,10*%
%TO.N,/SEL_CPU_CLK*%
X140670000Y-63740000D03*
%TO.P,IC6,11*%
%TO.N,/LOCAL_REMOTE*%
X140670000Y-61200000D03*
%TO.P,IC6,12*%
%TO.N,/CPU_DATA*%
X140670000Y-58660000D03*
%TO.P,IC6,13*%
%TO.N,/TERM_DATA*%
X140670000Y-56120000D03*
%TO.P,IC6,14*%
%TO.N,/DATA_SEL*%
X140670000Y-53580000D03*
%TO.P,IC6,15*%
%TO.N,/CPU_CLK_IN*%
X140670000Y-51040000D03*
%TO.P,IC6,16*%
%TO.N,+5V*%
X140670000Y-48500000D03*
%TD*%
D12*
%TO.P,IC12,1*%
%TO.N,/CPU_RS232_OUT*%
X59050000Y-48550000D03*
D13*
%TO.P,IC12,2*%
%TO.N,unconnected-(IC12A-RC-Pad2)*%
X59050000Y-51090000D03*
%TO.P,IC12,3*%
%TO.N,/CPU_DATA*%
X59050000Y-53630000D03*
%TO.P,IC12,4*%
%TO.N,/TERM_RS232_OUT*%
X59050000Y-56170000D03*
%TO.P,IC12,5*%
%TO.N,unconnected-(IC12B-RC-Pad5)*%
X59050000Y-58710000D03*
%TO.P,IC12,6*%
%TO.N,/TERM_DATA*%
X59050000Y-61250000D03*
%TO.P,IC12,7*%
%TO.N,GND*%
X59050000Y-63790000D03*
%TO.P,IC12,8*%
%TO.N,unconnected-(IC12-Pad8)*%
X66670000Y-63790000D03*
%TO.P,IC12,9*%
%TO.N,unconnected-(IC12C-RC-Pad9)*%
X66670000Y-61250000D03*
%TO.P,IC12,10*%
%TO.N,unconnected-(IC12-Pad10)*%
X66670000Y-58710000D03*
%TO.P,IC12,11*%
%TO.N,unconnected-(IC12-Pad11)*%
X66670000Y-56170000D03*
%TO.P,IC12,12*%
%TO.N,unconnected-(IC12D-RC-Pad12)*%
X66670000Y-53630000D03*
%TO.P,IC12,13*%
%TO.N,unconnected-(IC12-Pad13)*%
X66670000Y-51090000D03*
%TO.P,IC12,14*%
%TO.N,+5V*%
X66670000Y-48550000D03*
%TD*%
%TO.P,R31,1*%
%TO.N,/Q6_C*%
X166500000Y-78500000D03*
%TO.P,R31,2*%
%TO.N,/LED_READ_RDY*%
X166500000Y-68340000D03*
%TD*%
%TO.P,R8,1*%
%TO.N,AUDIO_IN*%
X177500000Y-117600000D03*
%TO.P,R8,2*%
%TO.N,GND*%
X177500000Y-107440000D03*
%TD*%
D12*
%TO.P,C4,1*%
%TO.N,/Mod{slash}Demod & power input/MOD_ATTEN*%
X192150000Y-124050000D03*
D13*
%TO.P,C4,2*%
%TO.N,AUDIO_OUT*%
X194650000Y-124050000D03*
%TD*%
D14*
%TO.P,J2,1*%
%TO.N,+5V*%
X96850000Y-151200000D03*
D15*
%TO.P,J2,2*%
%TO.N,/LED_REC_RDY*%
X99390000Y-151200000D03*
%TO.P,J2,3*%
%TO.N,/LED_READ_RDY*%
X101930000Y-151200000D03*
%TO.P,J2,4*%
%TO.N,/LED_REC_DATA*%
X104470000Y-151200000D03*
%TO.P,J2,5*%
%TO.N,/LED_READ_DATA*%
X107010000Y-151200000D03*
%TD*%
D16*
%TO.P,J12,1*%
%TO.N,GND*%
X160650000Y-147550000D03*
D17*
%TO.P,J12,2*%
%TO.N,+5V*%
X164610000Y-147550000D03*
%TO.P,J12,3*%
%TO.N,+13V*%
X168570000Y-147550000D03*
%TO.P,J12,4*%
%TO.N,-13V*%
X172530000Y-147550000D03*
%TO.P,J12,5*%
%TO.N,+7.5V*%
X176490000Y-147550000D03*
%TO.P,J12,6*%
%TO.N,-7.5V*%
X180450000Y-147550000D03*
%TD*%
D13*
%TO.P,R23,1*%
%TO.N,/READ_SET*%
X48250000Y-58200000D03*
%TO.P,R23,2*%
%TO.N,GND*%
X48250000Y-48040000D03*
%TD*%
%TO.P,R42,1*%
%TO.N,+5V*%
X124250000Y-58200000D03*
%TO.P,R42,2*%
%TO.N,/CTRL_INVERT*%
X124250000Y-48040000D03*
%TD*%
D12*
%TO.P,IC4,1*%
%TO.N,/Mod{slash}Demod & power input/MOD_FILT*%
X172050000Y-93650000D03*
D13*
%TO.P,IC4,2*%
X172050000Y-96190000D03*
%TO.P,IC4,3*%
%TO.N,/Mod{slash}Demod & power input/MOD_F2*%
X172050000Y-98730000D03*
%TO.P,IC4,4*%
%TO.N,-7.5V*%
X172050000Y-101270000D03*
%TO.P,IC4,5*%
%TO.N,/Mod{slash}Demod & power input/DEM_IN*%
X179670000Y-101270000D03*
%TO.P,IC4,6*%
%TO.N,GND*%
X179670000Y-98730000D03*
%TO.P,IC4,7*%
%TO.N,/Mod{slash}Demod & power input/DEM_CMP*%
X179670000Y-96190000D03*
%TO.P,IC4,8*%
%TO.N,+7.5V*%
X179670000Y-93650000D03*
%TD*%
%TO.P,R10,1*%
%TO.N,/Mod{slash}Demod & power input/DEM_IN*%
X187500000Y-117600000D03*
%TO.P,R10,2*%
%TO.N,/Mod{slash}Demod & power input/DEM_CMP*%
X187500000Y-107440000D03*
%TD*%
%TO.P,R22,1*%
%TO.N,+5V*%
X145250000Y-58200000D03*
%TO.P,R22,2*%
%TO.N,CLOCK_OUT*%
X145250000Y-48040000D03*
%TD*%
D12*
%TO.P,IC1,1*%
%TO.N,DATA_OUT*%
X62050000Y-69850000D03*
D13*
%TO.P,IC1,2*%
%TO.N,unconnected-(IC1A-~{Q}-Pad2)*%
X62050000Y-72390000D03*
%TO.P,IC1,3*%
%TO.N,/Mod{slash}Demod & power input/DEM_PULSE*%
X62050000Y-74930000D03*
%TO.P,IC1,4*%
%TO.N,GND*%
X62050000Y-77470000D03*
%TO.P,IC1,5*%
%TO.N,/Mod{slash}Demod & power input/DEM_BIT*%
X62050000Y-80010000D03*
%TO.P,IC1,6*%
%TO.N,GND*%
X62050000Y-82550000D03*
%TO.P,IC1,7*%
X62050000Y-85090000D03*
%TO.P,IC1,8*%
X69670000Y-85090000D03*
%TO.P,IC1,9*%
X69670000Y-82550000D03*
%TO.P,IC1,10*%
X69670000Y-80010000D03*
%TO.P,IC1,11*%
X69670000Y-77470000D03*
%TO.P,IC1,12*%
%TO.N,unconnected-(IC1B-~{Q}-Pad12)*%
X69670000Y-74930000D03*
%TO.P,IC1,13*%
%TO.N,unconnected-(IC1B-Q-Pad13)*%
X69670000Y-72390000D03*
%TO.P,IC1,14*%
%TO.N,+5V*%
X69670000Y-69850000D03*
%TD*%
%TO.P,R3,1*%
%TO.N,/Mod{slash}Demod & power input/MOD_F1*%
X166500000Y-120800000D03*
%TO.P,R3,2*%
%TO.N,/Mod{slash}Demod & power input/MOD_F2*%
X166500000Y-110640000D03*
%TD*%
D18*
%TO.P,D18,1*%
%TO.N,/D18_K*%
X161950000Y-127050000D03*
D19*
%TO.P,D18,2*%
%TO.N,+5V*%
X164490000Y-127050000D03*
%TD*%
D13*
%TO.P,C18,1*%
%TO.N,/IC10_CV*%
X145250000Y-110450000D03*
%TO.P,C18,2*%
%TO.N,GND*%
X145250000Y-105450000D03*
%TD*%
%TO.P,R2,1*%
%TO.N,/Mod{slash}Demod & power input/MOD_SQ*%
X161500000Y-120800000D03*
%TO.P,R2,2*%
%TO.N,/Mod{slash}Demod & power input/MOD_F1*%
X161500000Y-110640000D03*
%TD*%
%TO.P,C2,1*%
%TO.N,/Mod{slash}Demod & power input/MOD_F2*%
X181500000Y-126700000D03*
%TO.P,C2,2*%
%TO.N,GND*%
X181500000Y-121700000D03*
%TD*%
D12*
%TO.P,C17,1*%
%TO.N,/DELAY_RC*%
X129150000Y-122050000D03*
D13*
%TO.P,C17,2*%
%TO.N,GND*%
X131650000Y-122050000D03*
%TD*%
%TO.P,R45,1*%
%TO.N,+5V*%
X117500000Y-78500000D03*
%TO.P,R45,2*%
%TO.N,/START_READ*%
X117500000Y-68340000D03*
%TD*%
%TO.P,C24,1*%
%TO.N,+5V*%
X139800000Y-100300000D03*
%TO.P,C24,2*%
%TO.N,GND*%
X139800000Y-95300000D03*
%TD*%
%TO.P,R43,1*%
%TO.N,/DELAY_OUT*%
X151500000Y-120800000D03*
%TO.P,R43,2*%
%TO.N,/D18_K*%
X151500000Y-110640000D03*
%TD*%
D20*
%TO.P,R16,1*%
%TO.N,/Mod{slash}Demod & power input/DEM_R16*%
X79050000Y-103400000D03*
%TO.P,R16,2*%
%TO.N,+5V*%
X81590000Y-100860000D03*
%TO.P,R16,3*%
X79050000Y-98320000D03*
%TD*%
D10*
%TO.P,Q4,1*%
%TO.N,GND*%
X146950000Y-72550000D03*
D11*
%TO.P,Q4,2*%
%TO.N,/Mod{slash}Demod & power input/DEM_Q4B*%
X148220000Y-72550000D03*
%TO.P,Q4,3*%
%TO.N,CLOCK_OUT*%
X149490000Y-72550000D03*
%TD*%
D10*
%TO.P,Q2,1*%
%TO.N,GND*%
X96450000Y-129150000D03*
D11*
%TO.P,Q2,2*%
%TO.N,/Mod{slash}Demod & power input/DEM_Q2B*%
X97720000Y-129150000D03*
%TO.P,Q2,3*%
%TO.N,/Mod{slash}Demod & power input/DEM_Q2C*%
X98990000Y-129150000D03*
%TD*%
D21*
%TO.P,D10,1*%
%TO.N,+5V*%
X137750000Y-78500000D03*
D13*
%TO.P,D10,2*%
%TO.N,/TERM_CLK_OUT*%
X137750000Y-70880000D03*
%TD*%
%TO.P,C23,1*%
%TO.N,+5V*%
X134800000Y-100300000D03*
%TO.P,C23,2*%
%TO.N,GND*%
X134800000Y-95300000D03*
%TD*%
%TO.P,R36,1*%
%TO.N,/TAPE_DATA*%
X96500000Y-81050000D03*
%TO.P,R36,2*%
%TO.N,/Q7_B*%
X96500000Y-70890000D03*
%TD*%
D14*
%TO.P,J15,1*%
%TO.N,/EAR_A*%
X144850000Y-151200000D03*
D15*
%TO.P,J15,2*%
%TO.N,GND*%
X147390000Y-151200000D03*
%TO.P,J15,3*%
%TO.N,/EAR_B*%
X149930000Y-151200000D03*
%TO.P,J15,4*%
%TO.N,GND*%
X152470000Y-151200000D03*
%TD*%
D13*
%TO.P,R33,1*%
%TO.N,/READ_EN_N*%
X36500000Y-92750000D03*
%TO.P,R33,2*%
%TO.N,/Q10_B*%
X36500000Y-82590000D03*
%TD*%
D21*
%TO.P,D2,1*%
%TO.N,GND*%
X176750000Y-129350000D03*
D13*
%TO.P,D2,2*%
%TO.N,/Mod{slash}Demod & power input/DEM_IN*%
X176750000Y-121730000D03*
%TD*%
%TO.P,R41,1*%
%TO.N,+5V*%
X106500000Y-81050000D03*
%TO.P,R41,2*%
%TO.N,/LOCAL_REMOTE*%
X106500000Y-70890000D03*
%TD*%
%TO.P,C10,1*%
%TO.N,/Mod{slash}Demod & power input/DEM_BIT*%
X85500000Y-125650000D03*
%TO.P,C10,2*%
%TO.N,/Mod{slash}Demod & power input/DEM_BIT_EDGE*%
X85500000Y-120650000D03*
%TD*%
D12*
%TO.P,IC15,1*%
%TO.N,-13V*%
X187050000Y-48550000D03*
D13*
%TO.P,IC15,2*%
%TO.N,unconnected-(IC15-Pad2)*%
X187050000Y-51090000D03*
%TO.P,IC15,3*%
%TO.N,unconnected-(IC15-Pad3)*%
X187050000Y-53630000D03*
%TO.P,IC15,4*%
%TO.N,unconnected-(IC15-Pad4)*%
X187050000Y-56170000D03*
%TO.P,IC15,5*%
%TO.N,unconnected-(IC15-Pad5)*%
X187050000Y-58710000D03*
%TO.P,IC15,6*%
%TO.N,unconnected-(IC15-Pad6)*%
X187050000Y-61250000D03*
%TO.P,IC15,7*%
%TO.N,GND*%
X187050000Y-63790000D03*
%TO.P,IC15,8*%
%TO.N,/TERM_RS232_IN*%
X194670000Y-63790000D03*
%TO.P,IC15,9*%
%TO.N,/TERM_ECHO*%
X194670000Y-61250000D03*
%TO.P,IC15,10*%
%TO.N,/TERM_TX_SEL*%
X194670000Y-58710000D03*
%TO.P,IC15,11*%
%TO.N,/CPU_RS232_IN*%
X194670000Y-56170000D03*
%TO.P,IC15,12*%
%TO.N,/CPU_RX*%
X194670000Y-53630000D03*
%TO.P,IC15,13*%
%TO.N,+5V*%
X194670000Y-51090000D03*
%TO.P,IC15,14*%
%TO.N,+13V*%
X194670000Y-48550000D03*
%TD*%
D14*
%TO.P,J14,1*%
%TO.N,/MIC_A*%
X129700000Y-151200000D03*
D15*
%TO.P,J14,2*%
%TO.N,GND*%
X132240000Y-151200000D03*
%TO.P,J14,3*%
%TO.N,/MIC_B*%
X134780000Y-151200000D03*
%TO.P,J14,4*%
%TO.N,GND*%
X137320000Y-151200000D03*
%TD*%
D13*
%TO.P,R13,1*%
%TO.N,/Mod{slash}Demod & power input/DEM_PULSE*%
X80500000Y-78500000D03*
%TO.P,R13,2*%
%TO.N,/Mod{slash}Demod & power input/DEM_Q1B*%
X80500000Y-68340000D03*
%TD*%
%TO.P,C11,1*%
%TO.N,/Mod{slash}Demod & power input/DEM_CLK_N*%
X91500000Y-132450000D03*
%TO.P,C11,2*%
%TO.N,/Mod{slash}Demod & power input/DEM_Q4B*%
X91500000Y-127450000D03*
%TD*%
D21*
%TO.P,D6,1*%
%TO.N,/RELAY_1*%
X112250000Y-91200000D03*
D13*
%TO.P,D6,2*%
%TO.N,/MAN_MOTOR*%
X112250000Y-83580000D03*
%TD*%
%TO.P,R21,1*%
%TO.N,/Mod{slash}Demod & power input/DEM_CLK_N*%
X96500000Y-123350000D03*
%TO.P,R21,2*%
%TO.N,/Mod{slash}Demod & power input/DEM_Q4B*%
X96500000Y-113190000D03*
%TD*%
%TO.P,R17,1*%
%TO.N,/Mod{slash}Demod & power input/DEM_EDGE*%
X75500000Y-92750000D03*
%TO.P,R17,2*%
%TO.N,/Mod{slash}Demod & power input/DEM_D4*%
X75500000Y-82590000D03*
%TD*%
%TO.P,R35,1*%
%TO.N,/Q8_C*%
X91500000Y-81050000D03*
%TO.P,R35,2*%
%TO.N,/LED_REC_DATA*%
X91500000Y-70890000D03*
%TD*%
D21*
%TO.P,D7,1*%
%TO.N,/RELAY_2*%
X116750000Y-91200000D03*
D13*
%TO.P,D7,2*%
%TO.N,/MAN_MOTOR*%
X116750000Y-83580000D03*
%TD*%
%TO.P,C1,1*%
%TO.N,/Mod{slash}Demod & power input/MOD_CLK2*%
X151500000Y-129900000D03*
%TO.P,C1,2*%
%TO.N,/Mod{slash}Demod & power input/MOD_EDGE*%
X151500000Y-124900000D03*
%TD*%
%TO.P,R44,1*%
%TO.N,+5V*%
X112500000Y-78500000D03*
%TO.P,R44,2*%
%TO.N,/START_RECORD*%
X112500000Y-68340000D03*
%TD*%
%TO.P,C9,1*%
%TO.N,/Mod{slash}Demod & power input/DEM_Q2C*%
X101500000Y-118200000D03*
%TO.P,C9,2*%
%TO.N,GND*%
X101500000Y-113200000D03*
%TD*%
D22*
%TO.P,RLY2,1*%
%TO.N,/MOTOR_2B*%
X113550000Y-97050000D03*
D23*
%TO.P,RLY2,3*%
%TO.N,GND*%
X118630000Y-97050000D03*
%TO.P,RLY2,5*%
%TO.N,/RELAY_2*%
X123710000Y-97050000D03*
%TO.P,RLY2,7*%
%TO.N,/MOTOR_2A*%
X128790000Y-97050000D03*
%TD*%
D13*
%TO.P,R27,1*%
%TO.N,/POR*%
X46500000Y-78500000D03*
%TO.P,R27,2*%
%TO.N,GND*%
X46500000Y-68340000D03*
%TD*%
%TO.P,R47,1*%
%TO.N,+5V*%
X127500000Y-78500000D03*
%TO.P,R47,2*%
%TO.N,/STOP_READ*%
X127500000Y-68340000D03*
%TD*%
D12*
%TO.P,IC10,1*%
%TO.N,GND*%
X128050000Y-105900000D03*
D13*
%TO.P,IC10,2*%
%TO.N,/REC_EN*%
X128050000Y-108440000D03*
%TO.P,IC10,3*%
%TO.N,/DELAY_OUT*%
X128050000Y-110980000D03*
%TO.P,IC10,4*%
%TO.N,+5V*%
X128050000Y-113520000D03*
%TO.P,IC10,5*%
%TO.N,/IC10_CV*%
X135670000Y-113520000D03*
%TO.P,IC10,6*%
%TO.N,/DELAY_RC*%
X135670000Y-110980000D03*
%TO.P,IC10,7*%
X135670000Y-108440000D03*
%TO.P,IC10,8*%
%TO.N,+5V*%
X135670000Y-105900000D03*
%TD*%
D12*
%TO.P,IC8,1*%
%TO.N,/READ_EN*%
X36050000Y-48550000D03*
D13*
%TO.P,IC8,2*%
%TO.N,/READ_EN_N*%
X36050000Y-51090000D03*
%TO.P,IC8,3*%
%TO.N,GND*%
X36050000Y-53630000D03*
%TO.P,IC8,4*%
%TO.N,/READ_RST*%
X36050000Y-56170000D03*
%TO.P,IC8,5*%
%TO.N,GND*%
X36050000Y-58710000D03*
%TO.P,IC8,6*%
%TO.N,/READ_SET*%
X36050000Y-61250000D03*
%TO.P,IC8,7*%
%TO.N,GND*%
X36050000Y-63790000D03*
%TO.P,IC8,8*%
%TO.N,/REC_SET*%
X43670000Y-63790000D03*
%TO.P,IC8,9*%
%TO.N,GND*%
X43670000Y-61250000D03*
%TO.P,IC8,10*%
%TO.N,/REC_RST*%
X43670000Y-58710000D03*
%TO.P,IC8,11*%
%TO.N,GND*%
X43670000Y-56170000D03*
%TO.P,IC8,12*%
%TO.N,/REC_EN_N*%
X43670000Y-53630000D03*
%TO.P,IC8,13*%
%TO.N,/REC_EN*%
X43670000Y-51090000D03*
%TO.P,IC8,14*%
%TO.N,+5V*%
X43670000Y-48550000D03*
%TD*%
D16*
%TO.P,J3,1*%
%TO.N,GND*%
X44200000Y-38600000D03*
D17*
%TO.P,J3,2*%
%TO.N,/CPU_CLK_OUT*%
X48160000Y-38600000D03*
%TO.P,J3,3*%
%TO.N,/CPU_CLK_IN*%
X52120000Y-38600000D03*
%TO.P,J3,4*%
%TO.N,unconnected-(J3-Pin_4-Pad4)*%
X56080000Y-38600000D03*
%TO.P,J3,5*%
%TO.N,/CPU_RS232_IN*%
X60040000Y-38600000D03*
%TO.P,J3,6*%
%TO.N,/CPU_RS232_OUT*%
X64000000Y-38600000D03*
%TO.P,J3,7*%
%TO.N,unconnected-(J3-Pin_7-Pad7)*%
X67960000Y-38600000D03*
%TO.P,J3,8*%
%TO.N,unconnected-(J3-Pin_8-Pad8)*%
X71920000Y-38600000D03*
%TO.P,J3,9*%
%TO.N,unconnected-(J3-Pin_9-Pad9)*%
X75880000Y-38600000D03*
%TO.P,J3,10*%
%TO.N,unconnected-(J3-Pin_10-Pad10)*%
X79840000Y-38600000D03*
%TD*%
D13*
%TO.P,R9,1*%
%TO.N,/Mod{slash}Demod & power input/DEM_HP*%
X182500000Y-117600000D03*
%TO.P,R9,2*%
%TO.N,/Mod{slash}Demod & power input/DEM_IN*%
X182500000Y-107440000D03*
%TD*%
D12*
%TO.P,IC13,1*%
%TO.N,/STOP_RECORD*%
X112050000Y-48550000D03*
D13*
%TO.P,IC13,2*%
%TO.N,/CTRL_INVERT*%
X112050000Y-51090000D03*
%TO.P,IC13,3*%
%TO.N,/STOP_REC_P*%
X112050000Y-53630000D03*
%TO.P,IC13,4*%
%TO.N,/START_REC_P*%
X112050000Y-56170000D03*
%TO.P,IC13,5*%
%TO.N,/CTRL_INVERT*%
X112050000Y-58710000D03*
%TO.P,IC13,6*%
%TO.N,/START_RECORD*%
X112050000Y-61250000D03*
%TO.P,IC13,7*%
%TO.N,GND*%
X112050000Y-63790000D03*
%TO.P,IC13,8*%
%TO.N,/START_READ*%
X119670000Y-63790000D03*
%TO.P,IC13,9*%
%TO.N,/CTRL_INVERT*%
X119670000Y-61250000D03*
%TO.P,IC13,10*%
%TO.N,/START_READ_P*%
X119670000Y-58710000D03*
%TO.P,IC13,11*%
%TO.N,/STOP_READ_P*%
X119670000Y-56170000D03*
%TO.P,IC13,12*%
%TO.N,/CTRL_INVERT*%
X119670000Y-53630000D03*
%TO.P,IC13,13*%
%TO.N,/STOP_READ*%
X119670000Y-51090000D03*
%TO.P,IC13,14*%
%TO.N,+5V*%
X119670000Y-48550000D03*
%TD*%
%TO.P,R11,1*%
%TO.N,/Mod{slash}Demod & power input/DEM_CMP*%
X192500000Y-117600000D03*
%TO.P,R11,2*%
%TO.N,/Mod{slash}Demod & power input/DEM_LIM*%
X192500000Y-107440000D03*
%TD*%
D24*
%TO.P,C16,1*%
%TO.N,+5V*%
X42750000Y-86800000D03*
D25*
%TO.P,C16,2*%
%TO.N,/POR*%
X47750000Y-86800000D03*
%TD*%
D13*
%TO.P,R19,1*%
%TO.N,/Mod{slash}Demod & power input/DEM_Q3B*%
X80500000Y-92750000D03*
%TO.P,R19,2*%
%TO.N,/Mod{slash}Demod & power input/DEM_Q3B_R*%
X80500000Y-82590000D03*
%TD*%
D10*
%TO.P,Q9,1*%
%TO.N,+5V*%
X36450000Y-107650000D03*
D11*
%TO.P,Q9,2*%
%TO.N,/Q9_B*%
X37720000Y-107650000D03*
%TO.P,Q9,3*%
%TO.N,/REC_RLY_DRV*%
X38990000Y-107650000D03*
%TD*%
D10*
%TO.P,Q3,1*%
%TO.N,+5V*%
X82900000Y-131400000D03*
D11*
%TO.P,Q3,2*%
%TO.N,/Mod{slash}Demod & power input/DEM_Q3B_R*%
X84170000Y-131400000D03*
%TO.P,Q3,3*%
%TO.N,/Mod{slash}Demod & power input/DEM_CD*%
X85440000Y-131400000D03*
%TD*%
D13*
%TO.P,R46,1*%
%TO.N,+5V*%
X122500000Y-78500000D03*
%TO.P,R46,2*%
%TO.N,/STOP_RECORD*%
X122500000Y-68340000D03*
%TD*%
%TO.P,R1,1*%
%TO.N,/Mod{slash}Demod & power input/MOD_EDGE*%
X156500000Y-120800000D03*
%TO.P,R1,2*%
%TO.N,+5V*%
X156500000Y-110640000D03*
%TD*%
%TO.P,C14,1*%
%TO.N,/STOP_READ_P*%
X46500000Y-101850000D03*
%TO.P,C14,2*%
%TO.N,/READ_RST*%
X46500000Y-96850000D03*
%TD*%
%TO.P,C19,1*%
%TO.N,/TERM_RS232_IN*%
X187500000Y-73350000D03*
%TO.P,C19,2*%
%TO.N,GND*%
X187500000Y-68350000D03*
%TD*%
D16*
%TO.P,J4,1*%
%TO.N,unconnected-(J4-Pin_1-Pad1)*%
X88650000Y-38600000D03*
D17*
%TO.P,J4,2*%
%TO.N,GND*%
X92610000Y-38600000D03*
%TO.P,J4,3*%
%TO.N,unconnected-(J4-Pin_3-Pad3)*%
X96570000Y-38600000D03*
%TO.P,J4,4*%
%TO.N,/LOCAL_REMOTE*%
X100530000Y-38600000D03*
%TO.P,J4,5*%
%TO.N,/STOP_RECORD*%
X104490000Y-38600000D03*
%TO.P,J4,6*%
%TO.N,+5V*%
X108450000Y-38600000D03*
%TO.P,J4,7*%
%TO.N,/STOP_READ*%
X112410000Y-38600000D03*
%TO.P,J4,8*%
%TO.N,/CTRL_INVERT*%
X116370000Y-38600000D03*
%TO.P,J4,9*%
%TO.N,/START_READ*%
X120330000Y-38600000D03*
%TO.P,J4,10*%
%TO.N,/START_RECORD*%
X124290000Y-38600000D03*
%TO.P,J4,11*%
%TO.N,/TERM_CLK_OUT*%
X128250000Y-38600000D03*
%TO.P,J4,12*%
%TO.N,/TERM_CLK_IN*%
X132210000Y-38600000D03*
%TO.P,J4,13*%
%TO.N,CARRIER_DETECT*%
X136170000Y-38600000D03*
%TO.P,J4,14*%
%TO.N,CARRIER_EN_N*%
X140130000Y-38600000D03*
%TO.P,J4,15*%
%TO.N,unconnected-(J4-Pin_15-Pad15)*%
X144090000Y-38600000D03*
%TD*%
D10*
%TO.P,Q1,1*%
%TO.N,GND*%
X75450000Y-131400000D03*
D11*
%TO.P,Q1,2*%
%TO.N,/Mod{slash}Demod & power input/DEM_Q1B*%
X76720000Y-131400000D03*
%TO.P,Q1,3*%
%TO.N,/Mod{slash}Demod & power input/DEM_TIMER*%
X77990000Y-131400000D03*
%TD*%
D21*
%TO.P,D8,1*%
%TO.N,+5V*%
X150000000Y-55650000D03*
D13*
%TO.P,D8,2*%
%TO.N,/CPU_CLK_OUT*%
X150000000Y-48030000D03*
%TD*%
%TO.P,C25,1*%
%TO.N,+5V*%
X144800000Y-100300000D03*
%TO.P,C25,2*%
%TO.N,GND*%
X144800000Y-95300000D03*
%TD*%
D21*
%TO.P,D4,1*%
%TO.N,/Mod{slash}Demod & power input/DEM_D4*%
X79750000Y-116550000D03*
D13*
%TO.P,D4,2*%
%TO.N,/Mod{slash}Demod & power input/DEM_CD*%
X79750000Y-108930000D03*
%TD*%
%TO.P,R40,1*%
%TO.N,/DELAY_OUT*%
X163250000Y-100500000D03*
%TO.P,R40,2*%
%TO.N,CARRIER_EN_N*%
X163250000Y-90340000D03*
%TD*%
D21*
%TO.P,D1,1*%
%TO.N,/Mod{slash}Demod & power input/DEM_IN*%
X172250000Y-129350000D03*
D13*
%TO.P,D1,2*%
%TO.N,GND*%
X172250000Y-121730000D03*
%TD*%
%TO.P,R7,1*%
%TO.N,/Mod{slash}Demod & power input/MOD_ATTEN*%
X172500000Y-117600000D03*
%TO.P,R7,2*%
%TO.N,GND*%
X172500000Y-107440000D03*
%TD*%
D21*
%TO.P,D5,1*%
%TO.N,/POR*%
X53750000Y-90250000D03*
D13*
%TO.P,D5,2*%
%TO.N,GND*%
X53750000Y-82630000D03*
%TD*%
%TO.P,R4,1*%
%TO.N,/Mod{slash}Demod & power input/MOD_FILT*%
X184250000Y-103350000D03*
%TO.P,R4,2*%
%TO.N,/Mod{slash}Demod & power input/MOD_FB*%
X184250000Y-93190000D03*
%TD*%
%TO.P,C13,1*%
%TO.N,/START_REC_P*%
X41500000Y-101850000D03*
%TO.P,C13,2*%
%TO.N,/REC_SET*%
X41500000Y-96850000D03*
%TD*%
D14*
%TO.P,J1,1*%
%TO.N,+5V*%
X43600000Y-151200000D03*
D15*
%TO.P,J1,2*%
%TO.N,GND*%
X46140000Y-151200000D03*
%TO.P,J1,3*%
%TO.N,CARRIER_EN_N*%
X48680000Y-151200000D03*
%TO.P,J1,4*%
%TO.N,/MAN_MOTOR*%
X51220000Y-151200000D03*
%TO.P,J1,5*%
%TO.N,/REC_SET*%
X53760000Y-151200000D03*
%TO.P,J1,6*%
%TO.N,/REC_RST*%
X56300000Y-151200000D03*
%TO.P,J1,7*%
%TO.N,/READ_SET*%
X58840000Y-151200000D03*
%TO.P,J1,8*%
%TO.N,/READ_RST*%
X61380000Y-151200000D03*
%TO.P,J1,9*%
%TO.N,/LOCAL_REMOTE*%
X63920000Y-151200000D03*
%TO.P,J1,10*%
%TO.N,AUDIO_OUT*%
X66460000Y-151200000D03*
%TO.P,J1,11*%
%TO.N,/MIC_A*%
X69000000Y-151200000D03*
%TO.P,J1,12*%
%TO.N,/MIC_B*%
X71540000Y-151200000D03*
%TO.P,J1,13*%
%TO.N,/REC_RLY_DRV*%
X74080000Y-151200000D03*
%TO.P,J1,14*%
%TO.N,/RELAY_1*%
X76620000Y-151200000D03*
%TO.P,J1,15*%
%TO.N,/RELAY_2*%
X79160000Y-151200000D03*
%TO.P,J1,16*%
%TO.N,/READ_RLY_DRV*%
X81700000Y-151200000D03*
%TO.P,J1,17*%
%TO.N,AUDIO_IN*%
X84240000Y-151200000D03*
%TO.P,J1,18*%
%TO.N,/EAR_A*%
X86780000Y-151200000D03*
%TO.P,J1,19*%
%TO.N,/EAR_B*%
X89320000Y-151200000D03*
%TD*%
D13*
%TO.P,R34,1*%
%TO.N,DATA_IN*%
X103250000Y-58200000D03*
%TO.P,R34,2*%
%TO.N,/Q8_B*%
X103250000Y-48040000D03*
%TD*%
D21*
%TO.P,D9,1*%
%TO.N,/CPU_CLK_OUT*%
X133250000Y-78500000D03*
D13*
%TO.P,D9,2*%
%TO.N,GND*%
X133250000Y-70880000D03*
%TD*%
%TO.P,R32,1*%
%TO.N,/REC_EN_N*%
X51500000Y-78500000D03*
%TO.P,R32,2*%
%TO.N,/Q9_B*%
X51500000Y-68340000D03*
%TD*%
%TO.P,R29,1*%
%TO.N,/READ_EN*%
X156500000Y-78500000D03*
%TO.P,R29,2*%
%TO.N,/Q6_B*%
X156500000Y-68340000D03*
%TD*%
D22*
%TO.P,RLY1,1*%
%TO.N,/MOTOR_1B*%
X122550000Y-85350000D03*
D23*
%TO.P,RLY1,3*%
%TO.N,GND*%
X127630000Y-85350000D03*
%TO.P,RLY1,5*%
%TO.N,/RELAY_1*%
X132710000Y-85350000D03*
%TO.P,RLY1,7*%
%TO.N,/MOTOR_1A*%
X137790000Y-85350000D03*
%TD*%
D12*
%TO.P,IC5,1*%
%TO.N,/Mod{slash}Demod & power input/MOD_SQ*%
X151050000Y-90850000D03*
D13*
%TO.P,IC5,2*%
%TO.N,/Mod{slash}Demod & power input/MOD_DIV4_N*%
X151050000Y-93390000D03*
%TO.P,IC5,3*%
%TO.N,/Mod{slash}Demod & power input/MOD_CLK2*%
X151050000Y-95930000D03*
%TO.P,IC5,4*%
%TO.N,/Mod{slash}Demod & power input/MOD_RST*%
X151050000Y-98470000D03*
%TO.P,IC5,5*%
%TO.N,/Mod{slash}Demod & power input/MOD_DIV4_N*%
X151050000Y-101010000D03*
%TO.P,IC5,6*%
%TO.N,GND*%
X151050000Y-103550000D03*
%TO.P,IC5,7*%
X151050000Y-106090000D03*
%TO.P,IC5,8*%
X158670000Y-106090000D03*
%TO.P,IC5,9*%
%TO.N,/Mod{slash}Demod & power input/MOD_DIV2_N*%
X158670000Y-103550000D03*
%TO.P,IC5,10*%
%TO.N,CARRIER_EN_N*%
X158670000Y-101010000D03*
%TO.P,IC5,11*%
%TO.N,CLOCK_IN*%
X158670000Y-98470000D03*
%TO.P,IC5,12*%
%TO.N,/Mod{slash}Demod & power input/MOD_DIV2_N*%
X158670000Y-95930000D03*
%TO.P,IC5,13*%
%TO.N,/Mod{slash}Demod & power input/MOD_CLK2*%
X158670000Y-93390000D03*
%TO.P,IC5,14*%
%TO.N,+5V*%
X158670000Y-90850000D03*
%TD*%
%TO.P,R6,1*%
%TO.N,/Mod{slash}Demod & power input/MOD_FILT*%
X194250000Y-103350000D03*
%TO.P,R6,2*%
%TO.N,/Mod{slash}Demod & power input/MOD_ATTEN*%
X194250000Y-93190000D03*
%TD*%
%TO.P,R14,1*%
%TO.N,/Mod{slash}Demod & power input/DEM_PULSE*%
X103250000Y-103050000D03*
%TO.P,R14,2*%
%TO.N,/Mod{slash}Demod & power input/DEM_Q2B*%
X103250000Y-92890000D03*
%TD*%
D21*
%TO.P,D11,1*%
%TO.N,/TERM_CLK_OUT*%
X142250000Y-78500000D03*
D13*
%TO.P,D11,2*%
%TO.N,GND*%
X142250000Y-70880000D03*
%TD*%
%TO.P,C20,1*%
%TO.N,/CPU_RS232_IN*%
X192500000Y-73350000D03*
%TO.P,C20,2*%
%TO.N,GND*%
X192500000Y-68350000D03*
%TD*%
D10*
%TO.P,Q10,1*%
%TO.N,+5V*%
X43900000Y-107650000D03*
D11*
%TO.P,Q10,2*%
%TO.N,/Q10_B*%
X45170000Y-107650000D03*
%TO.P,Q10,3*%
%TO.N,/READ_RLY_DRV*%
X46440000Y-107650000D03*
%TD*%
D13*
%TO.P,R30,1*%
%TO.N,/Q5_C*%
X161500000Y-78500000D03*
%TO.P,R30,2*%
%TO.N,/LED_REC_RDY*%
X161500000Y-68340000D03*
%TD*%
%TO.P,R5,1*%
%TO.N,/Mod{slash}Demod & power input/MOD_FB*%
X189250000Y-103350000D03*
%TO.P,R5,2*%
%TO.N,GND*%
X189250000Y-93190000D03*
%TD*%
%TO.P,R28,1*%
%TO.N,/REC_EN*%
X168250000Y-58200000D03*
%TO.P,R28,2*%
%TO.N,/Q5_B*%
X168250000Y-48040000D03*
%TD*%
%TO.P,C15,1*%
%TO.N,/STOP_REC_P*%
X51500000Y-101850000D03*
%TO.P,C15,2*%
%TO.N,/REC_RST*%
X51500000Y-96850000D03*
%TD*%
%TO.P,C8,1*%
%TO.N,/Mod{slash}Demod & power input/DEM_TIMER*%
X80500000Y-125650000D03*
%TO.P,C8,2*%
%TO.N,GND*%
X80500000Y-120650000D03*
%TD*%
%TO.P,R25,1*%
%TO.N,/READ_RST*%
X36500000Y-78500000D03*
%TO.P,R25,2*%
%TO.N,/POR*%
X36500000Y-68340000D03*
%TD*%
%TO.P,C3,1*%
%TO.N,/Mod{slash}Demod & power input/MOD_F1*%
X156500000Y-129900000D03*
%TO.P,C3,2*%
%TO.N,/Mod{slash}Demod & power input/MOD_FB*%
X156500000Y-124900000D03*
%TD*%
D10*
%TO.P,Q5,1*%
%TO.N,GND*%
X156450000Y-84300000D03*
D11*
%TO.P,Q5,2*%
%TO.N,/Q5_B*%
X157720000Y-84300000D03*
%TO.P,Q5,3*%
%TO.N,/Q5_C*%
X158990000Y-84300000D03*
%TD*%
D10*
%TO.P,Q7,1*%
%TO.N,GND*%
X91450000Y-86800000D03*
D11*
%TO.P,Q7,2*%
%TO.N,/Q7_B*%
X92720000Y-86800000D03*
%TO.P,Q7,3*%
%TO.N,/Q7_C*%
X93990000Y-86800000D03*
%TD*%
D13*
%TO.P,R38,1*%
%TO.N,+5V*%
X140250000Y-115600000D03*
%TO.P,R38,2*%
%TO.N,/DELAY_RC*%
X140250000Y-105440000D03*
%TD*%
%TO.P,C12,1*%
%TO.N,/START_READ_P*%
X36500000Y-101850000D03*
%TO.P,C12,2*%
%TO.N,/READ_SET*%
X36500000Y-96850000D03*
%TD*%
D12*
%TO.P,IC2,1*%
%TO.N,DATA_IN*%
X91050000Y-93400000D03*
D13*
%TO.P,IC2,2*%
%TO.N,/Mod{slash}Demod & power input/MOD_EDGE*%
X91050000Y-95940000D03*
%TO.P,IC2,3*%
%TO.N,/Mod{slash}Demod & power input/MOD_RST*%
X91050000Y-98480000D03*
%TO.P,IC2,4*%
%TO.N,/Mod{slash}Demod & power input/DEM_Q3B*%
X91050000Y-101020000D03*
%TO.P,IC2,5*%
%TO.N,/Mod{slash}Demod & power input/DEM_Q2C*%
X91050000Y-103560000D03*
%TO.P,IC2,6*%
X91050000Y-106100000D03*
%TO.P,IC2,7*%
%TO.N,GND*%
X91050000Y-108640000D03*
%TO.P,IC2,8*%
%TO.N,/Mod{slash}Demod & power input/DEM_EDGE*%
X98670000Y-108640000D03*
%TO.P,IC2,9*%
X98670000Y-106100000D03*
%TO.P,IC2,10*%
%TO.N,/Mod{slash}Demod & power input/DEM_PULSE*%
X98670000Y-103560000D03*
%TO.P,IC2,11*%
%TO.N,/Mod{slash}Demod & power input/DEM_CLK_N*%
X98670000Y-101020000D03*
%TO.P,IC2,12*%
%TO.N,/Mod{slash}Demod & power input/DEM_PULSE*%
X98670000Y-98480000D03*
%TO.P,IC2,13*%
%TO.N,/Mod{slash}Demod & power input/DEM_BIT_EDGE*%
X98670000Y-95940000D03*
%TO.P,IC2,14*%
%TO.N,+5V*%
X98670000Y-93400000D03*
%TD*%
D21*
%TO.P,D3,1*%
%TO.N,/Mod{slash}Demod & power input/DEM_LIM*%
X75250000Y-116550000D03*
D13*
%TO.P,D3,2*%
%TO.N,GND*%
X75250000Y-108930000D03*
%TD*%
%TO.P,C6,1*%
%TO.N,/Mod{slash}Demod & power input/DEM_DLY*%
X84500000Y-113900000D03*
%TO.P,C6,2*%
%TO.N,GND*%
X84500000Y-108900000D03*
%TD*%
D12*
%TO.P,IC7,1*%
%TO.N,+5V*%
X91050000Y-48500000D03*
D13*
%TO.P,IC7,2*%
%TO.N,/CPU_RX*%
X91050000Y-51040000D03*
%TO.P,IC7,3*%
%TO.N,/CPU_RX_N*%
X91050000Y-53580000D03*
%TO.P,IC7,4*%
%TO.N,/TAPE_DATA*%
X91050000Y-56120000D03*
%TO.P,IC7,5*%
%TO.N,/TAPE_DATA_N*%
X91050000Y-58660000D03*
%TO.P,IC7,6*%
%TO.N,DATA_IN*%
X91050000Y-61200000D03*
%TO.P,IC7,7*%
%TO.N,/REC_DATA_N*%
X91050000Y-63740000D03*
%TO.P,IC7,8*%
%TO.N,GND*%
X91050000Y-66280000D03*
%TO.P,IC7,9*%
%TO.N,/TERM_DATA*%
X98670000Y-66280000D03*
%TO.P,IC7,10*%
%TO.N,/TERM_DATA_N*%
X98670000Y-63740000D03*
%TO.P,IC7,11*%
%TO.N,/LOCAL_REMOTE*%
X98670000Y-61200000D03*
%TO.P,IC7,12*%
%TO.N,/REMOTE_N*%
X98670000Y-58660000D03*
%TO.P,IC7,13*%
%TO.N,N/C*%
X98670000Y-56120000D03*
%TO.P,IC7,14*%
%TO.N,/DATA_SEL*%
X98670000Y-53580000D03*
%TO.P,IC7,15*%
%TO.N,/DATA_SEL_N*%
X98670000Y-51040000D03*
%TO.P,IC7,16*%
%TO.N,N/C*%
X98670000Y-48500000D03*
%TD*%
D14*
%TO.P,J13,1*%
%TO.N,/MOTOR_1A*%
X114550000Y-151200000D03*
D15*
%TO.P,J13,2*%
%TO.N,/MOTOR_1B*%
X117090000Y-151200000D03*
%TO.P,J13,3*%
%TO.N,/MOTOR_2A*%
X119630000Y-151200000D03*
%TO.P,J13,4*%
%TO.N,/MOTOR_2B*%
X122170000Y-151200000D03*
%TD*%
D13*
%TO.P,R15,1*%
%TO.N,/Mod{slash}Demod & power input/DEM_TIMER*%
X85500000Y-78500000D03*
%TO.P,R15,2*%
%TO.N,/Mod{slash}Demod & power input/DEM_R16*%
X85500000Y-68340000D03*
%TD*%
D16*
%TO.P,J5,1*%
%TO.N,GND*%
X152950000Y-38600000D03*
D17*
%TO.P,J5,2*%
%TO.N,unconnected-(J5-Pin_2-Pad2)*%
X156910000Y-38600000D03*
%TO.P,J5,3*%
%TO.N,unconnected-(J5-Pin_3-Pad3)*%
X160870000Y-38600000D03*
%TO.P,J5,4*%
%TO.N,unconnected-(J5-Pin_4-Pad4)*%
X164830000Y-38600000D03*
%TO.P,J5,5*%
%TO.N,/TERM_RS232_OUT*%
X168790000Y-38600000D03*
%TO.P,J5,6*%
%TO.N,/TERM_RS232_IN*%
X172750000Y-38600000D03*
%TO.P,J5,7*%
%TO.N,unconnected-(J5-Pin_7-Pad7)*%
X176710000Y-38600000D03*
%TO.P,J5,8*%
%TO.N,unconnected-(J5-Pin_8-Pad8)*%
X180670000Y-38600000D03*
%TO.P,J5,9*%
%TO.N,unconnected-(J5-Pin_9-Pad9)*%
X184630000Y-38600000D03*
%TO.P,J5,10*%
%TO.N,unconnected-(J5-Pin_10-Pad10)*%
X188590000Y-38600000D03*
%TD*%
D13*
%TO.P,R26,1*%
%TO.N,/REC_RST*%
X41500000Y-78500000D03*
%TO.P,R26,2*%
%TO.N,/POR*%
X41500000Y-68340000D03*
%TD*%
D12*
%TO.P,IC14,1*%
%TO.N,/TERM_DATA*%
X174050000Y-69800000D03*
D13*
%TO.P,IC14,2*%
%TO.N,+5V*%
X174050000Y-72340000D03*
%TO.P,IC14,3*%
%TO.N,CLOCK_OUT*%
X174050000Y-74880000D03*
%TO.P,IC14,4*%
%TO.N,/TERM_CLK_IN*%
X174050000Y-77420000D03*
%TO.P,IC14,5*%
%TO.N,/TERM_CLK_OUT*%
X174050000Y-79960000D03*
%TO.P,IC14,6*%
%TO.N,GND*%
X174050000Y-82500000D03*
%TO.P,IC14,7*%
X174050000Y-85040000D03*
%TO.P,IC14,8*%
X174050000Y-87580000D03*
%TO.P,IC14,9*%
%TO.N,/SEL_TERM_CLK*%
X181670000Y-87580000D03*
%TO.P,IC14,10*%
%TO.N,/LOCAL_REMOTE*%
X181670000Y-85040000D03*
%TO.P,IC14,11*%
X181670000Y-82500000D03*
%TO.P,IC14,12*%
%TO.N,/CPU_DATA*%
X181670000Y-79960000D03*
%TO.P,IC14,13*%
%TO.N,/TAPE_DATA_N*%
X181670000Y-77420000D03*
%TO.P,IC14,14*%
%TO.N,/TERM_TX_SEL*%
X181670000Y-74880000D03*
%TO.P,IC14,15*%
%TO.N,/TERM_ECHO*%
X181670000Y-72340000D03*
%TO.P,IC14,16*%
%TO.N,+5V*%
X181670000Y-69800000D03*
%TD*%
%TO.P,R18,1*%
%TO.N,+5V*%
X91500000Y-123350000D03*
%TO.P,R18,2*%
%TO.N,/Mod{slash}Demod & power input/DEM_Q2C*%
X91500000Y-113190000D03*
%TD*%
D10*
%TO.P,Q11,1*%
%TO.N,/DELAY_RC*%
X137250000Y-121400000D03*
D11*
%TO.P,Q11,2*%
%TO.N,/REC_EN*%
X138520000Y-121400000D03*
%TO.P,Q11,3*%
%TO.N,GND*%
X139790000Y-121400000D03*
%TD*%
D12*
%TO.P,IC9,1*%
%TO.N,/READ_EN*%
X156050000Y-48550000D03*
D13*
%TO.P,IC9,2*%
%TO.N,CARRIER_DETECT*%
X156050000Y-51090000D03*
%TO.P,IC9,3*%
%TO.N,DATA_OUT*%
X156050000Y-53630000D03*
%TO.P,IC9,4*%
%TO.N,CARRIER_DETECT*%
X156050000Y-56170000D03*
%TO.P,IC9,5*%
%TO.N,/READ_EN*%
X156050000Y-58710000D03*
%TO.P,IC9,6*%
%TO.N,/TAPE_DATA_N*%
X156050000Y-61250000D03*
%TO.P,IC9,7*%
%TO.N,GND*%
X156050000Y-63790000D03*
%TO.P,IC9,8*%
%TO.N,+5V*%
X163670000Y-63790000D03*
%TO.P,IC9,9*%
%TO.N,/READ_ACTIVE_N*%
X163670000Y-61250000D03*
%TO.P,IC9,10*%
%TO.N,/REC_DATA_N*%
X163670000Y-58710000D03*
%TO.P,IC9,11*%
%TO.N,/DATA_SEL_N*%
X163670000Y-56170000D03*
%TO.P,IC9,12*%
%TO.N,/REC_EN*%
X163670000Y-53630000D03*
%TO.P,IC9,13*%
%TO.N,+5V*%
X163670000Y-51090000D03*
%TO.P,IC9,14*%
X163670000Y-48550000D03*
%TD*%
%TO.P,C5,1*%
%TO.N,AUDIO_IN*%
X186500000Y-126700000D03*
%TO.P,C5,2*%
%TO.N,/Mod{slash}Demod & power input/DEM_HP*%
X186500000Y-121700000D03*
%TD*%
%TO.P,R37,1*%
%TO.N,/Q7_C*%
X101500000Y-81050000D03*
%TO.P,R37,2*%
%TO.N,/LED_READ_DATA*%
X101500000Y-70890000D03*
%TD*%
%TO.P,R12,1*%
%TO.N,/Mod{slash}Demod & power input/DEM_INV*%
X75500000Y-78500000D03*
%TO.P,R12,2*%
%TO.N,/Mod{slash}Demod & power input/DEM_DLY*%
X75500000Y-68340000D03*
%TD*%
%TO.P,R24,1*%
%TO.N,/REC_SET*%
X53250000Y-58200000D03*
%TO.P,R24,2*%
%TO.N,GND*%
X53250000Y-48040000D03*
%TD*%
D10*
%TO.P,Q8,1*%
%TO.N,GND*%
X98900000Y-86800000D03*
D11*
%TO.P,Q8,2*%
%TO.N,/Q8_B*%
X100170000Y-86800000D03*
%TO.P,Q8,3*%
%TO.N,/Q8_C*%
X101440000Y-86800000D03*
%TD*%
D13*
%TO.P,R20,1*%
%TO.N,/Mod{slash}Demod & power input/DEM_BIT_EDGE*%
X85500000Y-92750000D03*
%TO.P,R20,2*%
%TO.N,GND*%
X85500000Y-82590000D03*
%TD*%
D12*
%TO.P,IC11,1*%
%TO.N,/REMOTE_N*%
X174050000Y-48550000D03*
D13*
%TO.P,IC11,2*%
%TO.N,/READ_ACTIVE_N*%
X174050000Y-51090000D03*
%TO.P,IC11,3*%
%TO.N,/SEL_TERM_CLK*%
X174050000Y-53630000D03*
%TO.P,IC11,4*%
%TO.N,/SEL_CPU_CLK*%
X174050000Y-56170000D03*
%TO.P,IC11,5*%
%TO.N,/READ_ACTIVE_N*%
X174050000Y-58710000D03*
%TO.P,IC11,6*%
%TO.N,/LOCAL_REMOTE*%
X174050000Y-61250000D03*
%TO.P,IC11,7*%
%TO.N,GND*%
X174050000Y-63790000D03*
%TO.P,IC11,8*%
%TO.N,/TERM_DATA_N*%
X181670000Y-63790000D03*
%TO.P,IC11,9*%
%TO.N,/TAPE_DATA*%
X181670000Y-61250000D03*
%TO.P,IC11,10*%
%TO.N,/ECHO_N*%
X181670000Y-58710000D03*
%TO.P,IC11,11*%
%TO.N,/CPU_RX_N*%
X181670000Y-56170000D03*
%TO.P,IC11,12*%
%TO.N,/ECHO_N*%
X181670000Y-53630000D03*
%TO.P,IC11,13*%
%TO.N,/LOCAL_REMOTE*%
X181670000Y-51090000D03*
%TO.P,IC11,14*%
%TO.N,+5V*%
X181670000Y-48550000D03*
%TD*%
%TO.P,C7,1*%
%TO.N,+5V*%
X75500000Y-125650000D03*
%TO.P,C7,2*%
%TO.N,/Mod{slash}Demod & power input/DEM_CD*%
X75500000Y-120650000D03*
%TD*%
D12*
%TO.P,IC3,1*%
%TO.N,/Mod{slash}Demod & power input/DEM_CD*%
X75050000Y-48550000D03*
D13*
%TO.P,IC3,2*%
X75050000Y-51090000D03*
%TO.P,IC3,3*%
%TO.N,CARRIER_DETECT*%
X75050000Y-53630000D03*
%TO.P,IC3,4*%
%TO.N,/Mod{slash}Demod & power input/DEM_BIT*%
X75050000Y-56170000D03*
%TO.P,IC3,5*%
%TO.N,/Mod{slash}Demod & power input/DEM_TIMER*%
X75050000Y-58710000D03*
%TO.P,IC3,6*%
%TO.N,GND*%
X75050000Y-61250000D03*
%TO.P,IC3,7*%
X75050000Y-63790000D03*
%TO.P,IC3,8*%
%TO.N,+5V*%
X82670000Y-63790000D03*
%TO.P,IC3,9*%
%TO.N,/Mod{slash}Demod & power input/DEM_LIM*%
X82670000Y-61250000D03*
%TO.P,IC3,10*%
%TO.N,/Mod{slash}Demod & power input/DEM_INV*%
X82670000Y-58710000D03*
%TO.P,IC3,11*%
%TO.N,/Mod{slash}Demod & power input/DEM_EDGE*%
X82670000Y-56170000D03*
%TO.P,IC3,12*%
%TO.N,/Mod{slash}Demod & power input/DEM_LIM*%
X82670000Y-53630000D03*
%TO.P,IC3,13*%
%TO.N,/Mod{slash}Demod & power input/DEM_DLY*%
X82670000Y-51090000D03*
%TO.P,IC3,14*%
%TO.N,+5V*%
X82670000Y-48550000D03*
%TD*%
D26*
%TO.N,/Q6_B*%
X158898000Y-68340000D03*
%TO.N,/CPU_CLK_OUT*%
X129373000Y-50936100D03*
X126342000Y-32898800D03*
X150000000Y-33049600D03*
%TO.N,CLOCK_IN*%
X135167000Y-93762300D03*
%TO.N,/LOCAL_REMOTE*%
X142541000Y-59482800D03*
X69155800Y-62663300D03*
%TO.N,/SEL_CPU_CLK*%
X166673000Y-58621300D03*
X166336000Y-66102400D03*
X143117000Y-66102400D03*
%TO.N,/CPU_DATA*%
X171436000Y-60265200D03*
%TO.N,/TERM_DATA*%
X169642000Y-52452900D03*
X145468000Y-68762200D03*
X99424100Y-72229900D03*
X171789000Y-67539100D03*
X96366200Y-62415000D03*
%TO.N,/CPU_CLK_IN*%
X130243000Y-33350500D03*
X137634000Y-51040000D03*
D27*
%TO.N,+5V*%
X82582400Y-90769900D03*
D26*
%TO.N,/TERM_RS232_OUT*%
X66873400Y-41105600D03*
%TO.N,/LED_READ_RDY*%
X110135000Y-73407900D03*
%TO.N,AUDIO_OUT*%
X184416000Y-155069000D03*
%TO.N,/LED_REC_RDY*%
X109359000Y-71461900D03*
%TO.N,/LED_REC_DATA*%
X110863000Y-69762600D03*
D27*
%TO.N,+13V*%
X197197000Y-134323000D03*
%TO.N,-7.5V*%
X174194000Y-103812000D03*
D26*
%TO.N,/READ_SET*%
X50931800Y-99006900D03*
%TO.N,/CTRL_INVERT*%
X124250000Y-50554800D03*
%TO.N,DATA_OUT*%
X156051000Y-73493000D03*
%TO.N,/Mod{slash}Demod & power input/DEM_PULSE*%
X81807000Y-98011000D03*
%TO.N,/Mod{slash}Demod & power input/DEM_BIT*%
X63464800Y-122445000D03*
%TO.N,/DELAY_OUT*%
X130278000Y-118882000D03*
X152322000Y-104677000D03*
%TO.N,/Mod{slash}Demod & power input/DEM_Q4B*%
X143315000Y-109509000D03*
%TO.N,/TAPE_DATA*%
X180125000Y-76061300D03*
X93516600Y-56120000D03*
%TO.N,/TERM_RS232_IN*%
X180521000Y-66491900D03*
%TO.N,/TERM_TX_SEL*%
X188321000Y-61970300D03*
%TO.N,/CPU_RS232_IN*%
X191623000Y-35432400D03*
%TO.N,/CPU_RX*%
X94516700Y-51040000D03*
X90611600Y-36130600D03*
%TO.N,/RELAY_1*%
X103600000Y-152391000D03*
%TO.N,/MAN_MOTOR*%
X106619000Y-154388000D03*
%TO.N,/RELAY_2*%
X111352000Y-152718000D03*
%TO.N,/Mod{slash}Demod & power input/MOD_EDGE*%
X89920500Y-120557000D03*
%TO.N,/START_RECORD*%
X117291000Y-44446900D03*
%TO.N,/POR*%
X41500000Y-74932300D03*
%TO.N,/REC_EN*%
X122210000Y-56755000D03*
X118899000Y-52415900D03*
X159821000Y-107820000D03*
%TO.N,/READ_RST*%
X50091000Y-97346600D03*
%TO.N,/REC_SET*%
X46108700Y-93838500D03*
%TO.N,/REC_RST*%
X46370900Y-95136600D03*
%TO.N,/STOP_RECORD*%
X114630000Y-48550000D03*
%TO.N,/STOP_REC_P*%
X105143000Y-89890400D03*
%TO.N,/START_REC_P*%
X110863000Y-89034900D03*
%TO.N,/START_READ_P*%
X126279000Y-59105700D03*
X122975000Y-114817000D03*
%TO.N,/STOP_READ_P*%
X125546000Y-56028300D03*
X49667900Y-86758500D03*
X115109000Y-87990200D03*
%TO.N,/Q9_B*%
X35340300Y-71095100D03*
%TO.N,/REC_RLY_DRV*%
X38990000Y-149531000D03*
%TO.N,/Mod{slash}Demod & power input/DEM_CD*%
X68491900Y-107965000D03*
%TO.N,/TERM_CLK_IN*%
X142880000Y-76170400D03*
%TO.N,CARRIER_DETECT*%
X147909000Y-51061700D03*
X136170000Y-33802200D03*
X77859900Y-34705700D03*
%TO.N,CARRIER_EN_N*%
X53120600Y-107227000D03*
%TO.N,/Mod{slash}Demod & power input/DEM_TIMER*%
X83591300Y-124778000D03*
%TO.N,/Mod{slash}Demod & power input/MOD_FB*%
X174417000Y-120594000D03*
%TO.N,/READ_RLY_DRV*%
X73162300Y-109232000D03*
%TO.N,/MOTOR_1A*%
X121381000Y-88121700D03*
%TO.N,/CPU_RX_N*%
X178690000Y-35291300D03*
X179889000Y-54845400D03*
X86292000Y-36185100D03*
%TO.N,/TAPE_DATA_N*%
X166490000Y-75992200D03*
X88970700Y-75038100D03*
X158898000Y-61250000D03*
X166488000Y-73774400D03*
%TO.N,/REC_DATA_N*%
X161945000Y-63321400D03*
X91881800Y-68956900D03*
%TO.N,/REMOTE_N*%
X117290000Y-45785200D03*
X173579000Y-45785200D03*
X116296000Y-61680300D03*
%TO.N,/DATA_SEL_N*%
X95365600Y-73833800D03*
X167217000Y-72863800D03*
%TD*%
%TO.N,GND*%
D28*
X128050000Y-105900000D02*
X131769000Y-102181000D01*
X132240000Y-151200000D02*
X132240000Y-122640000D01*
X133629000Y-152589000D02*
X132240000Y-151200000D01*
X146124000Y-104576000D02*
X145250000Y-105450000D01*
X77054800Y-126021000D02*
X75450000Y-127625000D01*
X46139300Y-48040000D02*
X46139300Y-53700700D01*
X46500000Y-64080000D02*
X43670000Y-61250000D01*
X133250000Y-70880000D02*
X133050000Y-70680000D01*
X91450000Y-84350000D02*
X91450000Y-86800000D01*
X176750000Y-126230000D02*
X176970000Y-126230000D01*
X44200000Y-46100700D02*
X46139300Y-48040000D01*
X174050000Y-87580000D02*
X174050000Y-85040000D01*
X80500000Y-120650000D02*
X77054800Y-124095000D01*
X131769000Y-89488700D02*
X127630000Y-85350000D01*
X50569600Y-88719100D02*
X50569600Y-82630000D01*
X50119400Y-78958100D02*
X50119400Y-82179800D01*
X154635000Y-63790000D02*
X154635000Y-83511700D01*
X154635000Y-83511700D02*
X155423000Y-84300000D01*
X91050000Y-66280000D02*
X92810600Y-68040600D01*
X135931000Y-152589000D02*
X133629000Y-152589000D01*
X46139300Y-53700700D02*
X43670000Y-56170000D01*
X131769000Y-102181000D02*
X131769000Y-95300000D01*
X92810600Y-82989400D02*
X91450000Y-84350000D01*
X177500000Y-100900000D02*
X179670000Y-98730000D01*
X46500000Y-75338700D02*
X50119400Y-78958100D01*
X50119400Y-82179800D02*
X50569600Y-82630000D01*
X69670000Y-77470000D02*
X69670000Y-80010000D01*
X133250000Y-74879300D02*
X127630000Y-80499300D01*
X46139300Y-48040000D02*
X48250000Y-48040000D01*
X172702000Y-81151700D02*
X174050000Y-82500000D01*
X156450000Y-84300000D02*
X155423000Y-84300000D01*
X92610000Y-64720000D02*
X91050000Y-66280000D01*
X69670000Y-82550000D02*
X69670000Y-85090000D01*
X172250000Y-121730000D02*
X171192000Y-120672000D01*
X75250000Y-108930000D02*
X69670000Y-103350000D01*
X171192000Y-120672000D02*
X171192000Y-108748000D01*
X144800000Y-95300000D02*
X146124000Y-96623500D01*
X73937700Y-120978000D02*
X73937700Y-110242000D01*
X127630000Y-80499300D02*
X127630000Y-85350000D01*
X177500000Y-107440000D02*
X177500000Y-100900000D01*
X133250000Y-70880000D02*
X133250000Y-74879300D01*
X77054800Y-124095000D02*
X77054800Y-126021000D01*
X77054800Y-124095000D02*
X73937700Y-120978000D01*
X142382000Y-119835000D02*
X142382000Y-108318000D01*
X75450000Y-127625000D02*
X75450000Y-131400000D01*
X131769000Y-95300000D02*
X134800000Y-95300000D01*
X172702000Y-65138300D02*
X172702000Y-81151700D01*
X46500000Y-68340000D02*
X46500000Y-64080000D01*
X151050000Y-106090000D02*
X151050000Y-103550000D01*
X49000100Y-90288600D02*
X50569600Y-88719100D01*
X44200000Y-38600000D02*
X44200000Y-46100700D01*
X133050000Y-66280000D02*
X133050000Y-63740000D01*
X69670000Y-80010000D02*
X69670000Y-82550000D01*
X154635000Y-63790000D02*
X156050000Y-63790000D01*
X73937700Y-110242000D02*
X75250000Y-108930000D01*
X62050000Y-85090000D02*
X62050000Y-82550000D01*
X140817000Y-121400000D02*
X142382000Y-119835000D01*
X152950000Y-62105000D02*
X154635000Y-63790000D01*
X187500000Y-68350000D02*
X187050000Y-67900000D01*
X133050000Y-63740000D02*
X133050000Y-61200000D01*
X133050000Y-70680000D02*
X133050000Y-66280000D01*
X131769000Y-95300000D02*
X131769000Y-89488700D01*
X137320000Y-151200000D02*
X135931000Y-152589000D01*
X176970000Y-126230000D02*
X181500000Y-121700000D01*
X92810600Y-68040600D02*
X92810600Y-82989400D01*
X174050000Y-85040000D02*
X174050000Y-82500000D01*
X187050000Y-67900000D02*
X187050000Y-63790000D01*
X142382000Y-108318000D02*
X145250000Y-105450000D01*
X146124000Y-96623500D02*
X146124000Y-104576000D01*
X139790000Y-121400000D02*
X140817000Y-121400000D01*
X92610000Y-38600000D02*
X92610000Y-64720000D01*
X72174400Y-74965600D02*
X72174400Y-66665600D01*
X152950000Y-38600000D02*
X152950000Y-62105000D01*
X132240000Y-122640000D02*
X131650000Y-122050000D01*
X50569600Y-82630000D02*
X53750000Y-82630000D01*
X69670000Y-77470000D02*
X72174400Y-74965600D01*
X49000100Y-148340000D02*
X49000100Y-90288600D01*
X69670000Y-103350000D02*
X69670000Y-85090000D01*
X176750000Y-129350000D02*
X176750000Y-126230000D01*
X171192000Y-108748000D02*
X172500000Y-107440000D01*
X174050000Y-63790000D02*
X172702000Y-65138300D01*
X46140000Y-151200000D02*
X49000100Y-148340000D01*
X75050000Y-63790000D02*
X75050000Y-61250000D01*
X72174400Y-66665600D02*
X75050000Y-63790000D01*
X176750000Y-126230000D02*
X172250000Y-121730000D01*
X46500000Y-68340000D02*
X46500000Y-75338700D01*
%TO.N,/Q6_B*%
D29*
X165170000Y-74611500D02*
X158898000Y-68340000D01*
X165170000Y-84300000D02*
X165170000Y-74611500D01*
%TO.N,/Q6_C*%
X166500000Y-78500000D02*
X166440000Y-78560000D01*
X166440000Y-78560000D02*
X166440000Y-84300000D01*
%TO.N,CLOCK_OUT*%
X149490000Y-58752900D02*
X149490000Y-72550000D01*
X145250000Y-48040000D02*
X145250000Y-54512900D01*
X145250000Y-54512900D02*
X149490000Y-58752900D01*
%TO.N,/CPU_CLK_OUT*%
X133050000Y-58660000D02*
X129373000Y-54983000D01*
X134414000Y-60023600D02*
X134414000Y-77336400D01*
X133050000Y-58660000D02*
X134414000Y-60023600D01*
X129373000Y-54983000D02*
X129373000Y-50936100D01*
X129373000Y-50936100D02*
X126342000Y-47904900D01*
X150000000Y-48030000D02*
X150000000Y-33049600D01*
X126342000Y-47904900D02*
X126342000Y-32898800D01*
X134414000Y-77336400D02*
X133250000Y-78500000D01*
%TO.N,/TERM_CLK_OUT*%
X133050000Y-53580000D02*
X137750000Y-58280000D01*
X137750000Y-74000000D02*
X142250000Y-78500000D01*
X137750000Y-58280000D02*
X137750000Y-70880000D01*
X128250000Y-48780000D02*
X133050000Y-53580000D01*
X137750000Y-70880000D02*
X137750000Y-74000000D01*
X128250000Y-38600000D02*
X128250000Y-48780000D01*
%TO.N,CLOCK_IN*%
X135167000Y-58237300D02*
X135167000Y-93762300D01*
X133050000Y-56120000D02*
X135167000Y-58237300D01*
%TO.N,/LOCAL_REMOTE*%
X63920000Y-151200000D02*
X67353100Y-147767000D01*
X100530000Y-46249900D02*
X101169000Y-46889000D01*
X103758000Y-46889000D02*
X106500000Y-49631500D01*
X181670000Y-82500000D02*
X181670000Y-85040000D01*
X174050000Y-61250000D02*
X175465000Y-62664800D01*
X175465000Y-76294800D02*
X181670000Y-82500000D01*
X69155800Y-67034300D02*
X69155800Y-62663300D01*
X106500000Y-49631500D02*
X106500000Y-70890000D01*
X139543000Y-65153300D02*
X140670000Y-66280000D01*
X139543000Y-62326700D02*
X139543000Y-65153300D01*
X140670000Y-61200000D02*
X139543000Y-62326700D01*
X67353100Y-68837000D02*
X69155800Y-67034300D01*
X101169000Y-58700900D02*
X101169000Y-46889000D01*
X98670000Y-61200000D02*
X101169000Y-58700900D01*
X100530000Y-38600000D02*
X100530000Y-46249900D01*
X142387000Y-59482800D02*
X142541000Y-59482800D01*
X140670000Y-61200000D02*
X142387000Y-59482800D01*
X67353100Y-147767000D02*
X67353100Y-68837000D01*
X101169000Y-46889000D02*
X103758000Y-46889000D01*
X175465000Y-62664800D02*
X175465000Y-76294800D01*
%TO.N,/SEL_CPU_CLK*%
X143117000Y-66102400D02*
X140754000Y-63740000D01*
X140754000Y-63740000D02*
X140670000Y-63740000D01*
X166336000Y-58957900D02*
X166673000Y-58621300D01*
X166336000Y-66102400D02*
X166336000Y-58957900D01*
%TO.N,/CPU_DATA*%
X181670000Y-79960000D02*
X177050000Y-75339900D01*
X171593000Y-60109000D02*
X171436000Y-60265200D01*
X177050000Y-75339900D02*
X177050000Y-62646100D01*
X174513000Y-60109000D02*
X171593000Y-60109000D01*
X177050000Y-62646100D02*
X174513000Y-60109000D01*
%TO.N,/TERM_DATA*%
X145468000Y-60918100D02*
X145468000Y-68762200D01*
X96366200Y-63976200D02*
X96366200Y-62415000D01*
X99424100Y-67034100D02*
X99424100Y-72229900D01*
X171789000Y-67539100D02*
X169642000Y-65392200D01*
X98670000Y-66280000D02*
X99424100Y-67034100D01*
X169642000Y-65392200D02*
X169642000Y-52452900D01*
X140670000Y-56120000D02*
X145468000Y-60918100D01*
X98670000Y-66280000D02*
X96366200Y-63976200D01*
%TO.N,/CPU_CLK_IN*%
X137634000Y-51040000D02*
X130243000Y-43649700D01*
X130243000Y-43649700D02*
X130243000Y-33350500D01*
%TO.N,+5V*%
D28*
X82900000Y-131400000D02*
X82900000Y-132652000D01*
X156500000Y-93020000D02*
X158670000Y-90850000D01*
X90131800Y-124718000D02*
X91500000Y-123350000D01*
X136415000Y-98684600D02*
X136415000Y-79834600D01*
X142807000Y-50636600D02*
X140670000Y-48500000D01*
X43900000Y-95533600D02*
X43900000Y-107650000D01*
X95199800Y-112081000D02*
X95199800Y-96870200D01*
X96850000Y-151200000D02*
X96850000Y-149848000D01*
X42750000Y-86800000D02*
X42750000Y-94383600D01*
X164610000Y-147550000D02*
X164610000Y-144998000D01*
X106500000Y-81050000D02*
X106500000Y-85570000D01*
X164490000Y-127050000D02*
X164490000Y-118630000D01*
X124250000Y-76750000D02*
X124250000Y-58200000D01*
X82722900Y-90822800D02*
X82670000Y-90769900D01*
X142807000Y-55756600D02*
X142807000Y-50636600D01*
X91500000Y-123350000D02*
X91500000Y-115781000D01*
X124250000Y-53130000D02*
X124250000Y-58200000D01*
X95199800Y-96870200D02*
X98670000Y-93400000D01*
X134800000Y-100300000D02*
X136415000Y-98684600D01*
X183015000Y-49895000D02*
X183015000Y-68455000D01*
X135670000Y-105900000D02*
X135670000Y-101170000D01*
X122500000Y-78500000D02*
X124250000Y-76750000D01*
X164490000Y-127050000D02*
X164490000Y-144878000D01*
X183015000Y-68455000D02*
X181670000Y-69800000D01*
X91500000Y-115781000D02*
X95199800Y-112081000D01*
X164490000Y-118630000D02*
X156500000Y-110640000D01*
X82670000Y-90769900D02*
X82582400Y-90769900D01*
X181670000Y-48550000D02*
X183015000Y-49895000D01*
X82722900Y-99727100D02*
X82722900Y-90822800D01*
X135670000Y-101170000D02*
X134800000Y-100300000D01*
X119670000Y-48550000D02*
X124250000Y-53130000D01*
X136415000Y-79834600D02*
X137750000Y-78500000D01*
X90131800Y-132652000D02*
X90131800Y-124718000D01*
X145250000Y-58200000D02*
X142807000Y-55756600D01*
X82670000Y-90769900D02*
X82670000Y-63790000D01*
X135670000Y-105900000D02*
X140250000Y-110480000D01*
X144800000Y-100300000D02*
X139800000Y-100300000D01*
X43600000Y-149848000D02*
X43900000Y-149548000D01*
X43600000Y-151200000D02*
X43600000Y-149848000D01*
X42750000Y-94383600D02*
X43900000Y-95533600D01*
X140250000Y-110480000D02*
X140250000Y-115600000D01*
X90131800Y-143130000D02*
X90131800Y-132652000D01*
X81590000Y-100860000D02*
X82722900Y-99727100D01*
X163670000Y-48550000D02*
X163670000Y-51090000D01*
X164490000Y-144878000D02*
X164610000Y-144998000D01*
X96850000Y-149848000D02*
X90131800Y-143130000D01*
X43900000Y-149548000D02*
X43900000Y-107650000D01*
X79050000Y-98320000D02*
X81590000Y-100860000D01*
X90131800Y-132652000D02*
X82900000Y-132652000D01*
X156500000Y-110640000D02*
X156500000Y-93020000D01*
X106500000Y-85570000D02*
X98670000Y-93400000D01*
%TO.N,/CPU_RS232_OUT*%
D29*
X64000000Y-38600000D02*
X62093300Y-38600000D01*
X62093300Y-38600000D02*
X62093300Y-40506700D01*
X59050000Y-43550000D02*
X59050000Y-48550000D01*
X62093300Y-40506700D02*
X59050000Y-43550000D01*
%TO.N,/TERM_RS232_OUT*%
X60828900Y-47150100D02*
X60828900Y-54391100D01*
X66873400Y-41105600D02*
X60828900Y-47150100D01*
X60828900Y-54391100D02*
X59050000Y-56170000D01*
%TO.N,/LED_READ_RDY*%
X105352000Y-91836300D02*
X109960000Y-87228800D01*
X109960000Y-73583000D02*
X110135000Y-73407900D01*
X101930000Y-149386000D02*
X105352000Y-145964000D01*
X105352000Y-145964000D02*
X105352000Y-91836300D01*
X109960000Y-87228800D02*
X109960000Y-73583000D01*
X101930000Y-151200000D02*
X101930000Y-149386000D01*
%TO.N,AUDIO_IN*%
X186500000Y-125043000D02*
X179057000Y-117600000D01*
X179057000Y-117600000D02*
X177500000Y-117600000D01*
X186500000Y-126700000D02*
X186500000Y-125043000D01*
%TO.N,/Mod{slash}Demod & power input/MOD_ATTEN*%
X195379000Y-94318900D02*
X194250000Y-93190000D01*
X195379000Y-120821000D02*
X195379000Y-94318900D01*
X192150000Y-124050000D02*
X195379000Y-120821000D01*
%TO.N,AUDIO_OUT*%
X194650000Y-124050000D02*
X194650000Y-144835000D01*
X194650000Y-144835000D02*
X184416000Y-155069000D01*
%TO.N,/LED_REC_RDY*%
X104901000Y-145689000D02*
X104901000Y-91642800D01*
X104901000Y-91642800D02*
X109359000Y-87184000D01*
X109359000Y-87184000D02*
X109359000Y-71461900D01*
X99390000Y-151200000D02*
X104901000Y-145689000D01*
%TO.N,/LED_REC_DATA*%
X110863000Y-76961000D02*
X110863000Y-69762600D01*
X110412000Y-88054700D02*
X110412000Y-77412700D01*
X110412000Y-77412700D02*
X110863000Y-76961000D01*
X104470000Y-148300000D02*
X105804000Y-146966000D01*
X105804000Y-146966000D02*
X105804000Y-92662200D01*
X105804000Y-92662200D02*
X110412000Y-88054700D01*
X104470000Y-151200000D02*
X104470000Y-148300000D01*
%TO.N,/LED_READ_DATA*%
X104412000Y-142613000D02*
X98184500Y-148840000D01*
X107648000Y-77038000D02*
X107648000Y-85785200D01*
X104412000Y-89021100D02*
X104412000Y-142613000D01*
X105026000Y-153184000D02*
X107010000Y-151200000D01*
X99698700Y-153184000D02*
X105026000Y-153184000D01*
X98184500Y-151670000D02*
X99698700Y-153184000D01*
X107648000Y-85785200D02*
X104412000Y-89021100D01*
X101500000Y-70890000D02*
X107648000Y-77038000D01*
X98184500Y-148840000D02*
X98184500Y-151670000D01*
%TO.N,+13V*%
D28*
X197197000Y-51077000D02*
X194670000Y-48550000D01*
X197197000Y-134323000D02*
X197197000Y-51077000D01*
%TO.N,-13V*%
X189266000Y-69691600D02*
X185362000Y-73594900D01*
X185362000Y-73594900D02*
X185362000Y-86053500D01*
X187050000Y-48550000D02*
X189266000Y-50765800D01*
X173648000Y-101518000D02*
X168749000Y-106416000D01*
X189266000Y-50765800D02*
X189266000Y-69691600D01*
X168749000Y-143769000D02*
X172530000Y-147550000D01*
X168749000Y-106416000D02*
X168749000Y-143769000D01*
X173648000Y-97768400D02*
X173648000Y-101518000D01*
X185362000Y-86053500D02*
X173648000Y-97768400D01*
%TO.N,+7.5V*%
X175976000Y-100578000D02*
X169551000Y-107003000D01*
X179670000Y-93650000D02*
X175976000Y-97343500D01*
X175976000Y-97343500D02*
X175976000Y-100578000D01*
X169551000Y-107003000D02*
X169551000Y-140611000D01*
X169551000Y-140611000D02*
X176490000Y-147550000D01*
%TO.N,-7.5V*%
X174194000Y-103812000D02*
X170353000Y-107653000D01*
X170353000Y-137453000D02*
X180450000Y-147550000D01*
X170353000Y-107653000D02*
X170353000Y-137453000D01*
%TO.N,/READ_SET*%
D29*
X58840000Y-151200000D02*
X58840000Y-106915000D01*
X34558100Y-85205200D02*
X34558100Y-62741900D01*
X58840000Y-106915000D02*
X50931800Y-99006900D01*
X34558100Y-62741900D02*
X36050000Y-61250000D01*
X36500000Y-96850000D02*
X37652300Y-95697700D01*
X37652300Y-95697700D02*
X37652300Y-88299400D01*
X37652300Y-88299400D02*
X34558100Y-85205200D01*
%TO.N,/CTRL_INVERT*%
X118491000Y-54809000D02*
X118491000Y-60071000D01*
X113224000Y-51090000D02*
X113224000Y-57536400D01*
X118491000Y-60071000D02*
X119670000Y-61250000D01*
X113224000Y-57536400D02*
X112050000Y-58710000D01*
X113224000Y-51090000D02*
X112050000Y-51090000D01*
X124250000Y-48040000D02*
X124250000Y-50554800D01*
X114463000Y-38600000D02*
X114463000Y-40506700D01*
X116370000Y-38600000D02*
X114463000Y-38600000D01*
X119670000Y-53630000D02*
X118491000Y-54809000D01*
X113224000Y-41746400D02*
X113224000Y-51090000D01*
X114463000Y-40506700D02*
X113224000Y-41746400D01*
%TO.N,/Mod{slash}Demod & power input/MOD_FILT*%
X172050000Y-96190000D02*
X172050000Y-93650000D01*
%TO.N,/Mod{slash}Demod & power input/MOD_F2*%
X172050000Y-98730000D02*
X166500000Y-104280000D01*
X166500000Y-104280000D02*
X166500000Y-110640000D01*
%TO.N,/Mod{slash}Demod & power input/DEM_IN*%
X176368000Y-113572000D02*
X176368000Y-121348000D01*
X179670000Y-104610000D02*
X182500000Y-107440000D01*
X176368000Y-121348000D02*
X176750000Y-121730000D01*
X182500000Y-107440000D02*
X176368000Y-113572000D01*
X187500000Y-112440000D02*
X187500000Y-117600000D01*
X179670000Y-101270000D02*
X179670000Y-104610000D01*
X182500000Y-107440000D02*
X187500000Y-112440000D01*
%TO.N,/Mod{slash}Demod & power input/DEM_CMP*%
X192500000Y-112440000D02*
X187500000Y-107440000D01*
X179670000Y-96190000D02*
X187500000Y-104020000D01*
X192500000Y-117600000D02*
X192500000Y-112440000D01*
X187500000Y-104020000D02*
X187500000Y-107440000D01*
%TO.N,DATA_OUT*%
X157679000Y-55259100D02*
X157679000Y-70819400D01*
X157679000Y-70819400D02*
X156051000Y-72447800D01*
X156050000Y-53630000D02*
X157679000Y-55259100D01*
X156051000Y-72447800D02*
X156051000Y-73493000D01*
%TO.N,/Mod{slash}Demod & power input/DEM_PULSE*%
X99859200Y-102371000D02*
X98670000Y-103560000D01*
X81755700Y-97959700D02*
X81807000Y-98011000D01*
X80500000Y-78500000D02*
X81755700Y-79755700D01*
X81755700Y-79755700D02*
X81755700Y-97959700D01*
X98670000Y-98480000D02*
X99859200Y-99669200D01*
X99859200Y-99669200D02*
X99859200Y-102371000D01*
%TO.N,/Mod{slash}Demod & power input/DEM_BIT*%
X68306300Y-62485200D02*
X68306300Y-64869300D01*
X63464800Y-80010000D02*
X62050000Y-80010000D01*
X75050000Y-56170000D02*
X74621500Y-56170000D01*
X74621500Y-56170000D02*
X68306300Y-62485200D01*
X68306300Y-64869300D02*
X63464800Y-69710800D01*
X63464800Y-69710800D02*
X63464800Y-80010000D01*
X63464800Y-80010000D02*
X63464800Y-122445000D01*
%TO.N,/Mod{slash}Demod & power input/MOD_F1*%
X166500000Y-115640000D02*
X166500000Y-120800000D01*
X161500000Y-110640000D02*
X166500000Y-115640000D01*
%TO.N,/D18_K*%
X151500000Y-114185000D02*
X161950000Y-124635000D01*
X161950000Y-124635000D02*
X161950000Y-127050000D01*
X151500000Y-110640000D02*
X151500000Y-114185000D01*
%TO.N,/Mod{slash}Demod & power input/MOD_SQ*%
X153049000Y-112349000D02*
X153049000Y-92848600D01*
X161500000Y-120800000D02*
X153049000Y-112349000D01*
X153049000Y-92848600D02*
X151050000Y-90850000D01*
%TO.N,/DELAY_RC*%
X135670000Y-108440000D02*
X135670000Y-110980000D01*
X137250000Y-112560000D02*
X137250000Y-121400000D01*
X135670000Y-110980000D02*
X137250000Y-112560000D01*
%TO.N,/START_READ*%
X118032000Y-62151600D02*
X119670000Y-63790000D01*
X118423000Y-45943300D02*
X118032000Y-46335000D01*
X120330000Y-38600000D02*
X118423000Y-38600000D01*
X118032000Y-46335000D02*
X118032000Y-62151600D01*
X118423000Y-38600000D02*
X118423000Y-45943300D01*
%TO.N,/DELAY_OUT*%
X150357000Y-109218000D02*
X152322000Y-107253000D01*
X151500000Y-120800000D02*
X150357000Y-119657000D01*
X128050000Y-110980000D02*
X130278000Y-113208000D01*
X152322000Y-107253000D02*
X152322000Y-104677000D01*
X150357000Y-119657000D02*
X150357000Y-109218000D01*
X130278000Y-113208000D02*
X130278000Y-118882000D01*
%TO.N,/Mod{slash}Demod & power input/DEM_R16*%
X85500000Y-68340000D02*
X83409200Y-70430800D01*
X83409200Y-100594000D02*
X80602800Y-103400000D01*
X80602800Y-103400000D02*
X79050000Y-103400000D01*
X83409200Y-70430800D02*
X83409200Y-100594000D01*
%TO.N,/Mod{slash}Demod & power input/DEM_Q4B*%
X148220000Y-104605000D02*
X143315000Y-109509000D01*
X91500000Y-127450000D02*
X92898300Y-126052000D01*
X92898300Y-126052000D02*
X92898300Y-116792000D01*
X148220000Y-72550000D02*
X148220000Y-104605000D01*
X92898300Y-116792000D02*
X96500000Y-113190000D01*
%TO.N,/Mod{slash}Demod & power input/DEM_Q2B*%
X97720000Y-119164000D02*
X100373000Y-116511000D01*
X100373000Y-95766700D02*
X103250000Y-92890000D01*
X100373000Y-116511000D02*
X100373000Y-95766700D01*
X97720000Y-129150000D02*
X97720000Y-119164000D01*
%TO.N,/Mod{slash}Demod & power input/DEM_Q2C*%
X91050000Y-106100000D02*
X91050000Y-103560000D01*
X91500000Y-113190000D02*
X92223600Y-112466000D01*
X98990000Y-129150000D02*
X98990000Y-120710000D01*
X98990000Y-120710000D02*
X101500000Y-118200000D01*
X92223600Y-107274000D02*
X91050000Y-106100000D01*
X92223600Y-112466000D02*
X92223600Y-107274000D01*
%TO.N,/TAPE_DATA*%
X180125000Y-69570500D02*
X180125000Y-76061300D01*
X181262000Y-65854200D02*
X181262000Y-68433400D01*
X96500000Y-81050000D02*
X93516600Y-78066600D01*
X93516600Y-78066600D02*
X93516600Y-56120000D01*
X181262000Y-68433400D02*
X180125000Y-69570500D01*
X180521000Y-62399300D02*
X180521000Y-65112800D01*
X180521000Y-65112800D02*
X181262000Y-65854200D01*
X181670000Y-61250000D02*
X180521000Y-62399300D01*
%TO.N,/Q7_B*%
X92720000Y-85723300D02*
X93518400Y-85723300D01*
X93518400Y-85723300D02*
X97633400Y-81608300D01*
X97633400Y-72023400D02*
X96500000Y-70890000D01*
X92720000Y-86800000D02*
X92720000Y-85723300D01*
X97633400Y-81608300D02*
X97633400Y-72023400D01*
%TO.N,/READ_EN_N*%
X34070800Y-90320800D02*
X34070800Y-53069200D01*
X36500000Y-92750000D02*
X34070800Y-90320800D01*
X34070800Y-53069200D02*
X36050000Y-51090000D01*
%TO.N,/Q10_B*%
X36500000Y-82590000D02*
X40863700Y-82590000D01*
X40863700Y-82590000D02*
X44301900Y-86028200D01*
X44469900Y-91061000D02*
X44469900Y-95217200D01*
X44301900Y-86028200D02*
X44301900Y-90893000D01*
X45170000Y-95917300D02*
X45170000Y-106573000D01*
X44301900Y-90893000D02*
X44469900Y-91061000D01*
X44469900Y-95217200D02*
X45170000Y-95917300D01*
X45170000Y-107650000D02*
X45170000Y-106573000D01*
%TO.N,/Mod{slash}Demod & power input/DEM_BIT_EDGE*%
X85500000Y-120650000D02*
X86541600Y-119608000D01*
X86541600Y-93791600D02*
X85500000Y-92750000D01*
X86541600Y-119608000D02*
X86541600Y-93791600D01*
%TO.N,/TERM_RS232_IN*%
X188697000Y-74547300D02*
X192904000Y-74547300D01*
X180069000Y-66040200D02*
X180521000Y-66491900D01*
X180069000Y-59012200D02*
X180069000Y-66040200D01*
X174657000Y-40506700D02*
X176645000Y-42494700D01*
X187500000Y-73350000D02*
X188697000Y-74547300D01*
X174657000Y-38600000D02*
X174657000Y-40506700D01*
X192904000Y-74547300D02*
X194670000Y-72781100D01*
X172750000Y-38600000D02*
X174657000Y-38600000D01*
X176645000Y-55587900D02*
X180069000Y-59012200D01*
X176645000Y-42494700D02*
X176645000Y-55587900D01*
X194670000Y-72781100D02*
X194670000Y-63790000D01*
%TO.N,/TERM_TX_SEL*%
X185907000Y-63272700D02*
X186660000Y-62520000D01*
X187771000Y-62520000D02*
X188321000Y-61970300D01*
X185907000Y-70643100D02*
X185907000Y-63272700D01*
X186660000Y-62520000D02*
X187771000Y-62520000D01*
X181670000Y-74880000D02*
X185907000Y-70643100D01*
%TO.N,/CPU_RS232_IN*%
X194670000Y-56170000D02*
X191623000Y-53122700D01*
X191373000Y-59467400D02*
X194670000Y-56170000D01*
X192500000Y-73350000D02*
X191373000Y-72222600D01*
X191623000Y-53122700D02*
X191623000Y-35432400D01*
X191373000Y-72222600D02*
X191373000Y-59467400D01*
%TO.N,/CPU_RX*%
X94516700Y-37340100D02*
X93307200Y-36130600D01*
X94516700Y-51040000D02*
X94516700Y-37340100D01*
X93307200Y-36130600D02*
X90611600Y-36130600D01*
%TO.N,/Mod{slash}Demod & power input/DEM_Q1B*%
X77547800Y-104343000D02*
X77547800Y-71294300D01*
X77547800Y-71294300D02*
X80500000Y-68342100D01*
X80500000Y-68342100D02*
X80500000Y-68340000D01*
X81639300Y-108435000D02*
X77547800Y-104343000D01*
X76720000Y-131400000D02*
X76720000Y-127839000D01*
X76720000Y-127839000D02*
X78900100Y-125659000D01*
X78900100Y-125045000D02*
X81639300Y-122306000D01*
X78900100Y-125659000D02*
X78900100Y-125045000D01*
X81639300Y-122306000D02*
X81639300Y-108435000D01*
%TO.N,/Mod{slash}Demod & power input/DEM_CLK_N*%
X97631700Y-112152000D02*
X97537600Y-112058000D01*
X96500000Y-124876000D02*
X96500000Y-123350000D01*
X97537600Y-112058000D02*
X97537600Y-102152000D01*
X91500000Y-132450000D02*
X91500000Y-129876000D01*
X97537600Y-102152000D02*
X98670000Y-101020000D01*
X91500000Y-129876000D02*
X96500000Y-124876000D01*
X96500000Y-115887000D02*
X97631700Y-114755000D01*
X96500000Y-123350000D02*
X96500000Y-115887000D01*
X97631700Y-114755000D02*
X97631700Y-112152000D01*
%TO.N,/RELAY_1*%
X103600000Y-152391000D02*
X104983000Y-152391000D01*
X106256000Y-97194200D02*
X112250000Y-91200000D01*
X105804000Y-151571000D02*
X105804000Y-147605000D01*
X106256000Y-147154000D02*
X106256000Y-97194200D01*
X104983000Y-152391000D02*
X105804000Y-151571000D01*
X105804000Y-147605000D02*
X106256000Y-147154000D01*
%TO.N,/MAN_MOTOR*%
X112250000Y-83580000D02*
X113436000Y-84766000D01*
X109055000Y-96911000D02*
X109055000Y-151952000D01*
X113436000Y-92530400D02*
X109055000Y-96911000D01*
X113436000Y-84766000D02*
X113436000Y-92530400D01*
X109055000Y-151952000D02*
X106619000Y-154388000D01*
%TO.N,/Mod{slash}Demod & power input/DEM_EDGE*%
X80330700Y-58509300D02*
X80330700Y-65638300D01*
X73914800Y-72054200D02*
X73914800Y-91164800D01*
X82670000Y-56170000D02*
X80330700Y-58509300D01*
X80330700Y-65638300D02*
X73914800Y-72054200D01*
X73914800Y-91164800D02*
X75500000Y-92750000D01*
X98670000Y-106100000D02*
X98670000Y-108640000D01*
%TO.N,/Mod{slash}Demod & power input/DEM_D4*%
X79750000Y-116550000D02*
X80907100Y-115393000D01*
X80907100Y-108432000D02*
X77094300Y-104620000D01*
X77094300Y-104620000D02*
X77094300Y-84184300D01*
X77094300Y-84184300D02*
X75500000Y-82590000D01*
X80907100Y-115393000D02*
X80907100Y-108432000D01*
%TO.N,/Q8_C*%
X101440000Y-87876700D02*
X90770200Y-87876700D01*
X90587200Y-87693700D02*
X90587200Y-81962800D01*
X90587200Y-81962800D02*
X91500000Y-81050000D01*
X101440000Y-86800000D02*
X101440000Y-87876700D01*
X90770200Y-87876700D02*
X90587200Y-87693700D01*
%TO.N,/RELAY_2*%
X111352000Y-96597600D02*
X116750000Y-91200000D01*
X111352000Y-152718000D02*
X111352000Y-96597600D01*
%TO.N,/Mod{slash}Demod & power input/MOD_CLK2*%
X149854000Y-128254000D02*
X151500000Y-129900000D01*
X151050000Y-95930000D02*
X149854000Y-97126300D01*
X149854000Y-97126300D02*
X149854000Y-128254000D01*
%TO.N,/Mod{slash}Demod & power input/MOD_EDGE*%
X91050000Y-95940000D02*
X89920500Y-97069500D01*
X151500000Y-124900000D02*
X155600000Y-120800000D01*
X89920500Y-97069500D02*
X89920500Y-120557000D01*
X155600000Y-120800000D02*
X156500000Y-120800000D01*
%TO.N,/START_RECORD*%
X113902000Y-47835300D02*
X117291000Y-44446900D01*
X113224000Y-62423600D02*
X112050000Y-61250000D01*
X112050000Y-61250000D02*
X113902000Y-59397700D01*
X113224000Y-67616400D02*
X113224000Y-62423600D01*
X112500000Y-68340000D02*
X113224000Y-67616400D01*
X113902000Y-59397700D02*
X113902000Y-47835300D01*
%TO.N,/MOTOR_2B*%
X113550000Y-98076700D02*
X113335000Y-98292000D01*
X113335000Y-152210000D02*
X113517000Y-152393000D01*
X113335000Y-98292000D02*
X113335000Y-152210000D01*
X113517000Y-152393000D02*
X120977000Y-152393000D01*
X113550000Y-97050000D02*
X113550000Y-98076700D01*
X120977000Y-152393000D02*
X122170000Y-151200000D01*
%TO.N,/MOTOR_2A*%
X119630000Y-151200000D02*
X123851000Y-146979000D01*
X123851000Y-101989000D02*
X128790000Y-97050000D01*
X123851000Y-146979000D02*
X123851000Y-101989000D01*
%TO.N,/POR*%
X47750000Y-86800000D02*
X47750000Y-79750000D01*
X47750000Y-79750000D02*
X46500000Y-78500000D01*
X41500000Y-68340000D02*
X41500000Y-74932300D01*
%TO.N,/STOP_READ*%
X123200000Y-50444600D02*
X123200000Y-50855600D01*
X127500000Y-55156100D02*
X127500000Y-68340000D01*
X121168000Y-36200300D02*
X122239000Y-37270700D01*
X119223000Y-47387500D02*
X120142000Y-47387500D01*
X123200000Y-50855600D02*
X127500000Y-55156100D01*
X119670000Y-51090000D02*
X118522000Y-49942000D01*
X122239000Y-45291300D02*
X120142000Y-47387500D01*
X118522000Y-48088700D02*
X119223000Y-47387500D01*
X118522000Y-49942000D02*
X118522000Y-48088700D01*
X112410000Y-38600000D02*
X114810000Y-36200300D01*
X120142000Y-47387500D02*
X123200000Y-50444600D01*
X122239000Y-37270700D02*
X122239000Y-45291300D01*
X114810000Y-36200300D02*
X121168000Y-36200300D01*
%TO.N,/REC_EN*%
X136560000Y-122477000D02*
X138520000Y-122477000D01*
X122210000Y-54576500D02*
X120049000Y-52415900D01*
X159821000Y-107820000D02*
X168250000Y-99391200D01*
X138520000Y-121400000D02*
X138520000Y-122477000D01*
X168250000Y-99391200D02*
X168250000Y-58200000D01*
X128050000Y-108440000D02*
X134815000Y-115205000D01*
X134815000Y-120731000D02*
X136560000Y-122477000D01*
X122210000Y-56755000D02*
X122210000Y-54576500D01*
X120049000Y-52415900D02*
X118899000Y-52415900D01*
X134815000Y-115205000D02*
X134815000Y-120731000D01*
%TO.N,/READ_EN*%
X154449000Y-57108800D02*
X154449000Y-50151200D01*
X156050000Y-58710000D02*
X154449000Y-57108800D01*
X157222000Y-59882500D02*
X156050000Y-58710000D01*
X155319000Y-67696600D02*
X157222000Y-65792700D01*
X157222000Y-65792700D02*
X157222000Y-59882500D01*
X155319000Y-77318600D02*
X155319000Y-67696600D01*
X154449000Y-50151200D02*
X156050000Y-48550000D01*
X156500000Y-78500000D02*
X155319000Y-77318600D01*
%TO.N,/READ_RST*%
X37671900Y-78500000D02*
X36500000Y-78500000D01*
X61380000Y-108427000D02*
X50299200Y-97346600D01*
X37671900Y-78500000D02*
X44753600Y-85581700D01*
X44753600Y-90705900D02*
X44921600Y-90873900D01*
X44921600Y-90873900D02*
X44921600Y-95030000D01*
X37671900Y-57791900D02*
X36050000Y-56170000D01*
X46500000Y-96608400D02*
X46500000Y-96850000D01*
X50299200Y-97346600D02*
X50091000Y-97346600D01*
X44921600Y-95030000D02*
X46500000Y-96608400D01*
X61380000Y-151200000D02*
X61380000Y-108427000D01*
X44753600Y-85581700D02*
X44753600Y-90705900D01*
X37671900Y-78500000D02*
X37671900Y-57791900D01*
%TO.N,/REC_SET*%
X42405300Y-102572000D02*
X42669300Y-102308000D01*
X43670000Y-63790000D02*
X43670000Y-78876500D01*
X42585100Y-152377000D02*
X42405300Y-152197000D01*
X53760000Y-151200000D02*
X52583300Y-152377000D01*
X42669300Y-102308000D02*
X42669300Y-98019300D01*
X42405300Y-152197000D02*
X42405300Y-102572000D01*
X46108700Y-81315200D02*
X46108700Y-93838500D01*
X52583300Y-152377000D02*
X42585100Y-152377000D01*
X42669300Y-98019300D02*
X41500000Y-96850000D01*
X43670000Y-78876500D02*
X46108700Y-81315200D01*
%TO.N,/REC_RST*%
X62560100Y-151695000D02*
X62560100Y-107910000D01*
X45205300Y-82690700D02*
X45205300Y-90518800D01*
X61873000Y-152382000D02*
X62560100Y-151695000D01*
X45373300Y-94139000D02*
X46370900Y-95136600D01*
X42657300Y-80142700D02*
X45205300Y-82690700D01*
X62560100Y-107910000D02*
X51500000Y-96850000D01*
X56300000Y-151200000D02*
X57482500Y-152382000D01*
X42657300Y-67328000D02*
X42657300Y-78500000D01*
X57482500Y-152382000D02*
X61873000Y-152382000D01*
X42507400Y-59872600D02*
X42507400Y-67178100D01*
X43670000Y-58710000D02*
X42507400Y-59872600D01*
X45373300Y-90686800D02*
X45373300Y-94139000D01*
X41500000Y-78500000D02*
X42657300Y-78500000D01*
X42507400Y-67178100D02*
X42657300Y-67328000D01*
X42657300Y-78500000D02*
X42657300Y-80142700D01*
X45205300Y-90518800D02*
X45373300Y-90686800D01*
%TO.N,/REC_EN_N*%
X42531100Y-54768900D02*
X42531100Y-56625900D01*
X48200200Y-75200200D02*
X51500000Y-78500000D01*
X42531100Y-56625900D02*
X43345200Y-57440000D01*
X43345200Y-57440000D02*
X44055700Y-57440000D01*
X43670000Y-53630000D02*
X42531100Y-54768900D01*
X48200200Y-61584500D02*
X48200200Y-75200200D01*
X44055700Y-57440000D02*
X48200200Y-61584500D01*
%TO.N,/Mod{slash}Demod & power input/DEM_HP*%
X182500000Y-117700000D02*
X182500000Y-117600000D01*
X186500000Y-121700000D02*
X182500000Y-117700000D01*
%TO.N,/STOP_RECORD*%
X114630000Y-48550000D02*
X114630000Y-61042900D01*
X104490000Y-38600000D02*
X104490000Y-40990000D01*
X121928000Y-68340000D02*
X122500000Y-68340000D01*
X104490000Y-40990000D02*
X112050000Y-48550000D01*
X114630000Y-61042900D02*
X121928000Y-68340000D01*
%TO.N,/STOP_REC_P*%
X108122000Y-57557600D02*
X108122000Y-86910600D01*
X112050000Y-53630000D02*
X108122000Y-57557600D01*
X108122000Y-86910600D02*
X105143000Y-89890400D01*
%TO.N,/START_REC_P*%
X112050000Y-56170000D02*
X110852000Y-57367600D01*
X111599000Y-69032200D02*
X111599000Y-77089500D01*
X111599000Y-77089500D02*
X110863000Y-77825000D01*
X110863000Y-77825000D02*
X110863000Y-89034900D01*
X110852000Y-68285800D02*
X111599000Y-69032200D01*
X110852000Y-57367600D02*
X110852000Y-68285800D01*
%TO.N,/START_READ_P*%
X122975000Y-99237500D02*
X122975000Y-114817000D01*
X126279000Y-59105700D02*
X126279000Y-95933200D01*
X126279000Y-95933200D02*
X122975000Y-99237500D01*
%TO.N,/STOP_READ_P*%
X47626700Y-100723000D02*
X47626700Y-88799700D01*
X125546000Y-77553200D02*
X115109000Y-87990200D01*
X47626700Y-88799700D02*
X49667900Y-86758500D01*
X46500000Y-101850000D02*
X47626700Y-100723000D01*
X125546000Y-56028300D02*
X125546000Y-77553200D01*
%TO.N,/Mod{slash}Demod & power input/DEM_LIM*%
X81255200Y-65991400D02*
X81255200Y-62664800D01*
X76647400Y-71555900D02*
X78848000Y-69355300D01*
X78739400Y-68507200D02*
X81255200Y-65991400D01*
X76647400Y-79761700D02*
X76647400Y-71555900D01*
X78848000Y-69355300D02*
X78848000Y-68719200D01*
X82670000Y-53630000D02*
X83819500Y-54779500D01*
X74371700Y-82037400D02*
X76647400Y-79761700D01*
X81255200Y-62664800D02*
X82670000Y-61250000D01*
X83819500Y-54779500D02*
X83819500Y-60100500D01*
X75250000Y-116550000D02*
X76642600Y-115157000D01*
X78739400Y-68610600D02*
X78739400Y-68507200D01*
X76642600Y-115157000D02*
X76642600Y-86316600D01*
X83819500Y-60100500D02*
X82670000Y-61250000D01*
X76642600Y-86316600D02*
X74371700Y-84045700D01*
X78848000Y-68719200D02*
X78739400Y-68610600D01*
X74371700Y-84045700D02*
X74371700Y-82037400D01*
%TO.N,/Mod{slash}Demod & power input/DEM_Q3B_R*%
X77999600Y-85090400D02*
X80500000Y-82590000D01*
X82234400Y-124449000D02*
X82234400Y-108305000D01*
X84170000Y-126385000D02*
X82234400Y-124449000D01*
X82234400Y-108305000D02*
X77999600Y-104070000D01*
X77999600Y-104070000D02*
X77999600Y-85090400D01*
X84170000Y-131400000D02*
X84170000Y-126385000D01*
%TO.N,/Q9_B*%
X38126700Y-106167000D02*
X38126700Y-87496200D01*
X38126700Y-87496200D02*
X35340300Y-84709800D01*
X37720000Y-107650000D02*
X37720000Y-106573000D01*
X35340300Y-84709800D02*
X35340300Y-71095100D01*
X37720000Y-106573000D02*
X38126700Y-106167000D01*
%TO.N,/REC_RLY_DRV*%
X38990000Y-107650000D02*
X38990000Y-149531000D01*
%TO.N,/Mod{slash}Demod & power input/DEM_CD*%
X77951700Y-110728000D02*
X79750000Y-108930000D01*
X70796700Y-72912500D02*
X69905900Y-73803300D01*
X68491900Y-74514700D02*
X68491900Y-107965000D01*
X77951700Y-118198000D02*
X77951700Y-110728000D01*
X70796700Y-61294100D02*
X70796700Y-72912500D01*
X75050000Y-51090000D02*
X76182400Y-52222400D01*
X74794100Y-57296700D02*
X70796700Y-61294100D01*
X76182400Y-56675300D02*
X75561000Y-57296700D01*
X75500000Y-120650000D02*
X77951700Y-118198000D01*
X75561000Y-57296700D02*
X74794100Y-57296700D01*
X69203300Y-73803300D02*
X68491900Y-74514700D01*
X75050000Y-51090000D02*
X75050000Y-48550000D01*
X76182400Y-52222400D02*
X76182400Y-56675300D01*
X69905900Y-73803300D02*
X69203300Y-73803300D01*
%TO.N,/TERM_CLK_IN*%
X134117000Y-40506700D02*
X139089000Y-45478600D01*
X139089000Y-71927000D02*
X142880000Y-75718700D01*
X142880000Y-75718700D02*
X142880000Y-76170400D01*
X139089000Y-45478600D02*
X139089000Y-71927000D01*
X132210000Y-38600000D02*
X134117000Y-38600000D01*
X134117000Y-38600000D02*
X134117000Y-40506700D01*
%TO.N,CARRIER_DETECT*%
X147909000Y-49098900D02*
X147909000Y-51061700D01*
X77859900Y-41918900D02*
X77859900Y-34705700D01*
X136170000Y-38600000D02*
X136170000Y-33802200D01*
X138077000Y-39731700D02*
X144648000Y-46302700D01*
X75050000Y-53630000D02*
X73914700Y-52494700D01*
X144648000Y-46302700D02*
X145113000Y-46302700D01*
X73914700Y-45864100D02*
X77859900Y-41918900D01*
X154900000Y-52239500D02*
X156050000Y-51090000D01*
X145113000Y-46302700D02*
X147909000Y-49098900D01*
X154900000Y-55020500D02*
X154900000Y-52239500D01*
X138077000Y-38600000D02*
X138077000Y-39731700D01*
X156050000Y-56170000D02*
X154900000Y-55020500D01*
X73914700Y-52494700D02*
X73914700Y-45864100D01*
X136170000Y-38600000D02*
X138077000Y-38600000D01*
%TO.N,CARRIER_EN_N*%
X53120600Y-146759000D02*
X53120600Y-107227000D01*
X148649000Y-56955300D02*
X151701000Y-60006600D01*
X158670000Y-101010000D02*
X163250000Y-96430000D01*
X151701000Y-60006600D02*
X151701000Y-81521200D01*
X151701000Y-81521200D02*
X160519000Y-90340000D01*
X48680000Y-151200000D02*
X53120600Y-146759000D01*
X140130000Y-38600000D02*
X142037000Y-38600000D01*
X142037000Y-40506700D02*
X148649000Y-47119300D01*
X163250000Y-96430000D02*
X163250000Y-90340000D01*
X148649000Y-47119300D02*
X148649000Y-56955300D01*
X160519000Y-90340000D02*
X163250000Y-90340000D01*
X142037000Y-38600000D02*
X142037000Y-40506700D01*
%TO.N,/Mod{slash}Demod & power input/DEM_TIMER*%
X77990000Y-128160000D02*
X80500000Y-125650000D01*
X83591300Y-124778000D02*
X83591300Y-118208000D01*
X83201000Y-49960800D02*
X87087300Y-53847100D01*
X86089900Y-115709000D02*
X86089900Y-95939900D01*
X77695100Y-54417200D02*
X82151500Y-49960800D01*
X83591300Y-118208000D02*
X86089900Y-115709000D01*
X87087300Y-53847100D02*
X87087300Y-76912700D01*
X77990000Y-131400000D02*
X77990000Y-128160000D01*
X87087300Y-76912700D02*
X85500000Y-78500000D01*
X84368900Y-94218900D02*
X84368900Y-79631100D01*
X75050000Y-58710000D02*
X77695100Y-56064900D01*
X82151500Y-49960800D02*
X83201000Y-49960800D01*
X84368900Y-79631100D02*
X85500000Y-78500000D01*
X86089900Y-95939900D02*
X84368900Y-94218900D01*
X77695100Y-56064900D02*
X77695100Y-54417200D01*
%TO.N,/Mod{slash}Demod & power input/MOD_FB*%
X174417000Y-107240000D02*
X174417000Y-120594000D01*
X176603000Y-105054000D02*
X174417000Y-107240000D01*
X184250000Y-98350000D02*
X184250000Y-93190000D01*
X184250000Y-95029300D02*
X179207000Y-95029300D01*
X189250000Y-103350000D02*
X184250000Y-98350000D01*
X179207000Y-95029300D02*
X176603000Y-97633300D01*
X176603000Y-97633300D02*
X176603000Y-105054000D01*
%TO.N,/READ_RLY_DRV*%
X73162300Y-142662000D02*
X73162300Y-109232000D01*
X81700000Y-151200000D02*
X73162300Y-142662000D01*
%TO.N,DATA_IN*%
X91050000Y-93400000D02*
X89776900Y-92126900D01*
X89448800Y-73733700D02*
X89448800Y-62801200D01*
X89776900Y-92126900D02*
X89776900Y-74061800D01*
X89776900Y-74061800D02*
X89448800Y-73733700D01*
X89448800Y-62801200D02*
X91050000Y-61200000D01*
%TO.N,/Q8_B*%
X101621000Y-49669200D02*
X103250000Y-48040000D01*
X100170000Y-69390000D02*
X101621000Y-67939200D01*
X101621000Y-67939200D02*
X101621000Y-49669200D01*
X100170000Y-86800000D02*
X100170000Y-69390000D01*
%TO.N,/MOTOR_1B*%
X122248000Y-86678800D02*
X122248000Y-146042000D01*
X122550000Y-86376700D02*
X122248000Y-86678800D01*
X122248000Y-146042000D02*
X117090000Y-151200000D01*
X122550000Y-85350000D02*
X122550000Y-86376700D01*
%TO.N,/MOTOR_1A*%
X121381000Y-143192000D02*
X114550000Y-150023000D01*
X121381000Y-88121700D02*
X121381000Y-143192000D01*
X114550000Y-151200000D02*
X114550000Y-150023000D01*
%TO.N,/Mod{slash}Demod & power input/MOD_DIV4_N*%
X151050000Y-101010000D02*
X152200000Y-99860500D01*
X152200000Y-99860500D02*
X152200000Y-94539500D01*
X152200000Y-94539500D02*
X151050000Y-93390000D01*
%TO.N,/Mod{slash}Demod & power input/MOD_DIV2_N*%
X157520000Y-97079500D02*
X157520000Y-102400000D01*
X158670000Y-95930000D02*
X157520000Y-97079500D01*
X157520000Y-102400000D02*
X158670000Y-103550000D01*
%TO.N,/Q5_C*%
X161500000Y-78500000D02*
X158990000Y-81010000D01*
X158990000Y-81010000D02*
X158990000Y-84300000D01*
%TO.N,/Q5_B*%
X158172000Y-71070200D02*
X158172000Y-60029000D01*
X163301000Y-54900000D02*
X164057000Y-54900000D01*
X157720000Y-71521900D02*
X158172000Y-71070200D01*
X168250000Y-50706600D02*
X168250000Y-48040000D01*
X158172000Y-60029000D02*
X163301000Y-54900000D01*
X164057000Y-54900000D02*
X168250000Y-50706600D01*
X157720000Y-84300000D02*
X157720000Y-71521900D01*
%TO.N,/Mod{slash}Demod & power input/DEM_DLY*%
X85638200Y-96173500D02*
X85638200Y-112762000D01*
X82670000Y-51090000D02*
X86635600Y-55055600D01*
X79311700Y-54448300D02*
X82670000Y-51090000D01*
X83916400Y-76328700D02*
X83916400Y-94451700D01*
X86635600Y-55055600D02*
X86635600Y-73609500D01*
X83916400Y-94451700D02*
X85638200Y-96173500D01*
X75500000Y-68340000D02*
X79311700Y-64528300D01*
X79311700Y-64528300D02*
X79311700Y-54448300D01*
X86635600Y-73609500D02*
X83916400Y-76328700D01*
X85638200Y-112762000D02*
X84500000Y-113900000D01*
%TO.N,/CPU_RX_N*%
X91050000Y-53580000D02*
X86292000Y-48822000D01*
X86292000Y-48822000D02*
X86292000Y-36185100D01*
X178690000Y-53646000D02*
X178690000Y-35291300D01*
X179889000Y-54845400D02*
X178690000Y-53646000D01*
%TO.N,/TAPE_DATA_N*%
X158898000Y-61302600D02*
X163898000Y-66302100D01*
X158898000Y-61250000D02*
X158898000Y-61302600D01*
X88970700Y-60739300D02*
X88970700Y-75038100D01*
X166490000Y-73776200D02*
X166488000Y-73774400D01*
X163898000Y-66302100D02*
X163898000Y-71184100D01*
X163898000Y-71184100D02*
X166488000Y-73774400D01*
X166490000Y-75992200D02*
X166490000Y-73776200D01*
X91050000Y-58660000D02*
X88970700Y-60739300D01*
%TO.N,/REC_DATA_N*%
X161945000Y-60435100D02*
X161945000Y-63321400D01*
X163670000Y-58710000D02*
X161945000Y-60435100D01*
X91881800Y-68956900D02*
X89902000Y-66977100D01*
X89902000Y-64888000D02*
X91050000Y-63740000D01*
X89902000Y-66977100D02*
X89902000Y-64888000D01*
%TO.N,/REMOTE_N*%
X174050000Y-48550000D02*
X173579000Y-48078600D01*
X116296000Y-46780200D02*
X117290000Y-45785200D01*
X116296000Y-61680300D02*
X116296000Y-46780200D01*
X173579000Y-48078600D02*
X173579000Y-45785200D01*
%TO.N,/DATA_SEL_N*%
X163670000Y-56170000D02*
X164861000Y-57361400D01*
X98670000Y-51040000D02*
X95365600Y-54344400D01*
X164861000Y-70508400D02*
X167217000Y-72863800D01*
X164861000Y-57361400D02*
X164861000Y-70508400D01*
X95365600Y-54344400D02*
X95365600Y-73833800D01*
%TO.N,/SEL_TERM_CLK*%
X179354000Y-58935600D02*
X179354000Y-76735600D01*
X182826000Y-86423500D02*
X181670000Y-87580000D01*
X174050000Y-53632100D02*
X179354000Y-58935600D01*
X182052000Y-78690000D02*
X182826000Y-79465000D01*
X174050000Y-53630000D02*
X174050000Y-53632100D01*
X182826000Y-79465000D02*
X182826000Y-86423500D01*
X181308000Y-78690000D02*
X182052000Y-78690000D01*
X179354000Y-76735600D02*
X181308000Y-78690000D01*
%TO.N,/READ_ACTIVE_N*%
X172900000Y-57560500D02*
X172900000Y-52239500D01*
X172900000Y-52239500D02*
X174050000Y-51090000D01*
X174050000Y-58710000D02*
X172900000Y-57560500D01*
%TO.N,/Mod{slash}Demod & power input/DEM_INV*%
X78236000Y-68371800D02*
X78236000Y-69010600D01*
X82670000Y-58710000D02*
X80803500Y-60576500D01*
X78236000Y-69010600D02*
X75500000Y-71746600D01*
X75500000Y-71746600D02*
X75500000Y-78500000D01*
X80803500Y-65804300D02*
X78236000Y-68371800D01*
X80803500Y-60576500D02*
X80803500Y-65804300D01*
%TO.N,/ECHO_N*%
X180520000Y-55242000D02*
X181670000Y-54092500D01*
X181670000Y-54092500D02*
X181670000Y-53630000D01*
X180520000Y-57560500D02*
X180520000Y-55242000D01*
X181670000Y-58710000D02*
X180520000Y-57560500D01*
%TD*%
M02*
