%TF.GenerationSoftware,KiCad,Pcbnew,10.0.7*%
%TF.CreationDate,2026-10-10T05:55:50-04:00*%
%TF.ProjectId,AC30,41433330-2e6b-4696-9361-645f70636258,A*%
%TF.SameCoordinates,PX1c9c380PY94c5f00*%
%TF.FileFunction,Legend,Bot*%
%TF.FilePolarity,Positive*%
%FSLAX46Y46*%
G04 Gerber Fmt 4.6, Leading zero omitted, Abs format (unit mm)*
G04 Created by KiCad (PCBNEW 10.0.7) date 2026-10-10 05:55:50*
%MOMM*%
%LPD*%
G01*
G04 APERTURE LIST*
G04 Aperture macros list*
%AMRoundRect*
0 Rectangle with rounded corners*
0 $1 Rounding radius*
0 $2 $3 $4 $5 $6 $7 $8 $9 X,Y pos of 4 corners*
0 Add a 4 corners polygon primitive as box body*
4,1,4,$2,$3,$4,$5,$6,$7,$8,$9,$2,$3,0*
0 Add four circle primitives for the rounded corners*
1,1,$1+$1,$2,$3*
1,1,$1+$1,$4,$5*
1,1,$1+$1,$6,$7*
1,1,$1+$1,$8,$9*
0 Add four rect primitives between the rounded corners*
20,1,$1+$1,$2,$3,$4,$5,0*
20,1,$1+$1,$4,$5,$6,$7,0*
20,1,$1+$1,$6,$7,$8,$9,0*
20,1,$1+$1,$8,$9,$2,$3,0*%
G04 Aperture macros list end*
%ADD10R,1.050000X1.500000*%
%ADD11O,1.050000X1.500000*%
%ADD12RoundRect,0.250000X-0.550000X-0.550000X0.550000X-0.550000X0.550000X0.550000X-0.550000X0.550000X0*%
%ADD13C,1.600000*%
%ADD14R,1.700000X1.700000*%
%ADD15C,1.700000*%
%ADD16RoundRect,0.250000X-1.330000X-1.800000X1.330000X-1.800000X1.330000X1.800000X-1.330000X1.800000X0*%
%ADD17O,3.160000X4.100000*%
%ADD18R,1.800000X1.800000*%
%ADD19C,1.800000*%
%ADD20C,1.440000*%
%ADD21RoundRect,0.250000X0.550000X-0.550000X0.550000X0.550000X-0.550000X0.550000X-0.550000X-0.550000X0*%
%ADD22R,1.400000X1.400000*%
%ADD23C,1.400000*%
%ADD24RoundRect,0.250000X-0.750000X-0.750000X0.750000X-0.750000X0.750000X0.750000X-0.750000X0.750000X0*%
%ADD25C,2.000000*%
%ADD26C,3.200000*%
G04 APERTURE END LIST*
%LPC*%
D10*
%TO.C,Q6*%
X135900000Y-84300000D03*
D11*
X137170000Y-84300000D03*
X138440000Y-84300000D03*
%TD*%
D12*
%TO.C,IC6*%
X84050000Y-69800000D03*
D13*
X84050000Y-72340000D03*
X84050000Y-74880000D03*
X84050000Y-77420000D03*
X84050000Y-79960000D03*
X84050000Y-82500000D03*
X84050000Y-85040000D03*
X84050000Y-87580000D03*
X91670000Y-87580000D03*
X91670000Y-85040000D03*
X91670000Y-82500000D03*
X91670000Y-79960000D03*
X91670000Y-77420000D03*
X91670000Y-74880000D03*
X91670000Y-72340000D03*
X91670000Y-69800000D03*
%TD*%
D12*
%TO.C,IC12*%
X94050000Y-48550000D03*
D13*
X94050000Y-51090000D03*
X94050000Y-53630000D03*
X94050000Y-56170000D03*
X94050000Y-58710000D03*
X94050000Y-61250000D03*
X94050000Y-63790000D03*
X101670000Y-63790000D03*
X101670000Y-61250000D03*
X101670000Y-58710000D03*
X101670000Y-56170000D03*
X101670000Y-53630000D03*
X101670000Y-51090000D03*
X101670000Y-48550000D03*
%TD*%
%TO.C,R31*%
X138500000Y-78500000D03*
X138500000Y-68340000D03*
%TD*%
%TO.C,R8*%
X133500000Y-114750000D03*
X133500000Y-104590000D03*
%TD*%
D12*
%TO.C,C4*%
X148150000Y-121200000D03*
D13*
X150650000Y-121200000D03*
%TD*%
D14*
%TO.C,J2*%
X96850000Y-151200000D03*
D15*
X99390000Y-151200000D03*
X101930000Y-151200000D03*
X104470000Y-151200000D03*
X107010000Y-151200000D03*
%TD*%
D16*
%TO.C,J12*%
X160650000Y-147550000D03*
D17*
X164610000Y-147550000D03*
X168570000Y-147550000D03*
X172530000Y-147550000D03*
X176490000Y-147550000D03*
X180450000Y-147550000D03*
%TD*%
D13*
%TO.C,R23*%
X70250000Y-58200000D03*
X70250000Y-48040000D03*
%TD*%
%TO.C,R42*%
X49250000Y-103550000D03*
X49250000Y-93390000D03*
%TD*%
D12*
%TO.C,IC4*%
X128050000Y-90800000D03*
D13*
X128050000Y-93340000D03*
X128050000Y-95880000D03*
X128050000Y-98420000D03*
X135670000Y-98420000D03*
X135670000Y-95880000D03*
X135670000Y-93340000D03*
X135670000Y-90800000D03*
%TD*%
%TO.C,R10*%
X143500000Y-114750000D03*
X143500000Y-104590000D03*
%TD*%
%TO.C,R22*%
X96250000Y-79500000D03*
X96250000Y-69340000D03*
%TD*%
D12*
%TO.C,IC1*%
X45050000Y-72600000D03*
D13*
X45050000Y-75140000D03*
X45050000Y-77680000D03*
X45050000Y-80220000D03*
X45050000Y-82760000D03*
X45050000Y-85300000D03*
X45050000Y-87840000D03*
X52670000Y-87840000D03*
X52670000Y-85300000D03*
X52670000Y-82760000D03*
X52670000Y-80220000D03*
X52670000Y-77680000D03*
X52670000Y-75140000D03*
X52670000Y-72600000D03*
%TD*%
%TO.C,R3*%
X122500000Y-78500000D03*
X122500000Y-68340000D03*
%TD*%
D18*
%TO.C,D18*%
X117950000Y-84750000D03*
D19*
X120490000Y-84750000D03*
%TD*%
D13*
%TO.C,C18*%
X52250000Y-53050000D03*
X52250000Y-48050000D03*
%TD*%
%TO.C,R2*%
X117500000Y-78500000D03*
X117500000Y-68340000D03*
%TD*%
%TO.C,C2*%
X137500000Y-123850000D03*
X137500000Y-118850000D03*
%TD*%
D12*
%TO.C,C17*%
X36150000Y-64650000D03*
D13*
X38650000Y-64650000D03*
%TD*%
%TO.C,R45*%
X42500000Y-123850000D03*
X42500000Y-113690000D03*
%TD*%
%TO.C,C24*%
X95800000Y-130400000D03*
X95800000Y-125400000D03*
%TD*%
%TO.C,R43*%
X107500000Y-78500000D03*
X107500000Y-68340000D03*
%TD*%
D20*
%TO.C,R16*%
X163050000Y-103400000D03*
X165590000Y-100860000D03*
X163050000Y-98320000D03*
%TD*%
D10*
%TO.C,Q4*%
X97950000Y-93850000D03*
D11*
X99220000Y-93850000D03*
X100490000Y-93850000D03*
%TD*%
D10*
%TO.C,Q2*%
X180450000Y-84300000D03*
D11*
X181720000Y-84300000D03*
X182990000Y-84300000D03*
%TD*%
D21*
%TO.C,D10*%
X88750000Y-99800000D03*
D13*
X88750000Y-92180000D03*
%TD*%
%TO.C,C23*%
X90800000Y-130400000D03*
X90800000Y-125400000D03*
%TD*%
%TO.C,R36*%
X112500000Y-125700000D03*
X112500000Y-115540000D03*
%TD*%
D14*
%TO.C,J15*%
X144850000Y-151200000D03*
D15*
X147390000Y-151200000D03*
X149930000Y-151200000D03*
X152470000Y-151200000D03*
%TD*%
D13*
%TO.C,R33*%
X58500000Y-92750000D03*
X58500000Y-82590000D03*
%TD*%
D21*
%TO.C,D2*%
X132750000Y-126500000D03*
D13*
X132750000Y-118880000D03*
%TD*%
%TO.C,R41*%
X122500000Y-125700000D03*
X122500000Y-115540000D03*
%TD*%
%TO.C,C10*%
X169500000Y-125650000D03*
X169500000Y-120650000D03*
%TD*%
D12*
%TO.C,IC15*%
X175050000Y-93200000D03*
D13*
X175050000Y-95740000D03*
X175050000Y-98280000D03*
X175050000Y-100820000D03*
X175050000Y-103360000D03*
X175050000Y-105900000D03*
X175050000Y-108440000D03*
X182670000Y-108440000D03*
X182670000Y-105900000D03*
X182670000Y-103360000D03*
X182670000Y-100820000D03*
X182670000Y-98280000D03*
X182670000Y-95740000D03*
X182670000Y-93200000D03*
%TD*%
D14*
%TO.C,J14*%
X129700000Y-151200000D03*
D15*
X132240000Y-151200000D03*
X134780000Y-151200000D03*
X137320000Y-151200000D03*
%TD*%
D13*
%TO.C,R13*%
X164500000Y-78500000D03*
X164500000Y-68340000D03*
%TD*%
%TO.C,C11*%
X175500000Y-87600000D03*
X175500000Y-82600000D03*
%TD*%
D21*
%TO.C,D6*%
X68250000Y-121300000D03*
D13*
X68250000Y-113680000D03*
%TD*%
%TO.C,R21*%
X180500000Y-78500000D03*
X180500000Y-68340000D03*
%TD*%
%TO.C,R17*%
X159500000Y-92750000D03*
X159500000Y-82590000D03*
%TD*%
%TO.C,R35*%
X107500000Y-125700000D03*
X107500000Y-115540000D03*
%TD*%
D21*
%TO.C,D7*%
X72750000Y-121300000D03*
D13*
X72750000Y-113680000D03*
%TD*%
%TO.C,C1*%
X107500000Y-87600000D03*
X107500000Y-82600000D03*
%TD*%
%TO.C,R44*%
X37500000Y-123850000D03*
X37500000Y-113690000D03*
%TD*%
%TO.C,C9*%
X185500000Y-73350000D03*
X185500000Y-68350000D03*
%TD*%
D22*
%TO.C,RLY2*%
X69550000Y-127150000D03*
D23*
X74630000Y-127150000D03*
X79710000Y-127150000D03*
X84790000Y-127150000D03*
%TD*%
D13*
%TO.C,R27*%
X68500000Y-78500000D03*
X68500000Y-68340000D03*
%TD*%
%TO.C,R47*%
X52500000Y-123850000D03*
X52500000Y-113690000D03*
%TD*%
D12*
%TO.C,IC10*%
X35050000Y-48500000D03*
D13*
X35050000Y-51040000D03*
X35050000Y-53580000D03*
X35050000Y-56120000D03*
X42670000Y-56120000D03*
X42670000Y-53580000D03*
X42670000Y-51040000D03*
X42670000Y-48500000D03*
%TD*%
D12*
%TO.C,IC8*%
X58050000Y-48550000D03*
D13*
X58050000Y-51090000D03*
X58050000Y-53630000D03*
X58050000Y-56170000D03*
X58050000Y-58710000D03*
X58050000Y-61250000D03*
X58050000Y-63790000D03*
X65670000Y-63790000D03*
X65670000Y-61250000D03*
X65670000Y-58710000D03*
X65670000Y-56170000D03*
X65670000Y-53630000D03*
X65670000Y-51090000D03*
X65670000Y-48550000D03*
%TD*%
D16*
%TO.C,J3*%
X44200000Y-38600000D03*
D17*
X48160000Y-38600000D03*
X52120000Y-38600000D03*
X56080000Y-38600000D03*
X60040000Y-38600000D03*
X64000000Y-38600000D03*
X67960000Y-38600000D03*
X71920000Y-38600000D03*
X75880000Y-38600000D03*
X79840000Y-38600000D03*
%TD*%
D13*
%TO.C,R9*%
X138500000Y-114750000D03*
X138500000Y-104590000D03*
%TD*%
D12*
%TO.C,IC13*%
X37050000Y-93900000D03*
D13*
X37050000Y-96440000D03*
X37050000Y-98980000D03*
X37050000Y-101520000D03*
X37050000Y-104060000D03*
X37050000Y-106600000D03*
X37050000Y-109140000D03*
X44670000Y-109140000D03*
X44670000Y-106600000D03*
X44670000Y-104060000D03*
X44670000Y-101520000D03*
X44670000Y-98980000D03*
X44670000Y-96440000D03*
X44670000Y-93900000D03*
%TD*%
%TO.C,R11*%
X148500000Y-114750000D03*
X148500000Y-104590000D03*
%TD*%
D24*
%TO.C,C16*%
X64750000Y-86800000D03*
D25*
X69750000Y-86800000D03*
%TD*%
D13*
%TO.C,R19*%
X164500000Y-92750000D03*
X164500000Y-82590000D03*
%TD*%
D10*
%TO.C,Q9*%
X58450000Y-107650000D03*
D11*
X59720000Y-107650000D03*
X60990000Y-107650000D03*
%TD*%
D10*
%TO.C,Q3*%
X166900000Y-131400000D03*
D11*
X168170000Y-131400000D03*
X169440000Y-131400000D03*
%TD*%
D13*
%TO.C,R46*%
X47500000Y-123850000D03*
X47500000Y-113690000D03*
%TD*%
%TO.C,R1*%
X112500000Y-78500000D03*
X112500000Y-68340000D03*
%TD*%
%TO.C,C14*%
X68500000Y-101850000D03*
X68500000Y-96850000D03*
%TD*%
%TO.C,C19*%
X175500000Y-118000000D03*
X175500000Y-113000000D03*
%TD*%
D16*
%TO.C,J4*%
X88650000Y-38600000D03*
D17*
X92610000Y-38600000D03*
X96570000Y-38600000D03*
X100530000Y-38600000D03*
X104490000Y-38600000D03*
X108450000Y-38600000D03*
X112410000Y-38600000D03*
X116370000Y-38600000D03*
X120330000Y-38600000D03*
X124290000Y-38600000D03*
X128250000Y-38600000D03*
X132210000Y-38600000D03*
X136170000Y-38600000D03*
X140130000Y-38600000D03*
X144090000Y-38600000D03*
%TD*%
D10*
%TO.C,Q1*%
X159450000Y-131400000D03*
D11*
X160720000Y-131400000D03*
X161990000Y-131400000D03*
%TD*%
D21*
%TO.C,D8*%
X101000000Y-76950000D03*
D13*
X101000000Y-69330000D03*
%TD*%
%TO.C,C25*%
X100800000Y-130400000D03*
X100800000Y-125400000D03*
%TD*%
D21*
%TO.C,D4*%
X163750000Y-116550000D03*
D13*
X163750000Y-108930000D03*
%TD*%
%TO.C,R40*%
X119250000Y-58200000D03*
X119250000Y-48040000D03*
%TD*%
D21*
%TO.C,D1*%
X128250000Y-126500000D03*
D13*
X128250000Y-118880000D03*
%TD*%
%TO.C,R7*%
X128500000Y-114750000D03*
X128500000Y-104590000D03*
%TD*%
D26*
%TO.C,H3*%
X196650000Y-149650000D03*
%TD*%
D21*
%TO.C,D5*%
X75750000Y-90250000D03*
D13*
X75750000Y-82630000D03*
%TD*%
%TO.C,R4*%
X140250000Y-100500000D03*
X140250000Y-90340000D03*
%TD*%
%TO.C,C13*%
X63500000Y-101850000D03*
X63500000Y-96850000D03*
%TD*%
D14*
%TO.C,J1*%
X43600000Y-151200000D03*
D15*
X46140000Y-151200000D03*
X48680000Y-151200000D03*
X51220000Y-151200000D03*
X53760000Y-151200000D03*
X56300000Y-151200000D03*
X58840000Y-151200000D03*
X61380000Y-151200000D03*
X63920000Y-151200000D03*
X66460000Y-151200000D03*
X69000000Y-151200000D03*
X71540000Y-151200000D03*
X74080000Y-151200000D03*
X76620000Y-151200000D03*
X79160000Y-151200000D03*
X81700000Y-151200000D03*
X84240000Y-151200000D03*
X86780000Y-151200000D03*
X89320000Y-151200000D03*
%TD*%
D13*
%TO.C,R34*%
X119250000Y-102850000D03*
X119250000Y-92690000D03*
%TD*%
D21*
%TO.C,D9*%
X84250000Y-99800000D03*
D13*
X84250000Y-92180000D03*
%TD*%
%TO.C,R32*%
X73500000Y-78500000D03*
X73500000Y-68340000D03*
%TD*%
%TO.C,R29*%
X128500000Y-78500000D03*
X128500000Y-68340000D03*
%TD*%
D26*
%TO.C,H4*%
X36350000Y-149650000D03*
%TD*%
D22*
%TO.C,RLY1*%
X78550000Y-115450000D03*
D23*
X83630000Y-115450000D03*
X88710000Y-115450000D03*
X93790000Y-115450000D03*
%TD*%
D12*
%TO.C,IC5*%
X107050000Y-48550000D03*
D13*
X107050000Y-51090000D03*
X107050000Y-53630000D03*
X107050000Y-56170000D03*
X107050000Y-58710000D03*
X107050000Y-61250000D03*
X107050000Y-63790000D03*
X114670000Y-63790000D03*
X114670000Y-61250000D03*
X114670000Y-58710000D03*
X114670000Y-56170000D03*
X114670000Y-53630000D03*
X114670000Y-51090000D03*
X114670000Y-48550000D03*
%TD*%
%TO.C,R6*%
X150250000Y-100500000D03*
X150250000Y-90340000D03*
%TD*%
%TO.C,R14*%
X187250000Y-58200000D03*
X187250000Y-48040000D03*
%TD*%
D21*
%TO.C,D11*%
X93250000Y-99800000D03*
D13*
X93250000Y-92180000D03*
%TD*%
%TO.C,C20*%
X180500000Y-118000000D03*
X180500000Y-113000000D03*
%TD*%
D10*
%TO.C,Q10*%
X65900000Y-107650000D03*
D11*
X67170000Y-107650000D03*
X68440000Y-107650000D03*
%TD*%
D13*
%TO.C,R30*%
X133500000Y-78500000D03*
X133500000Y-68340000D03*
%TD*%
%TO.C,R5*%
X145250000Y-100500000D03*
X145250000Y-90340000D03*
%TD*%
%TO.C,R28*%
X140250000Y-58200000D03*
X140250000Y-48040000D03*
%TD*%
%TO.C,C15*%
X73500000Y-101850000D03*
X73500000Y-96850000D03*
%TD*%
%TO.C,C8*%
X164500000Y-125650000D03*
X164500000Y-120650000D03*
%TD*%
%TO.C,R25*%
X58500000Y-78500000D03*
X58500000Y-68340000D03*
%TD*%
%TO.C,C3*%
X112500000Y-87600000D03*
X112500000Y-82600000D03*
%TD*%
D10*
%TO.C,Q5*%
X128450000Y-84300000D03*
D11*
X129720000Y-84300000D03*
X130990000Y-84300000D03*
%TD*%
D10*
%TO.C,Q7*%
X107450000Y-131450000D03*
D11*
X108720000Y-131450000D03*
X109990000Y-131450000D03*
%TD*%
D13*
%TO.C,R38*%
X47250000Y-58200000D03*
X47250000Y-48040000D03*
%TD*%
%TO.C,C12*%
X58500000Y-101850000D03*
X58500000Y-96850000D03*
%TD*%
D12*
%TO.C,IC2*%
X175050000Y-48550000D03*
D13*
X175050000Y-51090000D03*
X175050000Y-53630000D03*
X175050000Y-56170000D03*
X175050000Y-58710000D03*
X175050000Y-61250000D03*
X175050000Y-63790000D03*
X182670000Y-63790000D03*
X182670000Y-61250000D03*
X182670000Y-58710000D03*
X182670000Y-56170000D03*
X182670000Y-53630000D03*
X182670000Y-51090000D03*
X182670000Y-48550000D03*
%TD*%
D21*
%TO.C,D3*%
X159250000Y-116550000D03*
D13*
X159250000Y-108930000D03*
%TD*%
%TO.C,C6*%
X168500000Y-113900000D03*
X168500000Y-108900000D03*
%TD*%
D12*
%TO.C,IC7*%
X107050000Y-93150000D03*
D13*
X107050000Y-95690000D03*
X107050000Y-98230000D03*
X107050000Y-100770000D03*
X107050000Y-103310000D03*
X107050000Y-105850000D03*
X107050000Y-108390000D03*
X107050000Y-110930000D03*
X114670000Y-110930000D03*
X114670000Y-108390000D03*
X114670000Y-105850000D03*
X114670000Y-103310000D03*
X114670000Y-100770000D03*
X114670000Y-98230000D03*
X114670000Y-95690000D03*
X114670000Y-93150000D03*
%TD*%
D14*
%TO.C,J13*%
X114550000Y-151200000D03*
D15*
X117090000Y-151200000D03*
X119630000Y-151200000D03*
X122170000Y-151200000D03*
%TD*%
D13*
%TO.C,R15*%
X169500000Y-78500000D03*
X169500000Y-68340000D03*
%TD*%
D16*
%TO.C,J5*%
X152950000Y-38600000D03*
D17*
X156910000Y-38600000D03*
X160870000Y-38600000D03*
X164830000Y-38600000D03*
X168790000Y-38600000D03*
X172750000Y-38600000D03*
X176710000Y-38600000D03*
X180670000Y-38600000D03*
X184630000Y-38600000D03*
X188590000Y-38600000D03*
%TD*%
D13*
%TO.C,R26*%
X63500000Y-78500000D03*
X63500000Y-68340000D03*
%TD*%
D12*
%TO.C,IC14*%
X146050000Y-48500000D03*
D13*
X146050000Y-51040000D03*
X146050000Y-53580000D03*
X146050000Y-56120000D03*
X146050000Y-58660000D03*
X146050000Y-61200000D03*
X146050000Y-63740000D03*
X146050000Y-66280000D03*
X153670000Y-66280000D03*
X153670000Y-63740000D03*
X153670000Y-61200000D03*
X153670000Y-58660000D03*
X153670000Y-56120000D03*
X153670000Y-53580000D03*
X153670000Y-51040000D03*
X153670000Y-48500000D03*
%TD*%
%TO.C,R18*%
X175500000Y-78500000D03*
X175500000Y-68340000D03*
%TD*%
D10*
%TO.C,Q11*%
X44250000Y-64000000D03*
D11*
X45520000Y-64000000D03*
X46790000Y-64000000D03*
%TD*%
D12*
%TO.C,IC9*%
X128050000Y-48550000D03*
D13*
X128050000Y-51090000D03*
X128050000Y-53630000D03*
X128050000Y-56170000D03*
X128050000Y-58710000D03*
X128050000Y-61250000D03*
X128050000Y-63790000D03*
X135670000Y-63790000D03*
X135670000Y-61250000D03*
X135670000Y-58710000D03*
X135670000Y-56170000D03*
X135670000Y-53630000D03*
X135670000Y-51090000D03*
X135670000Y-48550000D03*
%TD*%
%TO.C,C5*%
X142500000Y-123850000D03*
X142500000Y-118850000D03*
%TD*%
%TO.C,R37*%
X117500000Y-125700000D03*
X117500000Y-115540000D03*
%TD*%
%TO.C,R12*%
X159500000Y-78500000D03*
X159500000Y-68340000D03*
%TD*%
%TO.C,R24*%
X75250000Y-58200000D03*
X75250000Y-48040000D03*
%TD*%
D10*
%TO.C,Q8*%
X114900000Y-131450000D03*
D11*
X116170000Y-131450000D03*
X117440000Y-131450000D03*
%TD*%
D13*
%TO.C,R20*%
X169500000Y-92750000D03*
X169500000Y-82590000D03*
%TD*%
D12*
%TO.C,IC11*%
X81050000Y-48550000D03*
D13*
X81050000Y-51090000D03*
X81050000Y-53630000D03*
X81050000Y-56170000D03*
X81050000Y-58710000D03*
X81050000Y-61250000D03*
X81050000Y-63790000D03*
X88670000Y-63790000D03*
X88670000Y-61250000D03*
X88670000Y-58710000D03*
X88670000Y-56170000D03*
X88670000Y-53630000D03*
X88670000Y-51090000D03*
X88670000Y-48550000D03*
%TD*%
D26*
%TO.C,H1*%
X36350000Y-35850000D03*
%TD*%
%TO.C,H2*%
X196650000Y-35850000D03*
%TD*%
D13*
%TO.C,C7*%
X159500000Y-125650000D03*
X159500000Y-120650000D03*
%TD*%
D12*
%TO.C,IC3*%
X159050000Y-48550000D03*
D13*
X159050000Y-51090000D03*
X159050000Y-53630000D03*
X159050000Y-56170000D03*
X159050000Y-58710000D03*
X159050000Y-61250000D03*
X159050000Y-63790000D03*
X166670000Y-63790000D03*
X166670000Y-61250000D03*
X166670000Y-58710000D03*
X166670000Y-56170000D03*
X166670000Y-53630000D03*
X166670000Y-51090000D03*
X166670000Y-48550000D03*
%TD*%
%LPD*%
M02*
