M48
; DRILL file KiCad 10.0.7 date 2026-10-10T05:55:50
; FORMAT={-:-/ absolute / metric / decimal}
; #@! TF.CreationDate,2026-10-10T05:55:50-04:00
; #@! TF.GenerationSoftware,Kicad,Pcbnew,10.0.7
; #@! TF.FileFunction,Plated,1,2,PTH
FMAT,2
METRIC
; #@! TA.AperFunction,Plated,PTH,ViaDrill
T1C0.400
; #@! TA.AperFunction,Plated,PTH,ViaDrill
T2C0.500
; #@! TA.AperFunction,Plated,PTH,ComponentDrill
T3C0.700
; #@! TA.AperFunction,Plated,PTH,ComponentDrill
T4C0.750
; #@! TA.AperFunction,Plated,PTH,ComponentDrill
T5C0.800
; #@! TA.AperFunction,Plated,PTH,ComponentDrill
T6C0.900
; #@! TA.AperFunction,Plated,PTH,ComponentDrill
T7C1.000
; #@! TA.AperFunction,Plated,PTH,ComponentDrill
T8C1.700
%
G90
G05
T1
X33.449Y-45.997
X40.327Y-93.9
X45.636Y-45.058
X46.988Y-51.034
X51.194Y-73.755
X54.251Y-71.82
X55.03Y-114.526
X55.078Y-95.555
X55.431Y-72.547
X55.712Y-93.901
X60.585Y-44.296
X60.585Y-94.728
X60.585Y-102.353
X65.784Y-92.184
X67.792Y-82.851
X85.188Y-46.724
X85.63Y-67.46
X85.664Y-54.526
X86.224Y-61.209
X86.396Y-124.784
X86.981Y-56.122
X89.32Y-148.014
X90.543Y-61.25
X90.855Y-53.571
X91.924Y-102.04
X92.5Y-152.118
X93.246Y-41.382
X94.05Y-43.879
X95.095Y-67.809
X95.3Y-107.002
X95.581Y-42.44
X96.224Y-109.581
X97.684Y-83.161
X99.414Y-99.416
X99.596Y-89.334
X99.772Y-54.829
X100.147Y-62.52
X103.64Y-112.093
X105.176Y-107.907
X105.553Y-57.754
X107.5Y-129.644
X108.937Y-98.23
X109.99Y-126.645
X113.398Y-66.391
X116.257Y-71.704
X119.461Y-127.319
X120.88Y-148.764
X121.936Y-51.113
X121.936Y-62.377
X122.739Y-146.201
X125.841Y-82.292
X126.585Y-64.211
X129.577Y-98.495
X134.101Y-121.196
X134.445Y-42.455
X137.125Y-66.563
X139.572Y-53.601
X145.859Y-106.144
X146.529Y-153.348
X147.177Y-70.394
X149.125Y-49.913
X149.674Y-111.384
X149.857Y-71.964
X150.639Y-80.48
X155.535Y-102.23
X155.637Y-101.032
X156.134Y-116.55
X156.861Y-110.567
X158.707Y-88.059
X160.487Y-61.716
X161.672Y-60.603
X162.575Y-74.211
X164.894Y-112.232
X164.894Y-118.71
X165.7Y-71.419
X167.714Y-124.381
X167.959Y-92.75
X168.79Y-35.79
X173.229Y-67.127
X178.025Y-78.474
X190.543Y-34.904
T2
X172.774Y-89.74
X177.892Y-115.241
T3
X69.55Y-127.15
X74.63Y-127.15
X78.55Y-115.45
X79.71Y-127.15
X83.63Y-115.45
X84.79Y-127.15
X88.71Y-115.45
X93.79Y-115.45
T4
X44.25Y-64.0
X45.52Y-64.0
X46.79Y-64.0
X58.45Y-107.65
X59.72Y-107.65
X60.99Y-107.65
X65.9Y-107.65
X67.17Y-107.65
X68.44Y-107.65
X97.95Y-93.85
X99.22Y-93.85
X100.49Y-93.85
X107.45Y-131.45
X108.72Y-131.45
X109.99Y-131.45
X114.9Y-131.45
X116.17Y-131.45
X117.44Y-131.45
X128.45Y-84.3
X129.72Y-84.3
X130.99Y-84.3
X135.9Y-84.3
X137.17Y-84.3
X138.44Y-84.3
X159.45Y-131.4
X160.72Y-131.4
X161.99Y-131.4
X166.9Y-131.4
X168.17Y-131.4
X169.44Y-131.4
X180.45Y-84.3
X181.72Y-84.3
X182.99Y-84.3
T5
X35.05Y-48.5
X35.05Y-51.04
X35.05Y-53.58
X35.05Y-56.12
X36.15Y-64.65
X37.05Y-93.9
X37.05Y-96.44
X37.05Y-98.98
X37.05Y-101.52
X37.05Y-104.06
X37.05Y-106.6
X37.05Y-109.14
X37.5Y-113.69
X37.5Y-123.85
X38.65Y-64.65
X42.5Y-113.69
X42.5Y-123.85
X42.67Y-48.5
X42.67Y-51.04
X42.67Y-53.58
X42.67Y-56.12
X44.67Y-93.9
X44.67Y-96.44
X44.67Y-98.98
X44.67Y-101.52
X44.67Y-104.06
X44.67Y-106.6
X44.67Y-109.14
X45.05Y-72.6
X45.05Y-75.14
X45.05Y-77.68
X45.05Y-80.22
X45.05Y-82.76
X45.05Y-85.3
X45.05Y-87.84
X47.25Y-48.04
X47.25Y-58.2
X47.5Y-113.69
X47.5Y-123.85
X49.25Y-93.39
X49.25Y-103.55
X52.25Y-48.05
X52.25Y-53.05
X52.5Y-113.69
X52.5Y-123.85
X52.67Y-72.6
X52.67Y-75.14
X52.67Y-77.68
X52.67Y-80.22
X52.67Y-82.76
X52.67Y-85.3
X52.67Y-87.84
X58.05Y-48.55
X58.05Y-51.09
X58.05Y-53.63
X58.05Y-56.17
X58.05Y-58.71
X58.05Y-61.25
X58.05Y-63.79
X58.5Y-68.34
X58.5Y-78.5
X58.5Y-82.59
X58.5Y-92.75
X58.5Y-96.85
X58.5Y-101.85
X63.5Y-68.34
X63.5Y-78.5
X63.5Y-96.85
X63.5Y-101.85
X65.67Y-48.55
X65.67Y-51.09
X65.67Y-53.63
X65.67Y-56.17
X65.67Y-58.71
X65.67Y-61.25
X65.67Y-63.79
X68.25Y-113.68
X68.25Y-121.3
X68.5Y-68.34
X68.5Y-78.5
X68.5Y-96.85
X68.5Y-101.85
X70.25Y-48.04
X70.25Y-58.2
X72.75Y-113.68
X72.75Y-121.3
X73.5Y-68.34
X73.5Y-78.5
X73.5Y-96.85
X73.5Y-101.85
X75.25Y-48.04
X75.25Y-58.2
X75.75Y-82.63
X75.75Y-90.25
X81.05Y-48.55
X81.05Y-51.09
X81.05Y-53.63
X81.05Y-56.17
X81.05Y-58.71
X81.05Y-61.25
X81.05Y-63.79
X84.05Y-69.8
X84.05Y-72.34
X84.05Y-74.88
X84.05Y-77.42
X84.05Y-79.96
X84.05Y-82.5
X84.05Y-85.04
X84.05Y-87.58
X84.25Y-92.18
X84.25Y-99.8
X88.67Y-48.55
X88.67Y-51.09
X88.67Y-53.63
X88.67Y-56.17
X88.67Y-58.71
X88.67Y-61.25
X88.67Y-63.79
X88.75Y-92.18
X88.75Y-99.8
X90.8Y-125.4
X90.8Y-130.4
X91.67Y-69.8
X91.67Y-72.34
X91.67Y-74.88
X91.67Y-77.42
X91.67Y-79.96
X91.67Y-82.5
X91.67Y-85.04
X91.67Y-87.58
X93.25Y-92.18
X93.25Y-99.8
X94.05Y-48.55
X94.05Y-51.09
X94.05Y-53.63
X94.05Y-56.17
X94.05Y-58.71
X94.05Y-61.25
X94.05Y-63.79
X95.8Y-125.4
X95.8Y-130.4
X96.25Y-69.34
X96.25Y-79.5
X100.8Y-125.4
X100.8Y-130.4
X101.0Y-69.33
X101.0Y-76.95
X101.67Y-48.55
X101.67Y-51.09
X101.67Y-53.63
X101.67Y-56.17
X101.67Y-58.71
X101.67Y-61.25
X101.67Y-63.79
X107.05Y-48.55
X107.05Y-51.09
X107.05Y-53.63
X107.05Y-56.17
X107.05Y-58.71
X107.05Y-61.25
X107.05Y-63.79
X107.05Y-93.15
X107.05Y-95.69
X107.05Y-98.23
X107.05Y-100.77
X107.05Y-103.31
X107.05Y-105.85
X107.05Y-108.39
X107.05Y-110.93
X107.5Y-68.34
X107.5Y-78.5
X107.5Y-82.6
X107.5Y-87.6
X107.5Y-115.54
X107.5Y-125.7
X112.5Y-68.34
X112.5Y-78.5
X112.5Y-82.6
X112.5Y-87.6
X112.5Y-115.54
X112.5Y-125.7
X114.67Y-48.55
X114.67Y-51.09
X114.67Y-53.63
X114.67Y-56.17
X114.67Y-58.71
X114.67Y-61.25
X114.67Y-63.79
X114.67Y-93.15
X114.67Y-95.69
X114.67Y-98.23
X114.67Y-100.77
X114.67Y-103.31
X114.67Y-105.85
X114.67Y-108.39
X114.67Y-110.93
X117.5Y-68.34
X117.5Y-78.5
X117.5Y-115.54
X117.5Y-125.7
X119.25Y-48.04
X119.25Y-58.2
X119.25Y-92.69
X119.25Y-102.85
X122.5Y-68.34
X122.5Y-78.5
X122.5Y-115.54
X122.5Y-125.7
X128.05Y-48.55
X128.05Y-51.09
X128.05Y-53.63
X128.05Y-56.17
X128.05Y-58.71
X128.05Y-61.25
X128.05Y-63.79
X128.05Y-90.8
X128.05Y-93.34
X128.05Y-95.88
X128.05Y-98.42
X128.25Y-118.88
X128.25Y-126.5
X128.5Y-68.34
X128.5Y-78.5
X128.5Y-104.59
X128.5Y-114.75
X132.75Y-118.88
X132.75Y-126.5
X133.5Y-68.34
X133.5Y-78.5
X133.5Y-104.59
X133.5Y-114.75
X135.67Y-48.55
X135.67Y-51.09
X135.67Y-53.63
X135.67Y-56.17
X135.67Y-58.71
X135.67Y-61.25
X135.67Y-63.79
X135.67Y-90.8
X135.67Y-93.34
X135.67Y-95.88
X135.67Y-98.42
X137.5Y-118.85
X137.5Y-123.85
X138.5Y-68.34
X138.5Y-78.5
X138.5Y-104.59
X138.5Y-114.75
X140.25Y-48.04
X140.25Y-58.2
X140.25Y-90.34
X140.25Y-100.5
X142.5Y-118.85
X142.5Y-123.85
X143.5Y-104.59
X143.5Y-114.75
X145.25Y-90.34
X145.25Y-100.5
X146.05Y-48.5
X146.05Y-51.04
X146.05Y-53.58
X146.05Y-56.12
X146.05Y-58.66
X146.05Y-61.2
X146.05Y-63.74
X146.05Y-66.28
X148.15Y-121.2
X148.5Y-104.59
X148.5Y-114.75
X150.25Y-90.34
X150.25Y-100.5
X150.65Y-121.2
X153.67Y-48.5
X153.67Y-51.04
X153.67Y-53.58
X153.67Y-56.12
X153.67Y-58.66
X153.67Y-61.2
X153.67Y-63.74
X153.67Y-66.28
X159.05Y-48.55
X159.05Y-51.09
X159.05Y-53.63
X159.05Y-56.17
X159.05Y-58.71
X159.05Y-61.25
X159.05Y-63.79
X159.25Y-108.93
X159.25Y-116.55
X159.5Y-68.34
X159.5Y-78.5
X159.5Y-82.59
X159.5Y-92.75
X159.5Y-120.65
X159.5Y-125.65
X163.05Y-98.32
X163.05Y-103.4
X163.75Y-108.93
X163.75Y-116.55
X164.5Y-68.34
X164.5Y-78.5
X164.5Y-82.59
X164.5Y-92.75
X164.5Y-120.65
X164.5Y-125.65
X165.59Y-100.86
X166.67Y-48.55
X166.67Y-51.09
X166.67Y-53.63
X166.67Y-56.17
X166.67Y-58.71
X166.67Y-61.25
X166.67Y-63.79
X168.5Y-108.9
X168.5Y-113.9
X169.5Y-68.34
X169.5Y-78.5
X169.5Y-82.59
X169.5Y-92.75
X169.5Y-120.65
X169.5Y-125.65
X175.05Y-48.55
X175.05Y-51.09
X175.05Y-53.63
X175.05Y-56.17
X175.05Y-58.71
X175.05Y-61.25
X175.05Y-63.79
X175.05Y-93.2
X175.05Y-95.74
X175.05Y-98.28
X175.05Y-100.82
X175.05Y-103.36
X175.05Y-105.9
X175.05Y-108.44
X175.5Y-68.34
X175.5Y-78.5
X175.5Y-82.6
X175.5Y-87.6
X175.5Y-113.0
X175.5Y-118.0
X180.5Y-68.34
X180.5Y-78.5
X180.5Y-113.0
X180.5Y-118.0
X182.67Y-48.55
X182.67Y-51.09
X182.67Y-53.63
X182.67Y-56.17
X182.67Y-58.71
X182.67Y-61.25
X182.67Y-63.79
X182.67Y-93.2
X182.67Y-95.74
X182.67Y-98.28
X182.67Y-100.82
X182.67Y-103.36
X182.67Y-105.9
X182.67Y-108.44
X185.5Y-68.35
X185.5Y-73.35
X187.25Y-48.04
X187.25Y-58.2
T6
X117.95Y-84.75
X120.49Y-84.75
T7
X43.6Y-151.2
X46.14Y-151.2
X48.68Y-151.2
X51.22Y-151.2
X53.76Y-151.2
X56.3Y-151.2
X58.84Y-151.2
X61.38Y-151.2
X63.92Y-151.2
X64.75Y-86.8
X66.46Y-151.2
X69.0Y-151.2
X69.75Y-86.8
X71.54Y-151.2
X74.08Y-151.2
X76.62Y-151.2
X79.16Y-151.2
X81.7Y-151.2
X84.24Y-151.2
X86.78Y-151.2
X89.32Y-151.2
X96.85Y-151.2
X99.39Y-151.2
X101.93Y-151.2
X104.47Y-151.2
X107.01Y-151.2
X114.55Y-151.2
X117.09Y-151.2
X119.63Y-151.2
X122.17Y-151.2
X129.7Y-151.2
X132.24Y-151.2
X134.78Y-151.2
X137.32Y-151.2
X144.85Y-151.2
X147.39Y-151.2
X149.93Y-151.2
X152.47Y-151.2
T8
X44.2Y-38.6
X48.16Y-38.6
X52.12Y-38.6
X56.08Y-38.6
X60.04Y-38.6
X64.0Y-38.6
X67.96Y-38.6
X71.92Y-38.6
X75.88Y-38.6
X79.84Y-38.6
X88.65Y-38.6
X92.61Y-38.6
X96.57Y-38.6
X100.53Y-38.6
X104.49Y-38.6
X108.45Y-38.6
X112.41Y-38.6
X116.37Y-38.6
X120.33Y-38.6
X124.29Y-38.6
X128.25Y-38.6
X132.21Y-38.6
X136.17Y-38.6
X140.13Y-38.6
X144.09Y-38.6
X152.95Y-38.6
X156.91Y-38.6
X160.65Y-147.55
X160.87Y-38.6
X164.61Y-147.55
X164.83Y-38.6
X168.57Y-147.55
X168.79Y-38.6
X172.53Y-147.55
X172.75Y-38.6
X176.49Y-147.55
X176.71Y-38.6
X180.45Y-147.55
X180.67Y-38.6
X184.63Y-38.6
X188.59Y-38.6
M30
