M48
; DRILL file KiCad 10.0.7 date 2026-10-10T05:12:31
; FORMAT={-:-/ absolute / metric / decimal}
; #@! TF.CreationDate,2026-10-10T05:12:31-04:00
; #@! TF.GenerationSoftware,Kicad,Pcbnew,10.0.7
; #@! TF.FileFunction,Plated,1,2,PTH
FMAT,2
METRIC
; #@! TA.AperFunction,Plated,PTH,ViaDrill
T1C0.400
; #@! TA.AperFunction,Plated,PTH,ViaDrill
T2C0.500
; #@! TA.AperFunction,Plated,PTH,ComponentDrill
T3C0.700
; #@! TA.AperFunction,Plated,PTH,ComponentDrill
T4C0.750
; #@! TA.AperFunction,Plated,PTH,ComponentDrill
T5C0.800
; #@! TA.AperFunction,Plated,PTH,ComponentDrill
T6C0.900
; #@! TA.AperFunction,Plated,PTH,ComponentDrill
T7C1.000
; #@! TA.AperFunction,Plated,PTH,ComponentDrill
T8C1.700
%
G90
G05
T1
X35.34Y-71.095
X38.99Y-149.531
X41.5Y-74.932
X46.109Y-93.838
X46.371Y-95.137
X49.668Y-86.758
X50.091Y-97.347
X50.932Y-99.007
X53.121Y-107.227
X63.465Y-122.445
X66.873Y-41.106
X68.492Y-107.965
X69.156Y-62.663
X73.162Y-109.232
X77.86Y-34.706
X81.807Y-98.011
X83.591Y-124.778
X86.292Y-36.185
X88.971Y-75.038
X89.92Y-120.557
X90.612Y-36.131
X91.882Y-68.957
X93.517Y-56.12
X94.517Y-51.04
X95.366Y-73.834
X96.366Y-62.415
X99.424Y-72.23
X103.6Y-152.391
X105.143Y-89.89
X106.619Y-154.388
X109.359Y-71.462
X110.135Y-73.408
X110.863Y-69.763
X110.863Y-89.035
X111.352Y-152.718
X114.63Y-48.55
X115.109Y-87.99
X116.296Y-61.68
X117.29Y-45.785
X117.291Y-44.447
X118.899Y-52.416
X121.381Y-88.122
X122.21Y-56.755
X122.975Y-114.817
X124.25Y-50.555
X125.546Y-56.028
X126.279Y-59.106
X126.342Y-32.899
X129.373Y-50.936
X130.243Y-33.35
X130.278Y-118.882
X135.167Y-93.762
X136.17Y-33.802
X137.634Y-51.04
X142.541Y-59.483
X142.88Y-76.17
X143.117Y-66.102
X143.315Y-109.509
X145.468Y-68.762
X147.909Y-51.062
X150.0Y-33.05
X152.322Y-104.677
X156.051Y-73.493
X158.898Y-61.25
X158.898Y-68.34
X159.821Y-107.82
X161.945Y-63.321
X166.336Y-66.102
X166.488Y-73.774
X166.49Y-75.992
X166.673Y-58.621
X167.217Y-72.864
X169.642Y-52.453
X171.436Y-60.265
X171.789Y-67.539
X173.579Y-45.785
X174.417Y-120.594
X178.69Y-35.291
X179.889Y-54.845
X180.125Y-76.061
X180.521Y-66.492
X184.416Y-155.069
X188.321Y-61.97
X191.623Y-35.432
T2
X82.582Y-90.77
X174.194Y-103.812
X197.197Y-134.323
T3
X113.55Y-97.05
X118.63Y-97.05
X122.55Y-85.35
X123.71Y-97.05
X127.63Y-85.35
X128.79Y-97.05
X132.71Y-85.35
X137.79Y-85.35
T4
X36.45Y-107.65
X37.72Y-107.65
X38.99Y-107.65
X43.9Y-107.65
X45.17Y-107.65
X46.44Y-107.65
X75.45Y-131.4
X76.72Y-131.4
X77.99Y-131.4
X82.9Y-131.4
X84.17Y-131.4
X85.44Y-131.4
X91.45Y-86.8
X92.72Y-86.8
X93.99Y-86.8
X96.45Y-129.15
X97.72Y-129.15
X98.9Y-86.8
X98.99Y-129.15
X100.17Y-86.8
X101.44Y-86.8
X137.25Y-121.4
X138.52Y-121.4
X139.79Y-121.4
X146.95Y-72.55
X148.22Y-72.55
X149.49Y-72.55
X156.45Y-84.3
X157.72Y-84.3
X158.99Y-84.3
X163.9Y-84.3
X165.17Y-84.3
X166.44Y-84.3
T5
X36.05Y-48.55
X36.05Y-51.09
X36.05Y-53.63
X36.05Y-56.17
X36.05Y-58.71
X36.05Y-61.25
X36.05Y-63.79
X36.5Y-68.34
X36.5Y-78.5
X36.5Y-82.59
X36.5Y-92.75
X36.5Y-96.85
X36.5Y-101.85
X41.5Y-68.34
X41.5Y-78.5
X41.5Y-96.85
X41.5Y-101.85
X43.67Y-48.55
X43.67Y-51.09
X43.67Y-53.63
X43.67Y-56.17
X43.67Y-58.71
X43.67Y-61.25
X43.67Y-63.79
X46.5Y-68.34
X46.5Y-78.5
X46.5Y-96.85
X46.5Y-101.85
X48.25Y-48.04
X48.25Y-58.2
X51.5Y-68.34
X51.5Y-78.5
X51.5Y-96.85
X51.5Y-101.85
X53.25Y-48.04
X53.25Y-58.2
X53.75Y-82.63
X53.75Y-90.25
X59.05Y-48.55
X59.05Y-51.09
X59.05Y-53.63
X59.05Y-56.17
X59.05Y-58.71
X59.05Y-61.25
X59.05Y-63.79
X62.05Y-69.85
X62.05Y-72.39
X62.05Y-74.93
X62.05Y-77.47
X62.05Y-80.01
X62.05Y-82.55
X62.05Y-85.09
X66.67Y-48.55
X66.67Y-51.09
X66.67Y-53.63
X66.67Y-56.17
X66.67Y-58.71
X66.67Y-61.25
X66.67Y-63.79
X69.67Y-69.85
X69.67Y-72.39
X69.67Y-74.93
X69.67Y-77.47
X69.67Y-80.01
X69.67Y-82.55
X69.67Y-85.09
X75.05Y-48.55
X75.05Y-51.09
X75.05Y-53.63
X75.05Y-56.17
X75.05Y-58.71
X75.05Y-61.25
X75.05Y-63.79
X75.25Y-108.93
X75.25Y-116.55
X75.5Y-68.34
X75.5Y-78.5
X75.5Y-82.59
X75.5Y-92.75
X75.5Y-120.65
X75.5Y-125.65
X79.05Y-98.32
X79.05Y-103.4
X79.75Y-108.93
X79.75Y-116.55
X80.5Y-68.34
X80.5Y-78.5
X80.5Y-82.59
X80.5Y-92.75
X80.5Y-120.65
X80.5Y-125.65
X81.59Y-100.86
X82.67Y-48.55
X82.67Y-51.09
X82.67Y-53.63
X82.67Y-56.17
X82.67Y-58.71
X82.67Y-61.25
X82.67Y-63.79
X84.5Y-108.9
X84.5Y-113.9
X85.5Y-68.34
X85.5Y-78.5
X85.5Y-82.59
X85.5Y-92.75
X85.5Y-120.65
X85.5Y-125.65
X91.05Y-48.5
X91.05Y-51.04
X91.05Y-53.58
X91.05Y-56.12
X91.05Y-58.66
X91.05Y-61.2
X91.05Y-63.74
X91.05Y-66.28
X91.05Y-93.4
X91.05Y-95.94
X91.05Y-98.48
X91.05Y-101.02
X91.05Y-103.56
X91.05Y-106.1
X91.05Y-108.64
X91.5Y-70.89
X91.5Y-81.05
X91.5Y-113.19
X91.5Y-123.35
X91.5Y-127.45
X91.5Y-132.45
X96.5Y-70.89
X96.5Y-81.05
X96.5Y-113.19
X96.5Y-123.35
X98.67Y-48.5
X98.67Y-51.04
X98.67Y-53.58
X98.67Y-56.12
X98.67Y-58.66
X98.67Y-61.2
X98.67Y-63.74
X98.67Y-66.28
X98.67Y-93.4
X98.67Y-95.94
X98.67Y-98.48
X98.67Y-101.02
X98.67Y-103.56
X98.67Y-106.1
X98.67Y-108.64
X101.5Y-70.89
X101.5Y-81.05
X101.5Y-113.2
X101.5Y-118.2
X103.25Y-48.04
X103.25Y-58.2
X103.25Y-92.89
X103.25Y-103.05
X106.5Y-70.89
X106.5Y-81.05
X112.05Y-48.55
X112.05Y-51.09
X112.05Y-53.63
X112.05Y-56.17
X112.05Y-58.71
X112.05Y-61.25
X112.05Y-63.79
X112.25Y-83.58
X112.25Y-91.2
X112.5Y-68.34
X112.5Y-78.5
X116.75Y-83.58
X116.75Y-91.2
X117.5Y-68.34
X117.5Y-78.5
X119.67Y-48.55
X119.67Y-51.09
X119.67Y-53.63
X119.67Y-56.17
X119.67Y-58.71
X119.67Y-61.25
X119.67Y-63.79
X122.5Y-68.34
X122.5Y-78.5
X124.25Y-48.04
X124.25Y-58.2
X127.5Y-68.34
X127.5Y-78.5
X128.05Y-105.9
X128.05Y-108.44
X128.05Y-110.98
X128.05Y-113.52
X129.15Y-122.05
X131.65Y-122.05
X133.05Y-48.5
X133.05Y-51.04
X133.05Y-53.58
X133.05Y-56.12
X133.05Y-58.66
X133.05Y-61.2
X133.05Y-63.74
X133.05Y-66.28
X133.25Y-70.88
X133.25Y-78.5
X134.8Y-95.3
X134.8Y-100.3
X135.67Y-105.9
X135.67Y-108.44
X135.67Y-110.98
X135.67Y-113.52
X137.75Y-70.88
X137.75Y-78.5
X139.8Y-95.3
X139.8Y-100.3
X140.25Y-105.44
X140.25Y-115.6
X140.67Y-48.5
X140.67Y-51.04
X140.67Y-53.58
X140.67Y-56.12
X140.67Y-58.66
X140.67Y-61.2
X140.67Y-63.74
X140.67Y-66.28
X142.25Y-70.88
X142.25Y-78.5
X144.8Y-95.3
X144.8Y-100.3
X145.25Y-48.04
X145.25Y-58.2
X145.25Y-105.45
X145.25Y-110.45
X150.0Y-48.03
X150.0Y-55.65
X151.05Y-90.85
X151.05Y-93.39
X151.05Y-95.93
X151.05Y-98.47
X151.05Y-101.01
X151.05Y-103.55
X151.05Y-106.09
X151.5Y-110.64
X151.5Y-120.8
X151.5Y-124.9
X151.5Y-129.9
X156.05Y-48.55
X156.05Y-51.09
X156.05Y-53.63
X156.05Y-56.17
X156.05Y-58.71
X156.05Y-61.25
X156.05Y-63.79
X156.5Y-68.34
X156.5Y-78.5
X156.5Y-110.64
X156.5Y-120.8
X156.5Y-124.9
X156.5Y-129.9
X158.67Y-90.85
X158.67Y-93.39
X158.67Y-95.93
X158.67Y-98.47
X158.67Y-101.01
X158.67Y-103.55
X158.67Y-106.09
X161.5Y-68.34
X161.5Y-78.5
X161.5Y-110.64
X161.5Y-120.8
X163.25Y-90.34
X163.25Y-100.5
X163.67Y-48.55
X163.67Y-51.09
X163.67Y-53.63
X163.67Y-56.17
X163.67Y-58.71
X163.67Y-61.25
X163.67Y-63.79
X166.5Y-68.34
X166.5Y-78.5
X166.5Y-110.64
X166.5Y-120.8
X168.25Y-48.04
X168.25Y-58.2
X172.05Y-93.65
X172.05Y-96.19
X172.05Y-98.73
X172.05Y-101.27
X172.25Y-121.73
X172.25Y-129.35
X172.5Y-107.44
X172.5Y-117.6
X174.05Y-48.55
X174.05Y-51.09
X174.05Y-53.63
X174.05Y-56.17
X174.05Y-58.71
X174.05Y-61.25
X174.05Y-63.79
X174.05Y-69.8
X174.05Y-72.34
X174.05Y-74.88
X174.05Y-77.42
X174.05Y-79.96
X174.05Y-82.5
X174.05Y-85.04
X174.05Y-87.58
X176.75Y-121.73
X176.75Y-129.35
X177.5Y-107.44
X177.5Y-117.6
X179.67Y-93.65
X179.67Y-96.19
X179.67Y-98.73
X179.67Y-101.27
X181.5Y-121.7
X181.5Y-126.7
X181.67Y-48.55
X181.67Y-51.09
X181.67Y-53.63
X181.67Y-56.17
X181.67Y-58.71
X181.67Y-61.25
X181.67Y-63.79
X181.67Y-69.8
X181.67Y-72.34
X181.67Y-74.88
X181.67Y-77.42
X181.67Y-79.96
X181.67Y-82.5
X181.67Y-85.04
X181.67Y-87.58
X182.5Y-107.44
X182.5Y-117.6
X184.25Y-93.19
X184.25Y-103.35
X186.5Y-121.7
X186.5Y-126.7
X187.05Y-48.55
X187.05Y-51.09
X187.05Y-53.63
X187.05Y-56.17
X187.05Y-58.71
X187.05Y-61.25
X187.05Y-63.79
X187.5Y-68.35
X187.5Y-73.35
X187.5Y-107.44
X187.5Y-117.6
X189.25Y-93.19
X189.25Y-103.35
X192.15Y-124.05
X192.5Y-68.35
X192.5Y-73.35
X192.5Y-107.44
X192.5Y-117.6
X194.25Y-93.19
X194.25Y-103.35
X194.65Y-124.05
X194.67Y-48.55
X194.67Y-51.09
X194.67Y-53.63
X194.67Y-56.17
X194.67Y-58.71
X194.67Y-61.25
X194.67Y-63.79
T6
X161.95Y-127.05
X164.49Y-127.05
T7
X42.75Y-86.8
X43.6Y-151.2
X46.14Y-151.2
X47.75Y-86.8
X48.68Y-151.2
X51.22Y-151.2
X53.76Y-151.2
X56.3Y-151.2
X58.84Y-151.2
X61.38Y-151.2
X63.92Y-151.2
X66.46Y-151.2
X69.0Y-151.2
X71.54Y-151.2
X74.08Y-151.2
X76.62Y-151.2
X79.16Y-151.2
X81.7Y-151.2
X84.24Y-151.2
X86.78Y-151.2
X89.32Y-151.2
X96.85Y-151.2
X99.39Y-151.2
X101.93Y-151.2
X104.47Y-151.2
X107.01Y-151.2
X114.55Y-151.2
X117.09Y-151.2
X119.63Y-151.2
X122.17Y-151.2
X129.7Y-151.2
X132.24Y-151.2
X134.78Y-151.2
X137.32Y-151.2
X144.85Y-151.2
X147.39Y-151.2
X149.93Y-151.2
X152.47Y-151.2
T8
X44.2Y-38.6
X48.16Y-38.6
X52.12Y-38.6
X56.08Y-38.6
X60.04Y-38.6
X64.0Y-38.6
X67.96Y-38.6
X71.92Y-38.6
X75.88Y-38.6
X79.84Y-38.6
X88.65Y-38.6
X92.61Y-38.6
X96.57Y-38.6
X100.53Y-38.6
X104.49Y-38.6
X108.45Y-38.6
X112.41Y-38.6
X116.37Y-38.6
X120.33Y-38.6
X124.29Y-38.6
X128.25Y-38.6
X132.21Y-38.6
X136.17Y-38.6
X140.13Y-38.6
X144.09Y-38.6
X152.95Y-38.6
X156.91Y-38.6
X160.65Y-147.55
X160.87Y-38.6
X164.61Y-147.55
X164.83Y-38.6
X168.57Y-147.55
X168.79Y-38.6
X172.53Y-147.55
X172.75Y-38.6
X176.49Y-147.55
X176.71Y-38.6
X180.45Y-147.55
X180.67Y-38.6
X184.63Y-38.6
X188.59Y-38.6
M30
