%TF.GenerationSoftware,KiCad,Pcbnew,10.0.7*%
%TF.CreationDate,2026-10-10T05:55:50-04:00*%
%TF.ProjectId,AC30,41433330-2e6b-4696-9361-645f70636258,A*%
%TF.SameCoordinates,PX1c9c380PY94c5f00*%
%TF.FileFunction,Copper,L1,Top*%
%TF.FilePolarity,Positive*%
%FSLAX46Y46*%
G04 Gerber Fmt 4.6, Leading zero omitted, Abs format (unit mm)*
G04 Created by KiCad (PCBNEW 10.0.7) date 2026-10-10 05:55:50*
%MOMM*%
%LPD*%
G01*
G04 APERTURE LIST*
G04 Aperture macros list*
%AMRoundRect*
0 Rectangle with rounded corners*
0 $1 Rounding radius*
0 $2 $3 $4 $5 $6 $7 $8 $9 X,Y pos of 4 corners*
0 Add a 4 corners polygon primitive as box body*
4,1,4,$2,$3,$4,$5,$6,$7,$8,$9,$2,$3,0*
0 Add four circle primitives for the rounded corners*
1,1,$1+$1,$2,$3*
1,1,$1+$1,$4,$5*
1,1,$1+$1,$6,$7*
1,1,$1+$1,$8,$9*
0 Add four rect primitives between the rounded corners*
20,1,$1+$1,$2,$3,$4,$5,0*
20,1,$1+$1,$4,$5,$6,$7,0*
20,1,$1+$1,$6,$7,$8,$9,0*
20,1,$1+$1,$8,$9,$2,$3,0*%
G04 Aperture macros list end*
%TA.AperFunction,ComponentPad*%
%ADD10R,1.050000X1.500000*%
%TD*%
%TA.AperFunction,ComponentPad*%
%ADD11O,1.050000X1.500000*%
%TD*%
%TA.AperFunction,ComponentPad*%
%ADD12RoundRect,0.250000X-0.550000X-0.550000X0.550000X-0.550000X0.550000X0.550000X-0.550000X0.550000X0*%
%TD*%
%TA.AperFunction,ComponentPad*%
%ADD13C,1.600000*%
%TD*%
%TA.AperFunction,ComponentPad*%
%ADD14R,1.700000X1.700000*%
%TD*%
%TA.AperFunction,ComponentPad*%
%ADD15C,1.700000*%
%TD*%
%TA.AperFunction,ComponentPad*%
%ADD16RoundRect,0.250000X-1.330000X-1.800000X1.330000X-1.800000X1.330000X1.800000X-1.330000X1.800000X0*%
%TD*%
%TA.AperFunction,ComponentPad*%
%ADD17O,3.160000X4.100000*%
%TD*%
%TA.AperFunction,ComponentPad*%
%ADD18R,1.800000X1.800000*%
%TD*%
%TA.AperFunction,ComponentPad*%
%ADD19C,1.800000*%
%TD*%
%TA.AperFunction,ComponentPad*%
%ADD20C,1.440000*%
%TD*%
%TA.AperFunction,ComponentPad*%
%ADD21RoundRect,0.250000X0.550000X-0.550000X0.550000X0.550000X-0.550000X0.550000X-0.550000X-0.550000X0*%
%TD*%
%TA.AperFunction,ComponentPad*%
%ADD22R,1.400000X1.400000*%
%TD*%
%TA.AperFunction,ComponentPad*%
%ADD23C,1.400000*%
%TD*%
%TA.AperFunction,ComponentPad*%
%ADD24RoundRect,0.250000X-0.750000X-0.750000X0.750000X-0.750000X0.750000X0.750000X-0.750000X0.750000X0*%
%TD*%
%TA.AperFunction,ComponentPad*%
%ADD25C,2.000000*%
%TD*%
%TA.AperFunction,ViaPad*%
%ADD26C,0.800000*%
%TD*%
%TA.AperFunction,ViaPad*%
%ADD27C,1.000000*%
%TD*%
%TA.AperFunction,Conductor*%
%ADD28C,0.600000*%
%TD*%
%TA.AperFunction,Conductor*%
%ADD29C,0.250000*%
%TD*%
G04 APERTURE END LIST*
D10*
%TO.P,Q6,1*%
%TO.N,GND*%
X135900000Y-84300000D03*
D11*
%TO.P,Q6,2*%
%TO.N,/Q6_B*%
X137170000Y-84300000D03*
%TO.P,Q6,3*%
%TO.N,/Q6_C*%
X138440000Y-84300000D03*
%TD*%
D12*
%TO.P,IC6,1*%
%TO.N,CLOCK_OUT*%
X84050000Y-69800000D03*
D13*
%TO.P,IC6,2*%
%TO.N,/CPU_CLK_OUT*%
X84050000Y-72340000D03*
%TO.P,IC6,3*%
%TO.N,/TERM_CLK_OUT*%
X84050000Y-74880000D03*
%TO.P,IC6,4*%
%TO.N,CLOCK_IN*%
X84050000Y-77420000D03*
%TO.P,IC6,5*%
%TO.N,/CPU_CLK_OUT*%
X84050000Y-79960000D03*
%TO.P,IC6,6*%
%TO.N,GND*%
X84050000Y-82500000D03*
%TO.P,IC6,7*%
X84050000Y-85040000D03*
%TO.P,IC6,8*%
X84050000Y-87580000D03*
%TO.P,IC6,9*%
%TO.N,/LOCAL_REMOTE*%
X91670000Y-87580000D03*
%TO.P,IC6,10*%
%TO.N,/SEL_CPU_CLK*%
X91670000Y-85040000D03*
%TO.P,IC6,11*%
%TO.N,/LOCAL_REMOTE*%
X91670000Y-82500000D03*
%TO.P,IC6,12*%
%TO.N,/CPU_DATA*%
X91670000Y-79960000D03*
%TO.P,IC6,13*%
%TO.N,/TERM_DATA*%
X91670000Y-77420000D03*
%TO.P,IC6,14*%
%TO.N,/DATA_SEL*%
X91670000Y-74880000D03*
%TO.P,IC6,15*%
%TO.N,/CPU_CLK_IN*%
X91670000Y-72340000D03*
%TO.P,IC6,16*%
%TO.N,+5V*%
X91670000Y-69800000D03*
%TD*%
D12*
%TO.P,IC12,1*%
%TO.N,/CPU_RS232_OUT*%
X94050000Y-48550000D03*
D13*
%TO.P,IC12,2*%
%TO.N,unconnected-(IC12A-RC-Pad2)*%
X94050000Y-51090000D03*
%TO.P,IC12,3*%
%TO.N,/CPU_DATA*%
X94050000Y-53630000D03*
%TO.P,IC12,4*%
%TO.N,/TERM_RS232_OUT*%
X94050000Y-56170000D03*
%TO.P,IC12,5*%
%TO.N,unconnected-(IC12B-RC-Pad5)*%
X94050000Y-58710000D03*
%TO.P,IC12,6*%
%TO.N,/TERM_DATA*%
X94050000Y-61250000D03*
%TO.P,IC12,7*%
%TO.N,GND*%
X94050000Y-63790000D03*
%TO.P,IC12,8*%
%TO.N,unconnected-(IC12-Pad8)*%
X101670000Y-63790000D03*
%TO.P,IC12,9*%
%TO.N,unconnected-(IC12C-RC-Pad9)*%
X101670000Y-61250000D03*
%TO.P,IC12,10*%
%TO.N,unconnected-(IC12-Pad10)*%
X101670000Y-58710000D03*
%TO.P,IC12,11*%
%TO.N,unconnected-(IC12-Pad11)*%
X101670000Y-56170000D03*
%TO.P,IC12,12*%
%TO.N,unconnected-(IC12D-RC-Pad12)*%
X101670000Y-53630000D03*
%TO.P,IC12,13*%
%TO.N,unconnected-(IC12-Pad13)*%
X101670000Y-51090000D03*
%TO.P,IC12,14*%
%TO.N,+5V*%
X101670000Y-48550000D03*
%TD*%
%TO.P,R31,1*%
%TO.N,/Q6_C*%
X138500000Y-78500000D03*
%TO.P,R31,2*%
%TO.N,/LED_READ_RDY*%
X138500000Y-68340000D03*
%TD*%
%TO.P,R8,1*%
%TO.N,AUDIO_IN*%
X133500000Y-114750000D03*
%TO.P,R8,2*%
%TO.N,GND*%
X133500000Y-104590000D03*
%TD*%
D12*
%TO.P,C4,1*%
%TO.N,/Mod{slash}Demod & power input/MOD_ATTEN*%
X148150000Y-121200000D03*
D13*
%TO.P,C4,2*%
%TO.N,AUDIO_OUT*%
X150650000Y-121200000D03*
%TD*%
D14*
%TO.P,J2,1*%
%TO.N,+5V*%
X96850000Y-151200000D03*
D15*
%TO.P,J2,2*%
%TO.N,/LED_REC_RDY*%
X99390000Y-151200000D03*
%TO.P,J2,3*%
%TO.N,/LED_READ_RDY*%
X101930000Y-151200000D03*
%TO.P,J2,4*%
%TO.N,/LED_REC_DATA*%
X104470000Y-151200000D03*
%TO.P,J2,5*%
%TO.N,/LED_READ_DATA*%
X107010000Y-151200000D03*
%TD*%
D16*
%TO.P,J12,1*%
%TO.N,GND*%
X160650000Y-147550000D03*
D17*
%TO.P,J12,2*%
%TO.N,+5V*%
X164610000Y-147550000D03*
%TO.P,J12,3*%
%TO.N,+13V*%
X168570000Y-147550000D03*
%TO.P,J12,4*%
%TO.N,-13V*%
X172530000Y-147550000D03*
%TO.P,J12,5*%
%TO.N,+7.5V*%
X176490000Y-147550000D03*
%TO.P,J12,6*%
%TO.N,-7.5V*%
X180450000Y-147550000D03*
%TD*%
D13*
%TO.P,R23,1*%
%TO.N,/READ_SET*%
X70250000Y-58200000D03*
%TO.P,R23,2*%
%TO.N,GND*%
X70250000Y-48040000D03*
%TD*%
%TO.P,R42,1*%
%TO.N,+5V*%
X49250000Y-103550000D03*
%TO.P,R42,2*%
%TO.N,/CTRL_INVERT*%
X49250000Y-93390000D03*
%TD*%
D12*
%TO.P,IC4,1*%
%TO.N,/Mod{slash}Demod & power input/MOD_FILT*%
X128050000Y-90800000D03*
D13*
%TO.P,IC4,2*%
X128050000Y-93340000D03*
%TO.P,IC4,3*%
%TO.N,/Mod{slash}Demod & power input/MOD_F2*%
X128050000Y-95880000D03*
%TO.P,IC4,4*%
%TO.N,-7.5V*%
X128050000Y-98420000D03*
%TO.P,IC4,5*%
%TO.N,/Mod{slash}Demod & power input/DEM_IN*%
X135670000Y-98420000D03*
%TO.P,IC4,6*%
%TO.N,GND*%
X135670000Y-95880000D03*
%TO.P,IC4,7*%
%TO.N,/Mod{slash}Demod & power input/DEM_CMP*%
X135670000Y-93340000D03*
%TO.P,IC4,8*%
%TO.N,+7.5V*%
X135670000Y-90800000D03*
%TD*%
%TO.P,R10,1*%
%TO.N,/Mod{slash}Demod & power input/DEM_IN*%
X143500000Y-114750000D03*
%TO.P,R10,2*%
%TO.N,/Mod{slash}Demod & power input/DEM_CMP*%
X143500000Y-104590000D03*
%TD*%
%TO.P,R22,1*%
%TO.N,+5V*%
X96250000Y-79500000D03*
%TO.P,R22,2*%
%TO.N,CLOCK_OUT*%
X96250000Y-69340000D03*
%TD*%
D12*
%TO.P,IC1,1*%
%TO.N,DATA_OUT*%
X45050000Y-72600000D03*
D13*
%TO.P,IC1,2*%
%TO.N,unconnected-(IC1A-~{Q}-Pad2)*%
X45050000Y-75140000D03*
%TO.P,IC1,3*%
%TO.N,/Mod{slash}Demod & power input/DEM_PULSE*%
X45050000Y-77680000D03*
%TO.P,IC1,4*%
%TO.N,GND*%
X45050000Y-80220000D03*
%TO.P,IC1,5*%
%TO.N,/Mod{slash}Demod & power input/DEM_BIT*%
X45050000Y-82760000D03*
%TO.P,IC1,6*%
%TO.N,GND*%
X45050000Y-85300000D03*
%TO.P,IC1,7*%
X45050000Y-87840000D03*
%TO.P,IC1,8*%
X52670000Y-87840000D03*
%TO.P,IC1,9*%
X52670000Y-85300000D03*
%TO.P,IC1,10*%
X52670000Y-82760000D03*
%TO.P,IC1,11*%
X52670000Y-80220000D03*
%TO.P,IC1,12*%
%TO.N,unconnected-(IC1B-~{Q}-Pad12)*%
X52670000Y-77680000D03*
%TO.P,IC1,13*%
%TO.N,unconnected-(IC1B-Q-Pad13)*%
X52670000Y-75140000D03*
%TO.P,IC1,14*%
%TO.N,+5V*%
X52670000Y-72600000D03*
%TD*%
%TO.P,R3,1*%
%TO.N,/Mod{slash}Demod & power input/MOD_F1*%
X122500000Y-78500000D03*
%TO.P,R3,2*%
%TO.N,/Mod{slash}Demod & power input/MOD_F2*%
X122500000Y-68340000D03*
%TD*%
D18*
%TO.P,D18,1*%
%TO.N,/D18_K*%
X117950000Y-84750000D03*
D19*
%TO.P,D18,2*%
%TO.N,+5V*%
X120490000Y-84750000D03*
%TD*%
D13*
%TO.P,C18,1*%
%TO.N,/IC10_CV*%
X52250000Y-53050000D03*
%TO.P,C18,2*%
%TO.N,GND*%
X52250000Y-48050000D03*
%TD*%
%TO.P,R2,1*%
%TO.N,/Mod{slash}Demod & power input/MOD_SQ*%
X117500000Y-78500000D03*
%TO.P,R2,2*%
%TO.N,/Mod{slash}Demod & power input/MOD_F1*%
X117500000Y-68340000D03*
%TD*%
%TO.P,C2,1*%
%TO.N,/Mod{slash}Demod & power input/MOD_F2*%
X137500000Y-123850000D03*
%TO.P,C2,2*%
%TO.N,GND*%
X137500000Y-118850000D03*
%TD*%
D12*
%TO.P,C17,1*%
%TO.N,/DELAY_RC*%
X36150000Y-64650000D03*
D13*
%TO.P,C17,2*%
%TO.N,GND*%
X38650000Y-64650000D03*
%TD*%
%TO.P,R45,1*%
%TO.N,+5V*%
X42500000Y-123850000D03*
%TO.P,R45,2*%
%TO.N,/START_READ*%
X42500000Y-113690000D03*
%TD*%
%TO.P,C24,1*%
%TO.N,+5V*%
X95800000Y-130400000D03*
%TO.P,C24,2*%
%TO.N,GND*%
X95800000Y-125400000D03*
%TD*%
%TO.P,R43,1*%
%TO.N,/DELAY_OUT*%
X107500000Y-78500000D03*
%TO.P,R43,2*%
%TO.N,/D18_K*%
X107500000Y-68340000D03*
%TD*%
D20*
%TO.P,R16,1*%
%TO.N,/Mod{slash}Demod & power input/DEM_R16*%
X163050000Y-103400000D03*
%TO.P,R16,2*%
%TO.N,+5V*%
X165590000Y-100860000D03*
%TO.P,R16,3*%
X163050000Y-98320000D03*
%TD*%
D10*
%TO.P,Q4,1*%
%TO.N,GND*%
X97950000Y-93850000D03*
D11*
%TO.P,Q4,2*%
%TO.N,/Mod{slash}Demod & power input/DEM_Q4B*%
X99220000Y-93850000D03*
%TO.P,Q4,3*%
%TO.N,CLOCK_OUT*%
X100490000Y-93850000D03*
%TD*%
D10*
%TO.P,Q2,1*%
%TO.N,GND*%
X180450000Y-84300000D03*
D11*
%TO.P,Q2,2*%
%TO.N,/Mod{slash}Demod & power input/DEM_Q2B*%
X181720000Y-84300000D03*
%TO.P,Q2,3*%
%TO.N,/Mod{slash}Demod & power input/DEM_Q2C*%
X182990000Y-84300000D03*
%TD*%
D21*
%TO.P,D10,1*%
%TO.N,+5V*%
X88750000Y-99800000D03*
D13*
%TO.P,D10,2*%
%TO.N,/TERM_CLK_OUT*%
X88750000Y-92180000D03*
%TD*%
%TO.P,C23,1*%
%TO.N,+5V*%
X90800000Y-130400000D03*
%TO.P,C23,2*%
%TO.N,GND*%
X90800000Y-125400000D03*
%TD*%
%TO.P,R36,1*%
%TO.N,/TAPE_DATA*%
X112500000Y-125700000D03*
%TO.P,R36,2*%
%TO.N,/Q7_B*%
X112500000Y-115540000D03*
%TD*%
D14*
%TO.P,J15,1*%
%TO.N,/EAR_A*%
X144850000Y-151200000D03*
D15*
%TO.P,J15,2*%
%TO.N,GND*%
X147390000Y-151200000D03*
%TO.P,J15,3*%
%TO.N,/EAR_B*%
X149930000Y-151200000D03*
%TO.P,J15,4*%
%TO.N,GND*%
X152470000Y-151200000D03*
%TD*%
D13*
%TO.P,R33,1*%
%TO.N,/READ_EN_N*%
X58500000Y-92750000D03*
%TO.P,R33,2*%
%TO.N,/Q10_B*%
X58500000Y-82590000D03*
%TD*%
D21*
%TO.P,D2,1*%
%TO.N,GND*%
X132750000Y-126500000D03*
D13*
%TO.P,D2,2*%
%TO.N,/Mod{slash}Demod & power input/DEM_IN*%
X132750000Y-118880000D03*
%TD*%
%TO.P,R41,1*%
%TO.N,+5V*%
X122500000Y-125700000D03*
%TO.P,R41,2*%
%TO.N,/LOCAL_REMOTE*%
X122500000Y-115540000D03*
%TD*%
%TO.P,C10,1*%
%TO.N,/Mod{slash}Demod & power input/DEM_BIT*%
X169500000Y-125650000D03*
%TO.P,C10,2*%
%TO.N,/Mod{slash}Demod & power input/DEM_BIT_EDGE*%
X169500000Y-120650000D03*
%TD*%
D12*
%TO.P,IC15,1*%
%TO.N,-13V*%
X175050000Y-93200000D03*
D13*
%TO.P,IC15,2*%
%TO.N,unconnected-(IC15-Pad2)*%
X175050000Y-95740000D03*
%TO.P,IC15,3*%
%TO.N,unconnected-(IC15-Pad3)*%
X175050000Y-98280000D03*
%TO.P,IC15,4*%
%TO.N,unconnected-(IC15-Pad4)*%
X175050000Y-100820000D03*
%TO.P,IC15,5*%
%TO.N,unconnected-(IC15-Pad5)*%
X175050000Y-103360000D03*
%TO.P,IC15,6*%
%TO.N,unconnected-(IC15-Pad6)*%
X175050000Y-105900000D03*
%TO.P,IC15,7*%
%TO.N,GND*%
X175050000Y-108440000D03*
%TO.P,IC15,8*%
%TO.N,/TERM_RS232_IN*%
X182670000Y-108440000D03*
%TO.P,IC15,9*%
%TO.N,/TERM_ECHO*%
X182670000Y-105900000D03*
%TO.P,IC15,10*%
%TO.N,/TERM_TX_SEL*%
X182670000Y-103360000D03*
%TO.P,IC15,11*%
%TO.N,/CPU_RS232_IN*%
X182670000Y-100820000D03*
%TO.P,IC15,12*%
%TO.N,/CPU_RX*%
X182670000Y-98280000D03*
%TO.P,IC15,13*%
%TO.N,+5V*%
X182670000Y-95740000D03*
%TO.P,IC15,14*%
%TO.N,+13V*%
X182670000Y-93200000D03*
%TD*%
D14*
%TO.P,J14,1*%
%TO.N,/MIC_A*%
X129700000Y-151200000D03*
D15*
%TO.P,J14,2*%
%TO.N,GND*%
X132240000Y-151200000D03*
%TO.P,J14,3*%
%TO.N,/MIC_B*%
X134780000Y-151200000D03*
%TO.P,J14,4*%
%TO.N,GND*%
X137320000Y-151200000D03*
%TD*%
D13*
%TO.P,R13,1*%
%TO.N,/Mod{slash}Demod & power input/DEM_PULSE*%
X164500000Y-78500000D03*
%TO.P,R13,2*%
%TO.N,/Mod{slash}Demod & power input/DEM_Q1B*%
X164500000Y-68340000D03*
%TD*%
%TO.P,C11,1*%
%TO.N,/Mod{slash}Demod & power input/DEM_CLK_N*%
X175500000Y-87600000D03*
%TO.P,C11,2*%
%TO.N,/Mod{slash}Demod & power input/DEM_Q4B*%
X175500000Y-82600000D03*
%TD*%
D21*
%TO.P,D6,1*%
%TO.N,/RELAY_1*%
X68250000Y-121300000D03*
D13*
%TO.P,D6,2*%
%TO.N,/MAN_MOTOR*%
X68250000Y-113680000D03*
%TD*%
%TO.P,R21,1*%
%TO.N,/Mod{slash}Demod & power input/DEM_CLK_N*%
X180500000Y-78500000D03*
%TO.P,R21,2*%
%TO.N,/Mod{slash}Demod & power input/DEM_Q4B*%
X180500000Y-68340000D03*
%TD*%
%TO.P,R17,1*%
%TO.N,/Mod{slash}Demod & power input/DEM_EDGE*%
X159500000Y-92750000D03*
%TO.P,R17,2*%
%TO.N,/Mod{slash}Demod & power input/DEM_D4*%
X159500000Y-82590000D03*
%TD*%
%TO.P,R35,1*%
%TO.N,/Q8_C*%
X107500000Y-125700000D03*
%TO.P,R35,2*%
%TO.N,/LED_REC_DATA*%
X107500000Y-115540000D03*
%TD*%
D21*
%TO.P,D7,1*%
%TO.N,/RELAY_2*%
X72750000Y-121300000D03*
D13*
%TO.P,D7,2*%
%TO.N,/MAN_MOTOR*%
X72750000Y-113680000D03*
%TD*%
%TO.P,C1,1*%
%TO.N,/Mod{slash}Demod & power input/MOD_CLK2*%
X107500000Y-87600000D03*
%TO.P,C1,2*%
%TO.N,/Mod{slash}Demod & power input/MOD_EDGE*%
X107500000Y-82600000D03*
%TD*%
%TO.P,R44,1*%
%TO.N,+5V*%
X37500000Y-123850000D03*
%TO.P,R44,2*%
%TO.N,/START_RECORD*%
X37500000Y-113690000D03*
%TD*%
%TO.P,C9,1*%
%TO.N,/Mod{slash}Demod & power input/DEM_Q2C*%
X185500000Y-73350000D03*
%TO.P,C9,2*%
%TO.N,GND*%
X185500000Y-68350000D03*
%TD*%
D22*
%TO.P,RLY2,1*%
%TO.N,/MOTOR_2B*%
X69550000Y-127150000D03*
D23*
%TO.P,RLY2,3*%
%TO.N,GND*%
X74630000Y-127150000D03*
%TO.P,RLY2,5*%
%TO.N,/RELAY_2*%
X79710000Y-127150000D03*
%TO.P,RLY2,7*%
%TO.N,/MOTOR_2A*%
X84790000Y-127150000D03*
%TD*%
D13*
%TO.P,R27,1*%
%TO.N,/POR*%
X68500000Y-78500000D03*
%TO.P,R27,2*%
%TO.N,GND*%
X68500000Y-68340000D03*
%TD*%
%TO.P,R47,1*%
%TO.N,+5V*%
X52500000Y-123850000D03*
%TO.P,R47,2*%
%TO.N,/STOP_READ*%
X52500000Y-113690000D03*
%TD*%
D12*
%TO.P,IC10,1*%
%TO.N,GND*%
X35050000Y-48500000D03*
D13*
%TO.P,IC10,2*%
%TO.N,/REC_EN*%
X35050000Y-51040000D03*
%TO.P,IC10,3*%
%TO.N,/DELAY_OUT*%
X35050000Y-53580000D03*
%TO.P,IC10,4*%
%TO.N,+5V*%
X35050000Y-56120000D03*
%TO.P,IC10,5*%
%TO.N,/IC10_CV*%
X42670000Y-56120000D03*
%TO.P,IC10,6*%
%TO.N,/DELAY_RC*%
X42670000Y-53580000D03*
%TO.P,IC10,7*%
X42670000Y-51040000D03*
%TO.P,IC10,8*%
%TO.N,+5V*%
X42670000Y-48500000D03*
%TD*%
D12*
%TO.P,IC8,1*%
%TO.N,/READ_EN*%
X58050000Y-48550000D03*
D13*
%TO.P,IC8,2*%
%TO.N,/READ_EN_N*%
X58050000Y-51090000D03*
%TO.P,IC8,3*%
%TO.N,GND*%
X58050000Y-53630000D03*
%TO.P,IC8,4*%
%TO.N,/READ_RST*%
X58050000Y-56170000D03*
%TO.P,IC8,5*%
%TO.N,GND*%
X58050000Y-58710000D03*
%TO.P,IC8,6*%
%TO.N,/READ_SET*%
X58050000Y-61250000D03*
%TO.P,IC8,7*%
%TO.N,GND*%
X58050000Y-63790000D03*
%TO.P,IC8,8*%
%TO.N,/REC_SET*%
X65670000Y-63790000D03*
%TO.P,IC8,9*%
%TO.N,GND*%
X65670000Y-61250000D03*
%TO.P,IC8,10*%
%TO.N,/REC_RST*%
X65670000Y-58710000D03*
%TO.P,IC8,11*%
%TO.N,GND*%
X65670000Y-56170000D03*
%TO.P,IC8,12*%
%TO.N,/REC_EN_N*%
X65670000Y-53630000D03*
%TO.P,IC8,13*%
%TO.N,/REC_EN*%
X65670000Y-51090000D03*
%TO.P,IC8,14*%
%TO.N,+5V*%
X65670000Y-48550000D03*
%TD*%
D16*
%TO.P,J3,1*%
%TO.N,GND*%
X44200000Y-38600000D03*
D17*
%TO.P,J3,2*%
%TO.N,/CPU_CLK_OUT*%
X48160000Y-38600000D03*
%TO.P,J3,3*%
%TO.N,/CPU_CLK_IN*%
X52120000Y-38600000D03*
%TO.P,J3,4*%
%TO.N,unconnected-(J3-Pin_4-Pad4)*%
X56080000Y-38600000D03*
%TO.P,J3,5*%
%TO.N,/CPU_RS232_IN*%
X60040000Y-38600000D03*
%TO.P,J3,6*%
%TO.N,/CPU_RS232_OUT*%
X64000000Y-38600000D03*
%TO.P,J3,7*%
%TO.N,unconnected-(J3-Pin_7-Pad7)*%
X67960000Y-38600000D03*
%TO.P,J3,8*%
%TO.N,unconnected-(J3-Pin_8-Pad8)*%
X71920000Y-38600000D03*
%TO.P,J3,9*%
%TO.N,unconnected-(J3-Pin_9-Pad9)*%
X75880000Y-38600000D03*
%TO.P,J3,10*%
%TO.N,unconnected-(J3-Pin_10-Pad10)*%
X79840000Y-38600000D03*
%TD*%
D13*
%TO.P,R9,1*%
%TO.N,/Mod{slash}Demod & power input/DEM_HP*%
X138500000Y-114750000D03*
%TO.P,R9,2*%
%TO.N,/Mod{slash}Demod & power input/DEM_IN*%
X138500000Y-104590000D03*
%TD*%
D12*
%TO.P,IC13,1*%
%TO.N,/STOP_RECORD*%
X37050000Y-93900000D03*
D13*
%TO.P,IC13,2*%
%TO.N,/CTRL_INVERT*%
X37050000Y-96440000D03*
%TO.P,IC13,3*%
%TO.N,/STOP_REC_P*%
X37050000Y-98980000D03*
%TO.P,IC13,4*%
%TO.N,/START_REC_P*%
X37050000Y-101520000D03*
%TO.P,IC13,5*%
%TO.N,/CTRL_INVERT*%
X37050000Y-104060000D03*
%TO.P,IC13,6*%
%TO.N,/START_RECORD*%
X37050000Y-106600000D03*
%TO.P,IC13,7*%
%TO.N,GND*%
X37050000Y-109140000D03*
%TO.P,IC13,8*%
%TO.N,/START_READ*%
X44670000Y-109140000D03*
%TO.P,IC13,9*%
%TO.N,/CTRL_INVERT*%
X44670000Y-106600000D03*
%TO.P,IC13,10*%
%TO.N,/START_READ_P*%
X44670000Y-104060000D03*
%TO.P,IC13,11*%
%TO.N,/STOP_READ_P*%
X44670000Y-101520000D03*
%TO.P,IC13,12*%
%TO.N,/CTRL_INVERT*%
X44670000Y-98980000D03*
%TO.P,IC13,13*%
%TO.N,/STOP_READ*%
X44670000Y-96440000D03*
%TO.P,IC13,14*%
%TO.N,+5V*%
X44670000Y-93900000D03*
%TD*%
%TO.P,R11,1*%
%TO.N,/Mod{slash}Demod & power input/DEM_CMP*%
X148500000Y-114750000D03*
%TO.P,R11,2*%
%TO.N,/Mod{slash}Demod & power input/DEM_LIM*%
X148500000Y-104590000D03*
%TD*%
D24*
%TO.P,C16,1*%
%TO.N,+5V*%
X64750000Y-86800000D03*
D25*
%TO.P,C16,2*%
%TO.N,/POR*%
X69750000Y-86800000D03*
%TD*%
D13*
%TO.P,R19,1*%
%TO.N,/Mod{slash}Demod & power input/DEM_Q3B*%
X164500000Y-92750000D03*
%TO.P,R19,2*%
%TO.N,/Mod{slash}Demod & power input/DEM_Q3B_R*%
X164500000Y-82590000D03*
%TD*%
D10*
%TO.P,Q9,1*%
%TO.N,+5V*%
X58450000Y-107650000D03*
D11*
%TO.P,Q9,2*%
%TO.N,/Q9_B*%
X59720000Y-107650000D03*
%TO.P,Q9,3*%
%TO.N,/REC_RLY_DRV*%
X60990000Y-107650000D03*
%TD*%
D10*
%TO.P,Q3,1*%
%TO.N,+5V*%
X166900000Y-131400000D03*
D11*
%TO.P,Q3,2*%
%TO.N,/Mod{slash}Demod & power input/DEM_Q3B_R*%
X168170000Y-131400000D03*
%TO.P,Q3,3*%
%TO.N,/Mod{slash}Demod & power input/DEM_CD*%
X169440000Y-131400000D03*
%TD*%
D13*
%TO.P,R46,1*%
%TO.N,+5V*%
X47500000Y-123850000D03*
%TO.P,R46,2*%
%TO.N,/STOP_RECORD*%
X47500000Y-113690000D03*
%TD*%
%TO.P,R1,1*%
%TO.N,/Mod{slash}Demod & power input/MOD_EDGE*%
X112500000Y-78500000D03*
%TO.P,R1,2*%
%TO.N,+5V*%
X112500000Y-68340000D03*
%TD*%
%TO.P,C14,1*%
%TO.N,/STOP_READ_P*%
X68500000Y-101850000D03*
%TO.P,C14,2*%
%TO.N,/READ_RST*%
X68500000Y-96850000D03*
%TD*%
%TO.P,C19,1*%
%TO.N,/TERM_RS232_IN*%
X175500000Y-118000000D03*
%TO.P,C19,2*%
%TO.N,GND*%
X175500000Y-113000000D03*
%TD*%
D16*
%TO.P,J4,1*%
%TO.N,unconnected-(J4-Pin_1-Pad1)*%
X88650000Y-38600000D03*
D17*
%TO.P,J4,2*%
%TO.N,GND*%
X92610000Y-38600000D03*
%TO.P,J4,3*%
%TO.N,unconnected-(J4-Pin_3-Pad3)*%
X96570000Y-38600000D03*
%TO.P,J4,4*%
%TO.N,/LOCAL_REMOTE*%
X100530000Y-38600000D03*
%TO.P,J4,5*%
%TO.N,/STOP_RECORD*%
X104490000Y-38600000D03*
%TO.P,J4,6*%
%TO.N,+5V*%
X108450000Y-38600000D03*
%TO.P,J4,7*%
%TO.N,/STOP_READ*%
X112410000Y-38600000D03*
%TO.P,J4,8*%
%TO.N,/CTRL_INVERT*%
X116370000Y-38600000D03*
%TO.P,J4,9*%
%TO.N,/START_READ*%
X120330000Y-38600000D03*
%TO.P,J4,10*%
%TO.N,/START_RECORD*%
X124290000Y-38600000D03*
%TO.P,J4,11*%
%TO.N,/TERM_CLK_OUT*%
X128250000Y-38600000D03*
%TO.P,J4,12*%
%TO.N,/TERM_CLK_IN*%
X132210000Y-38600000D03*
%TO.P,J4,13*%
%TO.N,CARRIER_DETECT*%
X136170000Y-38600000D03*
%TO.P,J4,14*%
%TO.N,CARRIER_EN_N*%
X140130000Y-38600000D03*
%TO.P,J4,15*%
%TO.N,unconnected-(J4-Pin_15-Pad15)*%
X144090000Y-38600000D03*
%TD*%
D10*
%TO.P,Q1,1*%
%TO.N,GND*%
X159450000Y-131400000D03*
D11*
%TO.P,Q1,2*%
%TO.N,/Mod{slash}Demod & power input/DEM_Q1B*%
X160720000Y-131400000D03*
%TO.P,Q1,3*%
%TO.N,/Mod{slash}Demod & power input/DEM_TIMER*%
X161990000Y-131400000D03*
%TD*%
D21*
%TO.P,D8,1*%
%TO.N,+5V*%
X101000000Y-76950000D03*
D13*
%TO.P,D8,2*%
%TO.N,/CPU_CLK_OUT*%
X101000000Y-69330000D03*
%TD*%
%TO.P,C25,1*%
%TO.N,+5V*%
X100800000Y-130400000D03*
%TO.P,C25,2*%
%TO.N,GND*%
X100800000Y-125400000D03*
%TD*%
D21*
%TO.P,D4,1*%
%TO.N,/Mod{slash}Demod & power input/DEM_D4*%
X163750000Y-116550000D03*
D13*
%TO.P,D4,2*%
%TO.N,/Mod{slash}Demod & power input/DEM_CD*%
X163750000Y-108930000D03*
%TD*%
%TO.P,R40,1*%
%TO.N,/DELAY_OUT*%
X119250000Y-58200000D03*
%TO.P,R40,2*%
%TO.N,CARRIER_EN_N*%
X119250000Y-48040000D03*
%TD*%
D21*
%TO.P,D1,1*%
%TO.N,/Mod{slash}Demod & power input/DEM_IN*%
X128250000Y-126500000D03*
D13*
%TO.P,D1,2*%
%TO.N,GND*%
X128250000Y-118880000D03*
%TD*%
%TO.P,R7,1*%
%TO.N,/Mod{slash}Demod & power input/MOD_ATTEN*%
X128500000Y-114750000D03*
%TO.P,R7,2*%
%TO.N,GND*%
X128500000Y-104590000D03*
%TD*%
D21*
%TO.P,D5,1*%
%TO.N,/POR*%
X75750000Y-90250000D03*
D13*
%TO.P,D5,2*%
%TO.N,GND*%
X75750000Y-82630000D03*
%TD*%
%TO.P,R4,1*%
%TO.N,/Mod{slash}Demod & power input/MOD_FILT*%
X140250000Y-100500000D03*
%TO.P,R4,2*%
%TO.N,/Mod{slash}Demod & power input/MOD_FB*%
X140250000Y-90340000D03*
%TD*%
%TO.P,C13,1*%
%TO.N,/START_REC_P*%
X63500000Y-101850000D03*
%TO.P,C13,2*%
%TO.N,/REC_SET*%
X63500000Y-96850000D03*
%TD*%
D14*
%TO.P,J1,1*%
%TO.N,+5V*%
X43600000Y-151200000D03*
D15*
%TO.P,J1,2*%
%TO.N,GND*%
X46140000Y-151200000D03*
%TO.P,J1,3*%
%TO.N,CARRIER_EN_N*%
X48680000Y-151200000D03*
%TO.P,J1,4*%
%TO.N,/MAN_MOTOR*%
X51220000Y-151200000D03*
%TO.P,J1,5*%
%TO.N,/REC_SET*%
X53760000Y-151200000D03*
%TO.P,J1,6*%
%TO.N,/REC_RST*%
X56300000Y-151200000D03*
%TO.P,J1,7*%
%TO.N,/READ_SET*%
X58840000Y-151200000D03*
%TO.P,J1,8*%
%TO.N,/READ_RST*%
X61380000Y-151200000D03*
%TO.P,J1,9*%
%TO.N,/LOCAL_REMOTE*%
X63920000Y-151200000D03*
%TO.P,J1,10*%
%TO.N,AUDIO_OUT*%
X66460000Y-151200000D03*
%TO.P,J1,11*%
%TO.N,/MIC_A*%
X69000000Y-151200000D03*
%TO.P,J1,12*%
%TO.N,/MIC_B*%
X71540000Y-151200000D03*
%TO.P,J1,13*%
%TO.N,/REC_RLY_DRV*%
X74080000Y-151200000D03*
%TO.P,J1,14*%
%TO.N,/RELAY_1*%
X76620000Y-151200000D03*
%TO.P,J1,15*%
%TO.N,/RELAY_2*%
X79160000Y-151200000D03*
%TO.P,J1,16*%
%TO.N,/READ_RLY_DRV*%
X81700000Y-151200000D03*
%TO.P,J1,17*%
%TO.N,AUDIO_IN*%
X84240000Y-151200000D03*
%TO.P,J1,18*%
%TO.N,/EAR_A*%
X86780000Y-151200000D03*
%TO.P,J1,19*%
%TO.N,/EAR_B*%
X89320000Y-151200000D03*
%TD*%
D13*
%TO.P,R34,1*%
%TO.N,DATA_IN*%
X119250000Y-102850000D03*
%TO.P,R34,2*%
%TO.N,/Q8_B*%
X119250000Y-92690000D03*
%TD*%
D21*
%TO.P,D9,1*%
%TO.N,/CPU_CLK_OUT*%
X84250000Y-99800000D03*
D13*
%TO.P,D9,2*%
%TO.N,GND*%
X84250000Y-92180000D03*
%TD*%
%TO.P,R32,1*%
%TO.N,/REC_EN_N*%
X73500000Y-78500000D03*
%TO.P,R32,2*%
%TO.N,/Q9_B*%
X73500000Y-68340000D03*
%TD*%
%TO.P,R29,1*%
%TO.N,/READ_EN*%
X128500000Y-78500000D03*
%TO.P,R29,2*%
%TO.N,/Q6_B*%
X128500000Y-68340000D03*
%TD*%
D22*
%TO.P,RLY1,1*%
%TO.N,/MOTOR_1B*%
X78550000Y-115450000D03*
D23*
%TO.P,RLY1,3*%
%TO.N,GND*%
X83630000Y-115450000D03*
%TO.P,RLY1,5*%
%TO.N,/RELAY_1*%
X88710000Y-115450000D03*
%TO.P,RLY1,7*%
%TO.N,/MOTOR_1A*%
X93790000Y-115450000D03*
%TD*%
D12*
%TO.P,IC5,1*%
%TO.N,/Mod{slash}Demod & power input/MOD_SQ*%
X107050000Y-48550000D03*
D13*
%TO.P,IC5,2*%
%TO.N,/Mod{slash}Demod & power input/MOD_DIV4_N*%
X107050000Y-51090000D03*
%TO.P,IC5,3*%
%TO.N,/Mod{slash}Demod & power input/MOD_CLK2*%
X107050000Y-53630000D03*
%TO.P,IC5,4*%
%TO.N,/Mod{slash}Demod & power input/MOD_RST*%
X107050000Y-56170000D03*
%TO.P,IC5,5*%
%TO.N,/Mod{slash}Demod & power input/MOD_DIV4_N*%
X107050000Y-58710000D03*
%TO.P,IC5,6*%
%TO.N,GND*%
X107050000Y-61250000D03*
%TO.P,IC5,7*%
X107050000Y-63790000D03*
%TO.P,IC5,8*%
X114670000Y-63790000D03*
%TO.P,IC5,9*%
%TO.N,/Mod{slash}Demod & power input/MOD_DIV2_N*%
X114670000Y-61250000D03*
%TO.P,IC5,10*%
%TO.N,CARRIER_EN_N*%
X114670000Y-58710000D03*
%TO.P,IC5,11*%
%TO.N,CLOCK_IN*%
X114670000Y-56170000D03*
%TO.P,IC5,12*%
%TO.N,/Mod{slash}Demod & power input/MOD_DIV2_N*%
X114670000Y-53630000D03*
%TO.P,IC5,13*%
%TO.N,/Mod{slash}Demod & power input/MOD_CLK2*%
X114670000Y-51090000D03*
%TO.P,IC5,14*%
%TO.N,+5V*%
X114670000Y-48550000D03*
%TD*%
%TO.P,R6,1*%
%TO.N,/Mod{slash}Demod & power input/MOD_FILT*%
X150250000Y-100500000D03*
%TO.P,R6,2*%
%TO.N,/Mod{slash}Demod & power input/MOD_ATTEN*%
X150250000Y-90340000D03*
%TD*%
%TO.P,R14,1*%
%TO.N,/Mod{slash}Demod & power input/DEM_PULSE*%
X187250000Y-58200000D03*
%TO.P,R14,2*%
%TO.N,/Mod{slash}Demod & power input/DEM_Q2B*%
X187250000Y-48040000D03*
%TD*%
D21*
%TO.P,D11,1*%
%TO.N,/TERM_CLK_OUT*%
X93250000Y-99800000D03*
D13*
%TO.P,D11,2*%
%TO.N,GND*%
X93250000Y-92180000D03*
%TD*%
%TO.P,C20,1*%
%TO.N,/CPU_RS232_IN*%
X180500000Y-118000000D03*
%TO.P,C20,2*%
%TO.N,GND*%
X180500000Y-113000000D03*
%TD*%
D10*
%TO.P,Q10,1*%
%TO.N,+5V*%
X65900000Y-107650000D03*
D11*
%TO.P,Q10,2*%
%TO.N,/Q10_B*%
X67170000Y-107650000D03*
%TO.P,Q10,3*%
%TO.N,/READ_RLY_DRV*%
X68440000Y-107650000D03*
%TD*%
D13*
%TO.P,R30,1*%
%TO.N,/Q5_C*%
X133500000Y-78500000D03*
%TO.P,R30,2*%
%TO.N,/LED_REC_RDY*%
X133500000Y-68340000D03*
%TD*%
%TO.P,R5,1*%
%TO.N,/Mod{slash}Demod & power input/MOD_FB*%
X145250000Y-100500000D03*
%TO.P,R5,2*%
%TO.N,GND*%
X145250000Y-90340000D03*
%TD*%
%TO.P,R28,1*%
%TO.N,/REC_EN*%
X140250000Y-58200000D03*
%TO.P,R28,2*%
%TO.N,/Q5_B*%
X140250000Y-48040000D03*
%TD*%
%TO.P,C15,1*%
%TO.N,/STOP_REC_P*%
X73500000Y-101850000D03*
%TO.P,C15,2*%
%TO.N,/REC_RST*%
X73500000Y-96850000D03*
%TD*%
%TO.P,C8,1*%
%TO.N,/Mod{slash}Demod & power input/DEM_TIMER*%
X164500000Y-125650000D03*
%TO.P,C8,2*%
%TO.N,GND*%
X164500000Y-120650000D03*
%TD*%
%TO.P,R25,1*%
%TO.N,/READ_RST*%
X58500000Y-78500000D03*
%TO.P,R25,2*%
%TO.N,/POR*%
X58500000Y-68340000D03*
%TD*%
%TO.P,C3,1*%
%TO.N,/Mod{slash}Demod & power input/MOD_F1*%
X112500000Y-87600000D03*
%TO.P,C3,2*%
%TO.N,/Mod{slash}Demod & power input/MOD_FB*%
X112500000Y-82600000D03*
%TD*%
D10*
%TO.P,Q5,1*%
%TO.N,GND*%
X128450000Y-84300000D03*
D11*
%TO.P,Q5,2*%
%TO.N,/Q5_B*%
X129720000Y-84300000D03*
%TO.P,Q5,3*%
%TO.N,/Q5_C*%
X130990000Y-84300000D03*
%TD*%
D10*
%TO.P,Q7,1*%
%TO.N,GND*%
X107450000Y-131450000D03*
D11*
%TO.P,Q7,2*%
%TO.N,/Q7_B*%
X108720000Y-131450000D03*
%TO.P,Q7,3*%
%TO.N,/Q7_C*%
X109990000Y-131450000D03*
%TD*%
D13*
%TO.P,R38,1*%
%TO.N,+5V*%
X47250000Y-58200000D03*
%TO.P,R38,2*%
%TO.N,/DELAY_RC*%
X47250000Y-48040000D03*
%TD*%
%TO.P,C12,1*%
%TO.N,/START_READ_P*%
X58500000Y-101850000D03*
%TO.P,C12,2*%
%TO.N,/READ_SET*%
X58500000Y-96850000D03*
%TD*%
D12*
%TO.P,IC2,1*%
%TO.N,DATA_IN*%
X175050000Y-48550000D03*
D13*
%TO.P,IC2,2*%
%TO.N,/Mod{slash}Demod & power input/MOD_EDGE*%
X175050000Y-51090000D03*
%TO.P,IC2,3*%
%TO.N,/Mod{slash}Demod & power input/MOD_RST*%
X175050000Y-53630000D03*
%TO.P,IC2,4*%
%TO.N,/Mod{slash}Demod & power input/DEM_Q3B*%
X175050000Y-56170000D03*
%TO.P,IC2,5*%
%TO.N,/Mod{slash}Demod & power input/DEM_Q2C*%
X175050000Y-58710000D03*
%TO.P,IC2,6*%
X175050000Y-61250000D03*
%TO.P,IC2,7*%
%TO.N,GND*%
X175050000Y-63790000D03*
%TO.P,IC2,8*%
%TO.N,/Mod{slash}Demod & power input/DEM_EDGE*%
X182670000Y-63790000D03*
%TO.P,IC2,9*%
X182670000Y-61250000D03*
%TO.P,IC2,10*%
%TO.N,/Mod{slash}Demod & power input/DEM_PULSE*%
X182670000Y-58710000D03*
%TO.P,IC2,11*%
%TO.N,/Mod{slash}Demod & power input/DEM_CLK_N*%
X182670000Y-56170000D03*
%TO.P,IC2,12*%
%TO.N,/Mod{slash}Demod & power input/DEM_PULSE*%
X182670000Y-53630000D03*
%TO.P,IC2,13*%
%TO.N,/Mod{slash}Demod & power input/DEM_BIT_EDGE*%
X182670000Y-51090000D03*
%TO.P,IC2,14*%
%TO.N,+5V*%
X182670000Y-48550000D03*
%TD*%
D21*
%TO.P,D3,1*%
%TO.N,/Mod{slash}Demod & power input/DEM_LIM*%
X159250000Y-116550000D03*
D13*
%TO.P,D3,2*%
%TO.N,GND*%
X159250000Y-108930000D03*
%TD*%
%TO.P,C6,1*%
%TO.N,/Mod{slash}Demod & power input/DEM_DLY*%
X168500000Y-113900000D03*
%TO.P,C6,2*%
%TO.N,GND*%
X168500000Y-108900000D03*
%TD*%
D12*
%TO.P,IC7,1*%
%TO.N,+5V*%
X107050000Y-93150000D03*
D13*
%TO.P,IC7,2*%
%TO.N,/CPU_RX*%
X107050000Y-95690000D03*
%TO.P,IC7,3*%
%TO.N,/CPU_RX_N*%
X107050000Y-98230000D03*
%TO.P,IC7,4*%
%TO.N,/TAPE_DATA*%
X107050000Y-100770000D03*
%TO.P,IC7,5*%
%TO.N,/TAPE_DATA_N*%
X107050000Y-103310000D03*
%TO.P,IC7,6*%
%TO.N,DATA_IN*%
X107050000Y-105850000D03*
%TO.P,IC7,7*%
%TO.N,/REC_DATA_N*%
X107050000Y-108390000D03*
%TO.P,IC7,8*%
%TO.N,GND*%
X107050000Y-110930000D03*
%TO.P,IC7,9*%
%TO.N,/TERM_DATA*%
X114670000Y-110930000D03*
%TO.P,IC7,10*%
%TO.N,/TERM_DATA_N*%
X114670000Y-108390000D03*
%TO.P,IC7,11*%
%TO.N,/LOCAL_REMOTE*%
X114670000Y-105850000D03*
%TO.P,IC7,12*%
%TO.N,/REMOTE_N*%
X114670000Y-103310000D03*
%TO.P,IC7,13*%
%TO.N,N/C*%
X114670000Y-100770000D03*
%TO.P,IC7,14*%
%TO.N,/DATA_SEL*%
X114670000Y-98230000D03*
%TO.P,IC7,15*%
%TO.N,/DATA_SEL_N*%
X114670000Y-95690000D03*
%TO.P,IC7,16*%
%TO.N,N/C*%
X114670000Y-93150000D03*
%TD*%
D14*
%TO.P,J13,1*%
%TO.N,/MOTOR_1A*%
X114550000Y-151200000D03*
D15*
%TO.P,J13,2*%
%TO.N,/MOTOR_1B*%
X117090000Y-151200000D03*
%TO.P,J13,3*%
%TO.N,/MOTOR_2A*%
X119630000Y-151200000D03*
%TO.P,J13,4*%
%TO.N,/MOTOR_2B*%
X122170000Y-151200000D03*
%TD*%
D13*
%TO.P,R15,1*%
%TO.N,/Mod{slash}Demod & power input/DEM_TIMER*%
X169500000Y-78500000D03*
%TO.P,R15,2*%
%TO.N,/Mod{slash}Demod & power input/DEM_R16*%
X169500000Y-68340000D03*
%TD*%
D16*
%TO.P,J5,1*%
%TO.N,GND*%
X152950000Y-38600000D03*
D17*
%TO.P,J5,2*%
%TO.N,unconnected-(J5-Pin_2-Pad2)*%
X156910000Y-38600000D03*
%TO.P,J5,3*%
%TO.N,unconnected-(J5-Pin_3-Pad3)*%
X160870000Y-38600000D03*
%TO.P,J5,4*%
%TO.N,unconnected-(J5-Pin_4-Pad4)*%
X164830000Y-38600000D03*
%TO.P,J5,5*%
%TO.N,/TERM_RS232_OUT*%
X168790000Y-38600000D03*
%TO.P,J5,6*%
%TO.N,/TERM_RS232_IN*%
X172750000Y-38600000D03*
%TO.P,J5,7*%
%TO.N,unconnected-(J5-Pin_7-Pad7)*%
X176710000Y-38600000D03*
%TO.P,J5,8*%
%TO.N,unconnected-(J5-Pin_8-Pad8)*%
X180670000Y-38600000D03*
%TO.P,J5,9*%
%TO.N,unconnected-(J5-Pin_9-Pad9)*%
X184630000Y-38600000D03*
%TO.P,J5,10*%
%TO.N,unconnected-(J5-Pin_10-Pad10)*%
X188590000Y-38600000D03*
%TD*%
D13*
%TO.P,R26,1*%
%TO.N,/REC_RST*%
X63500000Y-78500000D03*
%TO.P,R26,2*%
%TO.N,/POR*%
X63500000Y-68340000D03*
%TD*%
D12*
%TO.P,IC14,1*%
%TO.N,/TERM_DATA*%
X146050000Y-48500000D03*
D13*
%TO.P,IC14,2*%
%TO.N,+5V*%
X146050000Y-51040000D03*
%TO.P,IC14,3*%
%TO.N,CLOCK_OUT*%
X146050000Y-53580000D03*
%TO.P,IC14,4*%
%TO.N,/TERM_CLK_IN*%
X146050000Y-56120000D03*
%TO.P,IC14,5*%
%TO.N,/TERM_CLK_OUT*%
X146050000Y-58660000D03*
%TO.P,IC14,6*%
%TO.N,GND*%
X146050000Y-61200000D03*
%TO.P,IC14,7*%
X146050000Y-63740000D03*
%TO.P,IC14,8*%
X146050000Y-66280000D03*
%TO.P,IC14,9*%
%TO.N,/SEL_TERM_CLK*%
X153670000Y-66280000D03*
%TO.P,IC14,10*%
%TO.N,/LOCAL_REMOTE*%
X153670000Y-63740000D03*
%TO.P,IC14,11*%
X153670000Y-61200000D03*
%TO.P,IC14,12*%
%TO.N,/CPU_DATA*%
X153670000Y-58660000D03*
%TO.P,IC14,13*%
%TO.N,/TAPE_DATA_N*%
X153670000Y-56120000D03*
%TO.P,IC14,14*%
%TO.N,/TERM_TX_SEL*%
X153670000Y-53580000D03*
%TO.P,IC14,15*%
%TO.N,/TERM_ECHO*%
X153670000Y-51040000D03*
%TO.P,IC14,16*%
%TO.N,+5V*%
X153670000Y-48500000D03*
%TD*%
%TO.P,R18,1*%
%TO.N,+5V*%
X175500000Y-78500000D03*
%TO.P,R18,2*%
%TO.N,/Mod{slash}Demod & power input/DEM_Q2C*%
X175500000Y-68340000D03*
%TD*%
D10*
%TO.P,Q11,1*%
%TO.N,/DELAY_RC*%
X44250000Y-64000000D03*
D11*
%TO.P,Q11,2*%
%TO.N,/REC_EN*%
X45520000Y-64000000D03*
%TO.P,Q11,3*%
%TO.N,GND*%
X46790000Y-64000000D03*
%TD*%
D12*
%TO.P,IC9,1*%
%TO.N,/READ_EN*%
X128050000Y-48550000D03*
D13*
%TO.P,IC9,2*%
%TO.N,CARRIER_DETECT*%
X128050000Y-51090000D03*
%TO.P,IC9,3*%
%TO.N,DATA_OUT*%
X128050000Y-53630000D03*
%TO.P,IC9,4*%
%TO.N,CARRIER_DETECT*%
X128050000Y-56170000D03*
%TO.P,IC9,5*%
%TO.N,/READ_EN*%
X128050000Y-58710000D03*
%TO.P,IC9,6*%
%TO.N,/TAPE_DATA_N*%
X128050000Y-61250000D03*
%TO.P,IC9,7*%
%TO.N,GND*%
X128050000Y-63790000D03*
%TO.P,IC9,8*%
%TO.N,+5V*%
X135670000Y-63790000D03*
%TO.P,IC9,9*%
%TO.N,/READ_ACTIVE_N*%
X135670000Y-61250000D03*
%TO.P,IC9,10*%
%TO.N,/REC_DATA_N*%
X135670000Y-58710000D03*
%TO.P,IC9,11*%
%TO.N,/DATA_SEL_N*%
X135670000Y-56170000D03*
%TO.P,IC9,12*%
%TO.N,/REC_EN*%
X135670000Y-53630000D03*
%TO.P,IC9,13*%
%TO.N,+5V*%
X135670000Y-51090000D03*
%TO.P,IC9,14*%
X135670000Y-48550000D03*
%TD*%
%TO.P,C5,1*%
%TO.N,AUDIO_IN*%
X142500000Y-123850000D03*
%TO.P,C5,2*%
%TO.N,/Mod{slash}Demod & power input/DEM_HP*%
X142500000Y-118850000D03*
%TD*%
%TO.P,R37,1*%
%TO.N,/Q7_C*%
X117500000Y-125700000D03*
%TO.P,R37,2*%
%TO.N,/LED_READ_DATA*%
X117500000Y-115540000D03*
%TD*%
%TO.P,R12,1*%
%TO.N,/Mod{slash}Demod & power input/DEM_INV*%
X159500000Y-78500000D03*
%TO.P,R12,2*%
%TO.N,/Mod{slash}Demod & power input/DEM_DLY*%
X159500000Y-68340000D03*
%TD*%
%TO.P,R24,1*%
%TO.N,/REC_SET*%
X75250000Y-58200000D03*
%TO.P,R24,2*%
%TO.N,GND*%
X75250000Y-48040000D03*
%TD*%
D10*
%TO.P,Q8,1*%
%TO.N,GND*%
X114900000Y-131450000D03*
D11*
%TO.P,Q8,2*%
%TO.N,/Q8_B*%
X116170000Y-131450000D03*
%TO.P,Q8,3*%
%TO.N,/Q8_C*%
X117440000Y-131450000D03*
%TD*%
D13*
%TO.P,R20,1*%
%TO.N,/Mod{slash}Demod & power input/DEM_BIT_EDGE*%
X169500000Y-92750000D03*
%TO.P,R20,2*%
%TO.N,GND*%
X169500000Y-82590000D03*
%TD*%
D12*
%TO.P,IC11,1*%
%TO.N,/REMOTE_N*%
X81050000Y-48550000D03*
D13*
%TO.P,IC11,2*%
%TO.N,/READ_ACTIVE_N*%
X81050000Y-51090000D03*
%TO.P,IC11,3*%
%TO.N,/SEL_TERM_CLK*%
X81050000Y-53630000D03*
%TO.P,IC11,4*%
%TO.N,/SEL_CPU_CLK*%
X81050000Y-56170000D03*
%TO.P,IC11,5*%
%TO.N,/READ_ACTIVE_N*%
X81050000Y-58710000D03*
%TO.P,IC11,6*%
%TO.N,/LOCAL_REMOTE*%
X81050000Y-61250000D03*
%TO.P,IC11,7*%
%TO.N,GND*%
X81050000Y-63790000D03*
%TO.P,IC11,8*%
%TO.N,/TERM_DATA_N*%
X88670000Y-63790000D03*
%TO.P,IC11,9*%
%TO.N,/TAPE_DATA*%
X88670000Y-61250000D03*
%TO.P,IC11,10*%
%TO.N,/ECHO_N*%
X88670000Y-58710000D03*
%TO.P,IC11,11*%
%TO.N,/CPU_RX_N*%
X88670000Y-56170000D03*
%TO.P,IC11,12*%
%TO.N,/ECHO_N*%
X88670000Y-53630000D03*
%TO.P,IC11,13*%
%TO.N,/LOCAL_REMOTE*%
X88670000Y-51090000D03*
%TO.P,IC11,14*%
%TO.N,+5V*%
X88670000Y-48550000D03*
%TD*%
%TO.P,C7,1*%
%TO.N,+5V*%
X159500000Y-125650000D03*
%TO.P,C7,2*%
%TO.N,/Mod{slash}Demod & power input/DEM_CD*%
X159500000Y-120650000D03*
%TD*%
D12*
%TO.P,IC3,1*%
%TO.N,/Mod{slash}Demod & power input/DEM_CD*%
X159050000Y-48550000D03*
D13*
%TO.P,IC3,2*%
X159050000Y-51090000D03*
%TO.P,IC3,3*%
%TO.N,CARRIER_DETECT*%
X159050000Y-53630000D03*
%TO.P,IC3,4*%
%TO.N,/Mod{slash}Demod & power input/DEM_BIT*%
X159050000Y-56170000D03*
%TO.P,IC3,5*%
%TO.N,/Mod{slash}Demod & power input/DEM_TIMER*%
X159050000Y-58710000D03*
%TO.P,IC3,6*%
%TO.N,GND*%
X159050000Y-61250000D03*
%TO.P,IC3,7*%
X159050000Y-63790000D03*
%TO.P,IC3,8*%
%TO.N,+5V*%
X166670000Y-63790000D03*
%TO.P,IC3,9*%
%TO.N,/Mod{slash}Demod & power input/DEM_LIM*%
X166670000Y-61250000D03*
%TO.P,IC3,10*%
%TO.N,/Mod{slash}Demod & power input/DEM_INV*%
X166670000Y-58710000D03*
%TO.P,IC3,11*%
%TO.N,/Mod{slash}Demod & power input/DEM_EDGE*%
X166670000Y-56170000D03*
%TO.P,IC3,12*%
%TO.N,/Mod{slash}Demod & power input/DEM_LIM*%
X166670000Y-53630000D03*
%TO.P,IC3,13*%
%TO.N,/Mod{slash}Demod & power input/DEM_DLY*%
X166670000Y-51090000D03*
%TO.P,IC3,14*%
%TO.N,+5V*%
X166670000Y-48550000D03*
%TD*%
D26*
%TO.N,/Q6_B*%
X125841100Y-82292400D03*
%TO.N,CLOCK_OUT*%
X147176700Y-70394300D03*
%TO.N,/CPU_CLK_OUT*%
X51194500Y-73754800D03*
%TO.N,/TERM_CLK_OUT*%
X85187900Y-46723800D03*
X134444800Y-42454900D03*
%TO.N,CLOCK_IN*%
X116256800Y-71703600D03*
%TO.N,/LOCAL_REMOTE*%
X150639100Y-80480000D03*
X95300200Y-107002500D03*
X86224400Y-61208800D03*
X120879800Y-148763900D03*
X93245700Y-41381800D03*
%TO.N,/SEL_CPU_CLK*%
X86981300Y-56121600D03*
%TO.N,/CPU_DATA*%
X90854700Y-53570900D03*
X149856700Y-71964100D03*
%TO.N,/TERM_DATA*%
X121936200Y-51113200D03*
X90543000Y-61250000D03*
X121936200Y-62376700D03*
X103640300Y-112093000D03*
%TO.N,/DATA_SEL*%
X99414000Y-99416300D03*
%TO.N,/CPU_CLK_IN*%
X55431400Y-72546900D03*
%TO.N,/CPU_RS232_OUT*%
X94050000Y-43879100D03*
%TO.N,/TERM_RS232_OUT*%
X168790000Y-35789600D03*
X95581300Y-42440300D03*
%TO.N,AUDIO_IN*%
X86395600Y-124784300D03*
%TO.N,/Mod{slash}Demod & power input/MOD_ATTEN*%
X149673800Y-111383800D03*
%TO.N,AUDIO_OUT*%
X146529400Y-153347600D03*
%TO.N,/LED_REC_RDY*%
X95094900Y-67809300D03*
D27*
%TO.N,+7.5V*%
X172774200Y-89740100D03*
%TO.N,-7.5V*%
X177892000Y-115240900D03*
D26*
%TO.N,/CTRL_INVERT*%
X45635800Y-45057900D03*
%TO.N,/Mod{slash}Demod & power input/MOD_FILT*%
X129577100Y-98495200D03*
%TO.N,/Mod{slash}Demod & power input/MOD_F2*%
X137124900Y-66562800D03*
X134100800Y-121196200D03*
%TO.N,DATA_OUT*%
X126585000Y-64210800D03*
%TO.N,/Mod{slash}Demod & power input/DEM_PULSE*%
X178024900Y-78474300D03*
%TO.N,/Mod{slash}Demod & power input/DEM_BIT*%
X158707100Y-88059000D03*
X164893600Y-118709900D03*
%TO.N,/DELAY_RC*%
X46987800Y-51034100D03*
%TO.N,/START_READ*%
X105176000Y-107907300D03*
%TO.N,/DELAY_OUT*%
X105553300Y-57754000D03*
%TO.N,/Mod{slash}Demod & power input/DEM_Q4B*%
X97684100Y-83161200D03*
%TO.N,/TAPE_DATA*%
X100147100Y-62520000D03*
%TO.N,/EAR_B*%
X89320000Y-148014300D03*
%TO.N,/Q10_B*%
X60585100Y-102352600D03*
%TO.N,/TERM_ECHO*%
X155637000Y-101032100D03*
%TO.N,/TERM_TX_SEL*%
X155535000Y-102230300D03*
%TO.N,/CPU_RS232_IN*%
X190542700Y-34904300D03*
%TO.N,/MAN_MOTOR*%
X55030000Y-114526300D03*
%TO.N,/Q8_C*%
X107500000Y-129644300D03*
%TO.N,/Mod{slash}Demod & power input/MOD_EDGE*%
X173229100Y-67127500D03*
%TO.N,/START_RECORD*%
X33448800Y-45997000D03*
%TO.N,/MOTOR_2B*%
X122739200Y-146201500D03*
%TO.N,/MOTOR_2A*%
X119460700Y-127319300D03*
%TO.N,/STOP_READ*%
X60584900Y-44296000D03*
X60584900Y-94728000D03*
%TO.N,/REC_EN*%
X139572300Y-53601400D03*
%TO.N,/READ_RST*%
X67791700Y-82851100D03*
%TO.N,/REC_SET*%
X55077500Y-95555000D03*
%TO.N,/REC_RST*%
X65784400Y-92183900D03*
X55711900Y-93901100D03*
%TO.N,/STOP_RECORD*%
X99596200Y-89333700D03*
X40327000Y-93900000D03*
%TO.N,/Mod{slash}Demod & power input/DEM_LIM*%
X160486900Y-61715800D03*
X156134300Y-116550000D03*
%TO.N,/Mod{slash}Demod & power input/DEM_Q3B*%
X167959300Y-92750000D03*
%TO.N,/Mod{slash}Demod & power input/DEM_CD*%
X156861000Y-110566900D03*
%TO.N,CARRIER_EN_N*%
X113398300Y-66391000D03*
X54251200Y-71820200D03*
%TO.N,/Mod{slash}Demod & power input/DEM_TIMER*%
X167713700Y-124380600D03*
X162575300Y-74211300D03*
%TO.N,DATA_IN*%
X145859300Y-106144300D03*
X149124800Y-49913300D03*
%TO.N,/MOTOR_1B*%
X92499900Y-152118100D03*
%TO.N,/Q7_C*%
X109990000Y-126645100D03*
%TO.N,/Mod{slash}Demod & power input/DEM_DLY*%
X165700000Y-71419400D03*
X164893600Y-112232100D03*
%TO.N,/CPU_RX_N*%
X108936600Y-98230000D03*
X99771700Y-54829200D03*
%TO.N,/TERM_DATA_N*%
X96224400Y-109580600D03*
%TO.N,/REMOTE_N*%
X91923700Y-102040000D03*
%TO.N,/SEL_TERM_CLK*%
X85664300Y-54526100D03*
X85630100Y-67460200D03*
%TO.N,/Mod{slash}Demod & power input/DEM_INV*%
X161671900Y-60602800D03*
%TD*%
%TO.N,GND*%
D28*
X160369600Y-65109600D02*
X159050000Y-63790000D01*
X50828300Y-58710000D02*
X46790000Y-62748300D01*
X94050000Y-65121500D02*
X82381500Y-65121500D01*
X123371600Y-145516500D02*
X123371500Y-145516500D01*
X105718500Y-65121500D02*
X94050000Y-65121500D01*
X147356400Y-67586400D02*
X146050000Y-66280000D01*
X111054200Y-132701700D02*
X112621600Y-132701700D01*
X81050000Y-63790000D02*
X73050000Y-63790000D01*
X65670000Y-56170000D02*
X63130000Y-53630000D01*
X173730400Y-65109600D02*
X160369600Y-65109600D01*
X168500000Y-108900000D02*
X174590000Y-108900000D01*
X128050000Y-63790000D02*
X127569100Y-63309100D01*
X180500000Y-113000000D02*
X175500000Y-113000000D01*
X60590000Y-56170000D02*
X65670000Y-56170000D01*
X175050000Y-63790000D02*
X173730400Y-65109600D01*
X128500000Y-104590000D02*
X133500000Y-104590000D01*
X137320000Y-151200000D02*
X138671700Y-152551700D01*
X156120000Y-147550000D02*
X160650000Y-147550000D01*
X90800000Y-125400000D02*
X95800000Y-125400000D01*
X83920000Y-82630000D02*
X84050000Y-82500000D01*
X107320000Y-118880000D02*
X128250000Y-118880000D01*
X90514000Y-125686000D02*
X90800000Y-125400000D01*
X152470000Y-151200000D02*
X151118300Y-152551700D01*
X52670000Y-87840000D02*
X45050000Y-87840000D01*
X146038300Y-152551700D02*
X147390000Y-151200000D01*
X155253600Y-67586400D02*
X147356400Y-67586400D01*
X122365800Y-147103200D02*
X123112700Y-147103200D01*
X84250000Y-92180000D02*
X85920000Y-93850000D01*
X110805500Y-132950500D02*
X110805500Y-132950400D01*
X134873300Y-83048300D02*
X134873300Y-84300000D01*
X134873300Y-83048300D02*
X128450000Y-83048300D01*
X110805500Y-132950400D02*
X111054200Y-132701700D01*
X46790000Y-64000000D02*
X46790000Y-62748300D01*
X82381500Y-65121500D02*
X81050000Y-63790000D01*
X123738700Y-145883600D02*
X123371600Y-145516500D01*
X151118300Y-152551700D02*
X148741700Y-152551700D01*
X164500000Y-120650000D02*
X162601700Y-122548300D01*
X121837600Y-145828000D02*
X121837500Y-145828100D01*
X121837500Y-146574900D02*
X122365800Y-147103200D01*
X159050000Y-63790000D02*
X155253600Y-67586400D01*
X40551700Y-62748300D02*
X46790000Y-62748300D01*
X100800000Y-125400000D02*
X107320000Y-118880000D01*
X63130000Y-63790000D02*
X58050000Y-63790000D01*
X121837500Y-145828100D02*
X121837500Y-146574900D01*
X148708900Y-83048300D02*
X134873300Y-83048300D01*
X169500000Y-83908800D02*
X169891200Y-84300000D01*
X110036000Y-133953600D02*
X121837600Y-145755200D01*
X76094000Y-125686000D02*
X90514000Y-125686000D01*
X169500000Y-83908800D02*
X149569400Y-83908800D01*
X94050000Y-65121500D02*
X94050000Y-63790000D01*
X93250000Y-92180000D02*
X95253300Y-92180000D01*
X115150900Y-63309100D02*
X114670000Y-63790000D01*
X48026700Y-63790000D02*
X47816700Y-64000000D01*
X85920000Y-93850000D02*
X96923300Y-93850000D01*
X75250000Y-48040000D02*
X70250000Y-48040000D01*
X58050000Y-58710000D02*
X60590000Y-56170000D01*
X65670000Y-61250000D02*
X63130000Y-63790000D01*
X123371500Y-145516500D02*
X110805500Y-132950500D01*
X38650000Y-64650000D02*
X40551700Y-62748300D01*
X107450000Y-131450000D02*
X107450000Y-132701700D01*
X169500000Y-82590000D02*
X169500000Y-83908800D01*
X52670000Y-80220000D02*
X45050000Y-80220000D01*
X162601700Y-122548300D02*
X141198300Y-122548300D01*
X74630000Y-127150000D02*
X76094000Y-125686000D01*
X184188300Y-67038300D02*
X178298300Y-67038300D01*
X121837600Y-145755200D02*
X121837600Y-145828000D01*
X160554900Y-107625100D02*
X167225100Y-107625100D01*
X114670000Y-63790000D02*
X107050000Y-63790000D01*
X45050000Y-85300000D02*
X52670000Y-85300000D01*
X127569100Y-63309100D02*
X115150900Y-63309100D01*
X141198300Y-122548300D02*
X137500000Y-118850000D01*
X63130000Y-53630000D02*
X58050000Y-53630000D01*
X123738700Y-146477200D02*
X123738700Y-145883600D01*
X178298300Y-67038300D02*
X175050000Y-63790000D01*
X114900000Y-131450000D02*
X113873300Y-131450000D01*
X167225100Y-107625100D02*
X168500000Y-108900000D01*
X107450000Y-132701700D02*
X108701900Y-133953600D01*
X145250000Y-90340000D02*
X139710000Y-95880000D01*
X159250000Y-108930000D02*
X160554900Y-107625100D01*
X112621600Y-132701700D02*
X113873300Y-131450000D01*
X107050000Y-63790000D02*
X105718500Y-65121500D01*
X100800000Y-125400000D02*
X95800000Y-125400000D01*
X46790000Y-64000000D02*
X47816700Y-64000000D01*
X185500000Y-68350000D02*
X184188300Y-67038300D01*
X135900000Y-84300000D02*
X134873300Y-84300000D01*
X95253300Y-92180000D02*
X96923300Y-93850000D01*
X75750000Y-82630000D02*
X83920000Y-82630000D01*
X138671700Y-152551700D02*
X146038300Y-152551700D01*
X97950000Y-93850000D02*
X96923300Y-93850000D01*
X123112700Y-147103200D02*
X123738700Y-146477200D01*
X128450000Y-84300000D02*
X128450000Y-83048300D01*
X149569400Y-83908800D02*
X148708900Y-83048300D01*
X108701900Y-133953600D02*
X110036000Y-133953600D01*
X152470000Y-151200000D02*
X156120000Y-147550000D01*
X148741700Y-152551700D02*
X147390000Y-151200000D01*
X73050000Y-63790000D02*
X68500000Y-68340000D01*
X58050000Y-63790000D02*
X48026700Y-63790000D01*
X169891200Y-84300000D02*
X180450000Y-84300000D01*
X139710000Y-95880000D02*
X135670000Y-95880000D01*
X58050000Y-58710000D02*
X50828300Y-58710000D01*
X174590000Y-108900000D02*
X175050000Y-108440000D01*
%TO.N,/Q6_B*%
D29*
X137170000Y-84300000D02*
X137170000Y-85376700D01*
X125841100Y-83451000D02*
X125841100Y-82292400D01*
X127766800Y-85376700D02*
X125841100Y-83451000D01*
X137170000Y-85376700D02*
X127766800Y-85376700D01*
%TO.N,CLOCK_OUT*%
X104268600Y-70394300D02*
X147176700Y-70394300D01*
X96250000Y-69340000D02*
X97431600Y-68158400D01*
X96250000Y-69340000D02*
X95578900Y-68668900D01*
X102032700Y-68158400D02*
X104268600Y-70394300D01*
X85181100Y-68668900D02*
X84050000Y-69800000D01*
X97431600Y-68158400D02*
X102032700Y-68158400D01*
X95578900Y-68668900D02*
X85181100Y-68668900D01*
%TO.N,/CPU_CLK_OUT*%
X82635200Y-73754800D02*
X84050000Y-72340000D01*
X96799400Y-73530600D02*
X85240600Y-73530600D01*
X85240600Y-73530600D02*
X84050000Y-72340000D01*
X101000000Y-69330000D02*
X96799400Y-73530600D01*
X51194500Y-73754800D02*
X82635200Y-73754800D01*
%TO.N,/TERM_CLK_OUT*%
X85463000Y-46448700D02*
X119611800Y-46448700D01*
X128250000Y-38600000D02*
X126343300Y-38600000D01*
X123605600Y-42454900D02*
X126343300Y-42454900D01*
X85187900Y-46723800D02*
X85463000Y-46448700D01*
X119611800Y-46448700D02*
X123605600Y-42454900D01*
X126343300Y-42454900D02*
X126343300Y-38600000D01*
X126343300Y-42454900D02*
X134444800Y-42454900D01*
%TO.N,CLOCK_IN*%
X116256800Y-71703600D02*
X112180400Y-75780000D01*
X112180400Y-75780000D02*
X94601700Y-75780000D01*
X94143500Y-76238200D02*
X85231800Y-76238200D01*
X94601700Y-75780000D02*
X94143500Y-76238200D01*
X85231800Y-76238200D02*
X84050000Y-77420000D01*
%TO.N,/LOCAL_REMOTE*%
X122500000Y-115540000D02*
X122500000Y-113680000D01*
X114670000Y-105850000D02*
X113517500Y-107002500D01*
X98623300Y-38600000D02*
X98623300Y-39717200D01*
X98623300Y-39717200D02*
X96958700Y-41381800D01*
X150639100Y-80480000D02*
X105091000Y-80480000D01*
X63920000Y-151200000D02*
X66356100Y-148763900D01*
X103183500Y-82387500D02*
X91782500Y-82387500D01*
X86224400Y-61208800D02*
X81091200Y-61208800D01*
X91782500Y-82387500D02*
X91670000Y-82500000D01*
X66356100Y-148763900D02*
X120879800Y-148763900D01*
X81091200Y-61208800D02*
X81050000Y-61250000D01*
X105091000Y-80480000D02*
X103183500Y-82387500D01*
X122500000Y-113680000D02*
X114670000Y-105850000D01*
X113517500Y-107002500D02*
X95300200Y-107002500D01*
X96958700Y-41381800D02*
X93245700Y-41381800D01*
X100530000Y-38600000D02*
X98623300Y-38600000D01*
%TO.N,/SEL_CPU_CLK*%
X81050000Y-56170000D02*
X81098400Y-56121600D01*
X81098400Y-56121600D02*
X86981300Y-56121600D01*
%TO.N,/CPU_DATA*%
X91670000Y-79960000D02*
X92360800Y-80650800D01*
X115255200Y-73730800D02*
X148090000Y-73730800D01*
X148090000Y-73730800D02*
X149856700Y-71964100D01*
X98895500Y-80650800D02*
X100463300Y-79083000D01*
X93990900Y-53570900D02*
X90854700Y-53570900D01*
X111716700Y-77269300D02*
X115255200Y-73730800D01*
X106652500Y-77269300D02*
X111716700Y-77269300D01*
X94050000Y-53630000D02*
X93990900Y-53570900D01*
X104838800Y-79083000D02*
X106652500Y-77269300D01*
X100463300Y-79083000D02*
X104838800Y-79083000D01*
X92360800Y-80650800D02*
X98895500Y-80650800D01*
%TO.N,/TERM_DATA*%
X144635200Y-49914800D02*
X146050000Y-48500000D01*
X113507000Y-112093000D02*
X114670000Y-110930000D01*
X94050000Y-61250000D02*
X99908700Y-61250000D01*
X103640300Y-112093000D02*
X113507000Y-112093000D01*
X126223900Y-51113200D02*
X127422300Y-49914800D01*
X121936200Y-51113200D02*
X126223900Y-51113200D01*
X101035400Y-62376700D02*
X121936200Y-62376700D01*
X127422300Y-49914800D02*
X144635200Y-49914800D01*
X99908700Y-61250000D02*
X101035400Y-62376700D01*
X94050000Y-61250000D02*
X90543000Y-61250000D01*
%TO.N,/DATA_SEL*%
X114670000Y-98230000D02*
X113483700Y-99416300D01*
X113483700Y-99416300D02*
X99414000Y-99416300D01*
%TO.N,/CPU_CLK_IN*%
X91670000Y-72340000D02*
X90481600Y-71151600D01*
X80458600Y-72546900D02*
X55431400Y-72546900D01*
X90481600Y-71151600D02*
X81853900Y-71151600D01*
X81853900Y-71151600D02*
X80458600Y-72546900D01*
%TO.N,+5V*%
D28*
X58450000Y-107650000D02*
X57423300Y-107650000D01*
X159500000Y-125650000D02*
X157340400Y-127809600D01*
X76249000Y-47198000D02*
X84387000Y-47198000D01*
X75773200Y-46722200D02*
X76249000Y-47198000D01*
X182670000Y-95740000D02*
X178790700Y-91860700D01*
X89097500Y-47198000D02*
X88670000Y-47625500D01*
X65900000Y-107650000D02*
X62744100Y-107650000D01*
X101670000Y-48550000D02*
X100318000Y-47198000D01*
X96250000Y-79500000D02*
X98800000Y-76950000D01*
X146000000Y-51090000D02*
X146050000Y-51040000D01*
X166670000Y-48550000D02*
X166670000Y-47220200D01*
X102971600Y-128228400D02*
X119971600Y-128228400D01*
X182670000Y-48550000D02*
X181340200Y-47220200D01*
X52500000Y-123850000D02*
X47500000Y-123850000D01*
X84814500Y-47625500D02*
X88670000Y-47625500D01*
X47500000Y-123850000D02*
X42500000Y-123850000D01*
X62744100Y-107650000D02*
X61492400Y-106398300D01*
X65670000Y-48550000D02*
X67497800Y-46722200D01*
X100318000Y-47198000D02*
X89097500Y-47198000D01*
X112500000Y-68340000D02*
X112724500Y-68340000D01*
X135670000Y-51090000D02*
X146000000Y-51090000D01*
X84387000Y-47198000D02*
X84814500Y-47625500D01*
X154949800Y-47220200D02*
X153670000Y-48500000D01*
X37500000Y-123850000D02*
X42500000Y-123850000D01*
X181340200Y-47220200D02*
X166670000Y-47220200D01*
X115937900Y-65126600D02*
X134333400Y-65126600D01*
X100800000Y-130400000D02*
X95800000Y-130400000D01*
X157340400Y-127809600D02*
X124609600Y-127809600D01*
X107050000Y-93150000D02*
X103607400Y-96592600D01*
X63858300Y-46738300D02*
X65670000Y-48550000D01*
X124609600Y-127809600D02*
X122500000Y-125700000D01*
X61492400Y-106398300D02*
X58450000Y-106398300D01*
X58450000Y-107650000D02*
X58450000Y-106398300D01*
X119971600Y-128228400D02*
X122500000Y-125700000D01*
X100800000Y-130400000D02*
X102971600Y-128228400D01*
X148590000Y-48500000D02*
X146050000Y-51040000D01*
X37130000Y-58200000D02*
X47250000Y-58200000D01*
X98800000Y-76950000D02*
X101000000Y-76950000D01*
X49250000Y-103550000D02*
X53323300Y-103550000D01*
X103607400Y-96592600D02*
X91957400Y-96592600D01*
X44431700Y-46738300D02*
X63858300Y-46738300D01*
X172230300Y-91860700D02*
X165771000Y-98320000D01*
X88670000Y-47625500D02*
X88670000Y-48550000D01*
X91957400Y-96592600D02*
X88750000Y-99800000D01*
X166670000Y-47220200D02*
X154949800Y-47220200D01*
X35050000Y-56120000D02*
X37130000Y-58200000D01*
X178790700Y-91860700D02*
X172230300Y-91860700D01*
X67497800Y-46722200D02*
X75773200Y-46722200D01*
X112724500Y-68340000D02*
X115937900Y-65126600D01*
X42670000Y-48500000D02*
X44431700Y-46738300D01*
X90800000Y-130400000D02*
X95800000Y-130400000D01*
X153670000Y-48500000D02*
X148590000Y-48500000D01*
X53323300Y-103550000D02*
X57423300Y-107650000D01*
X165771000Y-98320000D02*
X163050000Y-98320000D01*
X134333400Y-65126600D02*
X135670000Y-63790000D01*
%TO.N,/CPU_RS232_OUT*%
D29*
X70068600Y-43879100D02*
X94050000Y-43879100D01*
X64000000Y-38600000D02*
X65906700Y-38600000D01*
X65906700Y-39717200D02*
X70068600Y-43879100D01*
X65906700Y-38600000D02*
X65906700Y-39717200D01*
%TO.N,/TERM_RS232_OUT*%
X106470000Y-39840900D02*
X106470000Y-37345300D01*
X108025700Y-35789600D02*
X168790000Y-35789600D01*
X95581300Y-42440300D02*
X103870600Y-42440300D01*
X106470000Y-37345300D02*
X108025700Y-35789600D01*
X103870600Y-42440300D02*
X106470000Y-39840900D01*
%TO.N,AUDIO_IN*%
X93879200Y-117300700D02*
X86395600Y-124784300D01*
X133500000Y-114750000D02*
X130949300Y-117300700D01*
X130949300Y-117300700D02*
X93879200Y-117300700D01*
%TO.N,/Mod{slash}Demod & power input/MOD_ATTEN*%
X149673800Y-111383800D02*
X131866200Y-111383800D01*
X131866200Y-111383800D02*
X128500000Y-114750000D01*
%TO.N,AUDIO_OUT*%
X68607600Y-153347600D02*
X66460000Y-151200000D01*
X146529400Y-153347600D02*
X68607600Y-153347600D01*
%TO.N,/LED_REC_RDY*%
X131897400Y-69942600D02*
X104688800Y-69942600D01*
X133500000Y-68340000D02*
X131897400Y-69942600D01*
X102380900Y-67634700D02*
X95269500Y-67634700D01*
X95269500Y-67634700D02*
X95094900Y-67809300D01*
X104688800Y-69942600D02*
X102380900Y-67634700D01*
%TO.N,+7.5V*%
D28*
X172061000Y-89026900D02*
X172774200Y-89740100D01*
X137443100Y-89026900D02*
X172061000Y-89026900D01*
X135670000Y-90800000D02*
X137443100Y-89026900D01*
%TO.N,-7.5V*%
X177892000Y-115240900D02*
X156438000Y-115240900D01*
X143926000Y-102728900D02*
X132358900Y-102728900D01*
X132358900Y-102728900D02*
X128050000Y-98420000D01*
X156438000Y-115240900D02*
X143926000Y-102728900D01*
%TO.N,/READ_SET*%
D29*
X70250000Y-58200000D02*
X68470000Y-59980000D01*
X59320000Y-59980000D02*
X58050000Y-61250000D01*
X68470000Y-59980000D02*
X59320000Y-59980000D01*
%TO.N,/CTRL_INVERT*%
X109122600Y-45057900D02*
X45635800Y-45057900D01*
X114463300Y-39717200D02*
X109122600Y-45057900D01*
X44670000Y-106600000D02*
X42130000Y-104060000D01*
X114463300Y-38600000D02*
X114463300Y-39717200D01*
X116370000Y-38600000D02*
X114463300Y-38600000D01*
X38320000Y-95170000D02*
X37050000Y-96440000D01*
X49250000Y-93390000D02*
X47470000Y-95170000D01*
X44670000Y-98980000D02*
X42130000Y-96440000D01*
X42130000Y-96440000D02*
X37050000Y-96440000D01*
X47470000Y-95170000D02*
X38320000Y-95170000D01*
X42130000Y-104060000D02*
X37050000Y-104060000D01*
%TO.N,/Mod{slash}Demod & power input/MOD_FILT*%
X129577100Y-98495200D02*
X131581900Y-100500000D01*
X149097300Y-101652700D02*
X141402700Y-101652700D01*
X141402700Y-101652700D02*
X140250000Y-100500000D01*
X150250000Y-100500000D02*
X149097300Y-101652700D01*
X131581900Y-100500000D02*
X140250000Y-100500000D01*
%TO.N,/Mod{slash}Demod & power input/MOD_F2*%
X137500000Y-123850000D02*
X134846200Y-121196200D01*
X122500000Y-68340000D02*
X124277200Y-66562800D01*
X124277200Y-66562800D02*
X137124900Y-66562800D01*
X134846200Y-121196200D02*
X134100800Y-121196200D01*
%TO.N,/Mod{slash}Demod & power input/DEM_IN*%
X143500000Y-114750000D02*
X141046200Y-117203800D01*
X134426200Y-117203800D02*
X132750000Y-118880000D01*
X141046200Y-117203800D02*
X134426200Y-117203800D01*
X128250000Y-123380000D02*
X132750000Y-118880000D01*
X128250000Y-126500000D02*
X128250000Y-123380000D01*
%TO.N,DATA_OUT*%
X108405200Y-64916700D02*
X115136800Y-64916700D01*
X45050000Y-72600000D02*
X46995200Y-70654800D01*
X46995200Y-70654800D02*
X67778700Y-70654800D01*
X107216800Y-66105100D02*
X108405200Y-64916700D01*
X72328400Y-66105100D02*
X107216800Y-66105100D01*
X115842700Y-64210800D02*
X126585000Y-64210800D01*
X115136800Y-64916700D02*
X115842700Y-64210800D01*
X67778700Y-70654800D02*
X72328400Y-66105100D01*
%TO.N,/Mod{slash}Demod & power input/DEM_PULSE*%
X178024900Y-78474300D02*
X176843300Y-79655900D01*
X176843300Y-79655900D02*
X165655900Y-79655900D01*
X79005700Y-76509100D02*
X46220900Y-76509100D01*
X163246700Y-79753300D02*
X100652800Y-79753300D01*
X164500000Y-78500000D02*
X163246700Y-79753300D01*
X99278000Y-81128100D02*
X83624700Y-81128100D01*
X46220900Y-76509100D02*
X45050000Y-77680000D01*
X165655900Y-79655900D02*
X164500000Y-78500000D01*
X183180000Y-58200000D02*
X182670000Y-58710000D01*
X100652800Y-79753300D02*
X99278000Y-81128100D01*
X83624700Y-81128100D02*
X79005700Y-76509100D01*
X187250000Y-58200000D02*
X183180000Y-58200000D01*
%TO.N,/Mod{slash}Demod & power input/DEM_BIT*%
X46176800Y-83886800D02*
X97381800Y-83886800D01*
X129749500Y-88059000D02*
X158707100Y-88059000D01*
X169500000Y-125650000D02*
X169500000Y-123316300D01*
X97381800Y-83886800D02*
X97409800Y-83914800D01*
X45050000Y-82760000D02*
X46176800Y-83886800D01*
X124051700Y-82361200D02*
X129749500Y-88059000D01*
X169500000Y-123316300D02*
X164893600Y-118709900D01*
X105984100Y-81457700D02*
X113952600Y-81457700D01*
X113952600Y-81457700D02*
X114856100Y-82361200D01*
X97409800Y-83914800D02*
X103527000Y-83914800D01*
X103527000Y-83914800D02*
X105984100Y-81457700D01*
X114856100Y-82361200D02*
X124051700Y-82361200D01*
%TO.N,/IC10_CV*%
X52250000Y-53050000D02*
X49180000Y-56120000D01*
X49180000Y-56120000D02*
X42670000Y-56120000D01*
%TO.N,/DELAY_RC*%
X36150000Y-64650000D02*
X37280600Y-65780600D01*
X37280600Y-65780600D02*
X41617700Y-65780600D01*
X46987800Y-51034100D02*
X42675900Y-51034100D01*
X44250000Y-64000000D02*
X43398300Y-64000000D01*
X41617700Y-65780600D02*
X43398300Y-64000000D01*
X42675900Y-51034100D02*
X42670000Y-51040000D01*
%TO.N,/START_READ*%
X71198800Y-109140000D02*
X44670000Y-109140000D01*
X42500000Y-113690000D02*
X42500000Y-111310000D01*
X105176000Y-107907300D02*
X72431500Y-107907300D01*
X72431500Y-107907300D02*
X71198800Y-109140000D01*
X42500000Y-111310000D02*
X44670000Y-109140000D01*
%TO.N,/DELAY_OUT*%
X33878500Y-64310500D02*
X35800600Y-66232600D01*
X33878500Y-54751500D02*
X33878500Y-64310500D01*
X80583300Y-57583300D02*
X105382600Y-57583300D01*
X75319800Y-59721500D02*
X78445100Y-59721500D01*
X105738300Y-57569000D02*
X105553300Y-57754000D01*
X68808700Y-66232600D02*
X75319800Y-59721500D01*
X35800600Y-66232600D02*
X68808700Y-66232600D01*
X35050000Y-53580000D02*
X33878500Y-54751500D01*
X119250000Y-58200000D02*
X118619000Y-57569000D01*
X78445100Y-59721500D02*
X80583300Y-57583300D01*
X118619000Y-57569000D02*
X105738300Y-57569000D01*
X105382600Y-57583300D02*
X105553300Y-57754000D01*
%TO.N,/Mod{slash}Demod & power input/DEM_Q4B*%
X175500000Y-82600000D02*
X174357700Y-81457700D01*
X114827100Y-81457700D02*
X114375400Y-81006000D01*
X114375400Y-81006000D02*
X105203900Y-81006000D01*
X174357700Y-81457700D02*
X114827100Y-81457700D01*
X105203900Y-81006000D02*
X103048700Y-83161200D01*
X103048700Y-83161200D02*
X97684100Y-83161200D01*
%TO.N,/Mod{slash}Demod & power input/DEM_Q2C*%
X180510000Y-73350000D02*
X185500000Y-73350000D01*
X175500000Y-68340000D02*
X180510000Y-73350000D01*
%TO.N,/TAPE_DATA*%
X88670000Y-61250000D02*
X89940000Y-62520000D01*
X89940000Y-62520000D02*
X100147100Y-62520000D01*
%TO.N,/EAR_A*%
X142044900Y-149571600D02*
X88408400Y-149571600D01*
X143673300Y-151200000D02*
X142044900Y-149571600D01*
X144850000Y-151200000D02*
X143673300Y-151200000D01*
X88408400Y-149571600D02*
X86780000Y-151200000D01*
%TO.N,/EAR_B*%
X146744300Y-148014300D02*
X89320000Y-148014300D01*
X149930000Y-151200000D02*
X146744300Y-148014300D01*
%TO.N,/Q10_B*%
X64805800Y-106573300D02*
X60585100Y-102352600D01*
X67170000Y-107650000D02*
X67170000Y-106573300D01*
X67170000Y-106573300D02*
X64805800Y-106573300D01*
%TO.N,/TERM_ECHO*%
X181536700Y-104766700D02*
X156960400Y-104766700D01*
X156960400Y-104766700D02*
X154784300Y-102590600D01*
X182670000Y-105900000D02*
X181536700Y-104766700D01*
X154784300Y-102590600D02*
X154784300Y-101884800D01*
X154784300Y-101884800D02*
X155637000Y-101032100D01*
%TO.N,/TERM_TX_SEL*%
X182670000Y-103360000D02*
X181540300Y-102230300D01*
X181540300Y-102230300D02*
X155535000Y-102230300D01*
%TO.N,/CPU_RS232_IN*%
X64525200Y-34904300D02*
X190542700Y-34904300D01*
X61946700Y-38600000D02*
X61946700Y-37482800D01*
X60040000Y-38600000D02*
X61946700Y-38600000D01*
X61946700Y-37482800D02*
X64525200Y-34904300D01*
%TO.N,/CPU_RX*%
X148442900Y-97099400D02*
X108459400Y-97099400D01*
X108459400Y-97099400D02*
X107050000Y-95690000D01*
X150774700Y-99431200D02*
X148442900Y-97099400D01*
X181518800Y-99431200D02*
X150774700Y-99431200D01*
X182670000Y-98280000D02*
X181518800Y-99431200D01*
%TO.N,/MIC_A*%
X70650800Y-152850800D02*
X69000000Y-151200000D01*
X129700000Y-151200000D02*
X128523300Y-151200000D01*
X128523300Y-151200000D02*
X126872500Y-152850800D01*
X126872500Y-152850800D02*
X70650800Y-152850800D01*
%TO.N,/MIC_B*%
X88832600Y-150023300D02*
X88143300Y-150712600D01*
X133603300Y-150023300D02*
X88832600Y-150023300D01*
X88143300Y-150712600D02*
X88143300Y-151504300D01*
X134780000Y-151200000D02*
X133603300Y-150023300D01*
X88143300Y-151504300D02*
X87255300Y-152392300D01*
X87255300Y-152392300D02*
X72732300Y-152392300D01*
X72732300Y-152392300D02*
X71540000Y-151200000D01*
%TO.N,/RELAY_1*%
X86831800Y-117328200D02*
X72221800Y-117328200D01*
X72221800Y-117328200D02*
X68250000Y-121300000D01*
X88710000Y-115450000D02*
X86831800Y-117328200D01*
%TO.N,/MAN_MOTOR*%
X67403700Y-114526300D02*
X55030000Y-114526300D01*
X68250000Y-113680000D02*
X67403700Y-114526300D01*
X72750000Y-113680000D02*
X68250000Y-113680000D01*
%TO.N,/Mod{slash}Demod & power input/DEM_EDGE*%
X181400000Y-59980000D02*
X182670000Y-61250000D01*
X166670000Y-56170000D02*
X170480000Y-59980000D01*
X170480000Y-59980000D02*
X181400000Y-59980000D01*
%TO.N,/Q8_C*%
X117440000Y-130373300D02*
X116711000Y-129644300D01*
X117440000Y-131450000D02*
X117440000Y-130373300D01*
X116711000Y-129644300D02*
X107500000Y-129644300D01*
%TO.N,/Mod{slash}Demod & power input/MOD_CLK2*%
X112130000Y-53630000D02*
X107050000Y-53630000D01*
X114670000Y-51090000D02*
X112130000Y-53630000D01*
%TO.N,/Mod{slash}Demod & power input/MOD_EDGE*%
X159119100Y-67127500D02*
X173229100Y-67127500D01*
X112500000Y-78500000D02*
X116794900Y-74205100D01*
X152041600Y-74205100D02*
X152041600Y-74205000D01*
X152041600Y-74205000D02*
X159119100Y-67127500D01*
X116794900Y-74205100D02*
X152041600Y-74205100D01*
%TO.N,/START_RECORD*%
X122383300Y-39717200D02*
X116103500Y-45997000D01*
X116103500Y-45997000D02*
X33448800Y-45997000D01*
X124290000Y-38600000D02*
X122383300Y-38600000D01*
X122383300Y-38600000D02*
X122383300Y-39717200D01*
%TO.N,/MOTOR_2B*%
X123053600Y-146201500D02*
X122739200Y-146201500D01*
X110342900Y-130373300D02*
X110841700Y-130872100D01*
X105624700Y-131538200D02*
X106789600Y-130373300D01*
X110295500Y-133326900D02*
X110295600Y-133326900D01*
X69550000Y-127150000D02*
X70576700Y-127150000D01*
X110342900Y-132526700D02*
X110263400Y-132526700D01*
X110134600Y-133166000D02*
X110295500Y-133326900D01*
X110263400Y-132526700D02*
X110134600Y-132655500D01*
X74964900Y-131538200D02*
X105624700Y-131538200D01*
X110134600Y-132655500D02*
X110134600Y-133166000D01*
X110295600Y-133326900D02*
X123060200Y-146091500D01*
X70576700Y-127150000D02*
X74964900Y-131538200D01*
X123060200Y-146194900D02*
X123053600Y-146201500D01*
X110841700Y-132027900D02*
X110342900Y-132526700D01*
X106789600Y-130373300D02*
X110342900Y-130373300D01*
X110841700Y-130872100D02*
X110841700Y-132027900D01*
X123060200Y-146091500D02*
X123060200Y-146194900D01*
%TO.N,/MOTOR_2A*%
X119404200Y-127375800D02*
X119460700Y-127319300D01*
X85015800Y-127375800D02*
X119404200Y-127375800D01*
X84790000Y-127150000D02*
X85015800Y-127375800D01*
%TO.N,/POR*%
X63500000Y-68340000D02*
X58500000Y-68340000D01*
X73200000Y-90250000D02*
X69750000Y-86800000D01*
X75750000Y-90250000D02*
X73200000Y-90250000D01*
%TO.N,/STOP_READ*%
X51962600Y-94728000D02*
X60584900Y-94728000D01*
X60895100Y-44606200D02*
X60584900Y-44296000D01*
X105614300Y-44606200D02*
X60895100Y-44606200D01*
X50250600Y-96440000D02*
X51962600Y-94728000D01*
X110503300Y-38600000D02*
X110503300Y-39717200D01*
X110503300Y-39717200D02*
X105614300Y-44606200D01*
X112410000Y-38600000D02*
X110503300Y-38600000D01*
X44670000Y-96440000D02*
X50250600Y-96440000D01*
%TO.N,/REC_EN*%
X100736600Y-54766400D02*
X98330200Y-52360000D01*
X63896300Y-49901600D02*
X65084700Y-51090000D01*
X135698600Y-53601400D02*
X135670000Y-53630000D01*
X108915200Y-54304800D02*
X108453600Y-54766400D01*
X98330200Y-52360000D02*
X66940000Y-52360000D01*
X139572300Y-53601400D02*
X135698600Y-53601400D01*
X113990800Y-52483900D02*
X112169900Y-54304800D01*
X108453600Y-54766400D02*
X100736600Y-54766400D01*
X65084700Y-51090000D02*
X65670000Y-51090000D01*
X36188400Y-49901600D02*
X63896300Y-49901600D01*
X66940000Y-52360000D02*
X65670000Y-51090000D01*
X112169900Y-54304800D02*
X108915200Y-54304800D01*
X128803300Y-52483900D02*
X113990800Y-52483900D01*
X35050000Y-51040000D02*
X36188400Y-49901600D01*
X129949400Y-53630000D02*
X128803300Y-52483900D01*
X135670000Y-53630000D02*
X129949400Y-53630000D01*
%TO.N,/READ_EN*%
X128050000Y-48550000D02*
X126857500Y-49742500D01*
X64640700Y-49742500D02*
X63448200Y-48550000D01*
X63448200Y-48550000D02*
X58050000Y-48550000D01*
X126857500Y-49742500D02*
X64640700Y-49742500D01*
%TO.N,/READ_RST*%
X58500000Y-78500000D02*
X62851100Y-82851100D01*
X62851100Y-82851100D02*
X67791700Y-82851100D01*
%TO.N,/REC_SET*%
X55077500Y-95555000D02*
X62205000Y-95555000D01*
X75250000Y-58200000D02*
X69660000Y-63790000D01*
X69660000Y-63790000D02*
X65670000Y-63790000D01*
X62205000Y-95555000D02*
X63500000Y-96850000D01*
%TO.N,/REC_RST*%
X73500000Y-96850000D02*
X68833900Y-92183900D01*
X68833900Y-92183900D02*
X65784400Y-92183900D01*
X64067200Y-93901100D02*
X55711900Y-93901100D01*
X65784400Y-92183900D02*
X64067200Y-93901100D01*
%TO.N,/STOP_RECORD*%
X40327000Y-93900000D02*
X42833800Y-91393200D01*
X79849100Y-89333700D02*
X99596200Y-89333700D01*
X42833800Y-91393200D02*
X77789600Y-91393200D01*
X77789600Y-91393200D02*
X79849100Y-89333700D01*
X37050000Y-93900000D02*
X40327000Y-93900000D01*
%TO.N,/STOP_REC_P*%
X56908900Y-100113400D02*
X38183400Y-100113400D01*
X71446700Y-99796700D02*
X57225600Y-99796700D01*
X73500000Y-101850000D02*
X71446700Y-99796700D01*
X38183400Y-100113400D02*
X37050000Y-98980000D01*
X57225600Y-99796700D02*
X56908900Y-100113400D01*
%TO.N,/START_REC_P*%
X57825000Y-100700100D02*
X56900200Y-101624900D01*
X46390400Y-101624900D02*
X45366400Y-102648900D01*
X62350100Y-100700100D02*
X57825000Y-100700100D01*
X63500000Y-101850000D02*
X62350100Y-100700100D01*
X56900200Y-101624900D02*
X46390400Y-101624900D01*
X45366400Y-102648900D02*
X38178900Y-102648900D01*
X38178900Y-102648900D02*
X37050000Y-101520000D01*
%TO.N,/START_READ_P*%
X46428400Y-102301600D02*
X58048400Y-102301600D01*
X58048400Y-102301600D02*
X58500000Y-101850000D01*
X44670000Y-104060000D02*
X46428400Y-102301600D01*
%TO.N,/STOP_READ_P*%
X56962500Y-100698600D02*
X45491400Y-100698600D01*
X45491400Y-100698600D02*
X44670000Y-101520000D01*
X68500000Y-101850000D02*
X66898400Y-100248400D01*
X57412700Y-100248400D02*
X56962500Y-100698600D01*
X66898400Y-100248400D02*
X57412700Y-100248400D01*
%TO.N,/Mod{slash}Demod & power input/DEM_LIM*%
X160486900Y-61715800D02*
X166204200Y-61715800D01*
X159250000Y-116550000D02*
X156134300Y-116550000D01*
X166204200Y-61715800D02*
X166670000Y-61250000D01*
%TO.N,/Mod{slash}Demod & power input/DEM_Q3B*%
X164500000Y-92750000D02*
X167959300Y-92750000D01*
%TO.N,/Mod{slash}Demod & power input/DEM_CD*%
X156861000Y-110566900D02*
X162113100Y-110566900D01*
X162113100Y-110566900D02*
X163750000Y-108930000D01*
%TO.N,CARRIER_DETECT*%
X159050000Y-53630000D02*
X157698300Y-52278300D01*
X129238300Y-52278300D02*
X128050000Y-51090000D01*
X157698300Y-52278300D02*
X129238300Y-52278300D01*
%TO.N,CARRIER_EN_N*%
X79209800Y-71820200D02*
X54251200Y-71820200D01*
X123190200Y-44099800D02*
X133840700Y-44099800D01*
X140130000Y-38600000D02*
X138223300Y-38600000D01*
X113398300Y-66391000D02*
X113232500Y-66556800D01*
X133840700Y-44099800D02*
X138223300Y-39717200D01*
X119250000Y-48040000D02*
X123190200Y-44099800D01*
X84473200Y-66556800D02*
X79209800Y-71820200D01*
X138223300Y-39717200D02*
X138223300Y-38600000D01*
X113232500Y-66556800D02*
X84473200Y-66556800D01*
%TO.N,/Mod{slash}Demod & power input/DEM_TIMER*%
X164500000Y-125650000D02*
X166444300Y-125650000D01*
X166444300Y-125650000D02*
X167713700Y-124380600D01*
X169500000Y-78500000D02*
X165211300Y-74211300D01*
X165211300Y-74211300D02*
X162575300Y-74211300D01*
X161990000Y-128160000D02*
X161990000Y-131400000D01*
X164500000Y-125650000D02*
X161990000Y-128160000D01*
%TO.N,/Mod{slash}Demod & power input/MOD_FB*%
X138628100Y-91961900D02*
X140250000Y-90340000D01*
X121861900Y-91961900D02*
X138628100Y-91961900D01*
X112500000Y-82600000D02*
X121861900Y-91961900D01*
%TO.N,DATA_IN*%
X119250000Y-102850000D02*
X117520000Y-104580000D01*
X119250000Y-102850000D02*
X122544300Y-106144300D01*
X108320000Y-104580000D02*
X107050000Y-105850000D01*
X173686700Y-49913300D02*
X149124800Y-49913300D01*
X117520000Y-104580000D02*
X108320000Y-104580000D01*
X175050000Y-48550000D02*
X173686700Y-49913300D01*
X122544300Y-106144300D02*
X145859300Y-106144300D01*
%TO.N,/MOTOR_1B*%
X92758500Y-152376700D02*
X115913300Y-152376700D01*
X92499900Y-152118100D02*
X92758500Y-152376700D01*
X115913300Y-152376700D02*
X117090000Y-151200000D01*
%TO.N,/Mod{slash}Demod & power input/MOD_RST*%
X173779900Y-54900100D02*
X175050000Y-53630000D01*
X108684700Y-56170000D02*
X109954600Y-54900100D01*
X109954600Y-54900100D02*
X173779900Y-54900100D01*
X107050000Y-56170000D02*
X108684700Y-56170000D01*
%TO.N,/Q7_C*%
X116331400Y-126868600D02*
X110213500Y-126868600D01*
X117500000Y-125700000D02*
X116331400Y-126868600D01*
X110213500Y-126868600D02*
X109990000Y-126645100D01*
%TO.N,/Mod{slash}Demod & power input/DEM_DLY*%
X159500000Y-68340000D02*
X162579400Y-71419400D01*
X162579400Y-71419400D02*
X165700000Y-71419400D01*
X168500000Y-113900000D02*
X166561500Y-113900000D01*
X166561500Y-113900000D02*
X164893600Y-112232100D01*
%TO.N,/CPU_RX_N*%
X90010800Y-54829200D02*
X88670000Y-56170000D01*
X107050000Y-98230000D02*
X108936600Y-98230000D01*
X99771700Y-54829200D02*
X90010800Y-54829200D01*
%TO.N,/TAPE_DATA_N*%
X128050000Y-61250000D02*
X129224900Y-62424900D01*
X129224900Y-62424900D02*
X147365100Y-62424900D01*
X147365100Y-62424900D02*
X153670000Y-56120000D01*
%TO.N,/TERM_DATA_N*%
X113479400Y-109580600D02*
X96224400Y-109580600D01*
X114670000Y-108390000D02*
X113479400Y-109580600D01*
%TO.N,/REMOTE_N*%
X113400000Y-102040000D02*
X114670000Y-103310000D01*
X91923700Y-102040000D02*
X113400000Y-102040000D01*
%TO.N,/SEL_TERM_CLK*%
X152503400Y-65113400D02*
X135937900Y-65113400D01*
X81946100Y-54526100D02*
X85664300Y-54526100D01*
X113394800Y-69478800D02*
X106083500Y-69478800D01*
X117036000Y-65837600D02*
X113394800Y-69478800D01*
X135937900Y-65113400D02*
X135213700Y-65837600D01*
X103687300Y-67082600D02*
X86007700Y-67082600D01*
X106083500Y-69478800D02*
X103687300Y-67082600D01*
X135213700Y-65837600D02*
X117036000Y-65837600D01*
X153670000Y-66280000D02*
X152503400Y-65113400D01*
X81050000Y-53630000D02*
X81946100Y-54526100D01*
X86007700Y-67082600D02*
X85630100Y-67460200D01*
%TO.N,/READ_ACTIVE_N*%
X134333100Y-59913100D02*
X82253100Y-59913100D01*
X135670000Y-61250000D02*
X134333100Y-59913100D01*
X82253100Y-59913100D02*
X81050000Y-58710000D01*
%TO.N,/Mod{slash}Demod & power input/DEM_INV*%
X164777200Y-60602800D02*
X161671900Y-60602800D01*
X166670000Y-58710000D02*
X164777200Y-60602800D01*
%TD*%
M02*
