%TF.GenerationSoftware,KiCad,Pcbnew,10.0.7*%
%TF.CreationDate,2026-10-10T04:56:38-04:00*%
%TF.ProjectId,AC30,41433330-2e6b-4696-9361-645f70636258,A*%
%TF.SameCoordinates,Original*%
%TF.FileFunction,Soldermask,Top*%
%TF.FilePolarity,Negative*%
%FSLAX46Y46*%
G04 Gerber Fmt 4.6, Leading zero omitted, Abs format (unit mm)*
G04 Created by KiCad (PCBNEW 10.0.7) date 2026-10-10 04:56:38*
%MOMM*%
%LPD*%
G01*
G04 APERTURE LIST*
G04 Aperture macros list*
%AMRoundRect*
0 Rectangle with rounded corners*
0 $1 Rounding radius*
0 $2 $3 $4 $5 $6 $7 $8 $9 X,Y pos of 4 corners*
0 Add a 4 corners polygon primitive as box body*
4,1,4,$2,$3,$4,$5,$6,$7,$8,$9,$2,$3,0*
0 Add four circle primitives for the rounded corners*
1,1,$1+$1,$2,$3*
1,1,$1+$1,$4,$5*
1,1,$1+$1,$6,$7*
1,1,$1+$1,$8,$9*
0 Add four rect primitives between the rounded corners*
20,1,$1+$1,$2,$3,$4,$5,0*
20,1,$1+$1,$4,$5,$6,$7,0*
20,1,$1+$1,$6,$7,$8,$9,0*
20,1,$1+$1,$8,$9,$2,$3,0*%
G04 Aperture macros list end*
%ADD10R,1.050000X1.500000*%
%ADD11O,1.050000X1.500000*%
%ADD12RoundRect,0.250000X-0.550000X-0.550000X0.550000X-0.550000X0.550000X0.550000X-0.550000X0.550000X0*%
%ADD13C,1.600000*%
%ADD14R,1.700000X1.700000*%
%ADD15C,1.700000*%
%ADD16RoundRect,0.250000X-1.330000X-1.800000X1.330000X-1.800000X1.330000X1.800000X-1.330000X1.800000X0*%
%ADD17O,3.160000X4.100000*%
%ADD18R,1.800000X1.800000*%
%ADD19C,1.800000*%
%ADD20C,1.440000*%
%ADD21RoundRect,0.250000X0.550000X-0.550000X0.550000X0.550000X-0.550000X0.550000X-0.550000X-0.550000X0*%
%ADD22R,1.400000X1.400000*%
%ADD23C,1.400000*%
%ADD24RoundRect,0.250000X-0.750000X-0.750000X0.750000X-0.750000X0.750000X0.750000X-0.750000X0.750000X0*%
%ADD25C,2.000000*%
%ADD26C,3.200000*%
G04 APERTURE END LIST*
D10*
%TO.C,Q6*%
X163900000Y-84300000D03*
D11*
X165170000Y-84300000D03*
X166440000Y-84300000D03*
%TD*%
D12*
%TO.C,IC6*%
X133050000Y-48500000D03*
D13*
X133050000Y-51040000D03*
X133050000Y-53580000D03*
X133050000Y-56120000D03*
X133050000Y-58660000D03*
X133050000Y-61200000D03*
X133050000Y-63740000D03*
X133050000Y-66280000D03*
X140670000Y-66280000D03*
X140670000Y-63740000D03*
X140670000Y-61200000D03*
X140670000Y-58660000D03*
X140670000Y-56120000D03*
X140670000Y-53580000D03*
X140670000Y-51040000D03*
X140670000Y-48500000D03*
%TD*%
D12*
%TO.C,IC12*%
X59050000Y-48550000D03*
D13*
X59050000Y-51090000D03*
X59050000Y-53630000D03*
X59050000Y-56170000D03*
X59050000Y-58710000D03*
X59050000Y-61250000D03*
X59050000Y-63790000D03*
X66670000Y-63790000D03*
X66670000Y-61250000D03*
X66670000Y-58710000D03*
X66670000Y-56170000D03*
X66670000Y-53630000D03*
X66670000Y-51090000D03*
X66670000Y-48550000D03*
%TD*%
%TO.C,R31*%
X166500000Y-78500000D03*
X166500000Y-68340000D03*
%TD*%
%TO.C,R8*%
X177500000Y-117600000D03*
X177500000Y-107440000D03*
%TD*%
D12*
%TO.C,C4*%
X192150000Y-124050000D03*
D13*
X194650000Y-124050000D03*
%TD*%
D14*
%TO.C,J2*%
X96850000Y-151200000D03*
D15*
X99390000Y-151200000D03*
X101930000Y-151200000D03*
X104470000Y-151200000D03*
X107010000Y-151200000D03*
%TD*%
D16*
%TO.C,J12*%
X160650000Y-147550000D03*
D17*
X164610000Y-147550000D03*
X168570000Y-147550000D03*
X172530000Y-147550000D03*
X176490000Y-147550000D03*
X180450000Y-147550000D03*
%TD*%
D13*
%TO.C,R23*%
X48250000Y-58200000D03*
X48250000Y-48040000D03*
%TD*%
%TO.C,R42*%
X124250000Y-58200000D03*
X124250000Y-48040000D03*
%TD*%
D12*
%TO.C,IC4*%
X172050000Y-93650000D03*
D13*
X172050000Y-96190000D03*
X172050000Y-98730000D03*
X172050000Y-101270000D03*
X179670000Y-101270000D03*
X179670000Y-98730000D03*
X179670000Y-96190000D03*
X179670000Y-93650000D03*
%TD*%
%TO.C,R10*%
X187500000Y-117600000D03*
X187500000Y-107440000D03*
%TD*%
%TO.C,R22*%
X145250000Y-58200000D03*
X145250000Y-48040000D03*
%TD*%
D12*
%TO.C,IC1*%
X62050000Y-69850000D03*
D13*
X62050000Y-72390000D03*
X62050000Y-74930000D03*
X62050000Y-77470000D03*
X62050000Y-80010000D03*
X62050000Y-82550000D03*
X62050000Y-85090000D03*
X69670000Y-85090000D03*
X69670000Y-82550000D03*
X69670000Y-80010000D03*
X69670000Y-77470000D03*
X69670000Y-74930000D03*
X69670000Y-72390000D03*
X69670000Y-69850000D03*
%TD*%
%TO.C,R3*%
X166500000Y-120800000D03*
X166500000Y-110640000D03*
%TD*%
D18*
%TO.C,D18*%
X161950000Y-127050000D03*
D19*
X164490000Y-127050000D03*
%TD*%
D13*
%TO.C,C18*%
X145250000Y-110450000D03*
X145250000Y-105450000D03*
%TD*%
%TO.C,R2*%
X161500000Y-120800000D03*
X161500000Y-110640000D03*
%TD*%
%TO.C,C2*%
X181500000Y-126700000D03*
X181500000Y-121700000D03*
%TD*%
D12*
%TO.C,C17*%
X129150000Y-122050000D03*
D13*
X131650000Y-122050000D03*
%TD*%
%TO.C,R45*%
X117500000Y-78500000D03*
X117500000Y-68340000D03*
%TD*%
%TO.C,C24*%
X139800000Y-100300000D03*
X139800000Y-95300000D03*
%TD*%
%TO.C,R43*%
X151500000Y-120800000D03*
X151500000Y-110640000D03*
%TD*%
D20*
%TO.C,R16*%
X79050000Y-103400000D03*
X81590000Y-100860000D03*
X79050000Y-98320000D03*
%TD*%
D10*
%TO.C,Q4*%
X146950000Y-72550000D03*
D11*
X148220000Y-72550000D03*
X149490000Y-72550000D03*
%TD*%
D10*
%TO.C,Q2*%
X96450000Y-129150000D03*
D11*
X97720000Y-129150000D03*
X98990000Y-129150000D03*
%TD*%
D21*
%TO.C,D10*%
X137750000Y-78500000D03*
D13*
X137750000Y-70880000D03*
%TD*%
%TO.C,C23*%
X134800000Y-100300000D03*
X134800000Y-95300000D03*
%TD*%
%TO.C,R36*%
X96500000Y-81050000D03*
X96500000Y-70890000D03*
%TD*%
D14*
%TO.C,J15*%
X144850000Y-151200000D03*
D15*
X147390000Y-151200000D03*
X149930000Y-151200000D03*
X152470000Y-151200000D03*
%TD*%
D13*
%TO.C,R33*%
X36500000Y-92750000D03*
X36500000Y-82590000D03*
%TD*%
D21*
%TO.C,D2*%
X176750000Y-129350000D03*
D13*
X176750000Y-121730000D03*
%TD*%
%TO.C,R41*%
X106500000Y-81050000D03*
X106500000Y-70890000D03*
%TD*%
%TO.C,C10*%
X85500000Y-125650000D03*
X85500000Y-120650000D03*
%TD*%
D12*
%TO.C,IC15*%
X187050000Y-48550000D03*
D13*
X187050000Y-51090000D03*
X187050000Y-53630000D03*
X187050000Y-56170000D03*
X187050000Y-58710000D03*
X187050000Y-61250000D03*
X187050000Y-63790000D03*
X194670000Y-63790000D03*
X194670000Y-61250000D03*
X194670000Y-58710000D03*
X194670000Y-56170000D03*
X194670000Y-53630000D03*
X194670000Y-51090000D03*
X194670000Y-48550000D03*
%TD*%
D14*
%TO.C,J14*%
X129700000Y-151200000D03*
D15*
X132240000Y-151200000D03*
X134780000Y-151200000D03*
X137320000Y-151200000D03*
%TD*%
D13*
%TO.C,R13*%
X80500000Y-78500000D03*
X80500000Y-68340000D03*
%TD*%
%TO.C,C11*%
X91500000Y-132450000D03*
X91500000Y-127450000D03*
%TD*%
D21*
%TO.C,D6*%
X112250000Y-91200000D03*
D13*
X112250000Y-83580000D03*
%TD*%
%TO.C,R21*%
X96500000Y-123350000D03*
X96500000Y-113190000D03*
%TD*%
%TO.C,R17*%
X75500000Y-92750000D03*
X75500000Y-82590000D03*
%TD*%
%TO.C,R35*%
X91500000Y-81050000D03*
X91500000Y-70890000D03*
%TD*%
D21*
%TO.C,D7*%
X116750000Y-91200000D03*
D13*
X116750000Y-83580000D03*
%TD*%
%TO.C,C1*%
X151500000Y-129900000D03*
X151500000Y-124900000D03*
%TD*%
%TO.C,R44*%
X112500000Y-78500000D03*
X112500000Y-68340000D03*
%TD*%
%TO.C,C9*%
X101500000Y-118200000D03*
X101500000Y-113200000D03*
%TD*%
D22*
%TO.C,RLY2*%
X113550000Y-97050000D03*
D23*
X118630000Y-97050000D03*
X123710000Y-97050000D03*
X128790000Y-97050000D03*
%TD*%
D13*
%TO.C,R27*%
X46500000Y-78500000D03*
X46500000Y-68340000D03*
%TD*%
%TO.C,R47*%
X127500000Y-78500000D03*
X127500000Y-68340000D03*
%TD*%
D12*
%TO.C,IC10*%
X128050000Y-105900000D03*
D13*
X128050000Y-108440000D03*
X128050000Y-110980000D03*
X128050000Y-113520000D03*
X135670000Y-113520000D03*
X135670000Y-110980000D03*
X135670000Y-108440000D03*
X135670000Y-105900000D03*
%TD*%
D12*
%TO.C,IC8*%
X36050000Y-48550000D03*
D13*
X36050000Y-51090000D03*
X36050000Y-53630000D03*
X36050000Y-56170000D03*
X36050000Y-58710000D03*
X36050000Y-61250000D03*
X36050000Y-63790000D03*
X43670000Y-63790000D03*
X43670000Y-61250000D03*
X43670000Y-58710000D03*
X43670000Y-56170000D03*
X43670000Y-53630000D03*
X43670000Y-51090000D03*
X43670000Y-48550000D03*
%TD*%
D16*
%TO.C,J3*%
X44200000Y-38600000D03*
D17*
X48160000Y-38600000D03*
X52120000Y-38600000D03*
X56080000Y-38600000D03*
X60040000Y-38600000D03*
X64000000Y-38600000D03*
X67960000Y-38600000D03*
X71920000Y-38600000D03*
X75880000Y-38600000D03*
X79840000Y-38600000D03*
%TD*%
D13*
%TO.C,R9*%
X182500000Y-117600000D03*
X182500000Y-107440000D03*
%TD*%
D12*
%TO.C,IC13*%
X112050000Y-48550000D03*
D13*
X112050000Y-51090000D03*
X112050000Y-53630000D03*
X112050000Y-56170000D03*
X112050000Y-58710000D03*
X112050000Y-61250000D03*
X112050000Y-63790000D03*
X119670000Y-63790000D03*
X119670000Y-61250000D03*
X119670000Y-58710000D03*
X119670000Y-56170000D03*
X119670000Y-53630000D03*
X119670000Y-51090000D03*
X119670000Y-48550000D03*
%TD*%
%TO.C,R11*%
X192500000Y-117600000D03*
X192500000Y-107440000D03*
%TD*%
D24*
%TO.C,C16*%
X42750000Y-86800000D03*
D25*
X47750000Y-86800000D03*
%TD*%
D13*
%TO.C,R19*%
X80500000Y-92750000D03*
X80500000Y-82590000D03*
%TD*%
D10*
%TO.C,Q9*%
X36450000Y-107650000D03*
D11*
X37720000Y-107650000D03*
X38990000Y-107650000D03*
%TD*%
D10*
%TO.C,Q3*%
X82900000Y-131400000D03*
D11*
X84170000Y-131400000D03*
X85440000Y-131400000D03*
%TD*%
D13*
%TO.C,R46*%
X122500000Y-78500000D03*
X122500000Y-68340000D03*
%TD*%
%TO.C,R1*%
X156500000Y-120800000D03*
X156500000Y-110640000D03*
%TD*%
%TO.C,C14*%
X46500000Y-101850000D03*
X46500000Y-96850000D03*
%TD*%
%TO.C,C19*%
X187500000Y-73350000D03*
X187500000Y-68350000D03*
%TD*%
D16*
%TO.C,J4*%
X88650000Y-38600000D03*
D17*
X92610000Y-38600000D03*
X96570000Y-38600000D03*
X100530000Y-38600000D03*
X104490000Y-38600000D03*
X108450000Y-38600000D03*
X112410000Y-38600000D03*
X116370000Y-38600000D03*
X120330000Y-38600000D03*
X124290000Y-38600000D03*
X128250000Y-38600000D03*
X132210000Y-38600000D03*
X136170000Y-38600000D03*
X140130000Y-38600000D03*
X144090000Y-38600000D03*
%TD*%
D10*
%TO.C,Q1*%
X75450000Y-131400000D03*
D11*
X76720000Y-131400000D03*
X77990000Y-131400000D03*
%TD*%
D21*
%TO.C,D8*%
X150000000Y-55650000D03*
D13*
X150000000Y-48030000D03*
%TD*%
%TO.C,C25*%
X144800000Y-100300000D03*
X144800000Y-95300000D03*
%TD*%
D21*
%TO.C,D4*%
X79750000Y-116550000D03*
D13*
X79750000Y-108930000D03*
%TD*%
%TO.C,R40*%
X163250000Y-100500000D03*
X163250000Y-90340000D03*
%TD*%
D21*
%TO.C,D1*%
X172250000Y-129350000D03*
D13*
X172250000Y-121730000D03*
%TD*%
%TO.C,R7*%
X172500000Y-117600000D03*
X172500000Y-107440000D03*
%TD*%
D26*
%TO.C,H3*%
X196650000Y-149650000D03*
%TD*%
D21*
%TO.C,D5*%
X53750000Y-90250000D03*
D13*
X53750000Y-82630000D03*
%TD*%
%TO.C,R4*%
X184250000Y-103350000D03*
X184250000Y-93190000D03*
%TD*%
%TO.C,C13*%
X41500000Y-101850000D03*
X41500000Y-96850000D03*
%TD*%
D14*
%TO.C,J1*%
X43600000Y-151200000D03*
D15*
X46140000Y-151200000D03*
X48680000Y-151200000D03*
X51220000Y-151200000D03*
X53760000Y-151200000D03*
X56300000Y-151200000D03*
X58840000Y-151200000D03*
X61380000Y-151200000D03*
X63920000Y-151200000D03*
X66460000Y-151200000D03*
X69000000Y-151200000D03*
X71540000Y-151200000D03*
X74080000Y-151200000D03*
X76620000Y-151200000D03*
X79160000Y-151200000D03*
X81700000Y-151200000D03*
X84240000Y-151200000D03*
X86780000Y-151200000D03*
X89320000Y-151200000D03*
%TD*%
D13*
%TO.C,R34*%
X103250000Y-58200000D03*
X103250000Y-48040000D03*
%TD*%
D21*
%TO.C,D9*%
X133250000Y-78500000D03*
D13*
X133250000Y-70880000D03*
%TD*%
%TO.C,R32*%
X51500000Y-78500000D03*
X51500000Y-68340000D03*
%TD*%
%TO.C,R29*%
X156500000Y-78500000D03*
X156500000Y-68340000D03*
%TD*%
D26*
%TO.C,H4*%
X36350000Y-149650000D03*
%TD*%
D22*
%TO.C,RLY1*%
X122550000Y-85350000D03*
D23*
X127630000Y-85350000D03*
X132710000Y-85350000D03*
X137790000Y-85350000D03*
%TD*%
D12*
%TO.C,IC5*%
X151050000Y-90850000D03*
D13*
X151050000Y-93390000D03*
X151050000Y-95930000D03*
X151050000Y-98470000D03*
X151050000Y-101010000D03*
X151050000Y-103550000D03*
X151050000Y-106090000D03*
X158670000Y-106090000D03*
X158670000Y-103550000D03*
X158670000Y-101010000D03*
X158670000Y-98470000D03*
X158670000Y-95930000D03*
X158670000Y-93390000D03*
X158670000Y-90850000D03*
%TD*%
%TO.C,R6*%
X194250000Y-103350000D03*
X194250000Y-93190000D03*
%TD*%
%TO.C,R14*%
X103250000Y-103050000D03*
X103250000Y-92890000D03*
%TD*%
D21*
%TO.C,D11*%
X142250000Y-78500000D03*
D13*
X142250000Y-70880000D03*
%TD*%
%TO.C,C20*%
X192500000Y-73350000D03*
X192500000Y-68350000D03*
%TD*%
D10*
%TO.C,Q10*%
X43900000Y-107650000D03*
D11*
X45170000Y-107650000D03*
X46440000Y-107650000D03*
%TD*%
D13*
%TO.C,R30*%
X161500000Y-78500000D03*
X161500000Y-68340000D03*
%TD*%
%TO.C,R5*%
X189250000Y-103350000D03*
X189250000Y-93190000D03*
%TD*%
%TO.C,R28*%
X168250000Y-58200000D03*
X168250000Y-48040000D03*
%TD*%
%TO.C,C15*%
X51500000Y-101850000D03*
X51500000Y-96850000D03*
%TD*%
%TO.C,C8*%
X80500000Y-125650000D03*
X80500000Y-120650000D03*
%TD*%
%TO.C,R25*%
X36500000Y-78500000D03*
X36500000Y-68340000D03*
%TD*%
%TO.C,C3*%
X156500000Y-129900000D03*
X156500000Y-124900000D03*
%TD*%
D10*
%TO.C,Q5*%
X156450000Y-84300000D03*
D11*
X157720000Y-84300000D03*
X158990000Y-84300000D03*
%TD*%
D10*
%TO.C,Q7*%
X91450000Y-86800000D03*
D11*
X92720000Y-86800000D03*
X93990000Y-86800000D03*
%TD*%
D13*
%TO.C,R38*%
X140250000Y-115600000D03*
X140250000Y-105440000D03*
%TD*%
%TO.C,C12*%
X36500000Y-101850000D03*
X36500000Y-96850000D03*
%TD*%
D12*
%TO.C,IC2*%
X91050000Y-93400000D03*
D13*
X91050000Y-95940000D03*
X91050000Y-98480000D03*
X91050000Y-101020000D03*
X91050000Y-103560000D03*
X91050000Y-106100000D03*
X91050000Y-108640000D03*
X98670000Y-108640000D03*
X98670000Y-106100000D03*
X98670000Y-103560000D03*
X98670000Y-101020000D03*
X98670000Y-98480000D03*
X98670000Y-95940000D03*
X98670000Y-93400000D03*
%TD*%
D21*
%TO.C,D3*%
X75250000Y-116550000D03*
D13*
X75250000Y-108930000D03*
%TD*%
%TO.C,C6*%
X84500000Y-113900000D03*
X84500000Y-108900000D03*
%TD*%
D12*
%TO.C,IC7*%
X91050000Y-48500000D03*
D13*
X91050000Y-51040000D03*
X91050000Y-53580000D03*
X91050000Y-56120000D03*
X91050000Y-58660000D03*
X91050000Y-61200000D03*
X91050000Y-63740000D03*
X91050000Y-66280000D03*
X98670000Y-66280000D03*
X98670000Y-63740000D03*
X98670000Y-61200000D03*
X98670000Y-58660000D03*
X98670000Y-56120000D03*
X98670000Y-53580000D03*
X98670000Y-51040000D03*
X98670000Y-48500000D03*
%TD*%
D14*
%TO.C,J13*%
X114550000Y-151200000D03*
D15*
X117090000Y-151200000D03*
X119630000Y-151200000D03*
X122170000Y-151200000D03*
%TD*%
D13*
%TO.C,R15*%
X85500000Y-78500000D03*
X85500000Y-68340000D03*
%TD*%
D16*
%TO.C,J5*%
X152950000Y-38600000D03*
D17*
X156910000Y-38600000D03*
X160870000Y-38600000D03*
X164830000Y-38600000D03*
X168790000Y-38600000D03*
X172750000Y-38600000D03*
X176710000Y-38600000D03*
X180670000Y-38600000D03*
X184630000Y-38600000D03*
X188590000Y-38600000D03*
%TD*%
D13*
%TO.C,R26*%
X41500000Y-78500000D03*
X41500000Y-68340000D03*
%TD*%
D12*
%TO.C,IC14*%
X174050000Y-69800000D03*
D13*
X174050000Y-72340000D03*
X174050000Y-74880000D03*
X174050000Y-77420000D03*
X174050000Y-79960000D03*
X174050000Y-82500000D03*
X174050000Y-85040000D03*
X174050000Y-87580000D03*
X181670000Y-87580000D03*
X181670000Y-85040000D03*
X181670000Y-82500000D03*
X181670000Y-79960000D03*
X181670000Y-77420000D03*
X181670000Y-74880000D03*
X181670000Y-72340000D03*
X181670000Y-69800000D03*
%TD*%
%TO.C,R18*%
X91500000Y-123350000D03*
X91500000Y-113190000D03*
%TD*%
D10*
%TO.C,Q11*%
X137250000Y-121400000D03*
D11*
X138520000Y-121400000D03*
X139790000Y-121400000D03*
%TD*%
D12*
%TO.C,IC9*%
X156050000Y-48550000D03*
D13*
X156050000Y-51090000D03*
X156050000Y-53630000D03*
X156050000Y-56170000D03*
X156050000Y-58710000D03*
X156050000Y-61250000D03*
X156050000Y-63790000D03*
X163670000Y-63790000D03*
X163670000Y-61250000D03*
X163670000Y-58710000D03*
X163670000Y-56170000D03*
X163670000Y-53630000D03*
X163670000Y-51090000D03*
X163670000Y-48550000D03*
%TD*%
%TO.C,C5*%
X186500000Y-126700000D03*
X186500000Y-121700000D03*
%TD*%
%TO.C,R37*%
X101500000Y-81050000D03*
X101500000Y-70890000D03*
%TD*%
%TO.C,R12*%
X75500000Y-78500000D03*
X75500000Y-68340000D03*
%TD*%
%TO.C,R24*%
X53250000Y-58200000D03*
X53250000Y-48040000D03*
%TD*%
D10*
%TO.C,Q8*%
X98900000Y-86800000D03*
D11*
X100170000Y-86800000D03*
X101440000Y-86800000D03*
%TD*%
D13*
%TO.C,R20*%
X85500000Y-92750000D03*
X85500000Y-82590000D03*
%TD*%
D12*
%TO.C,IC11*%
X174050000Y-48550000D03*
D13*
X174050000Y-51090000D03*
X174050000Y-53630000D03*
X174050000Y-56170000D03*
X174050000Y-58710000D03*
X174050000Y-61250000D03*
X174050000Y-63790000D03*
X181670000Y-63790000D03*
X181670000Y-61250000D03*
X181670000Y-58710000D03*
X181670000Y-56170000D03*
X181670000Y-53630000D03*
X181670000Y-51090000D03*
X181670000Y-48550000D03*
%TD*%
D26*
%TO.C,H1*%
X36350000Y-35850000D03*
%TD*%
%TO.C,H2*%
X196650000Y-35850000D03*
%TD*%
D13*
%TO.C,C7*%
X75500000Y-125650000D03*
X75500000Y-120650000D03*
%TD*%
D12*
%TO.C,IC3*%
X75050000Y-48550000D03*
D13*
X75050000Y-51090000D03*
X75050000Y-53630000D03*
X75050000Y-56170000D03*
X75050000Y-58710000D03*
X75050000Y-61250000D03*
X75050000Y-63790000D03*
X82670000Y-63790000D03*
X82670000Y-61250000D03*
X82670000Y-58710000D03*
X82670000Y-56170000D03*
X82670000Y-53630000D03*
X82670000Y-51090000D03*
X82670000Y-48550000D03*
%TD*%
M02*
